<svg xmlns="http://www.w3.org/2000/svg" width="76.451" height="76.504" viewBox="0 0 76.451 76.504" enable-background="new 0 0 76.451 76.504"><path d="M38.248 0c5.297 0 10.264 .996 14.893 2.993s8.672 4.722 12.158 8.188c3.477 3.462 6.201 7.515 8.184 12.158s2.969 9.614 2.969 14.912c0 5.293-.986 10.264-2.969 14.912-1.982 4.639-4.707 8.691-8.184 12.158-3.486 3.467-7.529 6.191-12.158 8.184-4.629 2.002-9.596 2.998-14.893 2.998-5.299 0-10.27-.996-14.912-2.998-4.645-1.992-8.697-4.717-12.158-8.184-3.463-3.467-6.192-7.52-8.185-12.158-1.997-4.647-2.993-9.618-2.993-14.911 0-5.298 .996-10.269 2.993-14.912 1.993-4.644 4.722-8.696 8.185-12.158 3.461-3.467 7.514-6.191 12.158-8.188 4.643-1.998 9.613-2.994 14.912-2.994zm-26.758 38.252c0 3.73 .703 7.217 2.104 10.439 1.406 3.223 3.311 6.045 5.723 8.467 2.408 2.432 5.234 4.346 8.473 5.752 3.236 1.396 6.729 2.1 10.459 2.1v-53.521c-3.73 0-7.223 .703-10.459 2.104-3.238 1.406-6.064 3.32-8.473 5.747-2.412 2.427-4.316 5.249-5.723 8.472-1.401 3.228-2.104 6.705-2.104 10.44z" fill="#f7f8fa"/></svg>