<svg xmlns="http://www.w3.org/2000/svg" width="88.232" height="73.531" viewBox="0 0 88.232 73.531" enable-background="new 0 0 88.232 73.531"><path d="M0 64.293c0-.977 .361-1.836 1.074-2.539 .723-.703 1.611-1.055 2.656-1.055h80.86c.996 0 1.846 .371 2.559 1.094 .723 .703 1.084 1.543 1.084 2.5v5.508c0 1.055-.361 1.934-1.084 2.656-.713 .723-1.562 1.074-2.559 1.074h-80.86c-1.045 0-1.934-.352-2.656-1.074-.713-.723-1.074-1.602-1.074-2.656v-5.508zm7.373-40.357c0-1.055 .361-1.934 1.084-2.656 .713-.713 1.582-1.074 2.598-1.074h73.535c.996 0 1.846 .361 2.559 1.074 .723 .723 1.084 1.602 1.084 2.656v5.459c0 1.055-.361 1.924-1.084 2.607-.713 .693-1.562 1.035-2.559 1.035h-73.535c-1.045 0-1.924-.342-2.627-1.035-.703-.684-1.055-1.553-1.055-2.607v-5.459zm22.022 20.201c0-1.055 .361-1.939 1.074-2.652 .723-.713 1.602-1.074 2.656-1.074h51.465c.996 0 1.846 .361 2.559 1.074 .723 .713 1.084 1.598 1.084 2.652v5.469c0 1.055-.361 1.934-1.084 2.656-.713 .723-1.562 1.074-2.559 1.074h-51.465c-1.055 0-1.934-.352-2.656-1.074-.713-.723-1.074-1.602-1.074-2.656v-5.469zm55.195-44.137c.996 0 1.846 .361 2.559 1.084 .723 .713 1.084 1.562 1.084 2.559v5.596c0 .996-.361 1.836-1.084 2.539-.713 .703-1.562 1.055-2.559 1.055h-44.082c-1.055 0-1.943-.361-2.656-1.074-.723-.723-1.084-1.553-1.084-2.52v-5.596c0-.996 .361-1.846 1.084-2.559 .712-.723 1.601-1.084 2.656-1.084h44.082z" fill="#f7f8fa"/></svg>