<svg xmlns="http://www.w3.org/2000/svg" width="88.232" height="73.52" viewBox="0 0 88.232 73.52" enable-background="new 0 0 88.232 73.52"><path d="M0 64.281c0-.977 .361-1.836 1.074-2.539 .723-.703 1.611-1.055 2.656-1.055h80.86c.996 0 1.846 .371 2.559 1.094 .723 .703 1.084 1.543 1.084 2.5v5.508c0 1.055-.361 1.934-1.084 2.656-.713 .723-1.562 1.074-2.559 1.074h-80.86c-1.045 0-1.934-.352-2.656-1.074-.713-.722-1.074-1.601-1.074-2.656v-5.508zm3.73-40.355c0-1.045 .352-1.934 1.035-2.656 .684-.713 1.562-1.074 2.607-1.074h73.535c1.055 0 1.924 .361 2.627 1.074 .703 .723 1.055 1.611 1.055 2.656v5.459c0 1.055-.352 1.924-1.074 2.607-.723 .693-1.582 1.035-2.607 1.035h-73.535c-1.045 0-1.924-.342-2.607-1.035-.684-.684-1.035-1.553-1.035-2.607v-5.459zm10.967 20.199c0-1.055 .361-1.934 1.084-2.656 .713-.703 1.602-1.074 2.656-1.074h51.465c.977 0 1.836 .371 2.559 1.074 .713 .723 1.074 1.602 1.074 2.656v5.469c0 1.055-.361 1.934-1.074 2.656-.723 .723-1.582 1.074-2.559 1.074h-51.464c-1.055 0-1.943-.352-2.656-1.074-.723-.723-1.084-1.602-1.084-2.656v-5.469zm51.465-44.125c1.055 0 1.943 .352 2.656 1.074 .713 .713 1.084 1.572 1.084 2.559v5.605c0 .986-.371 1.836-1.084 2.529-.713 .703-1.602 1.055-2.656 1.055h-44.092c-1.055 0-1.924-.361-2.607-1.074-.693-.723-1.025-1.553-1.025-2.51v-5.605c0-.986 .332-1.846 1.025-2.559 .683-.722 1.553-1.074 2.607-1.074h44.092z" fill="#3b73b9"/></svg>