<svg xmlns="http://www.w3.org/2000/svg" width="88.232" height="73.531" viewBox="0 0 88.232 73.531" enable-background="new 0 0 88.232 73.531"><path d="M84.59 0c.996 0 1.846 .361 2.559 1.084 .723 .713 1.084 1.562 1.084 2.558v5.596c0 .996-.361 1.836-1.084 2.539-.713 .703-1.562 1.055-2.559 1.055h-80.86c-1.045 0-1.934-.361-2.656-1.084-.713-.713-1.074-1.553-1.074-2.51v-5.596c0-.996 .361-1.845 1.074-2.558 .723-.723 1.612-1.084 2.656-1.084h80.86zm-84.59 23.936c0-1.055 .361-1.934 1.074-2.656 .723-.723 1.611-1.074 2.656-1.074h80.86c.996 0 1.846 .352 2.559 1.074 .723 .723 1.084 1.602 1.084 2.656v5.459c0 1.055-.361 1.924-1.084 2.607-.713 .684-1.562 1.035-2.559 1.035h-80.86c-1.045 0-1.934-.352-2.656-1.035-.713-.684-1.074-1.553-1.074-2.607v-5.459zm0 20.201c0-1.055 .361-1.934 1.074-2.656 .723-.723 1.611-1.074 2.656-1.074h80.86c.996 0 1.846 .352 2.559 1.074 .723 .723 1.084 1.602 1.084 2.656v5.469c0 1.055-.361 1.934-1.084 2.656-.713 .703-1.562 1.074-2.559 1.074h-80.86c-1.045 0-1.934-.371-2.656-1.074-.713-.723-1.074-1.602-1.074-2.657v-5.468zm0 20.156c0-.977 .361-1.836 1.074-2.539 .723-.703 1.611-1.055 2.656-1.055h80.86c.996 0 1.846 .371 2.559 1.074 .723 .723 1.084 1.562 1.084 2.52v5.508c0 1.055-.361 1.934-1.084 2.656-.713 .723-1.562 1.074-2.559 1.074h-80.86c-1.045 0-1.934-.352-2.656-1.074-.713-.723-1.074-1.602-1.074-2.656v-5.508z" fill="#313337"/></svg>