<svg xmlns="http://www.w3.org/2000/svg" width="88.232" height="73.52" viewBox="0 0 88.232 73.52" enable-background="new 0 0 88.232 73.52"><path d="M47.832 0c.986 0 1.836 .352 2.559 1.074 .723 .713 1.074 1.572 1.074 2.559v5.605c0 .986-.352 1.836-1.074 2.539s-1.572 1.045-2.559 1.045h-44.102c-1.045 0-1.934-.361-2.656-1.074-.713-.713-1.074-1.553-1.074-2.51v-5.605c0-.986 .361-1.846 1.074-2.559 .723-.722 1.612-1.074 2.656-1.074h44.102zm-47.832 23.936c0-1.055 .361-1.943 1.074-2.666 .723-.713 1.611-1.074 2.656-1.074h73.535c.996 0 1.846 .361 2.559 1.074 .723 .723 1.084 1.611 1.084 2.666v5.459c0 1.045-.361 1.914-1.084 2.607-.713 .684-1.562 1.025-2.559 1.025h-73.535c-1.045 0-1.934-.342-2.656-1.025-.713-.693-1.074-1.563-1.074-2.607v-5.459zm0 20.189c0-1.035 .361-1.934 1.074-2.656 .723-.703 1.611-1.074 2.656-1.074h51.465c.996 0 1.846 .371 2.559 1.074 .723 .723 1.084 1.621 1.084 2.656v5.469c0 1.055-.361 1.934-1.084 2.656-.713 .723-1.562 1.074-2.559 1.074h-51.465c-1.045 0-1.934-.352-2.656-1.074-.713-.723-1.074-1.602-1.074-2.656v-5.469zm0 20.156c0-.977 .361-1.836 1.074-2.539 .723-.684 1.611-1.035 2.656-1.035h80.86c.996 0 1.846 .352 2.559 1.074 .723 .703 1.084 1.543 1.084 2.5v5.508c0 1.055-.361 1.953-1.084 2.656-.713 .723-1.562 1.074-2.559 1.074h-80.86c-1.045 0-1.934-.352-2.656-1.074-.713-.703-1.074-1.601-1.074-2.656v-5.508z" fill="#333"/></svg>