<svg xmlns="http://www.w3.org/2000/svg" width="73.633" height="73.531" viewBox="0 0 73.633 73.531" enable-background="new 0 0 73.633 73.531"><path d="M40.02 72.145c-.918 .918-2.012 1.387-3.252 1.387s-2.334-.469-3.252-1.387l-32.129-32.129c-.918-.918-1.387-2.008-1.387-3.248s.469-2.334 1.387-3.252l4.795-4.785c.928-.928 2.002-1.396 3.252-1.396s2.314 .469 3.203 1.396l16.191 16.168v-40.397c0-1.24 .43-2.305 1.309-3.184s1.943-1.318 3.183-1.318h6.895c1.309 0 2.383 .439 3.232 1.318s1.27 1.943 1.27 3.184v40.396l16.279-16.168c.918-.928 1.982-1.396 3.184-1.396 1.191 0 2.256 .469 3.184 1.396l4.883 4.785c.918 .918 1.387 2.012 1.387 3.252s-.469 2.33-1.387 3.248l-32.227 32.13z" fill="#f7f8fa"/></svg>