<svg xmlns="http://www.w3.org/2000/svg" width="73.535" height="73.629" viewBox="0 0 73.535 73.629" enable-background="new 0 0 73.535 73.629"><path d="M72.148 33.613c.918 .914 1.387 1.988 1.387 3.199s-.469 2.285-1.387 3.203l-32.128 32.227c-.918 .918-2.012 1.387-3.252 1.387s-2.334-.469-3.252-1.387l-4.785-4.785c-.928-.918-1.387-2.012-1.387-3.262s.459-2.305 1.387-3.203l16.171-16.172h-40.4c-1.24 0-2.305-.449-3.184-1.328-.869-.879-1.318-1.972-1.318-3.281v-6.891c0-1.24 .449-2.305 1.318-3.184 .879-.879 1.943-1.309 3.184-1.309h40.4l-16.172-16.19c-.928-.918-1.387-1.992-1.387-3.223s.459-2.305 1.387-3.232l4.785-4.795c.919-.918 2.012-1.387 3.253-1.387s2.334 .469 3.252 1.387l32.128 32.226z" fill="#333"/></svg>