<svg xmlns="http://www.w3.org/2000/svg" width="73.576" height="73.531" viewBox="0 0 73.576 73.531" enable-background="new 0 0 73.576 73.531"><path d="M33.557 1.387c.918-.918 2.011-1.387 3.252-1.387s2.334 .469 3.252 1.387l32.129 32.129c.918 .918 1.387 2.002 1.387 3.252 0 1.236-.469 2.33-1.387 3.248l-4.785 4.785c-.928 .938-1.992 1.387-3.184 1.387-1.201 0-2.266-.449-3.184-1.387l-16.279-16.168v40.406c0 1.23-.439 2.305-1.318 3.184s-1.934 1.309-3.184 1.309h-6.895c-1.309 0-2.383-.43-3.223-1.309-.85-.879-1.27-1.953-1.27-3.184v-40.406l-16.19 16.168c-.918 .938-1.992 1.387-3.223 1.387s-2.305-.449-3.232-1.387l-4.794-4.785c-.918-.918-1.396-2.012-1.426-3.248-.039-1.25 .41-2.334 1.338-3.252l32.216-32.129z" fill="#ffffff"/></svg>