<svg xmlns="http://www.w3.org/2000/svg" width="73.535" height="73.629" viewBox="0 0 73.535 73.629" enable-background="new 0 0 73.535 73.629"><path d="M1.387 40.117c-.918-.918-1.387-2.012-1.387-3.252s.469-2.334 1.387-3.252l32.129-32.217c.918-.927 2.011-1.396 3.252-1.396s2.334 .469 3.252 1.396l4.795 4.785c.928 .928 1.387 2.002 1.387 3.232s-.459 2.305-1.387 3.232l-16.182 16.183h40.312c1.309 0 2.402 .43 3.281 1.309 .869 .879 1.309 1.973 1.309 3.281v6.895c0 1.25-.439 2.301-1.309 3.18-.879 .879-1.953 1.328-3.184 1.328h-40.41l16.182 16.172c.928 .918 1.387 2.012 1.387 3.242 0 1.211-.459 2.305-1.387 3.223l-4.795 4.785c-.918 .918-2.012 1.387-3.252 1.387s-2.334-.469-3.252-1.387l-32.128-32.126z" fill="#3b73b9"/></svg>