<svg xmlns="http://www.w3.org/2000/svg" width="68.409" height="73.535" viewBox="0 0 68.409 73.535" enable-background="new 0 0 68.409 73.535"><path d="M66.129 46.006c1.113 .635 1.826 1.543 2.129 2.725s.146 2.334-.459 3.447l-3.438 5.938c-.645 1.123-1.562 1.826-2.783 2.129-1.211 .303-2.373 .156-3.496-.449l-15.85-9.189v18.33c0 1.309-.439 2.402-1.328 3.281-.898 .879-2.002 1.318-3.311 1.318h-6.748c-1.309 0-2.402-.439-3.281-1.318s-1.312-1.943-1.312-3.184v-18.429l-15.895 9.189c-1.117 .635-2.285 .791-3.496 .479-1.215-.322-2.139-1.035-2.777-2.158l-3.448-5.938c-.571-1.113-.718-2.266-.43-3.447s.991-2.09 2.109-2.725l15.987-9.238-15.986-9.238c-1.118-.645-1.836-1.553-2.158-2.734-.317-1.182-.156-2.324 .479-3.447l3.448-5.938c.639-1.113 1.562-1.826 2.777-2.129 1.211-.303 2.379-.146 3.496 .459l15.895 9.189v-18.339c0-1.309 .434-2.393 1.312-3.271s1.973-1.319 3.281-1.319h6.748c1.309 0 2.412 .439 3.311 1.318 .889 .879 1.328 1.934 1.328 3.184v18.428l15.85-9.189c1.123-.576 2.285-.723 3.496-.43 1.221 .283 2.139 .986 2.783 2.1l3.34 5.938c.645 1.123 .82 2.266 .527 3.447-.283 1.182-.986 2.09-2.1 2.734l-15.947 9.238 15.947 9.238z" fill="#313337"/></svg>