<svg xmlns="http://www.w3.org/2000/svg" width="73.535" height="73.611" viewBox="0 0 73.535 73.611" enable-background="new 0 0 73.535 73.611"><path d="M.762 38.922c-.508-.567-.762-1.27-.762-2.11 0-.82 .254-1.523 .762-2.105l31.308-33.838c.45-.576 1.104-.869 1.963-.869 .322 0 .674 .098 1.055 .293 1.123 .449 1.67 1.357 1.67 2.725v67.604c0 1.309-.547 2.207-1.67 2.715-1.182 .527-2.188 .293-3.018-.664l-31.308-33.751zm36.767 0c-.518-.566-.771-1.27-.771-2.109 0-.82 .254-1.523 .771-2.105l31.309-33.839c.449-.576 1.103-.869 1.963-.869 .312 0 .664 .098 1.055 .293 1.113 .449 1.68 1.357 1.68 2.725v67.604c0 1.309-.566 2.207-1.68 2.715-1.182 .527-2.188 .293-3.018-.664l-31.309-33.751z" fill="#313337"/></svg>