<svg xmlns="http://www.w3.org/2000/svg" width="76.451" height="76.494" viewBox="0 0 76.451 76.494" enable-background="new 0 0 76.451 76.494"><path d="M38.248 0c5.297 0 10.264 .996 14.893 2.988s8.672 4.727 12.158 8.184c3.477 3.467 6.201 7.52 8.184 12.168 1.982 4.639 2.969 9.609 2.969 14.912 0 5.293-.986 10.264-2.969 14.912-1.982 4.639-4.707 8.691-8.184 12.158-3.486 3.457-7.529 6.191-12.158 8.184s-9.596 2.988-14.893 2.988c-5.299 0-10.27-.996-14.912-2.988-4.645-1.992-8.697-4.727-12.158-8.184-3.463-3.467-6.192-7.52-8.185-12.158-1.997-4.648-2.993-9.619-2.993-14.912 0-5.303 .996-10.273 2.993-14.912 1.993-4.648 4.722-8.701 8.185-12.168 3.461-3.457 7.514-6.191 12.158-8.184 4.643-1.992 9.613-2.988 14.912-2.988zm0 11.484c-3.73 0-7.223 .703-10.459 2.109-3.238 1.406-6.064 3.32-8.473 5.742-2.412 2.432-4.316 5.254-5.723 8.477-1.4 3.223-2.104 6.699-2.104 10.439 0 2.676 .375 5.234 1.123 7.656 .752 2.422 1.811 4.678 3.184 6.748l36.855-36.855c-2.1-1.377-4.355-2.441-6.768-3.184-2.406-.751-4.955-1.132-7.635-1.132zm0 53.526c3.734 0 7.217-.703 10.439-2.109s6.045-3.32 8.477-5.742c2.422-2.422 4.336-5.254 5.742-8.477s2.109-6.699 2.109-10.43c0-2.686-.381-5.234-1.133-7.666-.742-2.422-1.777-4.668-3.086-6.748l-36.958 36.963c2.109 1.309 4.365 2.334 6.777 3.086 2.408 .742 4.951 1.123 7.633 1.123z" fill="#313337"/></svg>