<svg xmlns="http://www.w3.org/2000/svg" width="88.232" height="73.525" viewBox="0 0 88.232 73.525" enable-background="new 0 0 88.232 73.525"><path d="M82.764 0c1.504 0 2.793 .537 3.867 1.621 1.064 1.084 1.602 2.383 1.602 3.877v62.529c0 1.494-.537 2.793-1.602 3.877-1.074 1.084-2.363 1.621-3.867 1.621h-77.163c-1.499 0-2.808-.537-3.926-1.621s-1.675-2.383-1.675-3.877v-62.529c0-1.494 .557-2.793 1.675-3.877s2.427-1.621 3.926-1.621h77.163zm-1.856 7.363h-73.535v58.789h73.535v-58.789zm-56.494 53.526h-9.717v-17.373h9.717v17.373zm16.274 0h-9.619v-37.149h9.619v37.149zm16.568 0h-9.722v-28.34h9.722v28.34zm16.269 0h-9.707v-44.141h9.707v44.141z" fill="#f7f8fa"/></svg>