<svg xmlns="http://www.w3.org/2000/svg" width="88.232" height="73.535" viewBox="0 0 88.232 73.535" enable-background="new 0 0 88.232 73.535"><path d="M7.373 73.535h-7.373v-73.535h7.373v73.535zm5.264 0h-1.772v-73.535h1.772v73.535zm10.005 0h-5.601v-73.535h5.601v73.535zm7.182 0h-3.735v-73.535h3.735v73.535zm8.042 0h-3.638v-73.535h3.638v73.535zm7.134 0h-1.772v-73.535h1.772v73.535zm10.869 0h-7.329v-73.535h7.329v73.535zm6.27 0h-3.691v-73.535h3.691v73.535zm7.177 0h-1.865v-73.535h1.865v73.535zm8.047 0h-1.768v-73.535h1.768v73.535zm10.869 0h-7.324v-73.535h7.324v73.535z" fill="#ffffff"/></svg>