<svg xmlns="http://www.w3.org/2000/svg" width="73.69" height="73.535" viewBox="0 0 73.69 73.535" enable-background="new 0 0 73.69 73.535"><path d="M72.528 63.34c1.426 2.236 1.543 4.482 .332 6.748-.576 1.113-1.387 1.973-2.441 2.559-1.055 .596-2.168 .889-3.359 .889h-60.413c-1.182 0-2.29-.293-3.325-.889-1.04-.586-1.86-1.445-2.466-2.559-1.245-2.295-1.133-4.551 .332-6.748l24.704-38.447v-17.52h-3.73c-1.055 0-1.924-.361-2.613-1.074-.684-.723-1.029-1.602-1.029-2.656 0-.996 .346-1.846 1.029-2.559 .689-.723 1.558-1.084 2.613-1.084h29.39c1.055 0 1.934 .361 2.656 1.084 .723 .713 1.074 1.562 1.074 2.559 0 1.055-.352 1.934-1.074 2.656-.723 .713-1.602 1.074-2.656 1.074h-3.633v17.617l24.609 38.35zm-54.389-12.735h37.437l-14.986-23.457v-19.775h-7.373v19.678l-15.078 23.554z" fill="#333"/></svg>