<svg xmlns="http://www.w3.org/2000/svg" width="84.209" height="76.504" viewBox="0 0 84.209 76.504" enable-background="new 0 0 84.209 76.504"><path d="M66.592 19.531c.195 3.867 .625 7.686 1.309 11.465 .693 3.779 1.699 7.412 3.047 10.869 1.338 3.467 3.086 6.719 5.234 9.766 2.168 3.047 4.834 5.781 8.027 8.213-.137 2.236-1.025 4.062-2.686 5.479-1.65 1.426-3.574 2.129-5.742 2.129h-22.451c-.576 2.617-1.895 4.785-3.95 6.484-2.061 1.709-4.463 2.568-7.207 2.568s-5.161-.859-7.251-2.568c-2.09-1.699-3.438-3.867-4.043-6.484h-22.456c-2.168 0-4.082-.713-5.742-2.148s-2.554-3.263-2.681-5.46c3.32-2.49 6.064-5.244 8.232-8.262 2.173-3.018 3.911-6.221 5.22-9.619s2.266-6.973 2.871-10.723 1.055-7.588 1.343-11.514c.19-2.686 1.084-5.225 2.681-7.617 1.592-2.393 3.604-4.482 6.03-6.27s5.024-3.203 7.803-4.258 5.439-1.581 7.993-1.581c2.363 0 4.966 .527 7.803 1.582 2.847 1.055 5.483 2.461 7.925 4.209 2.441 1.758 4.502 3.818 6.172 6.182 1.679 2.353 2.519 4.882 2.519 7.558zm6.269 40.313c-2.49-2.744-4.551-5.674-6.201-8.789-1.641-3.105-2.979-6.328-4.014-9.668-1.045-3.33-1.836-6.748-2.402-10.244-.557-3.496-.957-7.041-1.221-10.654-.127-1.748-.781-3.408-1.963-4.98-1.172-1.562-2.598-2.93-4.258-4.111s-3.438-2.1-5.337-2.754-3.662-.977-5.293-.977c-1.499 0-3.213 .342-5.146 1.025-1.929 .684-3.75 1.592-5.454 2.705-1.709 1.113-3.169 2.441-4.38 3.975-1.216 1.533-1.851 3.105-1.919 4.736-.19 3.545-.566 7.09-1.123 10.654-.557 3.555-1.372 7.031-2.441 10.43-1.069 3.408-2.456 6.67-4.165 9.814s-3.76 6.094-6.152 8.838h61.469zm-30.688 13.213c.576 0 .864-.322 .864-.957 0-.645-.288-.977-.864-1.006-1.689 0-3.14-.596-4.355-1.777-1.211-1.182-1.816-2.607-1.816-4.307 0-.635-.308-.957-.913-.957-.635 0-.957 .322-.957 .957 0 2.236 .781 4.141 2.349 5.703 1.561 1.562 3.46 2.344 5.692 2.344z" fill="#333"/></svg>