<svg xmlns="http://www.w3.org/2000/svg" width="67.93" height="73.52" viewBox="0 0 67.93 73.52" enable-background="new 0 0 67.93 73.52"><path d="M0 73.52l.088-4.492c.869-.195 1.953-.391 3.262-.566 1.24-.195 2.354-.41 3.32-.645 .977-.254 1.865-.527 2.666-.84 .254-.449 .459-.879 .615-1.27 .166-.41 .273-.801 .342-1.172 .186-1.055 .312-2.344 .381-3.887 .059-1.523 .098-3.32 .098-5.352l-.098-23.852c-.068-1.24-.117-3.457-.146-6.65s-.107-7.432-.234-12.734c-.138-2.802-.323-4.55-.577-5.214-.127-.254-.342-.42-.625-.479-.635-.449-1.738-.703-3.301-.771-.732 0-2.568-.205-5.508-.615l-.195-4.024 12.549-.293 18.33-.566h2.158c.254-.069 .498-.098 .742-.098h.645s.537 .01 1.025 .049c.498 .029 1.133 .049 1.895 .049h3.643c2.93 0 6.016 .43 9.238 1.289 .576 .127 1.25 .332 2.031 .625 .781 .283 1.641 .703 2.559 1.24 2.012 .986 3.672 2.188 4.98 3.594 1.436 1.494 2.49 3.174 3.164 5.029 .312 .918 .557 1.855 .713 2.793 .166 .947 .244 1.943 .244 2.998 0 2.295-.518 4.355-1.533 6.172-.986 1.816-2.51 3.477-4.551 4.98-.508 .381-1.367 .869-2.588 1.455l-4.639 2.275c5.684 1.309 9.961 3.627 12.832 6.947 2.93 3.32 4.404 7.09 4.404 11.289 0 2.305-.449 4.883-1.348 7.754-.732 2.109-1.875 3.965-3.438 5.566-2.109 2.285-4.365 4.023-6.758 5.215-2.49 1.113-5.762 2.051-9.814 2.812-2.227 .391-5.41 .566-9.521 .527l-9.531-.234c-2.012-.059-4.209-.02-6.602 .117-2.393 .156-5 .312-7.803 .508-.801 .059-2.285 .137-4.453 .195s-5.057 .158-8.661 .276zm26.084-42.553c.801 .137 1.641 .225 2.52 .293 .879 .059 1.787 .098 2.754 .098 5.615 0 9.873-1.045 12.773-3.115 2.871-2.109 4.316-5.693 4.316-10.771 0-3.604-1.377-6.592-4.121-8.955-2.686-2.422-6.797-3.633-12.354-3.633-1.689 0-3.779 .234-6.27 .713 0 .381 .02 .889 .049 1.514 .029 .615 .078 1.328 .146 2.129 .059 1.621 .127 3.535 .186 5.723 .068 2.188 .068 4.707 0 7.588v8.416zm.195 33.666c0 .508 .156 1.191 .479 2.051 2.363 1.055 4.609 1.562 6.748 1.523 4.18 0 7.695-.645 10.537-1.953 2.607-1.25 4.561-3.027 5.84-5.371 .566-1.172 1.025-2.48 1.357-3.926 .342-1.426 .508-3.027 .508-4.785 0-3.594-.684-6.484-2.061-8.652-1.885-3.008-4.131-5-6.748-5.996-2.559-1.055-6.543-1.562-11.973-1.523-1.182 0-2.158 .039-2.939 .137s-1.426 .215-1.943 .332v15.175l.195 12.988z" fill="#ffffff"/></svg>