<svg xmlns="http://www.w3.org/2000/svg" width="44.717" height="90" viewBox="0 0 44.717 90" enable-background="new 0 0 44.717 90"><path d="M42.559 22.93c.576 0 1.074 .215 1.504 .645 .439 .43 .654 .967 .654 1.611 0 .381-.039 .684-.098 .908l-27.051 62.52c-.322 .927-1.006 1.386-2.06 1.386-.571 0-1.099-.215-1.577-.645s-.718-.967-.718-1.611c0-.186 .044-.352 .142-.469l9.766-43.76c-.381 .127-1.147 .361-2.3 .693-1.147 .332-2.456 .693-3.921 1.074-1.47 .391-3.018 .811-4.644 1.27-1.631 .469-3.145 .898-4.551 1.299s-2.617 .703-3.638 .928-1.626 .332-1.821 .332c-.635 0-1.172-.225-1.602-.684-.429-.468-.644-.986-.644-1.562 0-.254 .029-.41 .093-.479l10.005-44.618c.127-.508 .391-.928 .791-1.27 .4-.332 .854-.498 1.367-.498h16.465c.576 0 1.074 .215 1.504 .645s.645 .967 .645 1.602c0 .195-.01 .352-.039 .479l-.146 .527-8.62 25.087c.386-.127 1.133-.342 2.251-.645l3.877-1.035c1.465-.381 2.988-.801 4.551-1.26 1.562-.469 3.047-.879 4.453-1.23 1.406-.342 2.598-.645 3.594-.879 .977-.244 1.572-.361 1.768-.361z" fill="#3b73b9"/></svg>