<svg xmlns="http://www.w3.org/2000/svg" width="81.895" height="73.561" viewBox="0 0 81.895 73.561" enable-background="new 0 0 81.895 73.561"><path d="M77.701 14.73c1.309 .449 2.285 1.133 2.91 2.051 1.309 1.699 1.621 3.762 .918 6.184l-13.555 43.32c-.566 2.109-1.807 3.848-3.711 5.225-1.895 1.367-3.926 2.051-6.094 2.051h-45.293c-1.309 0-2.578-.225-3.805-.693-1.23-.459-2.402-1.084-3.52-1.865-1.119-.781-2.1-1.709-2.945-2.773-.845-1.074-1.509-2.227-1.987-3.477-.796-2.168-.825-4.189-.093-6.074l.19-1.504c.063-.498 .127-1.055 .19-1.66 0-.312-.063-.645-.19-.977s-.161-.664-.098-.986c.063-.508 .312-1.006 .742-1.504 .435-.498 .84-1.064 1.221-1.699 .737-1.182 1.46-2.627 2.183-4.336 .718-1.709 1.236-3.184 1.552-4.424 .127-.508 .113-.996-.049-1.465-.156-.459-.176-.879-.043-1.27 .127-.508 .391-.947 .785-1.309 .4-.371 .729-.742 .982-1.133 .322-.566 .664-1.24 1.029-2.012 .367-.762 .709-1.553 1.031-2.363 .316-.82 .576-1.611 .766-2.393 .191-.781 .318-1.426 .381-1.943 .064-.508 .035-1.035-.092-1.582-.133-.537-.133-.996 0-1.387 .189-.508 .518-.928 .98-1.27 .459-.332 .85-.723 1.172-1.172 .318-.381 .66-.928 1.031-1.65 .365-.713 .732-1.506 1.098-2.375 .367-.859 .68-1.699 .934-2.51s.414-1.533 .479-2.178c.062-.381 0-.771-.191-1.172-.189-.4-.225-.84-.098-1.318 .127-.439 .426-.918 .889-1.416 .465-.488 .885-.996 1.27-1.504 .508-.801 .963-1.729 1.363-2.803 .4-1.064 .879-2.04 1.436-2.919 .557-.869 1.293-1.562 2.201-2.051 .908-.498 2.148-.527 3.711-.078l-.098 .195c.992-.322 1.852-.479 2.588-.479h37.34c2.49 0 4.395 .908 5.703 2.725 1.309 1.698 1.592 3.749 .859 6.181l-13.553 43.373c-.566 2.012-1.807 3.721-3.711 5.117-1.895 1.406-3.916 2.109-6.055 2.109h-42.749c-.316 0-.645 .039-.98 .098-.332 .059-.631 .254-.885 .576-.381 .635-.381 1.533 0 2.676 .513 1.377 1.47 2.578 2.87 3.613 1.406 1.045 2.793 1.562 4.166 1.562h45.293c.918 0 1.836-.342 2.754-1.035 .898-.684 1.504-1.436 1.797-2.275l14.785-47.248c.127-.508 .215-.977 .234-1.406 .04-.44 .02-.889-.038-1.368zm-53.717 12.834c-.316 1.24 .098 1.865 1.246 1.865h29.443c.508 0 .996-.176 1.455-.527s.762-.801 .889-1.338l1.152-3.594c.117-.508 .078-.947-.146-1.318-.225-.361-.596-.547-1.104-.547h-29.439c-.512 0-1.016 .176-1.508 .527-.498 .352-.807 .791-.934 1.338l-1.054 3.594zm3.301-10.968c-.127 .508-.068 .928 .172 1.27 .238 .332 .609 .498 1.123 .498h29.395c.508 0 .996-.166 1.465-.498 .459-.342 .801-.762 1.025-1.27l1.045-3.74c.137-.508 .088-.947-.137-1.309-.225-.371-.605-.557-1.152-.557h-29.391c-.512 0-.996 .186-1.459 .557-.465 .361-.791 .801-.982 1.309l-1.104 3.74z" fill="#3b73b9"/></svg>