<svg xmlns="http://www.w3.org/2000/svg" width="59.98" height="75.02" viewBox="0 0 59.98 75.02" enable-background="new 0 0 59.98 75.02"><path d="M54.531 0c1.494 0 2.773 .547 3.848 1.631s1.602 2.383 1.602 3.877v64.004c0 1.504-.527 2.793-1.602 3.877s-2.354 1.631-3.848 1.631c-1.504 0-2.783-.527-3.838-1.582l-20.678-20.674-20.679 20.674c-1.055 1.055-2.334 1.582-3.833 1.582s-2.793-.547-3.877-1.631-1.626-2.373-1.626-3.877v-64.004c0-1.494 .542-2.793 1.626-3.877s2.378-1.631 3.877-1.631h49.028zm-46.968 7.471v57.158l22.452-22.549 22.446 22.549v-57.158h-44.898z" fill="#f7f8fa"/></svg>