<svg xmlns="http://www.w3.org/2000/svg" width="59.98" height="75.01" viewBox="0 0 59.98 75.01" enable-background="new 0 0 59.98 75.01"><path d="M9.336 73.428c-1.055 1.055-2.334 1.582-3.833 1.582s-2.793-.537-3.877-1.621c-1.084-1.094-1.626-2.383-1.626-3.887v-64.004c0-1.494 .542-2.793 1.626-3.877s2.378-1.621 3.877-1.621h49.028c1.494 0 2.773 .537 3.848 1.621s1.602 2.383 1.602 3.877v64.004c0 1.504-.527 2.793-1.602 3.887-1.074 1.084-2.354 1.621-3.848 1.621-1.504 0-2.783-.527-3.838-1.582l-20.678-20.674-20.679 20.674z" fill="#333"/></svg>