<svg xmlns="http://www.w3.org/2000/svg" width="88.232" height="73.535" viewBox="0 0 88.232 73.535" enable-background="new 0 0 88.232 73.535"><path d="M0 37.969v-17.764c0-1.494 .542-2.793 1.626-3.877s2.378-1.631 3.877-1.631h20.298v-11.054c0-.986 .342-1.846 1.03-2.559 .689-.723 1.538-1.084 2.564-1.084h29.443c1.055 0 1.934 .361 2.656 1.084 .713 .713 1.074 1.572 1.074 2.559v11.055h20.195c1.504 0 2.793 .547 3.867 1.631 1.064 1.084 1.602 2.383 1.602 3.877v17.764h-88.232zm88.232 5.547v24.512c0 1.504-.537 2.793-1.602 3.877-1.074 1.084-2.363 1.631-3.867 1.631h-77.26c-1.499 0-2.793-.547-3.877-1.631s-1.626-2.374-1.626-3.878v-24.511h34.131c-.063 .195-.093 .498-.093 .918v7.324c0 1.748 .61 3.271 1.841 4.57 1.23 1.289 2.769 1.934 4.619 1.934h7.324c1.758 0 3.267-.635 4.531-1.914 1.25-1.27 1.885-2.803 1.885-4.59v-7.324c0-.391-.049-.693-.146-.918h34.14zm-55.107-28.819h22.07v-7.324h-22.07v7.324zm14.697 28.819c.576 0 .879 .312 .913 .918v7.324c0 .566-.308 .869-.913 .908h-7.324c-.64 0-.972-.303-1.006-.908v-7.324c0-.576 .337-.879 1.006-.918h7.324z" fill="#3b73b9"/></svg>