<svg xmlns="http://www.w3.org/2000/svg" width="88.232" height="73.514" viewBox="0 0 88.232 73.514" enable-background="new 0 0 88.232 73.514"><path d="M88.232 31.982c0 1.689-.527 3.174-1.562 4.453s-2.334 2.1-3.906 2.49v17.656c0 2.012-.723 3.74-2.168 5.176-1.455 1.436-3.184 2.148-5.195 2.148-2.168-2.168-4.785-4.268-7.852-6.318-3.066-2.041-6.367-3.916-9.883-5.625-3.535-1.699-7.163-3.164-10.894-4.375-3.735-1.211-7.358-2.012-10.869-2.393-1.372 .381-2.49 1.016-3.35 1.914-.864 .898-1.455 1.895-1.772 2.988-.317 1.104-.352 2.227-.098 3.379 .259 1.152 .845 2.188 1.772 3.105-.796 1.309-1.167 2.52-1.099 3.623 .063 1.094 .391 2.158 .981 3.184 .586 1.016 1.377 2.002 2.368 2.939 .986 .938 2.041 1.875 3.159 2.803-.64 1.377-1.748 2.412-3.325 3.135-1.582 .723-3.271 1.123-5.078 1.221-1.802 .098-3.564-.068-5.288-.498-1.724-.439-3.081-1.133-4.067-2.09-.576-1.943-1.216-3.936-1.919-5.986-.698-2.041-1.274-4.121-1.719-6.24-.449-2.129-.674-4.326-.674-6.611 0-2.275 .386-4.697 1.152-7.256h-9.573c-2.012 0-3.745-.713-5.195-2.148-1.455-1.435-2.178-3.174-2.178-5.215v-10.966c0-2.012 .718-3.74 2.153-5.195s3.174-2.178 5.22-2.178h23.887c3.672 0 7.578-.537 11.729-1.602 4.15-1.074 8.218-2.51 12.207-4.307 3.994-1.807 7.744-3.848 11.279-6.133 3.515-2.275 6.504-4.628 8.925-7.06 2.012 0 3.74 .723 5.195 2.158 1.445 1.436 2.168 3.174 2.168 5.215v17.617c1.572 .381 2.871 1.221 3.906 2.51 1.036 1.299 1.563 2.793 1.563 4.482zm-12.832-22.265c-2.422 1.885-5.078 3.701-7.949 5.439s-5.918 3.311-9.121 4.707c-3.203 1.406-6.484 2.646-9.814 3.711-3.335 1.074-6.626 1.846-9.883 2.324v12.158c3.257 .518 6.548 1.299 9.883 2.354 3.33 1.045 6.611 2.295 9.814 3.73s6.27 3.018 9.17 4.736c2.9 1.729 5.537 3.516 7.9 5.361v-44.52z" fill="#3b73b9"/></svg>