<svg xmlns="http://www.w3.org/2000/svg" width="75.016" height="75.016" viewBox="0 0 75.016 75.016" enable-background="new 0 0 75.016 75.016"><path d="M69.41 8.965c1.504 0 2.812 .547 3.926 1.641 1.123 1.113 1.68 2.402 1.68 3.906v54.898c0 1.504-.557 2.812-1.68 3.926-1.113 1.113-2.422 1.68-3.926 1.68h-63.808c-1.5 0-2.809-.566-3.927-1.68s-1.675-2.422-1.675-3.926v-54.898c0-1.504 .557-2.793 1.675-3.906 1.118-1.094 2.427-1.641 3.927-1.641h1.865v-.625c0-.996 .16-1.992 .479-2.988 .322-1.016 .84-1.914 1.557-2.695 .719-.781 1.666-1.406 2.848-1.914 1.18-.489 2.616-.743 4.309-.743 1.689 0 3.125 .254 4.307 .742 1.182 .508 2.129 1.133 2.848 1.914 .717 .781 1.244 1.699 1.582 2.715 .336 1.016 .502 2.012 .502 2.969v.625h2.344v-.625c0-.996 .162-1.992 .479-2.988 .322-1.016 .84-1.914 1.559-2.695 .717-.781 1.664-1.406 2.846-1.914 1.18-.489 2.615-.743 4.311-.743 1.689 0 3.125 .254 4.307 .742 1.182 .508 2.148 1.133 2.895 1.914 .748 .781 1.295 1.699 1.627 2.715s.508 2.012 .508 2.969v.625h2.344v-.625c0-.996 .166-1.992 .508-2.988 .332-1.016 .859-1.914 1.572-2.695 .723-.781 1.66-1.406 2.822-1.914 1.17-.489 2.616-.743 4.334-.743 1.699 0 3.125 .254 4.316 .742 1.172 .508 2.129 1.133 2.842 1.914s1.24 1.699 1.553 2.715c.322 1.016 .488 2.012 .488 2.969v.625h1.856zm-48.346 18.711h-13.5v12.066h13.5v-12.066zm0 13.922h-13.5v12.07h13.5v-12.07zm0 13.886h-13.5v11.973h13.5v-11.973zm-8.041-36.226c0 1.816 1.211 2.715 3.637 2.715 2.422 0 3.639-.898 3.639-2.715v-10.918c0-1.816-1.217-2.734-3.639-2.734-2.426 0-3.637 .918-3.637 2.734v10.918zm23.549 8.418h-13.642v12.066h13.643v-12.066zm0 13.922h-13.642v12.07h13.643v-12.07zm0 13.886h-13.642v11.973h13.643v-11.973zm-2.631-36.226c0 .977 .254 1.68 .766 2.09 .508 .43 1.422 .625 2.73 .625s2.24-.215 2.797-.645c.562-.43 .84-1.113 .84-2.07v-10.918c0-.938-.277-1.621-.84-2.07-.557-.449-1.488-.664-2.797-.664s-2.223 .234-2.73 .703c-.512 .449-.766 1.133-.766 2.031v10.918zm18.096 8.418h-13.594v12.066h13.594v-12.066zm0 13.922h-13.594v12.07h13.594v-12.07zm0 13.886h-13.594v11.973h13.594v-11.973zm15.42-27.808h-13.555v12.066h13.555v-12.066zm0 13.922h-13.555v12.07h13.555v-12.07zm0 13.886h-13.555v11.973h13.555v-11.973zm-12.734-36.226c0 1.816 1.211 2.715 3.633 2.715s3.623-.898 3.594-2.715v-10.918c0-1.816-1.201-2.734-3.594-2.734-2.422 0-3.633 .918-3.633 2.734v10.918z" fill="#313337"/></svg>