<svg xmlns="http://www.w3.org/2000/svg" width="88.232" height="73.52" viewBox="0 0 88.232 73.52" enable-background="new 0 0 88.232 73.52"><path d="M82.764 10.967c1.504 0 2.793 .557 3.867 1.67 1.064 1.123 1.602 2.432 1.602 3.926v51.469c0 1.484-.537 2.793-1.602 3.867-1.074 1.094-2.363 1.621-3.867 1.621h-77.261c-1.499 0-2.793-.527-3.877-1.621-1.084-1.075-1.626-2.383-1.626-3.868v-51.469c0-1.494 .542-2.803 1.626-3.926 1.084-1.113 2.378-1.67 3.877-1.67h17.524l2.773-5.996c.576-1.367 1.631-2.539 3.159-3.516 1.534-.966 3.053-1.454 4.552-1.454h21.206c1.504 0 3.018 .488 4.551 1.455 1.523 .977 2.598 2.148 3.203 3.516l2.734 5.996h17.559zm-38.628 54.33c3.13 0 6.099-.605 8.901-1.816 2.812-1.211 5.254-2.871 7.305-4.961 2.061-2.09 3.691-4.531 4.902-7.305s1.826-5.762 1.826-8.945c0-3.125-.615-6.113-1.826-8.93-1.211-2.822-2.842-5.264-4.902-7.324-2.051-2.061-4.492-3.691-7.305-4.912-2.803-1.211-5.771-1.816-8.901-1.816-3.125 0-6.104 .605-8.926 1.816-2.827 1.221-5.269 2.852-7.324 4.912-2.061 2.061-3.696 4.492-4.907 7.305-1.216 2.797-1.821 5.785-1.821 8.949 0 3.184 .605 6.172 1.821 8.945 1.211 2.773 2.847 5.215 4.907 7.305 2.056 2.09 4.497 3.75 7.324 4.961 2.822 1.21 5.801 1.816 8.926 1.816zm0-38.637c2.173 0 4.199 .41 6.084 1.221 1.88 .82 3.521 1.924 4.927 3.33s2.52 3.057 3.33 4.945c.811 1.914 1.221 3.945 1.221 6.113s-.41 4.199-1.221 6.074c-.811 1.895-1.924 3.555-3.33 4.98-1.406 1.445-3.057 2.559-4.951 3.379-1.899 .82-3.921 1.211-6.06 1.211-2.168 0-4.204-.391-6.104-1.211s-3.55-1.934-4.951-3.379c-1.406-1.426-2.515-3.105-3.33-5-.811-1.895-1.221-3.926-1.221-6.055 0-2.168 .41-4.199 1.221-6.113 .815-1.889 1.924-3.539 3.33-4.945 1.401-1.406 3.052-2.51 4.951-3.33 1.9-.81 3.936-1.22 6.104-1.22z" fill="#3b73b9"/></svg>