<svg xmlns="http://www.w3.org/2000/svg" width="88.232" height="73.531" viewBox="0 0 88.232 73.531" enable-background="new 0 0 88.232 73.531"><path d="M82.764 0c1.504 0 2.793 .547 3.867 1.641 1.064 1.074 1.602 2.373 1.602 3.867v62.516c0 1.504-.537 2.793-1.602 3.887-1.074 1.094-2.363 1.621-3.867 1.621h-77.261c-1.499 0-2.793-.527-3.877-1.621s-1.626-2.384-1.626-3.888v-62.515c0-1.494 .542-2.793 1.626-3.867 1.084-1.094 2.378-1.641 3.877-1.641h77.261zm-1.856 7.666h-45.82l-.669 4.404h-27.046v6.66h73.535v-11.064zm0 52.76h-73.535v5.449h73.535v-5.449zm-68.174-51.09h15.127v-4.453h-15.127v4.453zm13.931 30.269c0 2.422 .454 4.688 1.362 6.816 .913 2.109 2.153 3.965 3.735 5.547s3.433 2.832 5.552 3.73c2.124 .918 4.399 1.367 6.821 1.367 2.427 0 4.692-.449 6.802-1.367 2.1-.898 3.945-2.148 5.527-3.73s2.822-3.438 3.74-5.547c.898-2.129 1.357-4.395 1.357-6.816 0-2.441-.459-4.703-1.357-6.832-.918-2.119-2.158-3.965-3.74-5.527s-3.428-2.803-5.552-3.711-4.38-1.367-6.777-1.367c-2.422 0-4.697 .459-6.821 1.367-2.119 .908-3.97 2.148-5.552 3.711s-2.822 3.408-3.735 5.527c-.908 2.129-1.362 4.391-1.362 6.832zm29.399 0c0 1.621-.312 3.184-.918 4.648-.605 1.484-1.445 2.773-2.539 3.848-1.084 1.055-2.358 1.914-3.828 2.52-1.465 .625-3.013 .938-4.644 .938-1.626 0-3.184-.312-4.668-.938-1.479-.605-2.759-1.465-3.828-2.52-1.069-1.074-1.914-2.344-2.539-3.809-.62-1.465-.933-3.027-.933-4.688 0-1.641 .312-3.18 .933-4.654 .625-1.465 1.47-2.744 2.539-3.828s2.339-1.924 3.809-2.539c1.465-.605 3.027-.908 4.688-.908 1.631 0 3.179 .303 4.644 .908 1.47 .615 2.744 1.455 3.828 2.539 1.094 1.084 1.934 2.363 2.539 3.828 .605 1.476 .917 3.015 .917 4.655zm-16.474 0c0-1.309 .444-2.402 1.338-3.238 .894-.85 1.963-1.27 3.208-1.27v-.097c.576 0 1.064-.195 1.46-.576 .4-.381 .601-.84 .601-1.387 0-.576-.2-1.064-.601-1.455-.396-.4-.884-.605-1.46-.605-2.358 0-4.38 .859-6.055 2.559-1.675 1.719-2.515 3.727-2.515 6.07 0 .508 .2 .957 .601 1.348 .4 .41 .854 .605 1.362 .605 .576 0 1.064-.195 1.46-.605 .401-.392 .601-.841 .601-1.349z" fill="#3b73b9"/></svg>