<svg xmlns="http://www.w3.org/2000/svg" width="33.125" height="58.842" viewBox="0 0 33.125 58.842" enable-background="new 0 0 33.125 58.842"><path d="M30.781 58.529c-.732 .312-1.436 .391-2.109 .234-.664-.156-1.27-.488-1.816-.996l-25.752-25.804c-.733-.733-1.104-1.582-1.104-2.539 0-1.055 .371-1.924 1.104-2.627l25.751-25.713c.508-.508 1.123-.85 1.816-1.006 .704-.156 1.407-.078 2.11 .234 .732 .264 1.309 .703 1.729 1.328 .41 .615 .615 1.279 .615 1.982v51.508c0 .801-.205 1.484-.615 2.051-.42 .587-.996 1.036-1.729 1.348z" fill="#313337"/></svg>