<svg xmlns="http://www.w3.org/2000/svg" width="76.453" height="76.488" viewBox="0 0 76.453 76.488" enable-background="new 0 0 76.453 76.488"><path d="M75.396 44.906c.732 .723 1.084 1.621 1.055 2.676 0 .801-.254 1.523-.771 2.148-.508 .645-1.152 1.055-1.953 1.25l-9.297 2.344c.195 .586 .439 1.348 .723 2.305 .293 .957 .586 1.934 .889 2.91 .303 .996 .566 1.953 .791 2.852 .215 .918 .332 1.66 .332 2.227 0 .918-.342 1.758-1.035 2.461-.684 .723-1.523 1.074-2.5 1.074-.586 0-1.328-.098-2.256-.332-.928-.215-1.875-.488-2.852-.781-.967-.312-1.924-.605-2.871-.879-.947-.293-1.709-.527-2.314-.723l-2.354 9.277c-.186 .801-.615 1.465-1.26 1.992-.664 .527-1.387 .781-2.188 .781-1.055 0-1.934-.352-2.633-1.094l-6.654-6.836-6.797 6.836c-.572 .742-1.422 1.094-2.535 1.094-.801 0-1.518-.254-2.158-.781-.635-.527-1.068-1.191-1.289-1.992l-2.348-9.277c-.572 .195-1.334 .43-2.271 .723-.941 .273-1.908 .566-2.9 .879-.986 .293-1.938 .566-2.846 .781-.908 .234-1.67 .332-2.275 .332-.986 0-1.816-.352-2.486-1.074-.674-.703-1.006-1.543-1.006-2.461 0-.566 .107-1.309 .332-2.227 .225-.898 .479-1.855 .768-2.852 .287-.977 .58-1.953 .883-2.891 .309-.938 .553-1.719 .742-2.324l-9.333-2.344c-.801-.195-1.455-.605-1.963-1.27-.512-.644-.766-1.366-.766-2.128 0-1.055 .366-1.953 1.099-2.676l6.847-6.664-6.847-6.65c-.733-.733-1.099-1.631-1.099-2.686 0-.791 .264-1.514 .791-2.148 .522-.645 1.172-1.055 1.938-1.25l9.331-2.344c-.189-.566-.434-1.338-.742-2.295-.303-.957-.596-1.934-.883-2.92-.289-.996-.543-1.943-.768-2.852s-.332-1.65-.332-2.227c0-.986 .342-1.826 1.025-2.51 .689-.693 1.51-1.025 2.467-1.025 .576 0 1.322 .107 2.25 .332s1.885 .488 2.871 .781c.992 .312 1.959 .605 2.9 .898 .938 .283 1.699 .518 2.271 .713l2.348-9.287c.191-.801 .621-1.465 1.289-1.992 .676-.526 1.394-.78 2.16-.78 1.113 0 1.963 .361 2.535 1.094l6.797 6.846 6.654-6.846c.739-.733 1.578-1.094 2.536-1.094 .859 0 1.621 .244 2.285 .742 .645 .488 1.074 1.172 1.26 2.031l2.354 9.287c.566-.195 1.328-.43 2.285-.713 .957-.293 1.934-.586 2.9-.898 .977-.293 1.924-.557 2.852-.781s1.67-.332 2.256-.332c.918 0 1.738 .332 2.461 1.025 .723 .684 1.074 1.523 1.074 2.51 0 .576-.117 1.318-.332 2.227-.225 .908-.488 1.855-.791 2.852-.303 .986-.596 1.953-.889 2.891-.283 .947-.527 1.719-.723 2.324l9.297 2.344c.801 .195 1.445 .625 1.953 1.27 .518 .664 .771 1.367 .771 2.129 0 1.055-.352 1.953-1.055 2.686l-6.943 6.65 6.943 6.662z" fill="#ffffff"/></svg>