<svg xmlns="http://www.w3.org/2000/svg" width="88.253" height="73.52" viewBox="0 0 88.253 73.52" enable-background="new 0 0 88.253 73.52"><path d="M71.67 43.227l9.238-9.193v24.799c0 2.012-.41 3.906-1.201 5.664-.801 1.777-1.865 3.34-3.213 4.668-1.328 1.348-2.891 2.402-4.639 3.184-1.758 .781-3.652 1.172-5.693 1.172h-51.465c-2.012 0-3.921-.391-5.723-1.172s-3.359-1.836-4.668-3.184c-1.309-1.328-2.354-2.891-3.135-4.668-.78-1.759-1.171-3.653-1.171-5.665v-44.144c0-2.012 .391-3.916 1.172-5.723 .781-1.797 1.826-3.359 3.135-4.668s2.866-2.344 4.668-3.125 3.711-1.172 5.722-1.172h51.465c.859 0 1.689 .088 2.48 .283l-8.945 8.955h-45c-1.504 0-2.788 .527-3.853 1.602-1.074 1.064-1.606 2.354-1.606 3.848v44.145c0 1.504 .532 2.773 1.606 3.848 1.064 1.074 2.349 1.602 3.853 1.602h51.465c1.494 0 2.793-.527 3.867-1.602 1.094-1.074 1.641-2.344 1.641-3.848v-15.606zm15.508-33.706c.732 .732 1.094 1.621 1.074 2.656s-.371 1.904-1.074 2.607l-34.043 34.048-4.688 4.688c-.737 .723-1.621 1.094-2.656 1.094-1.04 0-1.924-.371-2.661-1.094l-4.785-4.688-18.813-18.92c-.732-.732-1.104-1.611-1.104-2.656 0-1.035 .371-1.924 1.104-2.656l4.692-4.697c.732-.723 1.616-1.094 2.656-1.094 1.035 0 1.904 .371 2.607 1.094l16.279 16.289 31.314-31.407c.723-.742 1.631-1.094 2.695-1.084 1.074 .02 1.953 .381 2.656 1.084l4.747 4.736z" fill="#ffffff"/></svg>