<svg xmlns="http://www.w3.org/2000/svg" width="80.908" height="73.531" viewBox="0 0 80.908 73.531" enable-background="new 0 0 80.908 73.531"><path d="M66.162 0c2.012 0 3.896 .4 5.664 1.172 1.777 .791 3.34 1.846 4.668 3.184 1.348 1.338 2.412 2.9 3.213 4.668 .791 1.768 1.201 3.662 1.201 5.674v44.146c0 2.012-.41 3.906-1.201 5.664-.801 1.777-1.865 3.34-3.213 4.668-1.328 1.348-2.891 2.402-4.639 3.184-1.758 .781-3.652 1.172-5.693 1.172h-51.465c-2.012 0-3.901-.391-5.674-1.172s-3.325-1.836-4.668-3.184c-1.338-1.328-2.402-2.891-3.184-4.668-.78-1.758-1.171-3.653-1.171-5.664v-44.147c0-2.012 .391-3.906 1.172-5.674s1.846-3.33 3.184-4.668c1.343-1.338 2.896-2.393 4.668-3.184 1.772-.771 3.662-1.171 5.673-1.171h51.465zm0 9.238h-51.465c-1.504 0-2.788 .537-3.853 1.611-1.074 1.064-1.606 2.344-1.606 3.848v44.146c0 1.504 .532 2.773 1.606 3.848 1.064 1.074 2.349 1.602 3.853 1.602h51.465c1.494 0 2.793-.527 3.867-1.602 1.094-1.074 1.641-2.344 1.641-3.848v-44.146c0-1.504-.547-2.783-1.641-3.848-1.074-1.074-2.373-1.611-3.867-1.611z" fill="#f7f8fa"/></svg>