<svg xmlns="http://www.w3.org/2000/svg" width="73.585" height="46.255" viewBox="0 0 73.585 46.255" enable-background="new 0 0 73.585 46.255"><path d="M40.02 44.906c-.918 .918-2.012 1.367-3.252 1.348-1.24 0-2.334-.469-3.252-1.348l-32.129-32.269c-.918-.928-1.387-1.983-1.387-3.184s.469-2.256 1.387-3.183l4.795-4.883c.927-.928 2.002-1.387 3.252-1.387s2.314 .459 3.203 1.387l24.326 24.365 23.935-24.365c.918-.928 2.002-1.387 3.233-1.387 1.221 0 2.305 .459 3.232 1.387l4.785 4.883c.918 .928 1.406 1.982 1.436 3.184s-.42 2.256-1.338 3.184l-32.226 32.268z" fill="#ffffff"/></svg>