<svg xmlns="http://www.w3.org/2000/svg" width="46.211" height="73.629" viewBox="0 0 46.211 73.629" enable-background="new 0 0 46.211 73.629"><path d="M1.396 40.016c-.927-.924-1.396-1.989-1.396-3.209 0-1.211 .469-2.256 1.396-3.154l32.12-32.266c.927-.928 2.011-1.387 3.261-1.387 1.24 0 2.324 .459 3.252 1.387l4.785 4.785c.928 .928 1.396 2.012 1.396 3.252 0 1.25-.469 2.314-1.396 3.213l-24.316 24.414 24.316 23.941c.928 .918 1.396 1.973 1.396 3.184 0 1.191-.469 2.246-1.396 3.184l-4.785 4.883c-.928 .918-2.012 1.387-3.252 1.387-1.25 0-2.334-.469-3.262-1.387l-32.119-32.227z" fill="#313337"/></svg>