<svg xmlns="http://www.w3.org/2000/svg" width="46.201" height="73.629" viewBox="0 0 46.201 73.629" enable-background="new 0 0 46.201 73.629"><path d="M44.805 33.604c.928 .928 1.396 2.012 1.396 3.252 0 1.25-.469 2.334-1.396 3.258l-32.168 32.128c-.928 .918-2.002 1.387-3.232 1.387-1.221 0-2.305-.469-3.232-1.387l-4.785-4.785c-.929-.937-1.388-2.012-1.388-3.242s.459-2.305 1.387-3.223l24.326-24.322-24.326-24.033c-.928-.928-1.387-1.992-1.387-3.184s.459-2.256 1.387-3.183l4.785-4.883c.928-.928 2.012-1.387 3.262-1.387 1.24 0 2.314 .459 3.203 1.387l32.168 32.217z" fill="#333"/></svg>