<svg xmlns="http://www.w3.org/2000/svg" width="73.576" height="46.294" viewBox="0 0 73.576 46.294" enable-background="new 0 0 73.576 46.294"><path d="M33.557 1.367c.927-.928 2.011-1.377 3.252-1.367 1.25 .02 2.334 .469 3.262 1.367l32.119 32.27c.928 .918 1.387 1.992 1.387 3.203s-.459 2.266-1.387 3.164l-4.785 4.922c-.928 .918-2.012 1.387-3.262 1.367-1.24-.02-2.305-.469-3.203-1.367l-24.317-24.408-23.935 24.408c-.928 .918-2.002 1.387-3.232 1.367s-2.305-.469-3.232-1.367l-4.785-4.922c-.928-.938-1.406-1.992-1.436-3.184-.039-1.211 .41-2.266 1.338-3.184l32.216-32.269z" fill="#3b73b9"/></svg>