<svg xmlns="http://www.w3.org/2000/svg" width="76.445" height="76.5" viewBox="0 0 76.445 76.5" enable-background="new 0 0 76.445 76.5"><path d="M0 38.252c0-5.293 .996-10.264 2.988-14.912s4.727-8.691 8.184-12.158c3.467-3.467 7.52-6.191 12.168-8.184 4.639-2.002 9.609-2.998 14.902-2.998 5.303 0 10.264 .996 14.893 2.998 4.629 1.992 8.682 4.717 12.158 8.184s6.211 7.51 8.184 12.158c1.982 4.648 2.969 9.619 2.969 14.912 0 5.299-.986 10.26-2.969 14.908-1.973 4.648-4.707 8.711-8.184 12.168s-7.529 6.191-12.158 8.184-9.59 2.988-14.893 2.988c-5.293 0-10.264-.996-14.902-2.988-4.648-1.992-8.701-4.727-12.168-8.184-3.457-3.457-6.191-7.52-8.184-12.168s-2.988-9.609-2.988-14.908zm40.596-25.801c-.635-.635-1.406-.957-2.295-.957-.898 0-1.699 .322-2.402 .957l-23.458 23.457c-.635 .635-.957 1.416-.957 2.344s.322 1.709 .957 2.344l23.457 23.463c.645 .645 1.416 .957 2.324 .957 .918 0 1.699-.312 2.373-.957l3.545-3.555c.635-.625 .957-1.387 .957-2.285s-.322-1.699-.957-2.402l-11.777-11.778h29.297c.918 0 1.719-.312 2.363-.918 .664-.631 .986-1.402 .986-2.33v-4.98c0-.928-.322-1.709-.986-2.373-.645-.645-1.445-.977-2.363-.977h-29.297l11.777-11.777c.635-.635 .957-1.406 .957-2.324 0-.908-.322-1.699-.957-2.363l-3.544-3.546z" fill="#f7f8fa"/></svg>