<svg xmlns="http://www.w3.org/2000/svg" width="76.445" height="76.5" viewBox="0 0 76.445 76.5" enable-background="new 0 0 76.445 76.5"><path d="M38.242 76.5c-5.293 0-10.264-.996-14.902-2.988-4.648-1.992-8.701-4.727-12.168-8.184-3.457-3.457-6.191-7.52-8.184-12.168-1.992-4.629-2.988-9.609-2.988-14.908 0-5.293 .996-10.264 2.988-14.912 1.992-4.639 4.727-8.691 8.184-12.158 3.467-3.457 7.52-6.191 12.168-8.184 4.639-1.992 9.609-2.998 14.902-2.998 5.303 0 10.264 1.006 14.893 2.998s8.682 4.727 12.158 8.184c3.477 3.467 6.211 7.52 8.184 12.158 1.982 4.648 2.969 9.619 2.969 14.912 0 5.299-.986 10.279-2.969 14.908-1.973 4.648-4.707 8.711-8.184 12.168s-7.529 6.191-12.158 8.184-9.59 2.988-14.893 2.988zm-25.801-40.592c-.635 .635-.957 1.406-.957 2.295 0 .898 .322 1.699 .957 2.398l23.457 23.457c.645 .645 1.416 .957 2.324 .957 .918 0 1.699-.312 2.373-.957l23.408-23.457c.635-.641 .957-1.422 .977-2.35s-.312-1.709-.977-2.344l-3.496-3.545c-.645-.635-1.406-.957-2.295-.957-.898 0-1.709 .322-2.441 .957l-11.728 11.775v-29.293c0-.918-.312-1.719-.938-2.363-.625-.664-1.396-.986-2.324-.986h-4.98c-.918 0-1.709 .322-2.363 .986-.654 .645-.977 1.445-.977 2.363v29.293l-11.777-11.774c-.645-.635-1.426-.957-2.344-.957-.938 0-1.719 .322-2.354 .957l-3.545 3.545z" fill="#f7f8fa"/></svg>