<svg xmlns="http://www.w3.org/2000/svg" width="76.445" height="76.5" viewBox="0 0 76.445 76.5" enable-background="new 0 0 76.445 76.5"><path d="M38.242 0c5.303 0 10.264 .996 14.893 2.988 4.629 2.002 8.682 4.727 12.158 8.193 3.477 3.457 6.211 7.51 8.184 12.158 1.982 4.639 2.969 9.609 2.969 14.912 0 5.299-.986 10.26-2.969 14.908-1.973 4.648-4.707 8.691-8.184 12.168-3.477 3.457-7.529 6.191-12.158 8.184s-9.59 2.989-14.893 2.989c-5.293 0-10.264-.996-14.902-2.988-4.648-1.992-8.701-4.727-12.168-8.184-3.457-3.477-6.191-7.52-8.184-12.168s-2.988-9.609-2.988-14.908c0-5.303 .996-10.273 2.988-14.912 1.992-4.648 4.727-8.701 8.184-12.158 3.467-3.467 7.52-6.191 12.168-8.193 4.639-1.993 9.609-2.989 14.902-2.989zm25.762 40.602c.635-.645 .957-1.406 .977-2.301 .02-.898-.312-1.699-.977-2.402l-23.408-23.458c-.635-.635-1.416-.957-2.354-.957-.918 0-1.699 .322-2.344 .957l-23.457 23.457c-.635 .645-.957 1.426-.957 2.354 0 .924 .322 1.705 .957 2.35l3.545 3.535c.635 .645 1.406 .957 2.295 .957 .898 0 1.699-.312 2.402-.957l11.777-11.773v29.293c0 .938 .312 1.719 .928 2.363 .615 .664 1.377 .996 2.275 .996h5.02c.938 0 1.719-.332 2.373-.996 .654-.645 .986-1.426 .986-2.363v-29.294l11.729 11.773c.635 .645 1.416 .957 2.344 .957s1.729-.312 2.393-.957l3.496-3.534z" fill="#3b73b9"/></svg>