<svg xmlns="http://www.w3.org/2000/svg" width="76.445" height="76.5" viewBox="0 0 76.445 76.5" enable-background="new 0 0 76.445 76.5"><path d="M76.445 38.258c0 5.293-.986 10.254-2.969 14.902-1.973 4.648-4.707 8.711-8.184 12.168s-7.529 6.191-12.158 8.184-9.589 2.988-14.892 2.988c-5.293 0-10.264-.996-14.902-2.988-4.648-1.992-8.701-4.727-12.168-8.184-3.457-3.457-6.191-7.52-8.184-12.168s-2.988-9.609-2.988-14.902c0-5.309 .996-10.27 2.988-14.918s4.727-8.691 8.184-12.158c3.467-3.467 7.52-6.191 12.168-8.193 4.639-1.993 9.609-2.989 14.902-2.989 5.303 0 10.264 .996 14.893 2.988 4.629 2.002 8.682 4.727 12.158 8.193s6.211 7.51 8.184 12.158c1.982 4.649 2.968 9.61 2.968 14.919zm-40.547 25.801c.645 .625 1.406 .957 2.275 .957 .879 0 1.689-.332 2.422-.957l23.408-23.457c.635-.645 .957-1.426 .977-2.344 .02-.938-.312-1.719-.977-2.344l-23.407-23.463c-.635-.635-1.416-.957-2.354-.957-.918 0-1.699 .322-2.344 .957l-3.535 3.545c-.645 .635-.977 1.396-.986 2.295-.01 .889 .312 1.689 .986 2.393l11.777 11.777h-29.355c-.918 0-1.699 .312-2.344 .938-.635 .615-.957 1.387-.957 2.314v4.986c0 .918 .332 1.719 .986 2.363 .654 .664 1.426 .977 2.314 .977h29.355l-11.776 11.777c-.645 .645-.977 1.426-.986 2.324-.01 .918 .312 1.699 .986 2.363l3.535 3.556z" fill="#3b73b9"/></svg>