<svg xmlns="http://www.w3.org/2000/svg" width="90" height="75.016" viewBox="0 0 90 75.016" enable-background="new 0 0 90 75.016"><path d="M77.549 32.461c3.73 1.885 6.738 4.59 9.023 8.141 2.285 3.535 3.428 7.5 3.428 11.875 0 3.125-.596 6.035-1.768 8.75-1.191 2.715-2.803 5.098-4.863 7.168-2.061 2.051-4.443 3.672-7.158 4.863-2.705 1.172-5.635 1.758-8.76 1.758h-48.735c-2.554 0-4.971-.488-7.251-1.465-2.28-.957-4.277-2.305-5.986-4.004-1.704-1.719-3.047-3.711-4.019-5.996-.977-2.285-1.46-4.688-1.46-7.246 0-2.246 .376-4.355 1.123-6.348 .752-1.992 1.782-3.809 3.091-5.43s2.847-3.008 4.619-4.121c1.768-1.113 3.691-1.93 5.767-2.447-1.055-1.309-1.865-2.734-2.441-4.307-.576-1.562-.859-3.232-.859-5.029 0-2.1 .391-4.062 1.172-5.879 .781-1.826 1.841-3.398 3.184-4.746 1.338-1.338 2.92-2.402 4.736-3.184 1.821-.781 3.784-1.172 5.889-1.172 3.608 0 6.733 1.152 9.385 3.447 .576-2.422 1.558-4.678 2.944-6.768s3.032-3.906 4.932-5.439 4.019-2.725 6.367-3.584c2.347-.868 4.857-1.298 7.542-1.298 3.057 0 5.957 .596 8.711 1.768 2.734 1.191 5.127 2.793 7.148 4.814 2.031 2.021 3.633 4.414 4.814 7.158s1.768 5.645 1.768 8.711c0 1.816-.195 3.574-.615 5.244s-.986 3.262-1.728 4.766z" fill="#ffffff"/></svg>