<svg xmlns="http://www.w3.org/2000/svg" width="76.266" height="76.5" viewBox="0 0 76.266 76.5" enable-background="new 0 0 76.266 76.5"><path d="M63.238 24.316c1.055 1.758 1.875 3.721 2.441 5.889 1.562 .322 3.223 .527 4.961 .625s3.359 .41 4.854 .957c.518 .127 .771 .41 .771 .859v11.295c0 .391-.479 .723-1.416 1.035-.947 .312-2.041 .547-3.281 .742s-2.451 .332-3.643 .43c-1.172 .098-1.953 .176-2.344 .234-.449 1.816-1.191 3.691-2.246 5.605 1.758 2.617 3.691 5.117 5.791 7.52l.283 .723c0 .254-.43 .859-1.309 1.836s-1.875 2.012-2.988 3.145c-1.123 1.113-2.188 2.109-3.184 2.988-1.016 .879-1.66 1.309-1.943 1.309-.068 0-.488-.293-1.27-.879-.791-.586-1.65-1.25-2.588-1.973-.938-.703-1.836-1.406-2.676-2.051-.85-.664-1.387-1.055-1.602-1.172-.938 .508-1.865 .938-2.812 1.309-.938 .371-1.885 .684-2.842 .938-.068 .391-.146 1.172-.264 2.363-.117 1.211-.264 2.422-.449 3.652-.195 1.23-.42 2.324-.674 3.32-.26 .996-.592 1.484-1.006 1.484h-11.345c-.449 0-.752-.273-.908-.82-.449-1.562-.752-3.203-.908-4.922-.162-1.719-.338-3.359-.527-4.941-1.949-.566-3.814-1.367-5.602-2.383-1.312 .996-2.602 1.953-3.881 2.891-1.275 .938-2.535 1.934-3.779 2.988l-.576 .195c-.191 0-.781-.43-1.773-1.309-.986-.879-2.016-1.875-3.086-2.988-1.068-1.133-2.041-2.168-2.92-3.145s-1.318-1.582-1.318-1.836c0-.078 .26-.488 .768-1.27 .512-.781 1.107-1.641 1.797-2.559 .684-.938 1.357-1.816 2.012-2.656 .654-.859 1.074-1.406 1.27-1.66-1.055-1.758-1.871-3.711-2.441-5.898-1.631-.312-3.297-.508-5.006-.605s-3.311-.43-4.81-.957c-.515-.136-.769-.429-.769-.878v-11.295c0-.381 .483-.723 1.46-1.025 .972-.303 2.065-.557 3.276-.742 1.217-.186 2.399-.342 3.545-.43 1.148-.098 1.914-.176 2.301-.244 .57-1.943 1.352-3.809 2.344-5.596-1.758-2.617-3.672-5.127-5.748-7.52l-.332-.713c0-.254 .445-.879 1.338-1.846 .895-.967 1.895-2.021 2.994-3.135 1.104-1.113 2.162-2.109 3.184-2.988 1.02-.879 1.66-1.328 1.914-1.328 .062 0 .488 .303 1.27 .889 .781 .596 1.65 1.25 2.607 1.963 .957 .723 1.859 1.406 2.705 2.061 .844 .654 1.367 1.045 1.557 1.172 .924-.508 1.861-.928 2.803-1.27 .938-.332 1.904-.654 2.896-.977 0-.381 .043-1.162 .141-2.354 .098-1.172 .24-2.373 .43-3.584 .195-1.211 .439-2.314 .742-3.311 .302-.975 .649-1.473 1.03-1.473h11.348c.443 0 .746 .234 .908 .713 .381 1.562 .654 3.203 .811 4.932s.391 3.418 .674 5.078c.986 .254 1.943 .557 2.842 .908 .918 .352 1.816 .801 2.715 1.338 .254-.186 .791-.615 1.621-1.27s1.719-1.338 2.656-2.061l2.539-1.914c.752-.557 1.221-.84 1.416-.84 .186 0 .781 .449 1.768 1.328 .996 .879 2.031 1.875 3.115 2.988s2.061 2.168 2.939 3.135 1.318 1.592 1.318 1.846c0 .127-.283 .586-.83 1.367-.566 .781-1.191 1.631-1.875 2.559-.684 .918-1.357 1.807-2.012 2.656-.654 .841-1.045 1.368-1.172 1.553zm-25.084 25.426c1.562 0 3.047-.312 4.453-.938 1.402-.625 2.604-1.465 3.619-2.52 .996-1.055 1.816-2.266 2.441-3.672 .615-1.412 .928-2.896 .928-4.459s-.312-3.027-.928-4.404c-.625-1.377-1.445-2.588-2.441-3.643-1.016-1.055-2.217-1.875-3.619-2.461-1.406-.586-2.891-.889-4.453-.889-1.566 0-3.057 .303-4.477 .889-1.422 .586-2.652 1.406-3.688 2.461s-1.85 2.266-2.441 3.643c-.59 1.377-.883 2.842-.883 4.404s.293 3.047 .883 4.459c.592 1.406 1.406 2.617 2.441 3.672s2.266 1.895 3.688 2.52c1.421 .626 2.911 .938 4.477 .938z" fill="#3b73b9"/></svg>