<svg xmlns="http://www.w3.org/2000/svg" width="91.768" height="76.508" viewBox="0 0 91.768 76.508" enable-background="new 0 0 91.768 76.508"><path d="M47.729 21.787c.732 1.24 1.353 2.715 1.865 4.404 .317 .059 .908 .137 1.772 .234 .859 .098 1.748 .234 2.656 .41s1.729 .361 2.441 .547c.713 .195 1.084 .42 1.084 .674v8.525c0 .312-.371 .586-1.084 .781-.713 .215-1.533 .391-2.441 .557-.908 .156-1.807 .273-2.705 .332-.894 .068-1.47 .127-1.724 .195-.449 1.377-1.035 2.773-1.772 4.209 .737 .996 1.445 1.957 2.134 2.895 .684 .938 1.46 1.875 2.319 2.812l.098 .469c0 .195-.332 .664-.977 1.445-.659 .762-1.421 1.562-2.28 2.402-.859 .859-1.67 1.602-2.417 2.266-.752 .645-1.221 .977-1.411 .977-.068 0-.391-.215-.981-.645s-1.245-.938-1.963-1.484l-2.012-1.562c-.625-.469-1.03-.801-1.221-.957-1.436 .742-2.842 1.328-4.214 1.777 0 .312-.049 .898-.142 1.758-.098 .879-.225 1.777-.386 2.715-.156 .938-.356 1.777-.596 2.48-.239 .723-.488 1.094-.742 1.094h-8.521c-.259 0-.503-.371-.742-1.094-.239-.703-.425-1.543-.552-2.48s-.239-1.836-.337-2.676c-.093-.859-.142-1.445-.142-1.797-1.436-.391-2.842-.977-4.214-1.777-.991 .742-1.973 1.484-2.944 2.227-.972 .762-1.924 1.523-2.847 2.324l-.479 .098c-.127 0-.566-.332-1.318-.977-.752-.664-1.533-1.406-2.344-2.266-.815-.84-1.548-1.641-2.202-2.402-.654-.781-.981-1.25-.981-1.445 0-.059 .205-.391 .62-.977s.889-1.23 1.411-1.914c.527-.684 1.025-1.348 1.484-1.967 .464-.625 .762-1.025 .889-1.221-.737-1.367-1.357-2.871-1.87-4.502-.317-.059-.908-.146-1.768-.244-.864-.088-1.748-.195-2.661-.332-.908-.127-1.719-.293-2.441-.498-.715-.204-1.071-.439-1.071-.693v-8.613c0-.254 .356-.508 1.074-.742 .723-.244 1.548-.43 2.49-.557s1.846-.244 2.706-.332c.864-.098 1.455-.146 1.772-.146 .381-1.562 .972-2.969 1.772-4.219-.737-.977-1.46-1.963-2.178-2.939-.718-.967-1.46-1.924-2.227-2.842l-.19-.488c0-.186 .322-.654 .977-1.406s1.406-1.543 2.251-2.393 1.646-1.592 2.397-2.256c.747-.645 1.221-.977 1.411-.977 .063 0 .391 .205 .981 .625 .591 .41 1.245 .898 1.963 1.455s1.401 1.104 2.056 1.631 1.045 .85 1.172 .977c1.372-.801 2.812-1.387 4.312-1.768 0-.254 .049-.85 .142-1.768 .098-.928 .21-1.846 .337-2.754 .127-.918 .293-1.738 .503-2.49 .205-.752 .469-1.123 .791-1.123h8.521c.254 0 .503 .371 .742 1.123s.42 1.572 .547 2.49c.132 .908 .244 1.826 .337 2.754 .098 .918 .176 1.514 .239 1.768 1.436 .381 2.808 .947 4.116 1.67 .991-.723 1.987-1.455 2.993-2.168 1.006-.723 1.973-1.465 2.896-2.227l.386-.195c.127 0 .566 .342 1.313 1.025 .752 .693 1.543 1.436 2.373 2.256 .825 .811 1.587 1.592 2.271 2.344 .688 .752 1.03 1.221 1.03 1.406 0 .137-.215 .488-.645 1.084-.435 .586-.913 1.221-1.436 1.914-.527 .684-1.04 1.338-1.533 1.963-.498 .625-.806 1.026-.933 1.221zm-18.911 19.102c1.182 0 2.3-.225 3.35-.674 1.055-.449 1.973-1.055 2.754-1.836s1.396-1.699 1.846-2.754c.444-1.055 .669-2.168 .669-3.359 0-1.172-.225-2.305-.669-3.369-.449-1.064-1.064-2.002-1.846-2.783s-1.699-1.396-2.754-1.865c-1.05-.459-2.168-.693-3.35-.693-2.427 0-4.482 .85-6.177 2.539-1.689 1.689-2.534 3.75-2.534 6.172 0 1.191 .229 2.305 .693 3.359 .459 1.055 1.084 1.973 1.865 2.754s1.709 1.387 2.778 1.836 2.194 .673 3.375 .673zm58.262 19.154c-.293 1.211-.654 2.344-1.104 3.398 .068 .176 .244 .488 .557 .879 .293 .391 .596 .84 .879 1.289 .293 .469 .547 .898 .762 1.328 .234 .41 .342 .703 .342 .859 0 .117-.303 .488-.889 1.113s-1.27 1.289-2.051 1.973-1.543 1.328-2.256 1.934-1.172 1.016-1.357 1.25l-.391 .195c-.127 0-.391-.137-.781-.41-.41-.273-.82-.586-1.23-.938l-1.211-1.035c-.41-.332-.664-.566-.801-.684-1.172 .371-2.422 .684-3.73 .898-.059 .195-.215 .547-.43 1.035-.225 .488-.469 .977-.742 1.465-.273 .469-.537 .918-.791 1.309-.254 .41-.479 .605-.674 .605-.186 0-.742-.117-1.67-.371-.928-.234-1.924-.527-2.998-.879-1.064-.352-2.021-.723-2.871-1.133-.84-.391-1.27-.742-1.27-1.074 0-.723 .078-1.484 .244-2.266 .156-.781 .303-1.523 .43-2.227-.518-.391-.967-.801-1.357-1.27-.41-.469-.762-.957-1.084-1.465-.732 .078-1.455 .117-2.178 .156-.723 .02-1.426 .039-2.129 .039h-.703c-.195 0-.332-.176-.4-.527-.068-.254-.186-.82-.381-1.699s-.41-1.797-.645-2.773c-.244-.977-.449-1.855-.605-2.656s-.234-1.27-.234-1.387c0-.195 .215-.41 .645-.625s.928-.449 1.484-.703c.557-.234 1.094-.43 1.602-.586l1.055-.332c.127-.742 .273-1.367 .449-1.875s.43-1.094 .742-1.777c-.117-.117-.332-.391-.615-.801l-.889-1.328c-.303-.449-.566-.898-.781-1.328-.234-.43-.342-.723-.342-.84 0-.137 .293-.508 .889-1.133 .586-.625 1.27-1.27 2.051-1.957 .781-.684 1.543-1.328 2.256-1.914 .713-.596 1.172-.986 1.357-1.172l.391-.195c.127 0 .391 .137 .781 .41 .41 .264 .811 .576 1.23 .928l1.211 1.025c.41 .342 .664 .566 .801 .703 1.113-.391 2.324-.684 3.633-.918 .059-.186 .215-.527 .43-1.025 .225-.498 .488-.986 .791-1.455l.84-1.328c.254-.391 .479-.586 .674-.586 .117 0 .664 .107 1.621 .332 .957 .215 1.973 .518 3.047 .879 1.064 .371 2.031 .742 2.891 1.133 .859 .381 1.289 .742 1.289 1.094 0 .742-.078 1.484-.254 2.256-.176 .756-.332 1.518-.459 2.24 .508 .391 .967 .82 1.357 1.27 .41 .469 .762 .957 1.084 1.465 .791-.059 1.592-.117 2.373-.137 .781-.039 1.543-.059 2.266-.059 .254 0 .547 .43 .859 1.27 .332 .859 .605 1.816 .84 2.91 .244 1.074 .449 2.109 .605 3.086 .156 .957 .234 1.602 .234 1.875 0 .195-.215 .41-.645 .625-.43 .234-.898 .43-1.406 .625-.518 .195-1.035 .391-1.562 .605-.529 .197-.881 .334-1.076 .412zm.098-38.539c-.42 1.143-.918 2.148-1.484 3.008l.381 .791s.4 .83 .645 1.299c.244 .459 .439 .879 .596 1.27 .156 .371 .244 .605 .244 .664 0 .195-.361 .566-1.084 1.123-.713 .557-1.504 1.143-2.383 1.729s-1.699 1.113-2.471 1.582c-.771 .459-1.182 .684-1.24 .684-.137 0-.352-.146-.674-.449s-.664-.645-1.025-1.035c-.371-.371-.703-.752-.986-1.113-.283-.371-.498-.625-.615-.742-.449 .117-.908 .215-1.367 .283-.469 .068-.938 .068-1.416 0h-.674c-.117 .127-.312 .391-.566 .791-.254 .391-.537 .811-.84 1.24-.312 .43-.605 .811-.889 1.123-.283 .322-.498 .488-.615 .488-.137 0-.615-.176-1.445-.527-.82-.352-1.699-.762-2.607-1.23-.908-.459-1.738-.918-2.49-1.387-.742-.459-1.123-.781-1.123-.977 0-.059 .049-.293 .146-.693s.215-.83 .381-1.27c.166-.449 .303-.889 .43-1.318s.225-.703 .283-.84c-.723-.732-1.338-1.68-1.816-2.822-1.689-.068-2.891-.146-3.594-.244s-1.162-.391-1.387-.879c-.215-.498-.293-1.328-.234-2.52 .059-1.172 0-2.91-.195-5.215 0-.195 .195-.381 .605-.576 .391-.186 .859-.342 1.406-.479 .547-.127 1.074-.215 1.602-.283s.889-.127 1.074-.195c.332-1.045 .82-2.07 1.484-3.057l-.371-.84c-.195-.43-.391-.869-.605-1.318-.205-.449-.391-.85-.547-1.221s-.234-.615-.234-.742c0-.195 .332-.547 1.016-1.074 .693-.527 1.475-1.094 2.354-1.68 .869-.586 1.699-1.113 2.471-1.553 .762-.449 1.211-.674 1.328-.674 .137 0 .342 .146 .625 .43 .293 .293 .615 .635 .986 1.035 .361 .391 .693 .771 .986 1.123 .273 .352 .488 .586 .615 .713 .439-.127 .908-.215 1.357-.283 .469-.068 .938-.068 1.426 0h.664c.059-.127 .234-.391 .527-.791s.586-.801 .879-1.221c.312-.42 .586-.791 .84-1.123s.446-.509 .573-.509 .605 .186 1.436 .557c.83 .361 1.719 .781 2.656 1.24 .938 .469 1.797 .918 2.539 1.367 .752 .449 1.133 .762 1.133 .957 0 .127-.068 .371-.195 .742-.137 .371-.254 .781-.391 1.25-.117 .459-.254 .898-.4 1.309-.146 .42-.244 .684-.312 .82 .635 .801 1.26 1.758 1.865 2.871 1.631 .127 2.812 .234 3.545 .332s1.201 .391 1.387 .879c.186 .508 .273 1.328 .244 2.5-.039 1.162 .01 2.861 .137 5.098 0 .186-.195 .391-.596 .596s-.85 .381-1.357 .498c-.518 .137-1.035 .234-1.562 .293s-.881 .127-1.076 .195zm-20.303 35.746c0 1.582 .557 2.93 1.65 4.082 1.104 1.152 2.451 1.719 4.043 1.719 1.562 0 2.91-.547 4.053-1.641 1.123-1.113 1.699-2.48 1.699-4.16 0-1.562-.557-2.891-1.65-3.984-1.104-1.113-2.471-1.66-4.102-1.66-1.562 0-2.9 .547-4.014 1.66-1.122 1.093-1.679 2.422-1.679 3.984zm2.354-40.16c0 1.504 .498 2.754 1.504 3.76s2.227 1.514 3.662 1.514c1.494 0 2.764-.508 3.779-1.514s1.533-2.227 1.533-3.662c0-1.494-.498-2.754-1.514-3.779-.996-1.025-2.236-1.533-3.711-1.533-1.494 0-2.744 .508-3.75 1.533s-1.503 2.255-1.503 3.681z" fill="#333"/></svg>