<svg xmlns="http://www.w3.org/2000/svg" width="88.223" height="73.531" viewBox="0 0 88.223 73.531" enable-background="new 0 0 88.223 73.531"><path d="M82.764 0c1.504 0 2.793 .537 3.857 1.631 1.074 1.084 1.602 2.373 1.602 3.877v62.516c0 1.504-.527 2.793-1.602 3.887-1.064 1.074-2.354 1.621-3.857 1.621h-77.266c-1.494 0-2.793-.547-3.877-1.621-1.084-1.095-1.621-2.384-1.621-3.888v-62.515c0-1.504 .537-2.793 1.621-3.877 1.084-1.094 2.383-1.631 3.877-1.631h77.266zm-75.391 66.168h33.125v-55.201h-33.125v55.201zm73.525-55.201h-33.076v55.201h33.076v-55.201z" fill="#ffffff"/></svg>