<svg xmlns="http://www.w3.org/2000/svg" width="91.768" height="76.526" viewBox="0 0 91.768 76.526" enable-background="new 0 0 91.768 76.526"><path d="M74.482 27.285c0 3.74-.967 7.266-2.91 10.586-1.953 3.32-4.609 6.215-7.969 8.656-3.379 2.461-7.314 4.414-11.836 5.84-4.512 1.445-9.355 2.168-14.521 2.168-1.182 0-2.358-.059-3.521-.156-1.167-.098-2.305-.195-3.423-.332-4.692 3.613-10.054 6.094-16.084 7.422-.64 .137-1.284 .254-1.938 .371-.654 .098-1.353 .215-2.085 .352-.381 .059-.728-.039-1.03-.312s-.518-.568-.644-.88v-.098c-.127-.391-.078-.703 .142-.938 .225-.234 .513-.527 .864-.84 .576-.566 1.123-1.152 1.65-1.738 .527-.605 .996-1.27 1.411-2.012 .415-.762 .806-1.641 1.177-2.656 .366-1.035 .674-2.285 .933-3.789-4.502-2.48-8.076-5.605-10.723-9.359-2.652-3.75-3.975-7.841-3.975-12.285 0-3.789 .981-7.344 2.944-10.645s4.624-6.191 7.993-8.643 7.3-4.404 11.802-5.84c4.497-1.434 9.336-2.157 14.507-2.157 5.166 0 10.01 .723 14.521 2.158 4.521 1.436 8.457 3.389 11.836 5.84 3.359 2.451 6.016 5.342 7.969 8.643 1.944 3.3 2.91 6.855 2.91 10.644zm17.286 14.317c0 4.438-1.328 8.539-3.965 12.289-2.656 3.75-6.23 6.855-10.723 9.355 .254 1.504 .547 2.754 .898 3.77 .352 1.035 .762 1.914 1.23 2.676 .459 .742 .938 1.406 1.426 1.992 .498 .605 1.035 1.172 1.611 1.758 .322 .312 .596 .605 .83 .879 .244 .273 .293 .566 .176 .898v.098c-.068 .371-.264 .684-.605 .918-.332 .254-.684 .332-1.074 .273-.732-.137-1.426-.254-2.08-.371-.654-.098-1.299-.215-1.943-.352-3.066-.645-5.938-1.602-8.613-2.871s-5.176-2.793-7.461-4.551c-1.123 .137-2.266 .234-3.428 .332s-2.334 .156-3.525 .156c-4.497 0-8.726-.566-12.681-1.68-3.96-1.113-7.549-2.617-10.771-4.512 .19-.117 .405-.254 .645-.371 .239-.137 .454-.254 .649-.391 1.626 .195 3.252 .293 4.883 .293 6.284 0 12.173-.898 17.666-2.715 5.488-1.797 10.234-4.258 14.258-7.402s7.188-6.855 9.512-11.098c2.305-4.238 3.467-8.809 3.467-13.691 0-1.309-.098-2.637-.283-4.014 3.066 2.49 5.479 5.283 7.246 8.369 1.776 3.107 2.655 6.427 2.655 9.963z" fill="#3b73b9"/></svg>