<svg xmlns="http://www.w3.org/2000/svg" width="91.768" height="76.508" viewBox="0 0 91.768 76.508" enable-background="new 0 0 91.768 76.508"><path d="M37.246 0c2.549 0 5.088 .186 7.607 .547 2.524 .371 4.995 .938 7.422 1.699 2.744 .938 5.459 2.148 8.145 3.643 2.676 1.504 5.059 3.311 7.148 5.439 2.09 2.119 3.77 4.521 5.029 7.197 1.26 2.686 1.885 5.605 1.885 8.76 0 3.125-.625 6.035-1.885 8.711-1.26 2.686-2.939 5.078-5.029 7.168-2.09 2.094-4.473 3.891-7.148 5.434-2.686 1.523-5.4 2.754-8.145 3.672-4.917 1.504-9.927 2.266-15.029 2.266-1.182 0-2.339-.059-3.472-.156s-2.29-.195-3.472-.332c-4.785 3.672-10.151 6.152-16.084 7.422-.64 .137-1.328 .273-2.061 .449s-1.45 .273-2.153 .273c-.386 0-.728-.156-1.03-.449-.303-.312-.454-.684-.454-1.133 0-.312 .122-.605 .361-.84l.645-.645c1.626-1.621 2.783-3.164 3.472-4.59 .684-1.445 1.25-3.301 1.699-5.605-2.012-1.113-3.901-2.422-5.674-3.926-1.772-1.508-3.325-3.168-4.668-4.984-1.338-1.816-2.402-3.789-3.184-5.938-.78-2.129-1.171-4.394-1.171-6.797 0-3.125 .64-6.035 1.914-8.73s2.974-5.107 5.098-7.227c2.124-2.129 4.526-3.936 7.207-5.439 2.681-1.494 5.391-2.705 8.135-3.643 2.427-.791 4.893-1.367 7.397-1.719s5.005-.527 7.495-.527zm0 7.656c-2.109 0-4.214 .146-6.323 .43-2.104 .293-4.209 .801-6.318 1.543-1.885 .566-3.838 1.396-5.864 2.48-2.026 1.094-3.862 2.363-5.503 3.828-1.646 1.475-2.988 3.154-4.023 5.059-1.035 1.895-1.553 3.994-1.553 6.289 0 2.305 .483 4.326 1.46 6.084 .972 1.758 2.207 3.33 3.706 4.736 1.504 1.406 3.169 2.656 5.005 3.73 1.836 1.094 3.628 2.109 5.386 3.066l-.957 5.316c1.055-.566 2.065-1.25 3.037-2.012 .977-.762 1.924-1.504 2.852-2.207 1.499 .195 3.013 .391 4.546 .586s3.047 .273 4.551 .273c4.307 0 8.521-.645 12.637-1.957 1.943-.566 3.926-1.406 5.938-2.48 2.002-1.094 3.828-2.383 5.459-3.887 1.621-1.494 2.969-3.184 4.023-5.049s1.572-3.936 1.572-6.201c0-2.295-.518-4.395-1.572-6.289-1.055-1.904-2.402-3.584-4.023-5.059-1.631-1.465-3.438-2.734-5.43-3.828-2.002-1.084-3.984-1.914-5.967-2.48-2.012-.742-4.077-1.25-6.201-1.543-2.126-.281-4.27-.428-6.438-.428zm54.522 33.946c0 2.422-.391 4.711-1.172 6.82-.781 2.129-1.836 4.102-3.184 5.918-1.338 1.816-2.891 3.477-4.668 4.98-1.768 1.504-3.662 2.812-5.664 3.926 .439 2.285 1.006 4.16 1.699 5.605 .684 1.426 1.836 2.949 3.467 4.59l.645 .684c.244 .273 .361 .566 .361 .898 0 .508-.176 .879-.508 1.113-.332 .254-.723 .371-1.172 .371-.645 0-1.328-.098-2.051-.273-.742-.176-1.396-.332-1.973-.449-5.938-1.309-11.289-3.789-16.074-7.422-1.191 .137-2.344 .234-3.477 .332s-2.285 .156-3.477 .156c-4.111 0-8.164-.527-12.153-1.543-3.994-1.016-7.759-2.559-11.299-4.648l1.294-.762c1.626 .195 3.252 .293 4.883 .293 6.284 0 12.363-.996 18.232-2.969 3.545-1.191 6.914-2.773 10.107-4.766s6.016-4.355 8.467-7.07c2.461-2.699 4.424-5.736 5.898-9.086 1.465-3.359 2.197-7.021 2.197-11.016 0-1.309-.098-2.646-.283-4.023 2.871 2.305 5.234 5 7.109 8.096 1.858 3.096 2.796 6.514 2.796 10.245z" fill="#333"/></svg>