<svg xmlns="http://www.w3.org/2000/svg" width="91.768" height="76.508" viewBox="0 0 91.768 76.508" enable-background="new 0 0 91.768 76.508"><path d="M45.859 0c3.13 0 6.23 .234 9.307 .703 3.086 .459 6.133 1.182 9.121 2.168 3.389 1.124 6.738 2.607 10.059 4.453 3.32 1.855 6.27 4.072 8.857 6.66 2.588 2.578 4.658 5.508 6.221 8.789 1.562 3.262 2.344 6.865 2.344 10.791s-.781 7.514-2.344 10.775c-1.562 3.242-3.633 6.172-6.221 8.75-2.588 2.598-5.537 4.824-8.838 6.738-3.301 1.895-6.66 3.359-10.078 4.414-2.988 .996-6.025 1.719-9.092 2.168-3.057 .449-6.177 .664-9.336 .664-2.935 0-5.806-.195-8.613-.566-2.939 2.285-6.06 4.199-9.36 5.684-3.306 1.504-6.743 2.676-10.317 3.496-.859 .137-1.748 .293-2.656 .508-.908 .195-1.763 .312-2.563 .312-.508 0-.947-.195-1.313-.547-.366-.371-.552-.82-.552-1.328 0-.371 .137-.723 .405-1.016 .273-.312 .537-.586 .791-.84 .991-1.055 1.836-2.031 2.539-2.91 .698-.879 1.299-1.797 1.792-2.754 .498-.957 .894-1.973 1.196-3.086 .308-1.094 .586-2.363 .84-3.809-2.49-1.367-4.81-2.969-6.963-4.805-2.158-1.836-4.072-3.867-5.747-6.133-1.675-2.246-2.983-4.688-3.926-7.344-.943-2.638-1.412-5.431-1.412-8.371 0-3.926 .781-7.529 2.344-10.791 1.562-3.281 3.638-6.211 6.226-8.789 2.583-2.588 5.527-4.814 8.833-6.68 3.301-1.865 6.646-3.34 10.029-4.434 2.998-.986 6.04-1.709 9.116-2.168 3.081-.468 6.186-.702 9.311-.702zm14.746 9.727c-4.853-1.377-9.765-2.061-14.746-2.061-5.039 0-9.941 .684-14.697 2.061-2.681 .801-5.405 1.895-8.184 3.301s-5.308 3.125-7.588 5.146-4.14 4.306-5.576 6.846-2.153 5.38-2.153 8.544c0 2.295 .386 4.424 1.172 6.361 .781 1.953 1.826 3.77 3.135 5.43 1.309 1.68 2.808 3.203 4.502 4.59 1.689 1.367 3.462 2.559 5.312 3.574 .859 .449 1.675 .898 2.441 1.328s1.548 .879 2.344 1.367c-.317 1.484-.596 2.988-.835 4.492s-.552 3.008-.938 4.492c1.885-.918 3.662-1.953 5.342-3.086 1.675-1.133 3.354-2.344 5.049-3.652 1.753 .254 3.521 .469 5.288 .664 1.772 .195 3.569 .293 5.386 .293 4.98 0 9.893-.684 14.746-2.07 2.686-.781 5.41-1.875 8.193-3.262 2.773-1.406 5.293-3.105 7.578-5.137 2.285-2.012 4.141-4.316 5.586-6.855 1.426-2.562 2.148-5.404 2.148-8.529 0-3.135-.723-5.967-2.148-8.525-1.445-2.549-3.301-4.844-5.586-6.865s-4.805-3.74-7.578-5.146c-2.782-1.407-5.507-2.501-8.193-3.301z" fill="#3b73b9"/></svg>