<svg xmlns="http://www.w3.org/2000/svg" width="91.768" height="76.524" viewBox="0 0 91.768 76.524" enable-background="new 0 0 91.768 76.524"><path d="M45.859 0c6.357 0 12.305 .889 17.861 2.656 5.547 1.777 10.4 4.18 14.551 7.207 4.141 3.037 7.441 6.582 9.863 10.635s3.633 8.408 3.633 13.066c0 4.623-1.211 8.979-3.633 13.021-2.422 4.062-5.723 7.598-9.863 10.645-4.15 3.047-9.004 5.449-14.551 7.207-5.557 1.758-11.504 2.637-17.861 2.637-2.935 0-5.806-.195-8.613-.566-5.62 4.434-12.178 7.5-19.678 9.18-.796 .137-1.602 .273-2.417 .41s-1.685 .273-2.607 .41c-.513 .059-.952-.039-1.318-.312s-.615-.664-.742-1.172-.049-.938 .239-1.27 .605-.664 .957-.977c.732-.742 1.421-1.445 2.061-2.129 .635-.684 1.221-1.504 1.748-2.441 .522-.957 1.001-2.051 1.436-3.34 .43-1.27 .806-2.812 1.123-4.629-5.552-3.145-9.951-6.992-13.188-11.562-3.239-4.59-4.86-9.629-4.86-15.112 0-4.629 1.211-8.975 3.638-13.047s5.713-7.617 9.863-10.654c4.146-3.027 8.989-5.43 14.526-7.207 5.537-1.767 11.485-2.656 17.832-2.656z" fill="#ffffff"/></svg>