<svg xmlns="http://www.w3.org/2000/svg" width="76.451" height="73.52" viewBox="0 0 76.451 73.52" enable-background="new 0 0 76.451 73.52"><path d="M72.867 14.688c.977 0 1.836 .361 2.529 1.084 .703 .713 1.055 1.572 1.055 2.559v51.459c0 1.055-.361 1.953-1.074 2.656-.713 .723-1.553 1.074-2.51 1.074h-39.742c-1.049 0-1.938-.352-2.656-1.074-.717-.703-1.074-1.602-1.074-2.656v-10.958h-25.66c-1.055 0-1.943-.352-2.661-1.074s-1.074-1.602-1.074-2.656v-33.852c0-1.055 .264-2.178 .791-3.379 .522-1.191 1.138-2.158 1.841-2.891l12.354-12.353c.732-.732 1.703-1.357 2.92-1.865 1.211-.508 2.328-.762 3.35-.762h22.162c.992 0 1.852 .352 2.564 1.074 .713 .713 1.074 1.572 1.074 2.559v11.973c.518-.254 1.084-.469 1.699-.645 .625-.176 1.27-.273 1.943-.273h22.169zm-43.472 22.738c0-1.43 .166-2.816 .504-4.164 .332-1.338 1.059-2.52 2.178-3.535l7.611-7.754v-14.61h-13.311v15.371c0 .996-.361 1.846-1.078 2.559-.719 .723-1.572 1.084-2.559 1.084h-15.367v25.072h22.021v-14.023zm-20.493-18.422h10.102v-10.108l-10.102 10.108zm60.225 3.066h-13.35v15.355c0 .996-.371 1.855-1.084 2.559-.713 .723-1.553 1.094-2.51 1.094h-15.42v25.078h32.363v-44.086zm-30.781 11.68h10.107v-10.107l-10.107 10.107z" fill="#f7f8fa"/></svg>