<svg xmlns="http://www.w3.org/2000/svg" width="88.232" height="73.539" viewBox="0 0 88.232 73.539" enable-background="new 0 0 88.232 73.539"><path d="M80.908 0c2.012 0 3.73 .723 5.166 2.148 1.436 1.445 2.158 3.184 2.158 5.225v58.783c0 2.012-.723 3.75-2.158 5.195s-3.154 2.188-5.166 2.188h-73.535c-2.012 0-3.745-.723-5.195-2.168-1.455-1.426-2.178-3.164-2.178-5.215v-58.783c0-2.012 .718-3.74 2.153-5.195 1.436-1.455 3.174-2.178 5.22-2.178h73.535zm0 7.373h-73.535v12.822h73.535v-12.822zm0 31.264h-73.535v27.52h73.535v-27.52zm-53.764 22.929h-14.698v-5.508h14.697v5.508zm26.567 0h-21.348v-5.508h21.348v5.508z" fill="#333"/></svg>