<svg xmlns="http://www.w3.org/2000/svg" width="91.768" height="76.488" viewBox="0 0 91.768 76.488" enable-background="new 0 0 91.768 76.488"><path d="M90.088 61.469c1.123 .723 1.68 1.777 1.68 3.164 0 .918-.293 1.738-.879 2.461-.596 .723-1.348 1.133-2.275 1.27-.518 .117-1.182 .273-1.982 .43-.82 .156-1.66 .312-2.539 .469-.879 .176-1.719 .312-2.52 .469-.801 .137-1.426 .215-1.865 .215-.322 0-.615-.039-.889-.117l-.879-.312-40.313-20.588-4.116 3.633c.063 .312 .117 .664 .166 1.035 .049 .352 .073 .703 .073 1.016 0 2.754-.713 5.43-2.129 8.047-1.421 2.617-3.242 4.961-5.459 7.012-2.217 2.07-4.702 3.711-7.446 4.961s-5.425 1.855-8.042 1.855c-3.125 0-5.688-.898-7.681-2.695-1.997-1.798-2.993-4.278-2.993-7.403 0-2.734 .703-5.41 2.104-8.027 1.406-2.617 3.218-4.961 5.435-7.031 2.217-2.051 4.683-3.711 7.397-4.941 2.71-1.25 5.41-1.875 8.091-1.875h.62c.576-.801 1.484-1.758 2.729-2.891s2.251-2.07 3.018-2.812v-1.134c-.386-.391-.84-.82-1.367-1.328-.527-.492-1.084-1-1.675-1.527s-1.123-1.035-1.602-1.533c-.479-.488-.85-.928-1.104-1.318-2.681 .195-5.435-.332-8.257-1.572-2.827-1.25-5.381-2.93-7.661-5.049-2.28-2.129-4.141-4.531-5.576-7.207-1.434-2.687-2.152-5.363-2.152-8.048 0-3.125 .996-5.586 2.993-7.393 1.992-1.807 4.556-2.705 7.681-2.705 2.617 0 5.298 .625 8.042 1.865s5.229 2.9 7.446 4.951c2.217 2.061 4.038 4.395 5.459 7.012 1.416 2.627 2.129 5.303 2.129 8.047 0 .322-.024 .664-.073 1.035-.049 .361-.103 .703-.166 1.025l4.116 3.633 1.626-.811c1.084-.576 2.529-1.318 4.336-2.227 1.802-.908 3.857-1.953 6.172-3.135 2.319-1.182 4.683-2.393 7.104-3.643 2.432-1.24 4.834-2.471 7.207-3.682 2.383-1.211 4.531-2.324 6.465-3.33s3.574-1.836 4.902-2.49c1.348-.654 2.178-1.074 2.5-1.26 .508-.254 1.094-.4 1.768-.439 .439 0 1.064 .078 1.865 .215 .801 .146 1.641 .303 2.52 .459s1.719 .332 2.539 .527c.801 .195 1.465 .322 1.982 .381 .928 .127 1.68 .557 2.275 1.27 .586 .723 .879 1.543 .879 2.471 0 1.367-.557 2.422-1.68 3.154l-33.505 23.218 33.506 23.223zm-67.061-39.018c.317 0 .747-.068 1.289-.195v-.283c0-.732-.181-1.514-.547-2.324-.371-.811-.806-1.611-1.318-2.393s-1.06-1.514-1.65-2.197c-.591-.693-1.157-1.26-1.699-1.699-1.118-.928-2.427-1.797-3.926-2.617-1.504-.811-3.003-1.221-4.502-1.221-.444 0-.859 .068-1.245 .195v.283c0 .742 .176 1.523 .527 2.373s.791 1.66 1.318 2.441 1.084 1.504 1.675 2.158 1.143 1.201 1.65 1.65c1.118 .928 2.427 1.787 3.926 2.607 1.499 .812 2.998 1.222 4.502 1.222zm-12.353 44.526c1.309 0 2.744-.391 4.312-1.172 1.562-.781 3.037-1.777 4.424-2.949 1.392-1.191 2.539-2.5 3.447-3.984 .913-1.465 1.367-2.871 1.367-4.258 0-.117-.02-.195-.049-.234-.034-.039-.049-.117-.049-.234-.254-.059-.62-.098-1.099-.098-1.309 0-2.749 .391-4.312 1.172s-3.032 1.758-4.404 2.949c-1.372 1.172-2.51 2.5-3.423 3.965-.908 1.465-1.362 2.891-1.362 4.258 0 .195 .029 .352 .093 .488 .195 0 .371 .02 .527 .039 .162 .038 .337 .058 .528 .058zm28.628-21.446l48.638-33.656-8.232-1.484-46.676 23.838 .288 6.068-5.269 5.234c1.694 .801 2.998 1.895 3.926 3.301l5.171-4.609 2.154 1.308zm-9.575-12.885c.386-.928 .967-1.582 1.748-1.963s1.636-.801 2.563-1.24l-2.061-1.777c-.928 1.436-2.231 2.539-3.926 3.311l1.676 1.669zm5.747 5.6c0-1.113 .376-2.031 1.123-2.748 .752-.723 1.685-1.084 2.803-1.084 1.05 0 1.938 .361 2.656 1.084 .718 .717 1.074 1.635 1.074 2.748 0 1.055-.356 1.953-1.074 2.715-.718 .742-1.636 1.113-2.754 1.113-1.055 0-1.953-.371-2.705-1.113-.747-.762-1.123-1.66-1.123-2.715zm52.465 26.387l-34.804-24.043-9.907 6.895 36.479 18.633 8.232-1.485z" fill="#f7f8fa"/></svg>