<svg xmlns="http://www.w3.org/2000/svg" width="90" height="75.023" viewBox="0 0 90 75.023" enable-background="new 0 0 90 75.023"><path d="M45 0c6.221 0 12.061 1.182 17.52 3.535 5.459 2.363 10.225 5.586 14.316 9.678 4.082 4.082 7.295 8.857 9.639 14.307 2.353 5.468 3.525 11.289 3.525 17.484 0 2.48-.234 5.02-.693 7.598-.469 2.598-1.133 5.137-2.012 7.617-.879 2.5-1.973 4.883-3.281 7.168-1.309 2.266-2.773 4.355-4.404 6.23-.732 .938-1.67 1.406-2.822 1.406h-63.575c-1.182 0-2.124-.469-2.827-1.406-1.689-1.875-3.174-3.965-4.448-6.23-1.279-2.285-2.358-4.668-3.232-7.168-.879-2.48-1.548-5.02-2.012-7.617-.465-2.579-.694-5.118-.694-7.598 0-6.234 1.172-12.055 3.516-17.504 2.349-5.439 5.562-10.205 9.648-14.287 4.087-4.092 8.857-7.314 14.312-9.678 5.459-2.353 11.298-3.535 17.524-3.535zm-31.885 50.609c1.562 0 2.891-.547 3.975-1.641 1.084-1.074 1.626-2.402 1.626-3.965s-.547-2.891-1.65-3.945c-1.099-1.078-2.417-1.615-3.95-1.615-1.562 0-2.881 .537-3.95 1.615-1.069 1.055-1.602 2.383-1.602 3.945s.532 2.891 1.602 3.965c1.068 1.094 2.387 1.641 3.949 1.641zm9.336-22.464c1.562 0 2.905-.557 4.023-1.68 1.113-1.113 1.675-2.451 1.675-4.014s-.562-2.881-1.675-3.955c-1.118-1.064-2.461-1.602-4.023-1.602-1.499 0-2.808 .537-3.926 1.602-1.118 1.074-1.675 2.393-1.675 3.955s.557 2.9 1.675 4.014c1.119 1.123 2.427 1.68 3.926 1.68zm27.525 24.125c.132-.449 .376-1.309 .742-2.637l1.294-4.57s1.025-3.555 1.582-5.453c.557-1.895 1.045-3.662 1.455-5.293 .42-1.621 .781-3.027 1.074-4.209 .312-1.182 .459-1.865 .459-2.061 0-.723-.283-1.367-.83-1.914-.566-.537-1.211-.811-1.943-.811-.635 0-1.201 .186-1.699 .576-.498 .381-.84 .879-1.03 1.484l-6.465 23.305c-1.245 .078-2.422 .352-3.54 .84-1.118 .508-2.085 1.172-2.896 2.012-.815 .859-1.455 1.836-1.914 2.949-.464 1.113-.698 2.305-.698 3.535 0 2.617 .918 4.844 2.754 6.66s4.062 2.734 6.68 2.734 4.844-.918 6.68-2.734c1.826-1.816 2.744-4.043 2.744-6.66 0-1.562-.41-3.008-1.24-4.355-.831-1.328-1.901-2.461-3.209-3.398zm-4.976-44.711c-1.562 0-2.891 .547-3.975 1.631s-1.626 2.412-1.626 3.975 .542 2.881 1.626 3.945c1.084 1.074 2.412 1.602 3.975 1.602s2.886-.527 3.975-1.602c1.084-1.064 1.626-2.383 1.626-3.945s-.542-2.891-1.626-3.975c-1.089-1.085-2.413-1.631-3.975-1.631zm16.846 14.892c0 1.562 .566 2.891 1.68 3.975s2.461 1.621 4.023 1.621 2.891-.537 3.965-1.621c1.094-1.084 1.641-2.412 1.641-3.975s-.547-2.881-1.641-3.955c-1.074-1.064-2.402-1.602-3.965-1.602s-2.91 .537-4.023 1.602c-1.114 1.074-1.68 2.393-1.68 3.955zm15.039 28.158c1.562 0 2.871-.547 3.945-1.641 1.074-1.074 1.602-2.402 1.602-3.965s-.527-2.891-1.602-3.945c-1.074-1.078-2.383-1.615-3.945-1.615s-2.891 .537-3.975 1.615c-1.084 1.055-1.631 2.383-1.631 3.945s.547 2.891 1.631 3.965c1.084 1.094 2.412 1.641 3.975 1.641z" fill="#313337"/></svg>