<svg xmlns="http://www.w3.org/2000/svg" width="76.451" height="76.488" viewBox="0 0 76.451 76.488" enable-background="new 0 0 76.451 76.488"><path d="M38.248 0c5.297 0 10.264 .996 14.893 2.988s8.672 4.727 12.158 8.184c3.477 3.467 6.201 7.52 8.184 12.168 1.982 4.639 2.969 9.609 2.969 14.902 0 5.297-.986 10.277-2.969 14.926-1.982 4.629-4.707 8.691-8.184 12.148-3.486 3.457-7.529 6.191-12.158 8.184s-9.596 2.988-14.893 2.988c-5.299 0-10.27-.996-14.912-2.988-4.645-1.992-8.697-4.727-12.158-8.184-3.463-3.457-6.192-7.52-8.185-12.148-1.997-4.648-2.993-9.629-2.993-14.926 0-5.293 .996-10.264 2.993-14.902 1.993-4.648 4.722-8.701 8.185-12.168 3.461-3.457 7.514-6.191 12.158-8.184 4.643-1.992 9.613-2.988 14.912-2.988zm0 65.004c3.734 0 7.217-.703 10.439-2.109 3.223-1.387 6.045-3.32 8.477-5.742 2.422-2.422 4.336-5.254 5.742-8.477s2.109-6.693 2.109-10.434c0-3.73-.703-7.207-2.109-10.43s-3.32-6.055-5.742-8.477c-2.432-2.421-5.264-4.335-8.496-5.741-3.242-1.406-6.715-2.109-10.42-2.109-3.73 0-7.223 .703-10.459 2.109-3.238 1.406-6.064 3.32-8.473 5.742-2.412 2.422-4.316 5.254-5.723 8.477-1.4 3.223-2.104 6.699-2.104 10.43 0 3.74 .703 7.211 2.104 10.434 1.406 3.223 3.311 6.055 5.723 8.477 2.408 2.422 5.234 4.355 8.473 5.742 3.236 1.405 6.729 2.108 10.459 2.108zm16.66-26.762c.869 0 1.455 .41 1.768 1.201 .322 .801 .166 1.484-.469 2.061l-16.617 16.566c-.449 .312-.893 .469-1.342 .469-.445 0-.908-.156-1.387-.469l-16.562-16.566c-.641-.576-.801-1.26-.479-2.061 .316-.791 .908-1.201 1.771-1.201h9.957v-17.129c0-.518 .18-.977 .551-1.367 .367-.4 .807-.605 1.314-.605h9.623c.508 0 .947 .195 1.314 .576 .365 .381 .551 .85 .551 1.396v17.129h10.007z" fill="#ffffff"/></svg>