<svg xmlns="http://www.w3.org/2000/svg" width="88.232" height="73.52" viewBox="0 0 88.232 73.52" enable-background="new 0 0 88.232 73.52"><path d="M86.357 40.4c.508 0 .957 .176 1.318 .527s.557 .791 .557 1.338v29.398c0 1.23-.625 1.855-1.875 1.855h-84.492c-1.245 .002-1.865-.623-1.865-1.854v-29.398c0-.508 .181-.947 .552-1.318 .366-.362 .805-.548 1.313-.548h10.962c.513 0 .952 .176 1.318 .527s.552 .791 .552 1.338v16.566h58.828v-16.565c0-.508 .195-.947 .557-1.318 .361-.361 .811-.547 1.318-.547h10.957v-.001zm-69.028-10.195c-.732-.732-.996-1.367-.791-1.895 .21-.527 .84-.791 1.89-.791h14.697v-23.886c0-.986 .347-1.846 1.03-2.559 .689-.722 1.558-1.074 2.613-1.074h14.688c1.055 0 1.943 .352 2.666 1.074 .713 .713 1.074 1.572 1.074 2.559v23.887h14.697c.996 0 1.582 .264 1.777 .791 .186 .527-.068 1.162-.771 1.895l-24.127 24.212c-.737 .742-1.621 1.094-2.661 1.094-1.035-.02-1.919-.391-2.656-1.094l-24.126-24.213z" fill="#313337"/></svg>