<svg xmlns="http://www.w3.org/2000/svg" width="88.301" height="73.617" viewBox="0 0 88.301 73.617" enable-background="new 0 0 88.301 73.617"><path d="M71.67 37.621l9.238-9.193v30.502c0 2.012-.41 3.906-1.201 5.664-.801 1.777-1.865 3.34-3.213 4.668-1.328 1.348-2.891 2.402-4.639 3.184-1.758 .781-3.652 1.172-5.693 1.172h-51.465c-2.012 0-3.921-.391-5.723-1.172s-3.359-1.836-4.668-3.184c-1.309-1.328-2.354-2.891-3.135-4.668-.78-1.758-1.171-3.653-1.171-5.664v-44.145c0-2.012 .391-3.916 1.172-5.723 .781-1.797 1.826-3.359 3.135-4.668 1.308-1.298 2.866-2.343 4.668-3.134 1.802-.781 3.711-1.172 5.723-1.172h51.465c.117 0 .293 .02 .498 .049 .205 .039 .381 .049 .498 .049l-9.141 9.141h-43.32c-1.504 0-2.788 .537-3.853 1.611-1.074 1.064-1.606 2.354-1.606 3.848v44.144c0 1.504 .532 2.773 1.606 3.848 1.064 1.074 2.349 1.602 3.853 1.602h51.465c1.494 0 2.793-.527 3.867-1.602 1.094-1.074 1.641-2.344 1.641-3.848v-21.309zm5.498-15.844l-31.162 31.157-15.801 5.176 5.171-15.742 31.216-31.215 10.576 10.624zm-9.619-2.685c.566-.566 .566-1.123 0-1.67-.576-.508-1.133-.508-1.68 0l-24.414 24.418c-.571 .566-.571 1.133 0 1.68 .195 .254 .464 .371 .815 .371 .317 0 .576-.117 .767-.371l24.512-24.428zm19.433-13.399c.859 .928 1.299 1.982 1.318 3.184 .01 1.191-.42 2.256-1.318 3.184l-4.551 4.404-10.576-10.586 4.404-4.492c.929-.928 2.012-1.387 3.262-1.387 1.24 0 2.275 .459 3.105 1.387l2.207 2.148 2.149 2.158z" fill="#ffffff"/></svg>