<svg xmlns="http://www.w3.org/2000/svg" width="73.595" height="66.461" viewBox="0 0 73.595 66.461" enable-background="new 0 0 73.595 66.461"><path d="M3.368 40.094c-1.494 0-2.52-.684-3.057-2.07-.576-1.362-.352-2.573 .664-3.628l33.467-33.418c.635-.635 1.416-.967 2.344-.977 .928-.02 1.709 .303 2.344 .977l33.467 33.418c1.055 1.055 1.27 2.266 .664 3.628-.508 1.387-1.523 2.07-3.057 2.07h-66.836zm66.836 10.195c.918 0 1.709 .332 2.363 .977 .654 .664 .986 1.445 .986 2.363v9.492c0 .918-.332 1.719-.986 2.363-.654 .664-1.445 .977-2.363 .977h-66.836c-.928 0-1.709-.312-2.363-.977-.654-.645-.986-1.445-.986-2.363v-9.492c0-.918 .332-1.699 .986-2.363 .654-.645 1.436-.977 2.363-.977h66.836z" fill="#ffffff"/></svg>