<svg xmlns="http://www.w3.org/2000/svg" width="88.232" height="73.531" viewBox="0 0 88.232 73.531" enable-background="new 0 0 88.232 73.531"><path d="M44.043 53.238c1.753 0 3.428-.254 5.024-.742s3.13-1.133 4.595-1.914 2.891-1.68 4.258-2.676c1.377-1.016 2.715-2.051 4.023-3.105 3.994-3.18 8.008-6.305 12.07-9.352 4.043-3.047 8.135-6.104 12.246-9.17 .322-.254 .645-.498 .986-.742 .342-.234 .664-.518 .986-.84v43.326c0 1.504-.537 2.793-1.602 3.887-1.074 1.074-2.363 1.621-3.867 1.621h-77.259c-1.499 0-2.793-.547-3.877-1.621-1.084-1.094-1.626-2.383-1.626-3.887v-43.326c.317 .322 .645 .605 .981 .84 .332 .244 .659 .488 .981 .742 4.116 3.066 8.203 6.123 12.256 9.17s8.071 6.172 12.061 9.352c1.245 .996 2.554 1.992 3.926 3.008 1.372 .996 2.793 1.914 4.263 2.715 1.465 .82 3.008 1.484 4.619 1.973s3.262 .741 4.956 .741zm0-10.957c-.991 0-2.061-.293-3.208-.846-1.147-.557-2.275-1.23-3.374-2.012-1.104-.781-2.178-1.602-3.232-2.471-1.055-.859-1.978-1.572-2.778-2.148-3.862-2.939-7.681-5.84-11.465-8.711-3.779-2.881-7.637-5.791-11.562-8.76-.732-.576-1.587-1.348-2.559-2.324-.977-.977-1.885-2.051-2.729-3.232s-1.564-2.373-2.155-3.593c-.59-1.211-.888-2.315-.888-3.301 0-1.309 .576-2.451 1.724-3.428 1.152-.967 2.377-1.455 3.686-1.455h77.261c1.309 0 2.539 .488 3.672 1.455 1.133 .977 1.699 2.119 1.699 3.428 0 .986-.293 2.09-.889 3.301-.596 1.221-1.309 2.412-2.158 3.594-.84 1.182-1.758 2.256-2.725 3.232s-1.826 1.748-2.559 2.324c-3.926 2.93-7.783 5.84-11.562 8.73s-7.607 5.801-11.465 8.74c-.801 .576-1.719 1.289-2.754 2.148-1.045 .869-2.119 1.689-3.232 2.471-1.118 .781-2.251 1.455-3.398 2.012-1.147 .553-2.202 .846-3.159 .846h-.191z" fill="#333"/></svg>