<svg xmlns="http://www.w3.org/2000/svg" width="88.232" height="73.531" viewBox="0 0 88.232 73.531" enable-background="new 0 0 88.232 73.531"><path d="M82.764 0c1.504 0 2.793 .547 3.867 1.631 1.064 1.084 1.602 2.373 1.602 3.877v62.516c0 1.504-.537 2.793-1.602 3.887-1.074 1.074-2.363 1.621-3.867 1.621h-77.261c-1.499 0-2.793-.547-3.877-1.621-1.084-1.095-1.626-2.384-1.626-3.888v-62.515c0-1.504 .542-2.793 1.626-3.877s2.378-1.631 3.877-1.631h77.261zm-75.391 7.373v3.115c0 .986 .22 2.031 .669 3.135 .444 1.094 1.011 2.158 1.699 3.184 .684 1.016 1.436 1.973 2.251 2.852 .811 .869 1.616 1.611 2.417 2.217 3.188 2.432 6.372 4.834 9.551 7.207 3.174 2.383 6.357 4.814 9.551 7.305 .635 .508 1.401 1.104 2.295 1.797 .894 .684 1.821 1.363 2.778 2.008 .957 .664 1.909 1.211 2.847 1.68 .942 .469 1.812 .684 2.612 .684h.191c.796 0 1.665-.215 2.607-.684s1.885-1.016 2.827-1.68c.938-.645 1.846-1.324 2.725-2.008 .879-.693 1.66-1.289 2.324-1.797 3.193-2.49 6.377-4.932 9.551-7.324s6.357-4.795 9.551-7.188c.801-.566 1.602-1.299 2.422-2.197 .811-.898 1.562-1.855 2.246-2.871 .684-1.025 1.26-2.09 1.719-3.184 .469-1.104 .703-2.148 .703-3.135v-3.116h-73.536zm73.535 58.795v-40.797c-.996 .996-1.914 1.787-2.783 2.393-3.379 2.559-6.768 5.098-10.166 7.637s-6.777 5.143-10.137 7.838c-1.934 1.562-4.043 3.066-6.289 4.492-2.251 1.445-4.746 2.148-7.49 2.148-2.617 0-5.059-.703-7.324-2.148-2.266-1.426-4.375-2.93-6.318-4.492-3.32-2.695-6.689-5.309-10.103-7.857-3.418-2.559-6.816-5.088-10.195-7.617-.864-.566-1.772-1.367-2.729-2.393v40.797h73.534z" fill="#ffffff"/></svg>