<svg xmlns="http://www.w3.org/2000/svg" width="76.445" height="76.504" viewBox="0 0 76.445 76.504" enable-background="new 0 0 76.445 76.504"><path d="M38.247 0c5.298 0 10.259 .996 14.888 2.993s8.682 4.722 12.158 8.188c3.477 3.462 6.211 7.515 8.184 12.158 1.982 4.644 2.969 9.614 2.969 14.912 0 5.293-.986 10.264-2.969 14.912-1.973 4.639-4.707 8.691-8.184 12.158s-7.529 6.191-12.158 8.184c-4.629 2.002-9.59 2.998-14.888 2.998s-10.269-.996-14.912-2.998c-4.644-1.992-8.696-4.717-12.158-8.184s-6.191-7.52-8.188-12.158c-1.993-4.647-2.989-9.618-2.989-14.911 0-5.298 .996-10.269 2.988-14.912 1.997-4.644 4.727-8.696 8.188-12.158 3.462-3.467 7.515-6.191 12.158-8.188s9.615-2.994 14.913-2.994zm6.079 14.028c0-.317-.127-.669-.381-1.055-.259-.254-.625-.396-1.104-.43h-9.238c-.444 0-.796 .142-1.055 .43-.254 .386-.381 .737-.381 1.055l.669 35.376c.127 .928 .625 1.387 1.484 1.387h7.759c.381 0 .718-.127 1.001-.381 .288-.254 .435-.586 .435-1.006l.811-35.376zm-.288 41.363c0-.381-.151-.723-.454-1.006s-.645-.43-1.025-.43h-8.619c-.386 0-.713 .146-.981 .43-.273 .283-.41 .625-.41 1.006v8.33c0 .381 .127 .723 .386 1.025 .254 .303 .591 .459 1.006 .459h8.618c.381 0 .723-.146 1.025-.43 .303-.293 .454-.645 .454-1.055v-8.329z" fill="#313337"/></svg>