<svg xmlns="http://www.w3.org/2000/svg" width="88.229" height="73.535" viewBox="0 0 88.229 73.535" enable-background="new 0 0 88.229 73.535"><path d="M71.666 42.559c1.309 .986 2.744 1.768 4.307 2.344s3.203 .898 4.932 .957v12.979c0 2.002-.4 3.896-1.201 5.674-.801 1.768-1.865 3.32-3.203 4.668-1.348 1.338-2.891 2.393-4.648 3.184-1.758 .781-3.652 1.172-5.693 1.172h-51.467c-2.008 0-3.916-.391-5.719-1.172-1.801-.791-3.359-1.846-4.668-3.184-1.309-1.348-2.354-2.9-3.135-4.668-.78-1.779-1.171-3.673-1.171-5.675v-44.141c0-2.012 .391-3.916 1.172-5.723s1.826-3.359 3.135-4.668 2.867-2.354 4.668-3.135c1.802-.78 3.711-1.171 5.718-1.171h27.865l-.195 1.318c-.062 .43-.092 .898-.092 1.406v4.219c0 .732 .092 1.494 .287 2.295h-27.865c-1.5 0-2.783 .537-3.854 1.602-1.068 1.074-1.602 2.354-1.602 3.857v44.141c0 1.494 .533 2.783 1.602 3.848 1.07 1.074 2.354 1.611 3.854 1.611h51.465c1.494 0 2.793-.537 3.877-1.611 1.084-1.064 1.631-2.354 1.631-3.848v-16.279zm16.563-35.713v23.457c0 .801-.283 1.465-.84 2.012-.557 .537-1.182 .781-1.885 .713h-4.121c-.801 0-1.465-.264-1.992-.781-.527-.527-.781-1.182-.781-1.943v-12.833l-36.964 36.865c-.508 .508-1.158 .762-1.939 .762s-1.445-.254-1.986-.762l-3.779-3.828c-.514-.518-.777-1.172-.791-1.963-.016-.801 .248-1.455 .791-1.963l36.855-36.963h-12.871c-.801 0-1.455-.264-1.963-.791-.518-.527-.771-1.182-.771-1.982v-4.121c-.059-.732 .186-1.367 .742-1.914 .566-.538 1.23-.811 1.992-.811h27.578c.723 0 1.367 .273 1.914 .84 .537 .557 .811 1.191 .811 1.885v4.121z" fill="#ffffff"/></svg>