<svg xmlns="http://www.w3.org/2000/svg" width="88.258" height="58.789" viewBox="0 0 88.258 58.789" enable-background="new 0 0 88.258 58.789"><path d="M87.174 25.469c.732 1.24 1.094 2.568 1.084 3.975-.02 1.406-.381 2.695-1.084 3.877-2.549 4.053-5.439 7.666-8.643 10.84s-6.64 5.839-10.293 7.997-7.5 3.799-11.562 4.932c-4.043 1.133-8.232 1.699-12.539 1.699-4.244 0-8.395-.566-12.447-1.699s-7.93-2.793-11.631-4.98c-3.705-2.188-7.158-4.863-10.365-8.037-3.209-3.184-6.041-6.758-8.497-10.752-.801-1.182-1.197-2.471-1.197-3.878s.396-2.734 1.196-3.975c2.49-3.994 5.327-7.568 8.521-10.723 3.189-3.164 6.637-5.84 10.342-8.047 3.701-2.197 7.568-3.867 11.607-5 4.037-1.132 8.193-1.698 12.471-1.698 4.307 0 8.496 .566 12.539 1.699 4.062 1.133 7.91 2.783 11.562 4.951 3.652 2.178 7.09 4.844 10.293 7.998 3.203 3.164 6.094 6.768 8.643 10.821zm-43.037 25.996c3.799 0 7.441-.527 10.938-1.582s6.807-2.52 9.941-4.404c3.125-1.885 6.025-4.199 8.711-6.943 2.676-2.744 5.068-5.791 7.178-9.141-2.549-4.121-5.547-7.734-8.975-10.84-3.438-3.115-7.207-5.615-11.328-7.49 1.631 1.875 2.9 4.004 3.809 6.367 .908 2.354 1.367 4.912 1.367 7.656 0 3.066-.566 5.918-1.699 8.564-1.133 2.656-2.715 4.99-4.746 7.021-2.021 2.021-4.375 3.613-7.051 4.756-2.686 1.152-5.543 1.729-8.574 1.729-3.066 0-5.924-.576-8.57-1.729-2.65-1.143-4.984-2.734-7.012-4.756-2.031-2.031-3.607-4.365-4.74-7.021-1.133-2.646-1.699-5.498-1.699-8.564 0-2.49 .404-4.863 1.221-7.109 .814-2.246 1.904-4.297 3.281-6.152-3.736 1.885-7.207 4.316-10.416 7.305-3.207 2.979-6.006 6.406-8.402 10.264 2.109 3.32 4.492 6.357 7.158 9.121s5.57 5.078 8.715 6.963c3.141 1.885 6.461 3.35 9.957 4.404s7.137 1.581 10.936 1.581zm-.43-40.694c-1.949 0-3.809 .371-5.576 1.123-1.773 .752-3.291 1.768-4.551 3.047-1.26 1.27-2.271 2.793-3.037 4.57-.768 1.768-1.152 3.623-1.152 5.576 0 .732 .264 1.367 .791 1.914s1.191 .811 1.986 .811c.797 0 1.451-.273 1.963-.83 .514-.566 .768-1.191 .768-1.895 0-2.49 .854-4.58 2.559-6.27 1.709-1.699 3.789-2.539 6.25-2.539 .795 0 1.459-.283 1.986-.84s.791-1.201 .791-1.934c0-.801-.264-1.455-.791-1.973-.528-.506-1.192-.76-1.987-.76z" fill="#333"/></svg>