<svg xmlns="http://www.w3.org/2000/svg" width="88.258" height="73.557" viewBox="0 0 88.258 73.557" enable-background="new 0 0 88.258 73.557"><path d="M30.973 72.6c-.191 .449-.543 .742-1.055 .869-.127 .059-.303 .088-.527 .088-.191 0-.479-.059-.859-.186l-6.465-3.643c-.445-.254-.742-.625-.885-1.123-.141-.498-.088-.967 .166-1.416l3.16-5.498c-4.625-2.168-8.922-5.02-12.877-8.545-3.959-3.525-7.437-7.666-10.435-12.431-.8-1.172-1.196-2.471-1.196-3.867 0-1.406 .396-2.734 1.196-3.975 2.49-3.994 5.327-7.58 8.521-10.754 3.189-3.174 6.637-5.859 10.342-8.047 3.701-2.178 7.568-3.838 11.607-4.971 4.037-1.133 8.193-1.699 12.471-1.699 1.689 0 3.369 .107 5.029 .332 1.65 .225 3.301 .498 4.932 .811l4.258-7.558c.253-.449 .644-.733 1.152-.86 .381-.195 .84-.166 1.387 .088l6.367 3.643c.449 .253 .762 .625 .938 1.123s.117 .967-.176 1.416l-37.051 66.203zm-.192-22.256c-2.744-2.012-4.945-4.561-6.605-7.637s-2.49-6.484-2.49-10.225c0-2.49 .404-4.854 1.221-7.111 .814-2.246 1.904-4.326 3.281-6.24-3.736 1.943-7.207 4.395-10.416 7.344-3.207 2.951-6.006 6.398-8.402 10.324 2.617 4.18 5.674 7.842 9.17 10.986s7.334 5.654 11.514 7.539l2.727-4.98zm-1.39-17.862c0 .742 .264 1.377 .791 1.924 .527 .537 1.191 .811 1.986 .811 .797 0 1.451-.283 1.963-.84 .514-.557 .768-1.191 .768-1.895 0-2.49 .854-4.58 2.559-6.271 1.709-1.689 3.789-2.539 6.25-2.539 .795 0 1.459-.273 1.986-.83 .527-.566 .791-1.211 .791-1.943 0-.801-.264-1.455-.791-1.963s-1.191-.762-1.986-.762c-1.949 0-3.809 .371-5.576 1.123-1.773 .752-3.291 1.768-4.551 3.037-1.26 1.279-2.271 2.803-3.037 4.572-.769 1.778-1.153 3.633-1.153 5.576zm57.783 .391c.732 1.24 1.094 2.568 1.084 3.975-.02 1.396-.381 2.695-1.084 3.867-5.107 8.115-11.367 14.365-18.789 18.77s-15.4 6.641-23.961 6.699l4.215-7.607c6.67-.801 12.764-3.115 18.291-6.943 5.518-3.828 10.176-8.77 13.975-14.834-3.486-5.43-7.676-9.941-12.588-13.557l3.633-6.553c2.939 2.1 5.684 4.492 8.242 7.178 2.548 2.687 4.882 5.685 6.982 9.005zm-21.397-.391c0 2.363-.352 4.609-1.035 6.729-.684 2.129-1.641 4.062-2.891 5.82s-2.734 3.32-4.453 4.688c-1.719 1.377-3.613 2.461-5.645 3.262l13.633-24.424c.137 .645 .234 1.27 .293 1.895s.098 1.298 .098 2.03z" fill="#3b73b9"/></svg>