<svg xmlns="http://www.w3.org/2000/svg" width="73.535" height="73.52" viewBox="0 0 73.535 73.52" enable-background="new 0 0 73.535 73.52"><path d="M64.336 0c2.559 0 4.727 .898 6.523 2.705 1.777 1.797 2.676 3.984 2.676 6.533v55.043c0 1.309-.254 2.52-.742 3.652-.498 1.113-1.152 2.07-1.963 2.891s-1.797 1.465-2.939 1.953c-1.152 .508-2.334 .742-3.555 .742h-23.262v-30.781h8.242c.371 0 .723-.117 1.025-.371s.459-.586 .459-1.016l.566-8.041c0-.439-.127-.82-.381-1.143-.322-.322-.693-.479-1.104-.479h-8.809v-3.545c0-1.309 .176-2.178 .508-2.607s1.191-.645 2.559-.645c.801 0 1.68 .059 2.656 .195 .977 .117 1.914 .303 2.803 .518 .186 0 .4-.02 .645-.068s.42-.137 .557-.264c.312-.186 .537-.537 .664-1.055l1.094-7.754c.137-.928-.264-1.484-1.191-1.67-2.871-.801-5.869-1.182-9.004-1.152-9.6 0-14.404 4.678-14.404 14.023v4.023h-4.932c-1.055 0-1.562 .508-1.523 1.533v8.031c0 .391 .137 .742 .43 1.035 .283 .312 .645 .449 1.094 .449h4.932v30.785h-18.819c-1.24 0-2.422-.234-3.535-.742-1.113-.488-2.09-1.133-2.9-1.953s-1.465-1.777-1.963-2.891c-.489-1.133-.743-2.344-.743-3.653v-55.043c0-1.24 .254-2.441 .742-3.594 .498-1.142 1.153-2.128 1.963-2.939 .811-.82 1.787-1.465 2.9-1.963s2.295-.742 3.536-.742h55.195z" fill="#3b73b9"/></svg>