<svg xmlns="http://www.w3.org/2000/svg" width="88.229" height="61.182" viewBox="0 0 88.229 61.182" enable-background="new 0 0 88.229 61.182"><path d="M84.586 0c.42 .029 .879 .146 1.387 .332 1.504 .635 2.256 1.738 2.256 3.301v53.955c0 1.562-.752 2.666-2.256 3.301-.508 .195-.967 .293-1.387 .293-1.055 0-1.934-.352-2.627-1.055l-23.125-22.549v11.348c0 1.494-.293 2.92-.889 4.258-.586 1.338-1.377 2.52-2.363 3.545-.996 1.016-2.148 1.826-3.477 2.412-1.328 .596-2.75 .889-4.283 .889h-36.767c-1.498 0-2.92-.293-4.258-.889-1.342-.586-2.515-1.396-3.521-2.412-1.006-1.025-1.802-2.197-2.393-3.516-.59-1.328-.883-2.754-.883-4.287v-36.768c0-1.504 .293-2.92 .884-4.258 .591-1.348 1.387-2.5 2.393-3.477 1.005-.966 2.178-1.747 3.52-2.343 1.338-.586 2.76-.889 4.258-.889h36.768c1.5 0 2.916 .303 4.264 .889 1.338 .596 2.5 1.377 3.496 2.344 .985 .976 1.776 2.129 2.362 3.476 .596 1.338 .889 2.754 .889 4.258v11.484l23.125-22.538c.732-.743 1.611-1.104 2.627-1.104z" fill="#f7f8fa"/></svg>