<svg xmlns="http://www.w3.org/2000/svg" width="37.885" height="75.004" viewBox="0 0 37.885 75.004" enable-background="new 0 0 37.885 75.004"><path d="M27.666 13.838c-1.689 0-2.734 .254-3.135 .781s-.596 1.611-.596 3.242v4.209h10.674c.449 0 .908 .225 1.387 .674 .322 .312 .479 .781 .479 1.387l-.811 9.805c0 .518-.176 .918-.527 1.23-.352 .303-.781 .449-1.299 .449h-9.902v37.533c0 .508-.186 .957-.547 1.309-.371 .371-.811 .547-1.328 .547h-12.344c-.508 0-.957-.176-1.318-.547-.361-.352-.547-.801-.547-1.309v-37.533h-5.987c-.508 0-.957-.176-1.318-.547s-.547-.81-.547-1.318v-9.717c0-.508 .186-.967 .547-1.367s.811-.596 1.318-.596h5.986v-4.883c0-11.426 5.84-17.158 17.52-17.188 3.926 0 7.627 .498 11.104 1.484 1.055 .322 1.523 1.006 1.387 2.061l-1.289 9.521c-.127 .518-.381 .928-.762 1.25-.508 .322-1.016 .41-1.484 .283-1.123-.254-2.275-.449-3.477-.576-1.192-.126-2.256-.184-3.184-.184z" fill="#ffffff"/></svg>