<svg xmlns="http://www.w3.org/2000/svg" width="88.232" height="73.569" viewBox="0 0 88.232 73.569" enable-background="new 0 0 88.232 73.569"><path d="M0 3.74c0-1.055 .361-1.943 1.074-2.656 .723-.723 1.582-1.084 2.569-1.084h7.324c1.045 0 1.943 .361 2.656 1.084 .713 .713 1.074 1.602 1.074 2.656v66.158c0 .996-.361 1.836-1.074 2.559s-1.611 1.074-2.656 1.074h-7.324c-.986 0-1.846-.352-2.568-1.074-.714-.723-1.075-1.562-1.075-2.559v-66.158zm15.508 35.186l31.27 33.746c.762 .898 1.768 1.113 3.008 .684 1.123-.527 1.68-1.426 1.68-2.734v-67.595c0-1.309-.557-2.256-1.68-2.832-.509-.127-.86-.195-1.056-.195-.859 0-1.504 .293-1.953 .869l-31.27 33.838c-.537 .518-.801 1.201-.781 2.07 .02 .86 .274 1.573 .782 2.149zm36.777 0l31.25 33.746c.771 .898 1.777 1.113 3.027 .684 1.113-.527 1.67-1.426 1.67-2.734v-67.595c0-1.309-.557-2.256-1.67-2.832-.517-.127-.869-.195-1.054-.195-.859 0-1.523 .293-1.973 .869l-31.25 33.838c-.547 .518-.811 1.201-.801 2.07 .02 .86 .284 1.573 .801 2.149z" fill="#ffffff"/></svg>