<svg xmlns="http://www.w3.org/2000/svg" width="88.223" height="73.553" viewBox="0 0 88.223 73.553" enable-background="new 0 0 88.223 73.553"><path d="M35.996 34.643c.508 .576 .762 1.289 .762 2.158 0 .859-.254 1.572-.762 2.148l-31.308 33.744c-.508 .586-1.162 .859-1.963 .859-.186 0-.537-.059-1.055-.176-1.113-.526-1.67-1.425-1.67-2.733v-67.69c0-1.25 .557-2.158 1.67-2.734 1.25-.439 2.256-.215 3.018 .674l31.308 33.75zm36.768 0c.508 .576 .762 1.289 .762 2.158 0 .859-.254 1.572-.762 2.148l-31.309 33.744c-.508 .586-1.162 .859-1.963 .859-.195 0-.547-.059-1.055-.176-1.113-.527-1.68-1.426-1.68-2.734v-67.689c0-1.25 .566-2.158 1.68-2.734 1.25-.439 2.246-.215 3.018 .674l31.309 33.75zm15.459-30.88c0-1.055-.352-1.943-1.074-2.656s-1.602-1.074-2.656-1.074h-7.324c-.986 0-1.846 .361-2.559 1.074-.723 .713-1.084 1.602-1.084 2.656v66.157c0 .996 .361 1.836 1.084 2.559 .713 .723 1.572 1.074 2.559 1.074h7.324c1.055 0 1.934-.352 2.656-1.074s1.074-1.562 1.074-2.559v-66.157z" fill="#ffffff"/></svg>