<svg xmlns="http://www.w3.org/2000/svg" width="58.828" height="73.539" viewBox="0 0 58.828 73.539" enable-background="new 0 0 58.828 73.539"><path d="M33.125 0c1.055 0 2.188 .264 3.398 .791 1.216 .527 2.173 1.143 2.871 1.846l16.807 16.797c.732 .732 1.357 1.699 1.865 2.9 .508 1.191 .762 2.314 .762 3.369v44.086c0 1.055-.352 1.953-1.074 2.656-.713 .723-1.562 1.094-2.559 1.094h-51.465c-1.05 0-1.938-.371-2.656-1.094-.718-.703-1.074-1.601-1.074-2.656v-66.156c0-.986 .356-1.836 1.074-2.559 .718-.713 1.607-1.074 2.656-1.074h29.395zm18.34 33.027h-21.978c-.991 0-1.836-.352-2.534-1.074-.703-.723-1.055-1.602-1.055-2.656v-21.924h-18.525v58.783h44.092v-33.129zm-38.638 6.465h33.179v5.512h-33.179v-5.512zm0 12.875h33.179v5.566h-33.179v-5.566zm38.638-26.664c0-.127-.068-.342-.195-.645s-.225-.488-.293-.547l-16.748-16.659c-.063-.127-.215-.225-.454-.293-.24-.059-.425-.127-.552-.186v18.33h18.242z" fill="#3b73b9"/></svg>