<svg xmlns="http://www.w3.org/2000/svg" width="88.229" height="73.535" viewBox="0 0 88.229 73.535" enable-background="new 0 0 88.229 73.535"><path d="M82.77 0c1.504 0 2.783 .547 3.848 1.631 1.074 1.084 1.611 2.373 1.611 3.877v62.52c0 1.504-.537 2.793-1.611 3.877-1.064 1.084-2.344 1.631-3.848 1.631h-77.266c-1.5 0-2.794-.547-3.878-1.631s-1.626-2.374-1.626-3.878v-62.519c0-1.504 .542-2.793 1.626-3.877s2.378-1.631 3.878-1.631h77.266zm-66.208 7.373c0-.508-.176-.947-.527-1.318-.352-.361-.795-.547-1.342-.547h-7.324c-.508 0-.947 .176-1.314 .527-.366 .352-.551 .801-.551 1.338v7.324c0 .508 .176 .957 .527 1.318 .352 .371 .795 .547 1.338 .547h7.324c.512 0 .951-.166 1.318-.518 .365-.352 .551-.801 .551-1.348v-7.323zm0 17.139c0-.508-.176-.947-.527-1.318-.352-.361-.795-.547-1.342-.547h-7.324c-.508 0-.947 .186-1.314 .547-.365 .371-.551 .811-.551 1.318v7.373c0 .508 .176 .947 .527 1.318 .352 .361 .795 .547 1.338 .547h7.324c.512 0 .951-.186 1.318-.547 .365-.371 .551-.811 .551-1.318v-7.373zm0 17.138c0-.508-.176-.947-.527-1.318-.352-.361-.795-.547-1.342-.547h-7.324c-.508 0-.947 .186-1.314 .547-.365 .371-.551 .811-.551 1.318v7.373c0 .508 .176 .947 .527 1.318s.795 .547 1.338 .547h7.324c.512 0 .951-.176 1.318-.547 .365-.371 .551-.811 .551-1.318v-7.373zm0 17.188c0-.508-.176-.947-.527-1.318-.352-.361-.795-.547-1.342-.547h-7.324c-.508 0-.947 .176-1.314 .527-.365 .352-.551 .791-.551 1.338v7.324c0 .508 .176 .947 .527 1.318 .352 .361 .795 .547 1.338 .547h7.324c.512 0 .951-.176 1.318-.527 .365-.352 .551-.791 .551-1.338v-7.324zm49.596-51.465c0-.508-.176-.947-.527-1.318-.352-.361-.791-.547-1.338-.547h-40.357c-.512 0-.951 .176-1.318 .527-.365 .352-.551 .801-.551 1.338v24.512c0 .508 .176 .947 .527 1.318 .352 .361 .801 .547 1.342 .547h40.357c.508 0 .947-.186 1.309-.547 .371-.371 .557-.811 .557-1.318v-24.512zm0 34.277c0-.508-.176-.947-.527-1.318-.352-.361-.791-.547-1.338-.547h-40.357c-.512 0-.951 .186-1.318 .547-.365 .371-.551 .811-.551 1.318v24.512c0 .508 .176 .947 .527 1.318 .352 .361 .801 .547 1.342 .547h40.357c.508 0 .947-.176 1.309-.527 .371-.352 .557-.791 .557-1.338v-24.512zm16.612-34.277c0-.508-.186-.947-.547-1.318-.371-.361-.811-.547-1.318-.547h-7.373c-.508 0-.957 .176-1.318 .527s-.547 .801-.547 1.338v7.324c0 .508 .186 .957 .547 1.318 .361 .371 .811 .547 1.318 .547h7.373c.508 0 .947-.166 1.318-.518 .361-.352 .547-.801 .547-1.348v-7.323zm0 17.139c0-.508-.186-.947-.547-1.318-.371-.361-.811-.547-1.318-.547h-7.373c-.508 0-.957 .186-1.318 .547-.361 .371-.547 .811-.547 1.318v7.373c0 .508 .186 .947 .547 1.318 .361 .361 .811 .547 1.318 .547h7.373c.508 0 .947-.186 1.318-.547 .361-.371 .547-.811 .547-1.318v-7.373zm0 17.138c0-.508-.186-.947-.547-1.318-.371-.361-.811-.547-1.318-.547h-7.373c-.508 0-.957 .186-1.318 .547-.361 .371-.547 .811-.547 1.318v7.373c0 .508 .186 .947 .547 1.318s.811 .547 1.318 .547h7.373c.508 0 .947-.176 1.318-.547 .361-.371 .547-.811 .547-1.318v-7.373zm0 17.188c0-.508-.186-.947-.547-1.318-.371-.361-.811-.547-1.318-.547h-7.373c-.508 0-.957 .176-1.318 .527s-.547 .791-.547 1.338v7.324c0 .508 .186 .947 .547 1.318 .361 .361 .811 .547 1.318 .547h7.373c.508 0 .947-.176 1.318-.527 .361-.352 .547-.791 .547-1.338v-7.324z" fill="#ffffff"/></svg>