<svg xmlns="http://www.w3.org/2000/svg" width="75.02" height="75.02" viewBox="0 0 75.02 75.02" enable-background="new 0 0 75.02 75.02"><path d="M71.279 0c1.055 0 1.943 .361 2.656 1.074 .713 .723 1.084 1.611 1.084 2.666 0 1.045-.371 1.924-1.113 2.627l-27.041 27.051v37.861c0 1.055-.361 1.943-1.084 2.656-.713 .723-1.597 1.084-2.651 1.084-1.05 0-1.929-.371-2.632-1.104l-11.299-11.25c-.732-.732-1.084-1.631-1.055-2.676v-26.571l-27.045-27.051c-.733-.732-1.099-1.611-1.099-2.627 0-1.055 .356-1.943 1.074-2.666 .718-.713 1.607-1.074 2.656-1.074h67.549z" fill="#f7f8fa"/></svg>