<svg xmlns="http://www.w3.org/2000/svg" width="69.229" height="76.555" viewBox="0 0 69.229 76.555" enable-background="new 0 0 69.229 76.555"><path d="M57.93 30.354c3.545 3.379 6.309 7.178 8.311 11.367 1.992 4.199 2.988 8.262 2.988 12.188 0 3.477-.82 6.602-2.461 9.355-1.65 2.764-3.975 5.127-6.973 7.09s-6.641 3.486-10.918 4.57-9.023 1.631-14.263 1.631c-5.234 0-9.99-.547-14.268-1.631s-7.92-2.607-10.938-4.57-5.337-4.336-6.968-7.109c-1.625-2.774-2.44-5.889-2.44-9.336 0-3.926 1.016-7.979 3.042-12.158s4.81-7.979 8.354-11.396c.317-.508 .854-.723 1.602-.625 .752 .098 1.255 .43 1.509 1.006 .127 .518 .127 .977 0 1.387-.254 1.123-.479 2.461-.669 4.023s-.254 3.184-.19 4.863c.063 1.67 .269 3.291 .62 4.854s.957 2.91 1.821 4.023c.986 1.182 2.231 1.963 3.73 2.344-1.562-4.912-2.202-9.59-1.914-14.023s1.069-8.574 2.349-12.402c1.274-3.828 2.896-7.285 4.858-10.391 1.963-3.086 3.853-5.752 5.674-7.988 1.816-2.236 3.379-3.936 4.688-5.098s1.997-1.797 2.061-1.895c.796-.576 1.548-.576 2.251 0 .322 .254 .537 .605 .645 1.035s.107 .82-.029 1.172c0 .059-.234 .742-.742 2.031-.488 1.289-.83 2.92-1.016 4.883-.195 1.963-.088 4.111 .332 6.436 .41 2.334 1.543 4.502 3.398 6.514 1.172 1.377 2.256 2.734 3.223 4.072 .977 1.338 1.807 2.832 2.5 4.473 .684 1.65 1.221 3.564 1.621 5.742 .4 2.188 .605 4.785 .605 7.783 0 1.055-.508 1.68-1.484 1.865-.391 .068-.781 0-1.172-.186-.41-.195-.664-.498-.801-.918-.449-.986-1.113-1.768-2.012-2.344-.889-.576-1.895-.859-3.008-.859-1.504 0-2.773 .537-3.809 1.602-1.035 1.074-1.558 2.373-1.558 3.906 0 3.857 2.495 5.771 7.476 5.742 3.125 0 5.566-1.006 7.324-3.018 1.172-1.367 2.031-2.988 2.559-4.854 .527-1.875 .85-3.701 .977-5.488s.156-3.418 .098-4.902-.127-2.48-.195-2.998c-.186-.381-.186-.84 0-1.387 .254-.576 .762-.908 1.514-1.006s1.317 .117 1.698 .625z" fill="#f7f8fa"/></svg>