<svg xmlns="http://www.w3.org/2000/svg" width="88.229" height="73.525" viewBox="0 0 88.229 73.525" enable-background="new 0 0 88.229 73.525"><path d="M14.693 7.373c0 1.309-.328 2.5-.977 3.564-.66 1.064-1.543 1.973-2.662 2.705v58.018c0 .518-.176 .947-.521 1.318-.352 .371-.787 .547-1.295 .547h-3.734c-.514 0-.934-.176-1.271-.547-.332-.371-.503-.8-.503-1.318v-58.017c-1.118-.732-2.017-1.641-2.705-2.705-.683-1.065-1.025-2.256-1.025-3.565 0-2.012 .718-3.74 2.153-5.195s3.175-2.178 5.216-2.178c2.012 0 3.734 .723 5.17 2.178s2.154 3.183 2.154 5.195zm70.42 1.055c.928-.518 1.68-.605 2.246-.293 .586 .322 .869 1.006 .869 2.061v35.811c0 .986-.303 2.012-.889 3.086s-1.328 1.855-2.227 2.373c-3.604 2.168-6.914 3.564-9.902 4.189-3.008 .615-5.625 .869-7.852 .742-2.617-.137-4.941-.664-6.943-1.582-1.631-.859-3.213-1.689-4.766-2.471s-3.135-1.465-4.756-2.061c-1.637-.586-3.35-1.055-5.152-1.406-1.807-.352-3.793-.527-5.961-.527-1.758 .059-3.736 .352-5.938 .859-1.885 .449-4.17 1.172-6.871 2.158-2.695 .986-5.703 2.393-9.023 4.209-.922 .508-1.699 .576-2.318 .195-.625-.391-.938-1.104-.938-2.158v-35.664c0-1.055 .312-2.109 .938-3.154 .619-1.055 1.396-1.836 2.318-2.354 3.32-1.748 6.318-3.125 9-4.111 2.68-.996 4.98-1.709 6.895-2.158 2.236-.508 4.213-.791 5.938-.859 2.168 0 4.154 .176 5.961 .527 1.803 .352 3.516 .82 5.152 1.416 1.621 .586 3.203 1.27 4.727 2.051 1.543 .781 3.135 1.602 4.795 2.471 2.002 .928 4.326 1.455 6.943 1.572 2.227 .137 4.844-.117 7.852-.742 2.988-.616 6.299-2.012 9.902-4.18z" fill="#333"/></svg>