<svg xmlns="http://www.w3.org/2000/svg" width="88.229" height="73.535" viewBox="0 0 88.229 73.535" enable-background="new 0 0 88.229 73.535"><path d="M17.471 27.148c-1.182 0-2.328 .195-3.447 .596-1.117 .4-2.162 .947-3.135 1.631-.971 .684-1.82 1.504-2.539 2.441-.717 .938-1.283 1.973-1.699 3.086l-6.651 20.489v-49.883c0-1.494 .542-2.793 1.626-3.877s2.378-1.631 3.878-1.631h33.129c1.5 0 2.789 .547 3.877 1.631 1.084 1.084 1.627 2.383 1.627 3.877 0 1.504 .537 2.793 1.605 3.857 1.064 1.064 2.35 1.602 3.854 1.602h21.201c1.504 0 2.793 .557 3.857 1.68 1.064 1.113 1.611 2.422 1.611 3.926v10.576h-58.794v-.001zm70.758 7.373l-12.452 36.29c-.186 .732-.674 1.367-1.455 1.914-.791 .537-1.543 .811-2.275 .811h-69.991l11.778-36.387c.189-.723 .678-1.348 1.459-1.865 .781-.508 1.539-.762 2.275-.762h70.661z" fill="#313337"/></svg>