<svg xmlns="http://www.w3.org/2000/svg" width="88.229" height="73.525" viewBox="0 0 88.229 73.525" enable-background="new 0 0 88.229 73.525"><path d="M82.77 10.957c1.504 0 2.783 .557 3.848 1.68 1.074 1.113 1.611 2.422 1.611 3.926v51.455c0 1.504-.537 2.793-1.611 3.887-1.064 1.084-2.344 1.621-3.848 1.621h-77.266c-1.5 0-2.794-.537-3.878-1.621-1.084-1.094-1.626-2.384-1.626-3.887v-62.52c0-1.494 .542-2.793 1.626-3.877s2.378-1.621 3.878-1.621h33.129c1.5 0 2.789 .537 3.877 1.621 1.084 1.084 1.627 2.383 1.627 3.877 0 1.504 .537 2.793 1.605 3.857 1.064 1.064 2.35 1.602 3.854 1.602h33.174z" fill="#333"/></svg>