<svg xmlns="http://www.w3.org/2000/svg" width="78.75" height="73.539" viewBox="0 0 78.75 73.539" enable-background="new 0 0 78.75 73.539"><path d="M0 73.539l.098-3.848c.322-.117 .791-.254 1.416-.371 .615-.137 1.387-.254 2.314-.391 2.939-.566 4.658-1.094 5.176-1.582 .508-.312 1.309-1.387 2.393-3.242l11.152-29.398 13.262-34.707h6.035l.527 .957 9.668 23.076c1.055 2.49 2.07 4.902 3.066 7.246 .986 2.354 1.924 4.668 2.822 6.973 .918 2.295 1.758 4.369 2.51 6.225s1.426 3.496 2.031 4.922c.391 .938 .84 2.051 1.367 3.359s1.113 2.812 1.748 4.492c.732 2.109 1.758 4.512 3.066 7.188 .791 1.562 1.338 2.48 1.621 2.734 .645 .566 1.729 .957 3.262 1.133 .791 .078 1.582 .215 2.363 .469 .791 .234 1.621 .508 2.52 .84 .186 1.172 .303 2.051 .332 2.617v.508c0 .215-.049 .469-.146 .801-1.367 0-2.803-.039-4.307-.098-1.494-.078-3.057-.156-4.688-.293-1.689-.137-3.271-.215-4.736-.293-1.475-.059-2.861-.098-4.17-.098h-3.828s-1.904 .039-2.539 .098l-9.521 .488-2.734 .098c0-.645 .02-1.27 .049-1.895s.078-1.23 .146-1.855l6.172-1.23c1.816-.449 2.891-.859 3.213-1.211 .381-.254 .586-.684 .615-1.289 0-.449-.107-.918-.332-1.426l-2.246-5.508-4.316-10.879-21.348-.079c-.381 .918-.977 2.441-1.768 4.59-.801 2.129-1.855 4.98-3.164 8.516-.732 2.012-1.084 3.359-1.055 4.023 0 .859 .254 1.543 .771 2.051 .439 .332 1.084 .605 1.914 .84 .83 .254 1.836 .469 3.018 .645 .439 .137 1.787 .332 4.014 .586v2.812c0 .527-.029 .957-.088 1.309-1.123 0-3.057-.078-5.801-.254-2.744-.156-6.318-.41-10.723-.762l-2.344 .43c-1.367 .254-2.695 .43-3.975 .527-1.27 .098-2.568 .156-3.877 .156h-.955zm26.279-31.367c4.316 .059 7.764 .137 10.342 .195 2.588 .059 4.268 .059 5.029 0l1.387-.098c-.576-1.625-1.221-3.402-1.934-5.336-.723-1.934-1.543-4.014-2.471-6.25-.928-2.227-1.748-4.18-2.461-5.84-.723-1.66-1.338-3.047-1.846-4.16l-8.046 21.489z" fill="#333"/></svg>