<svg xmlns="http://www.w3.org/2000/svg" width="73.535" height="73.56" viewBox="0 0 73.535 73.56" enable-background="new 0 0 73.535 73.56"><path d="M35.996 34.64c.508 .576 .762 1.299 .762 2.158 0 .863-.254 1.586-.762 2.152l-31.308 33.75c-.508 .567-1.163 .86-1.963 .86-.186 0-.537-.059-1.045-.195-1.123-.509-1.68-1.407-1.68-2.716v-67.699c0-1.24 .557-2.148 1.68-2.725 1.24-.449 2.246-.225 3.008 .664l31.308 33.751zm36.768 0c.508 .576 .771 1.299 .771 2.158 0 .863-.264 1.586-.771 2.152l-31.309 33.75c-.518 .566-1.162 .859-1.963 .859-.195 0-.547-.059-1.055-.195-1.113-.508-1.68-1.406-1.68-2.715v-67.699c0-1.24 .566-2.148 1.68-2.725 1.25-.449 2.246-.225 3.018 .664l31.309 33.751z" fill="#f7f8fa"/></svg>