<svg xmlns="http://www.w3.org/2000/svg" width="73.525" height="73.52" viewBox="0 0 73.525 73.52" enable-background="new 0 0 73.525 73.52"><path d="M69.502 45.082c1.123-1.113 2.07-1.504 2.852-1.172 .781 .352 1.172 1.328 1.172 2.949v22.832c0 1.133-.4 1.992-1.191 2.637-.742 .801-1.611 1.191-2.637 1.191h-22.833c-1.631 0-2.607-.391-2.949-1.172-.332-.781 .059-1.719 1.172-2.832l7.949-7.949-16.084-16.093-16.279 16.27 7.754 7.773c1.123 1.113 1.514 2.051 1.172 2.832-.332 .781-1.309 1.172-2.939 1.172h-22.833c-.996 0-1.865-.391-2.637-1.191-.8-.645-1.191-1.505-1.191-2.638v-22.832c0-1.621 .381-2.598 1.172-2.949 .781-.332 1.729 .059 2.842 1.172l7.754 7.773 16.279-16.185-16.182-16.182-7.851 7.852c-1.113 1.113-2.061 1.523-2.842 1.221-.791-.303-1.172-1.27-1.172-2.901v-22.832c0-.986 .361-1.904 1.094-2.725 .869-.742 1.777-1.103 2.734-1.103h22.832c1.631 0 2.607 .391 2.939 1.172 .342 .781-.049 1.729-1.172 2.842l-7.656 7.568 16.182 16.182 15.889-15.986-7.754-7.764c-1.113-1.113-1.504-2.061-1.172-2.842 .342-.781 1.318-1.172 2.949-1.172h22.832c1.055 0 1.934 .361 2.637 1.104 .791 .791 1.191 1.699 1.191 2.725v22.831c0 1.631-.391 2.607-1.172 2.949-.781 .332-1.729-.059-2.852-1.182l-7.754-7.754-15.985 15.997 16.182 16.088 7.558-7.676z" fill="#3b73b9"/></svg>