<svg xmlns="http://www.w3.org/2000/svg" width="89.996" height="75.02" viewBox="0 0 89.996 75.02" enable-background="new 0 0 89.996 75.02"><path d="M88.131 26.289c.518 0 .947 .176 1.318 .547s.547 .801 .547 1.318v18.721c0 .508-.176 .947-.527 1.309-.352 .371-.801 .557-1.338 .557h-5.596v20.674c0 1.504-.557 2.812-1.66 3.926-1.094 1.123-2.432 1.68-3.994 1.68h-63.766c-1.562 0-2.881-.557-3.949-1.68-1.07-1.113-1.602-2.422-1.602-3.926v-20.675h-5.699c-.513 0-.952-.176-1.318-.527s-.547-.801-.547-1.338v-18.721c0-.518 .181-.947 .547-1.318s.806-.547 1.318-.547h25.801c-1.816 0-3.535-.352-5.141-1.035-1.617-.684-3.014-1.621-4.189-2.793-1.182-1.182-2.115-2.578-2.803-4.17-.689-1.592-1.031-3.301-1.031-5.127 0-1.816 .342-3.525 1.031-5.137 .688-1.621 1.621-3.008 2.803-4.199 1.176-1.172 2.568-2.109 4.164-2.793 1.592-.683 3.316-1.035 5.166-1.035 1.949 0 3.795 .391 5.533 1.172s3.148 1.895 4.238 3.33l7.563 9.717 7.564-9.717c1.113-1.436 2.529-2.549 4.258-3.33s3.574-1.172 5.557-1.172c1.816 0 3.525 .352 5.117 1.035 1.602 .684 2.988 1.621 4.17 2.793 1.182 1.191 2.109 2.578 2.803 4.17 .684 1.592 1.025 3.32 1.025 5.166 0 1.826-.342 3.535-1.025 5.127-.693 1.592-1.621 2.988-2.803 4.17-1.182 1.172-2.568 2.109-4.17 2.793-1.592 .684-3.301 1.035-5.117 1.035h25.752zm-66.065-13.125c0 1.572 .537 2.891 1.605 3.955 1.07 1.064 2.402 1.602 3.994 1.602h11.348l-7.227-9.385c-.322-.312-.83-.703-1.533-1.172-.703-.459-1.562-.693-2.588-.693-1.562 0-2.885 .557-3.969 1.68-1.089 1.113-1.63 2.451-1.63 4.013zm32.364 13.125h-18.864v38.154c0 1.045 .387 1.953 1.148 2.705 .766 .742 1.66 1.123 2.686 1.123h11.201c1.055 0 1.953-.381 2.705-1.123 .752-.752 1.123-1.66 1.123-2.705v-38.154zm-3.448-7.568h11.396c1.562 0 2.871-.537 3.945-1.602s1.602-2.383 1.602-3.955c0-1.562-.527-2.9-1.602-4.014-1.074-1.123-2.383-1.68-3.945-1.68-1.055 0-1.924 .234-2.617 .693-.684 .469-1.182 .859-1.504 1.172l-7.275 9.386z" fill="#313337"/></svg>