<svg xmlns="http://www.w3.org/2000/svg" width="73.535" height="73.52" viewBox="0 0 73.535 73.52" enable-background="new 0 0 73.535 73.52"><path d="M64.297 0c2.549 0 4.727 .898 6.523 2.705 1.807 1.797 2.715 3.984 2.715 6.533v55.043c0 1.309-.254 2.52-.742 3.652-.498 1.113-1.152 2.07-1.973 2.891-.811 .82-1.797 1.465-2.939 1.953-1.143 .508-2.344 .742-3.584 .742h-16.133v-1.191c0-1.25 .02-2.793 .088-4.648 .068-1.836 .01-3.691-.166-5.527s-.566-3.496-1.172-5-1.641-2.559-3.115-3.164c6.006-.625 10.635-2.383 13.887-5.254s4.883-7.461 4.883-13.744c0-2.109-.361-4.141-1.084-6.123-.713-1.982-1.797-3.799-3.223-5.459 .195-.732 .312-1.455 .381-2.158 .068-.693 .088-1.416 .088-2.148 0-1.309-.146-2.764-.449-4.365-.303-1.592-.801-2.949-1.504-4.062h-.576c-1.377-.059-2.637 .068-3.779 .41-1.152 .332-2.236 .771-3.262 1.309-1.016 .547-2.012 1.152-2.988 1.797-.977 .654-2.021 1.289-3.135 1.895-1.055-.127-2.1-.225-3.135-.293-1.035-.059-2.09-.098-3.145-.098-1.045 0-2.09 .039-3.125 .098-1.035 .068-2.09 .166-3.145 .293-1.113-.576-2.158-1.201-3.125-1.865-.977-.674-1.973-1.279-2.998-1.826-1.025-.537-2.1-.977-3.232-1.309-1.133-.342-2.402-.469-3.809-.41h-.566c-.742 1.113-1.25 2.471-1.543 4.062-.283 1.602-.43 3.057-.43 4.365 0 .732 .039 1.455 .098 2.178 .068 .713 .195 1.426 .391 2.129-1.445 1.621-2.5 3.447-3.184 5.459-.693 2.002-1.035 4.053-1.035 6.123 0 6.166 1.523 10.678 4.57 13.549s7.539 4.668 13.477 5.352c-1.24 .527-2.188 1.328-2.852 2.402-.645 1.094-1.172 2.285-1.543 3.594-.869 .254-1.66 .508-2.383 .742-.713 .234-1.523 .352-2.412 .352-1.748 0-3.154-.449-4.209-1.367-1.055-.898-2.012-1.895-2.852-2.988-.84-1.074-1.748-2.07-2.705-2.988s-2.216-1.371-3.779-1.371c-.137 0-.459 .039-.977 .098-.527 .059-.801 .254-.801 .566 0 .742 .312 1.25 .938 1.543s1.123 .586 1.504 .898c1.25 .996 2.148 2.129 2.715 3.398 .547 1.289 1.172 2.5 1.855 3.672 .693 1.172 1.689 2.168 2.998 2.988 1.309 .84 3.33 1.25 6.084 1.25 1.113 0 2.383-.176 3.828-.527 0 .312-.02 .605-.049 .879s-.049 .547-.049 .801c0 .918 .029 1.875 .098 2.852 .059 .957 .029 1.914-.098 2.832h-15.175c-2.559 0-4.727-.898-6.533-2.695s-2.705-3.985-2.705-6.544v-55.043c0-1.24 .244-2.441 .742-3.594 .488-1.142 1.153-2.128 1.963-2.939 .811-.82 1.777-1.465 2.9-1.963 1.114-.498 2.325-.742 3.633-.742h55.059z" fill="#f7f8fa"/></svg>