<svg xmlns="http://www.w3.org/2000/svg" width="88.418" height="76.488" viewBox="0 0 88.418 76.488" enable-background="new 0 0 88.418 76.488"><path d="M88.418 39.443c0 7.436-1.055 13.549-3.184 18.354-2.119 4.805-5.127 8.594-9.023 11.328-3.887 2.754-8.555 4.668-13.975 5.742-5.42 1.094-11.426 1.621-17.998 1.621-6.602 0-12.637-.527-18.096-1.621-5.459-1.074-10.117-2.988-13.975-5.742-3.867-2.734-6.855-6.523-8.984-11.328-2.119-4.805-3.183-10.918-3.183-18.354 0-3.662 .586-7.217 1.777-10.645 1.172-3.438 2.979-6.523 5.41-9.268l-.146-.195 .146-.088c-.508-1.25-.859-2.539-1.035-3.887-.176-1.338-.254-2.695-.254-4.062 0-.801 .02-1.699 .088-2.705s.186-2.051 .381-3.135 .439-2.1 .742-3.047c.313-.936 .684-1.737 1.133-2.411h.371c1.953 0 3.711 .205 5.293 .596 1.582 .4 3.086 .957 4.531 1.68 1.426 .713 2.822 1.543 4.16 2.49 1.348 .938 2.793 1.904 4.355 2.891 2.744-.791 5.596-1.318 8.545-1.572 2.959-.254 5.869-.391 8.74-.391s5.781 .137 8.711 .391 5.811 .781 8.613 1.572c1.504-.986 2.939-1.953 4.316-2.891 1.367-.947 2.754-1.777 4.16-2.49 1.406-.723 2.891-1.279 4.473-1.68 1.584-.391 3.351-.596 5.295-.596h.479c.381 .635 .732 1.436 1.025 2.393 .312 .957 .557 1.982 .742 3.066 .195 1.084 .342 2.129 .43 3.135 .098 1.006 .156 1.904 .156 2.705 0 1.367-.098 2.725-.293 4.062-.195 1.348-.508 2.637-.957 3.887v.088l-.098 .195c2.422 2.744 4.219 5.83 5.391 9.268 1.162 3.428 1.738 6.982 1.738 10.644zm-29.102-4.023c-2.49 0-4.98 .117-7.49 .342s-5.01 .332-7.49 .332c-2.49 0-5-.107-7.52-.332s-5.02-.342-7.52-.342c-5.166 0-9.346 1.396-12.539 4.17s-4.785 6.879-4.785 12.309c0 4.629 1.025 8.203 3.086 10.723s4.688 4.375 7.9 5.547 6.699 1.875 10.479 2.051c3.789 .195 7.422 .293 10.898 .293 2.363 0 4.785-.02 7.295-.098 2.51-.059 4.951-.254 7.354-.586 2.393-.352 4.668-.879 6.816-1.641 2.158-.742 4.033-1.816 5.625-3.223 1.602-1.406 2.871-3.184 3.828-5.352 .957-2.148 1.445-4.785 1.445-7.91 0-2.676-.43-5.039-1.299-7.07-.859-2.016-2.061-3.715-3.584-5.092-1.543-1.367-3.359-2.402-5.488-3.086-2.118-.684-4.452-1.035-7.011-1.035zm-35.664 14.506c0-2.109 .42-3.906 1.27-5.41 .84-1.498 1.895-2.24 3.135-2.24s2.305 .742 3.184 2.24c.879 1.504 1.318 3.301 1.318 5.41s-.439 3.906-1.318 5.391-1.943 2.227-3.184 2.227-2.295-.742-3.135-2.227c-.85-1.485-1.27-3.282-1.27-5.391zm20.586 17.715c-1.367 0-2.617-.449-3.73-1.367-1.123-.898-1.934-2.109-2.441-3.613-.195-.508 0-.898 .566-1.191 .508-.195 .898 .02 1.152 .625 .859 2.422 2.344 3.613 4.453 3.594 .986 0 1.895-.332 2.705-.996 .811-.645 1.377-1.523 1.699-2.598 .254-.645 .674-.859 1.24-.625 .508 .195 .723 .586 .625 1.191-.508 1.504-1.328 2.715-2.441 3.613-1.113 .917-2.392 1.367-3.828 1.367zm2.823-10.293c0-.391-.283-.723-.83-.996-.566-.293-1.23-.449-1.992-.449-.801 0-1.484 .156-2.031 .449-.566 .273-.84 .605-.84 .996s.273 .723 .84 1.035c.547 .293 1.23 .449 2.031 .449s1.465-.156 2.012-.449c.546-.313 .81-.645 .81-1.035zm17.763-7.422c0-2.109-.43-3.906-1.289-5.41-.869-1.498-1.904-2.24-3.115-2.24-1.24 0-2.314 .742-3.213 2.24-.889 1.504-1.338 3.301-1.338 5.41s.449 3.906 1.338 5.391c.898 1.484 1.973 2.227 3.213 2.227s2.285-.742 3.135-2.227c.84-1.485 1.269-3.282 1.269-5.391z" fill="#333"/></svg>