<svg xmlns="http://www.w3.org/2000/svg" width="73.633" height="73.535" viewBox="0 0 73.633 73.535" enable-background="new 0 0 73.633 73.535"><path d="M43.278 35.479v30.684h11.87c1.055 0 1.934 .361 2.656 1.074 .723 .723 1.074 1.572 1.074 2.568 0 1.045-.352 1.934-1.074 2.656-.723 .713-1.602 1.074-2.656 1.074h-36.762c-.991 0-1.846-.361-2.563-1.074-.718-.723-1.079-1.611-1.079-2.656 0-.996 .361-1.846 1.079-2.568 .718-.713 1.572-1.074 2.563-1.074h11.968v-30.684l-29.205-29.209c-1.182-1.172-1.45-2.52-.815-4.023 .64-1.495 1.758-2.247 3.354-2.247h66.157c1.631 0 2.783 .752 3.447 2.246 .645 1.504 .371 2.852-.82 4.023l-29.194 29.21z" fill="#313337"/></svg>