<svg xmlns="http://www.w3.org/2000/svg" width="76.445" height="76.5" viewBox="0 0 76.445 76.5" enable-background="new 0 0 76.445 76.5"><path d="M38.247 0c5.171 0 10.073 1.016 14.702 3.047s8.691 4.785 12.178 8.281c3.496 3.496 6.26 7.559 8.281 12.207s3.037 9.551 3.037 14.723c0 5.234-1.016 10.156-3.037 14.766s-4.785 8.652-8.281 12.148c-3.486 3.496-7.549 6.27-12.178 8.281-4.629 2.031-9.531 3.047-14.702 3.047-5.234 0-10.156-1.016-14.766-3.047-4.614-2.012-8.667-4.785-12.163-8.281-3.491-3.496-6.255-7.539-8.281-12.148s-3.037-9.532-3.037-14.766c0-5.172 1.011-10.074 3.037-14.723s4.79-8.711 8.281-12.207c3.496-3.496 7.549-6.25 12.163-8.281 4.61-2.031 9.532-3.047 14.766-3.047zm-15.415 7.949c-1.118 .059-2.363 .586-3.735 1.582s-2.71 2.148-4.019 3.438c-1.309 1.309-2.515 2.656-3.613 4.023-1.104 1.387-1.958 2.52-2.563 3.398h.19c.127 0 .327-.039 .601-.137 .269-.098 .405 .039 .405 .43 0 .137-.049 .293-.142 .508-.098 .195 .078 .312 .527 .312 .127 0 .205-.098 .239-.293 .029-.195 .078-.195 .142 0l.19 .762v.098c0 .137-.078 .234-.239 .293-.156 .059-.205 .156-.142 .293 .127 .117 .278 .176 .454 .176h.454l.19-.098 .098-.078c0 .176 .098 .312 .288 .391 .19 .098 .352 .137 .479 .137h.093c0 .059-.063 .117-.19 .176-.127 .078-.127 .176 0 .293l1.104 .195v.098l.669 1.387c0 .117-.049 .293-.142 .469-.098 .195-.21 .293-.337 .293s-.176-.039-.142-.137c.029-.098 .044-.215 .044-.332 0-.137-.029-.254-.093-.352s-.303-.137-.718-.137l-.239 .039c-.098 .039-.112 .117-.049 .254l.576 1.23 .142 .098 .098 .098c-.322 0-.537 .391-.649 1.152s-.166 1.309-.166 1.621l.19 .879 .098 .273v.195l-.195 .918 1.392 2.051h.288c.063 .137 .029 .254-.098 .391-.127 .117-.161 .254-.098 .371l.386 .391c0 .312 .063 .547 .19 .684 .127 .156 .337 .348 .62 .602-.063 .391 .264 .742 .986 1.074 .718 .332 1.172 .566 1.362 .703 .254 .723 .576 1.445 .957 2.168s.845 1.328 1.387 1.855l.098 .664c0 .059-.078 .137-.239 .195s-.176 .156-.049 .273l.767 .352c.127-.137 .293 0 .503 .371 .205 .391 .376 .645 .503 .762l-.098 .293 .576 .82 .288 .098 .19-.391c-.127-.312-.352-.742-.669-1.27-.322-.527-.649-1.035-.981-1.523-.337-.508-.615-.938-.84-1.348-.225-.391-.337-.625-.337-.684 0-.078-.029-.332-.093-.781s-.127-.703-.19-.801c.19 .117 .43 .234 .718 .352s.527 .234 .718 .352c.127 .801 .439 1.445 .933 1.914 .493 .488 .933 1.035 1.318 1.641-.132 .117-.132 .195 0 .234 .127 .039 .239 .059 .332 .059 .127 .117 .19 .352 .19 .664 .449 .508 1.03 1.211 1.748 2.109 .718 .879 1.079 1.582 1.079 2.109v.078l-.19 .684c.19 .508 .518 .918 .981 1.211 .459 .312 .913 .547 1.362 .742h.19c.64 .332 1.294 .664 1.963 1.035 .674 .371 1.357 .684 2.061 .938l1.099-.684c.259 .078 .527 .234 .815 .488l.981 .879s.796 .645 1.294 .938c.493 .293 1.06 .469 1.699 .527 .444-.312 .669-.234 .669 .234v.195l1.196 1.445 .19 .703c.322 .195 .649 .43 .981 .723 .337 .293 .601 .605 .791 .957h.19c.322 0 .586 .156 .791 .43 .21 .293 .469 .43 .791 .43 .186 0 .283-.098 .283-.273 0-.449 .039-.742 .098-.898 .059-.137 .146-.234 .234-.254 .098-.039 .195-.059 .293-.059s.146-.059 .146-.195l-.195-.273c-.127 0-.225 .078-.283 .234-.068 .156-.156 .176-.293 .039l-.669 .391-.811-.195-1.147-1.953 .381-2.734c.063-.117-.059-.273-.361-.43s-.391-.312-.264-.469c-.444-.273-.986-.391-1.626-.391-.127 0-.454 .039-.981 .137s-.791 .059-.791-.137 .049-.449 .146-.762c.093-.332 .205-.664 .332-1.035s.225-.684 .288-.938 .098-.41 .098-.469l.62-1.289-.142-.195-.767-.195c-.127 0-.337 .098-.62 .293-.288 .176-.571 .41-.84 .684-.273 .273-.503 .547-.693 .801s-.288 .469-.288 .664l-2.153 .469c-.449 0-.815-.176-1.104-.566-.127-.508-.396-1.074-.811-1.699s-.625-1.172-.625-1.66c0-.723 .127-1.406 .386-2.051 .254-.645 .156-1.328-.288-2.051 .063 0 .142-.039 .239-.098 .093-.059 .112-.156 .049-.293l.571-.664 .098-.098 .093 .098c.449-.332 1.04-.43 1.772-.332 .737 .078 1.196-.137 1.392-.684l.762 .625c.127 .059 .273 0 .435-.215 .156-.195 .239-.371 .239-.508l-.386-.176 1.87-.488 .093 .293 .913-.098 1.05 .664c.127 0 .254-.078 .386-.234 .127-.156 .269-.176 .43-.059l.957 1.016c-.127 .254-.142 .449-.049 .566 .098 .137 .146 .254 .146 .391 0 .195 .166 .625 .498 1.309 .337 .684 .635 1.035 .889 1.035 .322 0 .459-.215 .43-.625s-.049-.684-.049-.801c0-.645-.127-1.27-.381-1.875s-.498-1.23-.718-1.875v-.273c0-.332 .2-.605 .596-.84 .405-.254 .601-.391 .601-.469 .312-.254 .684-.508 1.074-.762 .4-.254 .703-.547 .889-.898l.381-.777v-.469h.293c.117 0 .186-.098 .186-.293 0-.059-.049-.117-.146-.156-.098-.059-.205-.137-.332-.273-.127-.059-.254-.156-.381-.293l.283-.176c.137-.195 .225-.43 .293-.723 .059-.293 .029-.547-.098-.762l.723-.391c-.068 .195 0 .312 .186 .391 .186 .059 .352 .059 .479 0l.479-.781c-.127-.312-.205-.43-.244-.332-.02 .098 .059 0 .244-.332 .322-.117 .635-.273 .938-.449s.615-.273 .928-.273c.068 .078 .137 .098 .195 .098 .195 0 .293-.02 .293-.098 0-.312-.068-.508-.195-.566l.566-1.191c.449 0 .781-.195 1.016-.586l.859-.098c.195-.059 .283-.176 .283-.371v-.098l1.68-.488 .186-.527-.469-.664c.059 0 .088-.059 .088-.195 0-.117-.068-.215-.186-.273l-.342-.195c-.088-.059-.205-.137-.332-.195l-.186 .098 .186-.098h.9079999999999999s.43-.137 .43-.43c0-.391-.215-.586-.664-.586-.586 0-1.24 .137-1.992 .41-.742 .273-1.27 .742-1.553 1.367l-.674 .391 .859-.859 .146-.293c0-.137-.146-.215-.459-.273-.293-.039-.391-.059-.254-.059 .566 0 1.016-.059 1.309-.195 .312-.137 .557-.273 .742-.43l.605-.488c.205-.156 .498-.293 .879-.43 .742 .137 1.445 .176 2.109 .098 .664-.059 1.367-.098 2.109-.098 .195-.117 .381-.254 .566-.391 .195-.156 .322-.312 .391-.508l1.094-.195c.137 .137 .322 .098 .586-.098 .254-.195 .371-.352 .371-.469 0-.332-.176-.527-.527-.625s-.527-.332-.527-.684l.059-.273c.029-.137-.02-.195-.146-.195-.186 0-.498 .098-.928 .293-.439 .176-.742 .352-.938 .469-.137 .059-.215 .059-.244-.039s-.049-.215-.049-.352l.098 .098 .391-.176 1.094-.391 .195-.195c0-.195-.117-.312-.361-.371-.244-.078-.42-.098-.557-.098-.117 0-.312 .039-.566 .137s-.391 .039-.391-.137l.098-.195c-.381-.312-.723-.684-1.025-1.074-.303-.41-.459-.664-.459-.801 0-.117 .02-.254 .049-.41 .029-.137-.049-.215-.244-.215-.117 0-.234 .02-.332 .059s-.137-.059-.137-.234c0-.137-.078-.41-.244-.82-.156-.41-.381-.625-.674-.625l-.371 .391c0 .176-.098 .332-.293 .43s-.293 .195-.293 .332h-.186l-1.006 .566c-.059-.117-.146-.156-.234-.098-.098 .078-.215 .098-.342 .098h-.088l-.098 .098c.254 0 .361-.137 .332-.43-.039-.293-.146-.43-.332-.43l-.771 .195c-.127 0-.205-.02-.215-.059-.01-.02 .01-.078 .098-.176 .078-.098 .146-.215 .215-.352 .068-.117 .068-.254 0-.371-.068-.137-.166-.137-.312-.059-.146 .098-.215 .098-.215-.039h.283l.244-.234c.068-.078 .039-.176-.068-.332-.117-.176-.205-.273-.273-.352l-1.055-.176-.664-.586c-.059 .059-.176 .02-.352-.137s-.332-.273-.459-.332l-.771 .273-1.865-.43c-.127 0-.254 .039-.381 .117-.127 .098-.195 .195-.195 .312 0 .137 .068 .234 .195 .293s.195 .156 .195 .293c0 .117 .039 .469 .137 1.016 .098 .566 .02 .781-.234 .664l-.488 .664c.068 .117 .176 .234 .342 .332s.322 .215 .479 .352c.156 .156 .303 .312 .43 .508s.156 .488 .098 .859l-2.148 1.484v.195c0 .254 .059 .488 .186 .723 .127 .215 .254 .508 .381 .859 .322 .137 .469 .234 .459 .332-.02 .098-.127 .195-.342 .293l-.596 .293c-.189 .078-.287 .175-.287 .234s-.068 .098-.195 .098h-.571c0-.078 .029-.117 .093-.156 .063-.02 .098-.098 .098-.234l-.908-.566v.098l-.386-.781c.127-.312 .146-.547 .049-.684-.098-.156-.142-.312-.142-.508 0-.508-.234-.762-.698-.762-.459 0-.947 .059-1.46 .195 .127-.078 .112-.176-.044-.312-.161-.156-.273-.215-.337-.215-.513 0-1.118-.234-1.821-.684-.698-.43-1.274-.664-1.724-.664-.19 0-.415 .039-.669 .098l-.718 .195c.127-.059 .21-.234 .239-.488l-.62-1.094-.098-.098c-.19 0-.415 .078-.669 .234-.259 .156-.386 .02-.386-.43 0-.059 .034-.117 .098-.195 .063-.059 .063-.117 0-.176-.063-.391 .015-.723 .239-.996s.4-.566 .527-.879c.127-.137 .19-.254 .19-.391 0-.117 .063-.176 .19-.176 .259 0 .503-.078 .742-.215 .239-.156 .518-.254 .84-.312l.093-.293c0-.137-.342-.234-1.025-.332-.688-.098-1.03-.215-1.03-.332l.093-.098c.64 .176 1.128 .293 1.465 .332 .332 .039 .61 0 .835-.098s.488-.215 .791-.391c.303-.156 .771-.371 1.411-.664 0-.117-.342-.254-1.03-.391-.684-.117-1.123-.254-1.313-.371h.571c.127 0 .298 .02 .503 .098 .21 .059 .376 .117 .503 .195 0 .117 .098 .195 .288 .234l.479 .039 .718-.469v-.291l-.19-.293 1.055-.195c-.068-.059-.049-.117 .044-.176 .098-.078 .176-.098 .239-.098 .195 0 .391 .098 .601 .273 .205 .195 .342 .293 .405 .293l.957-.371c-.063-.078 .024-.117 .264-.156 .239-.02 .312-.117 .215-.273l-.671-.781c-.063 0-.112-.039-.142-.137-.034-.098-.02-.137 .049-.137 .317 0 .41-.176 .283-.488-.254-.117-.522-.273-.811-.449s-.605-.273-.956-.273c-.132 0-.273 .039-.435 .098-.156 .078-.239 .176-.239 .332 0 .137 .083 .195 .239 .195 .161 0 .273 .059 .337 .195 .127 .137 .098 .195-.098 .195-.19 0-.283 .02-.283 .098-.259 0-.498 .176-.718 .566-.225 .391-.513 .664-.864 .82-.127 0-.176-.039-.142-.117 .029-.078 .015-.156-.049-.215-.063-.137-.176-.215-.337-.254-.161-.02-.239-.098-.239-.234 0-.117 .078-.332 .239-.625 .161-.273-.049-.43-.62-.43-.259 0-.439 .098-.552 .293l-.361 .566-1.05-1.191-.815-.098c0-.254 .054-.469 .166-.664s-.039-.449-.454-.762l-.527-.371c-.156-.098-.332-.156-.522-.156-.068 0-.22 .059-.459 .215l-.645 .391c-.19 .137-.288 .273-.288 .391 0 .137 .161 .195 .479 .195h-.093c-.195 0-.288 .117-.288 .391 0 .059 .151 .137 .454 .234s.518 .137 .645 .137c.127-.059 .225-.039 .288 .078s.161 .156 .288 .156l.381-.137v.234c-.063 .078-.093 .137-.093 .195l.093 .391-.957 .469c-.063 .059-.127 .098-.19 .098l-.239 .098c0 .195 .088 .391 .264 .605 .176 .195-.01 .312-.552 .312l-.29-.194c0-.254-.259-.469-.786-.645s-1.167-.293-1.914-.371c-.752-.059-1.504-.098-2.251-.137-.752-.039-1.318-.059-1.699-.059l-1.582 .488 .386 .918c-.132 0-.21 .039-.239 .137-.034 .098 .015 .176 .142 .234l-.718-.684c-.352-.352-.591-.508-.718-.508l-.816-.194zm5.889-2.051c-.127-.078-.288-.137-.479-.195s-.352-.098-.479-.098-.391 .078-.791 .234-.845 .352-1.338 .547l-1.416 .605-.908 .391c.449-.078 .854-.195 1.221-.391s.757-.293 1.172-.293l.288 .195c.19 .059 .366 .098 .527 .098s.303 .059 .43 .195c.259-.059 .527-.039 .815 .098l.288-.195v-.39l-.098-.234 .288 .098c.19 0 .381-.156 .576-.469l-.096-.196zm15.512 65.856c0 .176-.034 .273-.098 .352 3.677-.645 7.134-1.836 10.396-3.574 3.242-1.738 6.152-3.984 8.711-6.719h-.098c-.254 .117-.488 .117-.674 0l-.244 .176-.566-.176h-.195l-.195 .371 .098-.371c-.195-.254-.41-.508-.664-.723l-.195-.098c-.127 0-.195 .117-.195 .371 .068-.508-.068-.938-.4-1.309-.342-.371-.762-.547-1.27-.547 0 .059-.029 .098-.098 .098h-.186l-.244-.195h.342l.186-.566-.527-.391-.098 .098c-.439-.059-.771-.312-.957-.762l-.186-.098-.098 .098-.195 .098c-.381 .117-.723 .254-1.006 .371-.381-.117-.674-.293-.859-.469l-1.299 .098c0-.195-.059-.391-.186-.605s-.322-.312-.576-.312c-.312 0-.645 .039-.977 .098s-.566 .273-.703 .625c0 .117 .039 .254 .098 .371 .068 .137 .137 .234 .195 .293v.391l-.098 .273-.195 .098h-.098l-.273-.762 .273-.469c-.059-.137-.088-.312-.088-.508 0-.215-.029-.371-.098-.508l-.088-.195h-.293l-.723 .488h-.381l-.186 .195c-.068 .059-.098 .117-.098 .176 0 .078-.039 .117-.098 .156l-.098-.156h-.378c-.264 .273-.4 .566-.43 .918l.146 .195-.43 .273-.098 .195-.293 .195-.039 .098c-.039 0-.059 .039-.059 .098v.528l-.098 .098v-.195l-.088-.098c-.068-.391-.439-.723-1.104-.996h-.293v.176c.068 .195 .205 .371 .41 .508 .215 .137 .371 .273 .508 .41-.068-.059-.146-.078-.244-.039-.088 .02-.146 .078-.146 .137v.195l.674 .957v1.855l.195 .488c-.127 .508-.381 .938-.771 1.289v-.098l-.195 .098-.137 .098-.098 .469 .098 .098v.098l-.195-.195-.098 .625-.565 .193c-.195 .137-.273 .312-.234 .527 .02 .234-.059 .391-.244 .527l.088 .195-.283 .273c0 .137-.015 .234-.049 .312-.029 .098-.044 .195-.044 .312l.093 .684 .283 .176 .195-.176 .098-.293 .097 .568c0 .137-.068 .254-.195 .391-.195 .137-.381 .273-.571 .449-.195 .176-.288 .43-.288 .742 0 .137 .049 .273 .142 .43 .097 .176 .145 .313 .145 .43z" fill="#f7f8fa"/></svg>