<svg xmlns="http://www.w3.org/2000/svg" width="73.525" height="75.023" viewBox="0 0 73.525 75.023" enable-background="new 0 0 73.525 75.023"><path d="M35.664 3.545c2.295 1.367 4.004 3.301 5.117 5.771 1.123 2.471 1.68 4.99 1.68 7.539 0 2.998-.527 5.381-1.582 7.158-1.055 1.768-2.217 3.281-3.496 4.521s-2.432 2.373-3.467 3.369c-1.045 1.016-1.562 2.266-1.562 3.76 0 1.436 .703 2.738 2.109 3.93 1.406 1.172 2.949 2.48 4.648 3.926 1.689 1.426 3.232 3.145 4.639 5.137s2.109 4.57 2.109 7.734c0 3.262-.801 6.055-2.393 8.398-1.602 2.344-3.613 4.277-6.055 5.801s-5.156 2.637-8.145 3.34c-2.979 .723-5.879 1.094-8.691 1.094-2.1 0-4.355-.254-6.768-.742-2.412-.508-4.648-1.309-6.709-2.422-2.051-1.113-3.75-2.559-5.098-4.316-1.336-1.758-2-3.945-2-6.563 0-3.184 .898-5.84 2.705-7.93 1.797-2.109 4.023-3.789 6.67-5.059 2.656-1.27 5.508-2.148 8.574-2.676s5.84-.82 8.33-.898c-.732-.918-1.396-1.934-1.992-3.047-.586-1.133-.879-2.344-.879-3.652 0-.727 .098-1.381 .312-1.957 .205-.576 .43-1.211 .693-1.914-.518 .127-1.045 .186-1.611 .186h-1.65c-2.168 0-4.238-.371-6.221-1.113-1.982-.752-3.701-1.816-5.166-3.184-1.475-1.377-2.656-2.998-3.545-4.863-.898-1.865-1.338-3.945-1.338-6.25 0-2.168 .391-4.209 1.191-6.123 .801-1.924 1.865-3.662 3.213-5.244 1.338-1.582 2.9-2.92 4.688-4.023s3.701-1.895 5.742-2.363c2.813-.587 5.616-.87 8.429-.87h19.678l-6.084 3.545h-6.075zm3.828 56.771c0-1.562-.342-2.988-1.035-4.277-.684-1.289-1.523-2.441-2.529-3.457-1.006-.996-2.139-1.934-3.379-2.812s-2.461-1.719-3.643-2.52c-.439-.059-.918-.117-1.406-.137-.498-.039-.967-.059-1.416-.059-1.816 0-3.779 .195-5.889 .605-2.1 .391-4.033 1.055-5.791 1.953-1.758 .918-3.203 2.129-4.355 3.613-1.153 1.505-1.719 3.38-1.719 5.607 0 2.168 .557 4.023 1.67 5.547 1.113 1.543 2.51 2.793 4.17 3.77 1.65 .977 3.486 1.68 5.479 2.109s3.867 .645 5.625 .645c1.631 0 3.291-.195 5-.547 1.709-.371 3.252-.977 4.619-1.836 1.377-.84 2.48-1.934 3.33-3.262 .839-1.348 1.269-2.988 1.269-4.942zm-13.691-28.959c3.057 0 5.195-.977 6.416-2.949 1.211-1.953 1.816-4.307 1.816-7.051 0-1.699-.234-3.584-.693-5.674-.469-2.09-1.182-4.072-2.158-5.938-.967-1.865-2.217-3.418-3.73-4.648-1.514-1.22-3.311-1.846-5.391-1.846-1.494 0-2.803 .293-3.926 .869-1.113 .576-2.031 1.357-2.744 2.344-.723 .986-1.27 2.119-1.631 3.398-.371 1.279-.547 2.607-.547 3.975 0 1.689 .273 3.564 .83 5.625s1.387 3.975 2.471 5.742c1.084 1.777 2.402 3.242 3.945 4.404 1.553 1.173 3.33 1.749 5.342 1.749zm47.724-20.586h-10.293v-10.39h-5.117v10.391h-10.293v5.029h10.293v10.293h5.117v-10.293h10.293v-5.03z" fill="#f7f8fa"/></svg>