<svg xmlns="http://www.w3.org/2000/svg" width="73.525" height="73.539" viewBox="0 0 73.525 73.539" enable-background="new 0 0 73.525 73.539"><path d="M64.287 0c2.559 0 4.736 .908 6.533 2.705 1.807 1.807 2.705 3.984 2.705 6.533v55.043c0 1.328-.244 2.539-.742 3.652-.488 1.113-1.143 2.07-1.963 2.891-.811 .82-1.797 1.465-2.939 1.973-1.152 .488-2.344 .742-3.594 .742h-27.91c.732-1.25 1.309-2.539 1.729-3.887 .41-1.348 .615-2.754 .615-4.258 0-2.227-.342-4.16-1.025-5.801-.684-1.621-1.553-3.066-2.607-4.297-1.055-1.25-2.178-2.363-3.379-3.34-1.191-.957-2.324-1.875-3.369-2.754-1.055-.859-1.924-1.699-2.617-2.559-.684-.84-1.025-1.797-1.025-2.852 0-1.562 .547-2.852 1.631-3.891 1.084-1.035 2.295-2.197 3.633-3.467 1.348-1.279 2.549-2.871 3.613-4.766 1.074-1.895 1.611-4.512 1.611-7.832 0-2.48-.625-4.99-1.875-7.51-1.24-2.52-2.93-4.473-5.068-5.85h6.27l6.367-3.633h-20.49c-4.121 0-7.91 .576-11.367 1.719-3.467 1.156-6.475 3.441-9.024 6.859v-6.182c0-1.24 .244-2.441 .732-3.584 .498-1.152 1.153-2.138 1.973-2.949 .811-.81 1.777-1.465 2.891-1.963s2.334-.742 3.642-.742h55.049zm-64.287 36.191c1.748 2.178 3.672 3.711 5.762 4.613 2.09 .918 4.541 1.367 7.354 1.367h1.719s1.123-.059 1.631-.195c-.254 .742-.479 1.406-.674 2.012-.186 .605-.283 1.289-.283 2.012 0 1.309 .283 2.559 .859 3.711 .576 1.172 1.26 2.246 2.061 3.242-3.32 .117-6.484 .488-9.502 1.074s-5.997 1.641-8.927 3.125v-20.961zm21.152 19.672c1.182 .859 2.432 1.738 3.74 2.617s2.5 1.855 3.584 2.93c1.084 1.094 1.973 2.285 2.656 3.594 .693 1.309 1.035 2.773 1.035 4.414 0 1.504-.303 2.871-.908 4.121h-22.021c-2.305 0-4.316-.781-6.055-2.363-1.748-1.562-2.773-3.477-3.096-5.781 .449-1.816 1.328-3.359 2.637-4.59 1.309-1.25 2.852-2.227 4.619-2.949s3.604-1.25 5.508-1.582c1.895-.332 3.662-.508 5.283-.508h1.514c.489 0 .997 .039 1.504 .097zm5.41-26.849c0 1.436-.146 2.773-.43 4.023-.283 1.24-.771 2.334-1.455 3.271-.693 .947-1.592 1.699-2.705 2.256-1.123 .557-2.461 .84-4.023 .84-2.109 0-3.955-.625-5.557-1.875-1.592-1.24-2.949-2.773-4.062-4.59-1.123-1.816-1.973-3.789-2.568-5.918-.586-2.119-.879-4.072-.879-5.859 0-1.367 .176-2.734 .547-4.072 .361-1.338 .928-2.51 1.67-3.516 .752-1.006 1.709-1.826 2.852-2.441 1.152-.625 2.51-.938 4.072-.938 2.168 0 4.053 .654 5.645 1.963 1.602 1.309 2.9 2.91 3.906 4.814s1.758 3.945 2.246 6.123c.497 2.188 .741 4.161 .741 5.919zm40.889-10.967h-10.683v-10.772h-5.215v10.771h-10.674v5.166h10.674v10.732h5.215v-10.731h10.684v-5.166z" fill="#f7f8fa"/></svg>