<svg xmlns="http://www.w3.org/2000/svg" width="90" height="75.004" viewBox="0 0 90 75.004" enable-background="new 0 0 90 75.004"><path d="M15.703 18.818c1.182 0 2.1 .303 2.754 .928s1.133 1.367 1.406 2.227c.293 .859 .469 1.768 .527 2.705 .068 .938 .098 1.699 .098 2.275v7.275c-.449 .254-.82 .547-1.123 .879-.303 .342-.742 .508-1.318 .508h-15.703c-.508 0-.928-.166-1.27-.508-.332-.332-.683-.625-1.074-.878v-7.275c0-.576 .02-1.338 .049-2.275s.195-1.846 .479-2.705c.293-.859 .762-1.602 1.416-2.227s1.572-.928 2.744-.928c-1.426-.928-2.568-2.139-3.418-3.623-.84-1.484-1.27-3.154-1.27-5 0-1.378 .273-2.686 .791-3.926 .527-1.24 1.26-2.333 2.197-3.281 .947-.938 2.041-1.67 3.281-2.197 1.251-.528 2.559-.792 3.926-.792 1.445 0 2.783 .264 4.023 .791 1.25 .527 2.324 1.26 3.232 2.197 .908 .948 1.65 2.041 2.197 3.281 .566 1.24 .84 2.549 .84 3.926 0 1.816-.43 3.486-1.309 4.98s-2.03 2.716-3.475 3.643zm59.981 23.061c2.109 1.895 3.77 3.75 4.961 5.586s1.797 3.926 1.797 6.289v18.535c-.391 .176-.703 .391-.957 .625-.254 .215-.547 .43-.889 .664-.342 .215-.713 .449-1.123 .684-.41 .254-.996 .488-1.719 .742h-65.498c-1.113 0-1.982-.352-2.607-1.074s-1.309-1.27-2.08-1.641v-18.535c0-2.48 .713-4.688 2.158-6.621 1.426-1.934 2.988-3.691 4.688-5.254 .312-.312 .723-.664 1.221-1.016 .498-.371 1.025-.625 1.602-.742 .576-.195 1.23-.312 1.963-.352 .732-.02 1.445-.098 2.148-.234 1.953-.312 4.023-.625 6.23-.938 2.207-.293 4.355-.605 6.465-.918-2.871-1.83-5.176-4.242-6.914-7.26-1.748-3.008-2.617-6.328-2.617-9.932 0-2.803 .547-5.459 1.631-7.969s2.549-4.678 4.404-6.514 4.023-3.291 6.504-4.375c2.499-1.092 5.136-1.629 7.948-1.629s5.459 .537 7.949 1.631c2.49 1.084 4.658 2.539 6.514 4.375 1.846 1.836 3.311 4.004 4.404 6.514 1.084 2.51 1.621 5.166 1.621 7.969 0 3.604-.859 6.904-2.578 9.912-1.729 2.998-4.043 5.43-6.943 7.279 2.1 .312 4.248 .605 6.436 .898s4.277 .605 6.25 .957c.732 .137 1.445 .215 2.148 .234 .703 .039 1.367 .156 1.973 .352 .566 .117 1.104 .371 1.602 .742 .487 .352 .936 .703 1.308 1.016zm9.628-23.061c1.182 0 2.08 .303 2.705 .928 .615 .625 1.074 1.367 1.357 2.227 .293 .859 .469 1.768 .527 2.705 .07 .937 .099 1.699 .099 2.275v7.275c-.381 .254-.742 .547-1.074 .879-.332 .342-.762 .508-1.27 .508h-15.703c-.566 0-1.016-.166-1.309-.508-.312-.332-.684-.625-1.133-.879v-7.275c0-.576 .039-1.338 .098-2.275s.254-1.846 .547-2.705c.312-.859 .781-1.602 1.445-2.227 .645-.625 1.553-.928 2.695-.928-1.426-.928-2.588-2.139-3.467-3.623s-1.318-3.154-1.318-5c0-1.377 .264-2.686 .791-3.926s1.26-2.333 2.197-3.281c.947-.938 2.041-1.67 3.281-2.197 1.251-.527 2.589-.791 4.025-.791 1.367 0 2.676 .264 3.926 .791s2.344 1.26 3.281 2.197c.938 .948 1.68 2.041 2.207 3.281s.781 2.549 .781 3.926c0 1.816-.42 3.486-1.27 4.98-.839 1.495-1.982 2.716-3.418 3.643z" fill="#f7f8fa"/></svg>