<svg xmlns="http://www.w3.org/2000/svg" width="76.445" height="91.773" viewBox="0 0 76.445 91.773" enable-background="new 0 0 76.445 91.773"><path d="M24.316 29.443l.098-18.047c0-1.572 .273-3.047 .83-4.453 .566-1.406 1.348-2.617 2.354-3.643 1.006-1.016 2.188-1.826 3.564-2.412 1.367-.595 2.871-.888 4.502-.888 1.562 0 3.037 .293 4.424 .889 1.387 .586 2.588 1.396 3.594 2.412 1.006 1.025 1.787 2.236 2.344 3.643s.84 2.881 .84 4.453v9.619c1.875 .322 3.574 .928 5.068 1.816 1.885-.312 3.77-.195 5.654 .361s3.545 1.455 4.98 2.705c2.422 0 4.512 .449 6.27 1.367 1.748 .908 3.193 2.119 4.307 3.633 1.113 1.523 1.943 3.262 2.49 5.244 .537 1.982 .811 4.092 .811 6.318 0 2.49-.254 4.863-.762 7.105-.518 2.247-1.084 4.435-1.7 6.525-.625 2.09-1.201 4.121-1.729 6.113-.527 2.012-.791 3.984-.791 5.977v17.89c0 1.562-.557 2.91-1.67 4.023-1.123 1.113-2.461 1.68-4.023 1.68h-30.781c-1.562 0-2.9-.547-4.023-1.66-1.113-1.094-1.67-2.441-1.67-4.043v-16.66c-.449-.859-.938-1.523-1.465-2.012-.527-.469-1.143-1.016-1.846-1.621-.635-.508-1.26-1.055-1.865-1.602-.605-.566-1.191-1.094-1.768-1.602-1.123-1.113-2.217-2.344-3.281-3.691-1.074-1.348-2.256-2.363-3.564-3.066-1.377-.801-2.959-1.27-4.766-1.426-1.807-.176-3.506-.449-5.098-.84-1.592-.41-2.939-1.113-4.023-2.109-1.084-1.015-1.621-2.753-1.621-5.25 0-1.943 .4-3.721 1.221-5.332 .811-1.611 1.904-2.979 3.271-4.092 1.377-1.123 2.949-1.982 4.717-2.588 1.777-.605 3.564-.908 5.391-.908 1.689 0 3.359 .244 5 .713 1.641 .488 3.213 1.094 4.717 1.826v-6.367zm16.846-1.005c0-2.871-.01-5.713-.049-8.525-.029-2.803-.039-5.645-.039-8.516 0-1.631-.488-2.969-1.465-4.023s-2.295-1.582-3.945-1.582c-1.699 0-3.047 .527-4.053 1.582s-1.504 2.393-1.504 4.023c0 5.488-.02 10.908-.049 16.279-.029 5.352-.049 10.752-.049 16.172-1.309 0-2.549-.254-3.73-.781s-2.383-1.094-3.594-1.68-2.471-1.133-3.779-1.631c-1.309-.488-2.744-.742-4.307-.742-1.055 0-2.1 .166-3.135 .508-1.045 .332-1.982 .791-2.832 1.387-.84 .596-1.533 1.318-2.051 2.197-.527 .879-.791 1.914-.791 3.086 0 .137-.02 .312-.049 .527-.029 .234-.02 .41 .049 .527 .127 .254 .254 .41 .381 .459s.322 .107 .576 .166c1.885 .381 3.857 .738 5.938 1.051 2.07 .332 3.955 .938 5.645 1.875 1.631 .918 3.027 2.09 4.209 3.496s2.432 2.754 3.74 4.062c.986 .918 1.885 1.719 2.705 2.344 .811 .645 1.582 1.309 2.295 1.992 .723 .684 1.387 1.465 2.012 2.324s1.191 1.914 1.699 3.164v.176h30.781c0-2.227 .264-4.414 .791-6.523 .527-2.129 1.084-4.258 1.67-6.367 .596-2.129 1.152-4.258 1.68-6.367 .527-2.125 .791-4.332 .791-6.637 0-1.367-.137-2.715-.41-4.023-.264-1.309-.713-2.441-1.338-3.418s-1.455-1.777-2.49-2.393c-1.035-.625-2.334-.938-3.896-.938-.449 0-.869 .02-1.27 .049-.4 .039-.811 .078-1.221 .146-.518-1.123-1.357-1.973-2.539-2.568-1.182-.586-2.363-.879-3.545-.879-1.24 0-2.314 .332-3.203 1.006-1.562-1.885-3.525-2.842-5.889-2.871-.732 0-1.436 .195-2.09 .596s-1.201 .82-1.65 1.27zm24.414 48.355c0-1.055-.352-1.953-1.074-2.715-.713-.742-1.631-1.113-2.754-1.113-1.055 0-1.953 .371-2.705 1.113-.752 .762-1.123 1.66-1.123 2.715 0 1.113 .371 2.031 1.123 2.754 .752 .703 1.65 1.074 2.705 1.074 1.123 0 2.041-.371 2.754-1.074 .723-.723 1.074-1.641 1.074-2.754z" fill="#f7f8fa"/></svg>