<svg xmlns="http://www.w3.org/2000/svg" width="91.768" height="76.5" viewBox="0 0 91.768 76.5" enable-background="new 0 0 91.768 76.5"><path d="M62.383 24.316l17.998 .098c1.562 0 3.057 .283 4.473 .84s2.637 1.348 3.643 2.373c1.006 1.016 1.797 2.217 2.393 3.584 .586 1.377 .879 2.871 .879 4.502 0 1.568-.293 3.033-.879 4.4-.596 1.387-1.387 2.559-2.393 3.574-1.006 .996-2.217 1.777-3.613 2.344-1.406 .566-2.91 .84-4.502 .84h-9.58c-.312 1.875-.938 3.594-1.865 5.117 .322 1.895 .195 3.77-.361 5.625-.557 1.875-1.455 3.516-2.705 4.961 0 2.422-.449 4.512-1.357 6.27s-2.119 3.184-3.613 4.297c-1.504 1.133-3.252 1.973-5.244 2.52-1.992 .566-4.111 .84-6.348 .84-2.49 0-4.854-.254-7.109-.781-2.246-.527-4.414-1.113-6.504-1.738-2.09-.605-4.141-1.191-6.133-1.719s-3.965-.781-5.908-.781h-17.962c-1.562 0-2.9-.547-4.014-1.66-1.122-1.095-1.679-2.443-1.679-4.045v-30.777c0-1.562 .557-2.9 1.68-4.004 1.113-1.094 2.451-1.65 4.014-1.65h16.66c.869-.439 1.533-.928 2.012-1.455s1.025-1.162 1.631-1.895c.508-.635 1.045-1.25 1.602-1.846 .557-.586 1.094-1.182 1.602-1.787 1.123-1.123 2.354-2.217 3.691-3.281 1.338-1.074 2.373-2.266 3.105-3.574 .801-1.367 1.27-2.949 1.416-4.756s.41-3.506 .811-5.107c.4-1.592 1.104-2.93 2.109-4.014s2.753-1.631 5.243-1.631c1.943 0 3.721 .41 5.332 1.221s2.979 1.904 4.102 3.281c1.113 1.377 1.982 2.939 2.607 4.717 .615 1.768 .928 3.564 .928 5.381 0 1.689-.244 3.359-.742 5.01-.488 1.641-1.104 3.213-1.836 4.707h6.416zm-47.403 41.266c1.055 0 1.963-.352 2.705-1.074 .752-.723 1.133-1.621 1.133-2.695 0-1.055-.381-1.953-1.133-2.715-.742-.742-1.65-1.113-2.705-1.113-1.113 0-2.031 .371-2.744 1.113-.723 .762-1.084 1.66-1.084 2.715 0 1.113 .361 2.012 1.084 2.715 .713 .702 1.631 1.054 2.744 1.054zm48.36-24.414c2.871 0 5.713-.02 8.516-.039 2.812-.039 5.654-.059 8.525-.059 1.621 0 2.969-.488 4.023-1.445 1.045-.977 1.572-2.285 1.572-3.912 0-1.689-.518-3.047-1.553-4.072-1.035-1.016-2.383-1.523-4.043-1.523-5.488 0-10.918-.02-16.279-.049s-10.751-.049-16.181-.049c0-1.309 .264-2.559 .791-3.73 .527-1.191 1.084-2.373 1.68-3.574 .586-1.191 1.123-2.441 1.621-3.75s.742-2.764 .742-4.365c0-1.045-.166-2.1-.498-3.135-.342-1.035-.801-1.973-1.387-2.822-.596-.85-1.328-1.553-2.207-2.109s-1.904-.83-3.086-.83h-.527s-.4 .029-.527 .088c-.254 .127-.4 .264-.43 .381l-.146 .625c-.381 1.885-.742 3.857-1.074 5.918-.332 2.051-.967 3.926-1.895 5.625-.928 1.621-2.09 3.027-3.496 4.209-1.396 1.182-2.754 2.432-4.062 3.74-.928 .986-1.709 1.885-2.344 2.695-.645 .82-1.309 1.582-1.992 2.305-.684 .713-1.455 1.387-2.324 2.012-.859 .615-1.895 1.182-3.105 1.699h-.244v30.777c2.236 0 4.414 .273 6.533 .781 2.129 .527 4.248 1.094 6.367 1.68 2.129 .605 4.248 1.152 6.367 1.68 2.129 .527 4.336 .781 6.631 .781 1.377 0 2.715-.117 4.023-.371s2.461-.703 3.447-1.328c.986-.605 1.787-1.445 2.393-2.5s.908-2.363 .908-3.926c0-.449-.01-.879-.049-1.27-.029-.41-.078-.801-.137-1.172 1.113-.508 1.963-1.367 2.559-2.539 .586-1.191 .889-2.363 .889-3.535 0-1.25-.322-2.344-.957-3.262 1.875-1.562 2.822-3.535 2.822-5.898 0-.723-.205-1.426-.605-2.07-.392-.666-.822-1.213-1.261-1.662z" fill="#333"/></svg>