<svg xmlns="http://www.w3.org/2000/svg" width="91.768" height="76.5" viewBox="0 0 91.768 76.5" enable-background="new 0 0 91.768 76.5"><path d="M35.811 24.316c-.732-1.494-1.348-3.057-1.846-4.688-.498-1.621-.742-3.301-.742-5.02 0-1.826 .312-3.623 .938-5.391 .615-1.777 1.484-3.34 2.607-4.717 1.113-1.367 2.471-2.461 4.072-3.281 1.592-.809 3.379-1.219 5.361-1.219 2.49 0 4.229 .547 5.234 1.631s1.699 2.432 2.09 4.023c.381 1.592 .654 3.291 .83 5.098s.654 3.389 1.416 4.756c.732 1.318 1.768 2.5 3.115 3.574 1.338 1.064 2.568 2.158 3.682 3.281 .508 .566 1.045 1.162 1.602 1.768 .566 .605 1.094 1.23 1.611 1.865 .566 .742 1.104 1.357 1.602 1.865 .488 .518 1.172 1.006 2.031 1.484h16.66c1.562 0 2.9 .557 4.023 1.65 1.113 1.104 1.67 2.441 1.67 4.004v30.777c0 1.562-.557 2.91-1.67 4.023-1.123 1.113-2.461 1.68-4.023 1.68h-17.949c-1.953 0-3.916 .254-5.918 .781-1.992 .527-4.033 1.113-6.123 1.719-2.09 .625-4.258 1.211-6.514 1.738-2.246 .527-4.619 .781-7.109 .781-2.236 0-4.346-.273-6.338-.84-2.002-.547-3.75-1.387-5.244-2.5-1.504-1.133-2.705-2.559-3.613-4.316s-1.367-3.848-1.367-6.27c-1.24-1.445-2.148-3.086-2.705-4.961-.557-1.855-.674-3.73-.361-5.625-.918-1.504-1.543-3.203-1.865-5.117h-9.57c-1.562 0-3.057-.273-4.482-.84-1.416-.566-2.627-1.348-3.633-2.344-1.006-1.012-1.807-2.193-2.393-3.57-.597-1.365-.89-2.83-.89-4.402 0-1.621 .293-3.125 .889-4.502 .586-1.367 1.387-2.559 2.393-3.584s2.207-1.807 3.613-2.373c1.406-.557 2.9-.84 4.502-.84l17.998-.098h6.416zm-7.373 16.856c-.449 .449-.869 1.006-1.27 1.68-.4 .66-.596 1.363-.596 2.047 0 2.363 .938 4.336 2.822 5.898-.635 .918-.957 2.012-.957 3.262 0 1.172 .293 2.344 .889 3.516 .586 1.152 1.436 2.012 2.559 2.559-.068 .371-.117 .781-.146 1.172s-.049 .82-.049 1.27c0 1.562 .303 2.871 .908 3.926s1.406 1.895 2.393 2.52c.996 .605 2.139 1.055 3.447 1.309s2.656 .391 4.023 .391c2.236 0 4.434-.273 6.582-.801 2.158-.527 4.297-1.074 6.416-1.68 2.119-.586 4.248-1.133 6.367-1.66s4.287-.801 6.484-.801v-30.78h-.186c-1.309-.508-2.373-1.074-3.184-1.699-.82-.625-1.562-1.289-2.256-2.012-.684-.723-1.357-1.484-2.012-2.305-.654-.811-1.426-1.709-2.314-2.695-1.309-1.309-2.666-2.559-4.072-3.74s-2.568-2.588-3.496-4.209c-.928-1.689-1.543-3.574-1.865-5.625-.322-2.061-.684-4.033-1.104-5.918l-.137-.596c-.039-.146-.176-.273-.439-.4-.127-.068-.303-.098-.518-.098h-.527c-1.182 0-2.227 .273-3.115 .84-.898 .557-1.631 1.25-2.207 2.1-.566 .85-1.025 1.797-1.357 2.852-.342 1.055-.508 2.09-.508 3.115 0 1.562 .254 3.008 .742 4.326 .498 1.328 1.035 2.588 1.631 3.779 .586 1.201 1.143 2.393 1.65 3.574 .508 1.172 .762 2.422 .762 3.73-5.42 0-10.811 .02-16.152 .049s-10.762 .049-16.25 .049c-1.631 0-2.969 .508-4.023 1.523-1.055 1.025-1.582 2.383-1.582 4.072 0 1.631 .518 2.93 1.562 3.906 1.035 .967 2.383 1.455 4.043 1.455 2.871 0 5.713 .02 8.516 .049 2.813 .03 5.654 .05 8.526 .05zm48.349 24.41c1.113 0 2.031-.352 2.734-1.074 .693-.723 1.045-1.621 1.045-2.695 0-1.055-.352-1.953-1.074-2.715-.713-.742-1.621-1.113-2.705-1.113-1.055 0-1.953 .371-2.705 1.113-.752 .762-1.123 1.66-1.123 2.715 0 1.113 .371 2.012 1.123 2.715s1.65 1.054 2.705 1.054z" fill="#313337"/></svg>