<svg xmlns="http://www.w3.org/2000/svg" width="76.445" height="91.773" viewBox="0 0 76.445 91.773" enable-background="new 0 0 76.445 91.773"><path d="M24.316 55.973c-1.504 .723-3.076 1.348-4.717 1.836s-3.311 .742-5 .742c-1.826 0-3.613-.312-5.391-.938-1.768-.625-3.34-1.484-4.717-2.598-1.367-1.113-2.461-2.48-3.271-4.082-.82-1.581-1.22-3.374-1.22-5.357 0-2.49 .537-4.229 1.621-5.244 1.084-.996 2.432-1.699 4.023-2.1s3.291-.674 5.098-.84c1.807-.156 3.389-.625 4.766-1.387 1.309-.732 2.49-1.768 3.564-3.115 1.064-1.338 2.158-2.568 3.281-3.682 .576-.518 1.152-1.045 1.748-1.611 .586-.547 1.221-1.084 1.885-1.602 .742-.566 1.357-1.104 1.875-1.602 .508-.488 .986-1.172 1.436-2.031v-16.659c0-1.562 .557-2.91 1.67-4.023 1.123-1.114 2.461-1.68 4.023-1.68h30.781c1.562 0 2.9 .566 4.023 1.68 1.113 1.113 1.67 2.461 1.67 4.023v17.949c0 1.953 .264 3.916 .791 5.918 .527 1.992 1.104 4.033 1.729 6.123 .615 2.09 1.182 4.258 1.699 6.514 .508 2.246 .762 4.619 .762 7.105 0 2.227-.273 4.355-.811 6.348-.547 1.992-1.377 3.73-2.49 5.234s-2.559 2.715-4.336 3.613c-1.768 .918-3.848 1.367-6.24 1.367-1.436 1.25-3.096 2.148-4.961 2.715-1.865 .547-3.76 .664-5.674 .352-1.494 .918-3.193 1.543-5.068 1.875v9.57c0 1.562-.283 3.047-.84 4.473s-1.338 2.637-2.344 3.633c-1.006 1.016-2.197 1.797-3.574 2.402-1.367 .586-2.852 .879-4.443 .879-1.631 0-3.135-.293-4.502-.879-1.377-.605-2.559-1.387-3.564-2.402-1.006-.996-1.787-2.207-2.354-3.613-.557-1.406-.83-2.91-.83-4.492l-.098-18.008v-6.406zm16.846 7.363c.449 .449 .996 .879 1.65 1.27 .654 .41 1.357 .605 2.09 .605 2.363 0 4.326-.938 5.889-2.832 .918 .645 1.992 .957 3.203 .957 1.182 0 2.363-.293 3.545-.879s2.021-1.445 2.539-2.559c.381 .059 .771 .098 1.172 .137s.84 .039 1.318 .039c1.562 0 2.861-.293 3.896-.898s1.865-1.406 2.49-2.402c.625-.977 1.074-2.129 1.338-3.438 .273-1.309 .41-2.656 .41-4.023 0-2.232-.264-4.43-.791-6.578-.527-2.158-1.084-4.297-1.68-6.416-.586-2.119-1.143-4.248-1.67-6.367s-.791-4.307-.791-6.533h-30.78v.234c-.508 1.309-1.074 2.373-1.699 3.184-.625 .82-1.289 1.562-2.012 2.246-.713 .693-1.484 1.367-2.295 2.012-.82 .664-1.719 1.436-2.705 2.324-1.309 1.309-2.559 2.666-3.74 4.072s-2.578 2.568-4.209 3.496c-1.689 .928-3.564 1.543-5.625 1.865s-4.043 .684-5.957 1.094l-.576 .146c-.127 .039-.254 .186-.381 .439-.068 .117-.078 .293-.049 .518s.049 .4 .049 .527c0 1.182 .264 2.217 .791 3.096 .518 .875 1.211 1.598 2.051 2.203 .85 .586 1.787 1.055 2.832 1.387 1.035 .332 2.08 .488 3.135 .488 1.562 0 2.998-.234 4.307-.742 1.309-.488 2.568-1.035 3.779-1.621s2.412-1.152 3.594-1.676c1.182-.527 2.422-.781 3.73-.781 0 5.426 .02 10.816 .049 16.168 .029 5.371 .049 10.801 .049 16.289 0 1.621 .498 2.969 1.504 4.023s2.354 1.582 4.053 1.582c1.621 0 2.93-.527 3.926-1.562 .986-1.035 1.484-2.383 1.484-4.043 0-2.871 .01-5.723 .039-8.535 .038-2.793 .048-5.645 .048-8.516zm24.414-48.346c0-1.123-.352-2.041-1.074-2.754-.713-.713-1.631-1.074-2.754-1.074-1.055 0-1.953 .361-2.705 1.104-.752 .723-1.123 1.641-1.123 2.725 0 1.055 .371 1.953 1.123 2.705s1.65 1.123 2.705 1.123c1.123 0 2.041-.371 2.754-1.123 .723-.753 1.074-1.651 1.074-2.706z" fill="#313337"/></svg>