<svg xmlns="http://www.w3.org/2000/svg" width="88.232" height="73.531" viewBox="0 0 88.232 73.531" enable-background="new 0 0 88.232 73.531"><path d="M66.592 0c2.109 0 4.033 .645 5.791 1.924s2.949 2.92 3.594 4.932l11.387 34.801c.195 .742 .391 1.465 .586 2.168 .186 .723 .283 1.445 .283 2.188v18.281c0 1.309-.244 2.52-.742 3.652-.498 1.113-1.143 2.07-1.963 2.891s-1.787 1.465-2.92 1.953c-1.133 .508-2.324 .742-3.564 .742h-69.806c-2.549 0-4.727-.898-6.523-2.695-1.817-1.798-2.715-3.985-2.715-6.544v-18.281c0-.742 .098-1.465 .293-2.188 .195-.703 .381-1.426 .566-2.168l11.397-34.801c.635-2.012 1.846-3.652 3.623-4.932 1.758-1.278 3.711-1.923 5.81-1.923h44.903zm14.316 46.012c0-.508-.186-.957-.557-1.309-.361-.371-.801-.566-1.309-.566h-69.804c-.508 0-.947 .176-1.309 .527-.371 .352-.557 .801-.557 1.348v18.281c0 .508 .176 .957 .527 1.328s.801 .547 1.338 .547h69.805c.508 0 .947-.176 1.309-.527 .371-.352 .557-.801 .557-1.348v-18.281zm-59.219-38.629c-.518 0-1.016 .156-1.514 .469-.488 .332-.82 .742-.977 1.25l-9.004 27.676h67.842l-9.003-27.676c-.127-.508-.439-.918-.928-1.25-.498-.312-.996-.469-1.514-.469h-44.902zm33.506 43.219c1.25 0 2.305 .449 3.184 1.328s1.318 1.934 1.318 3.184c0 1.309-.439 2.402-1.318 3.281s-1.934 1.309-3.184 1.309c-1.309 0-2.402-.43-3.281-1.309s-1.309-1.973-1.309-3.281c0-1.25 .43-2.305 1.309-3.184s1.973-1.328 3.281-1.328zm14.707 0c1.24 0 2.305 .449 3.184 1.328 .869 .879 1.309 1.934 1.309 3.184 0 1.309-.439 2.402-1.309 3.281-.879 .879-1.943 1.309-3.184 1.309-1.309 0-2.402-.43-3.281-1.309s-1.318-1.973-1.318-3.281c0-1.25 .439-2.305 1.318-3.184s1.973-1.328 3.281-1.328z" fill="#3b73b9"/></svg>