<svg xmlns="http://www.w3.org/2000/svg" width="91.777" height="76.488" viewBox="0 0 91.777 76.488" enable-background="new 0 0 91.777 76.488"><path d="M45.859 0c5.557 0 11.074 1.055 16.543 3.184 5.469 2.119 10.381 5 14.727 8.633 4.336 3.643 7.861 7.891 10.576 12.764 2.705 4.863 4.072 10.068 4.072 15.635 0 5.805-1.25 11.391-3.73 16.742l-1.299 2.871-8.33 1.25c-.859 3.32-2.627 6.074-5.293 8.281-2.656 2.207-5.801 3.301-9.404 3.301v1.973c0 .508-.186 .938-.576 1.309-.381 .371-.84 .547-1.387 .547h-3.828c-.508 0-.957-.176-1.318-.547s-.557-.801-.557-1.309v-34.419c0-.518 .195-.977 .557-1.367 .361-.4 .811-.605 1.318-.605h3.828c.508 0 .967 .205 1.367 .605 .391 .391 .596 .85 .596 1.367v1.859c2.803 0 5.381 .703 7.705 2.109 2.334 1.406 4.15 3.262 5.459 5.547l1.865-.332c1.055-2.871 1.562-5.938 1.533-9.184 0-3.994-1.045-7.715-3.135-11.191-2.09-3.457-4.805-6.494-8.145-9.111-3.33-2.617-7.031-4.678-11.123-6.182-4.092-1.494-8.096-2.246-12.021-2.246s-7.92 .752-11.992 2.246c-4.062 1.504-7.773 3.545-11.094 6.133-3.34 2.578-6.055 5.625-8.145 9.121s-3.135 7.207-3.135 11.133c0 3.324 .508 6.41 1.533 9.281l1.865 .332c1.309-2.285 3.125-4.141 5.459-5.547 2.324-1.406 4.902-2.109 7.705-2.109v-1.859c0-.518 .186-.977 .576-1.367 .381-.4 .84-.605 1.387-.605h3.828c.508 0 .938 .205 1.289 .605 .352 .391 .527 .85 .527 1.367v34.418c0 .508-.176 .938-.527 1.309s-.781 .547-1.289 .547h-3.826c-.508 0-.967-.176-1.367-.547-.391-.371-.596-.801-.596-1.309v-1.973c-1.758 0-3.457-.293-5.098-.879-1.65-.586-3.105-1.387-4.385-2.422-1.27-1.016-2.363-2.227-3.281-3.633-.898-1.406-1.553-2.949-1.934-4.648l-8.379-1.25-1.25-2.871c-2.48-5.352-3.73-10.977-3.73-16.84 0-5.488 1.357-10.674 4.072-15.537 2.705-4.873 6.24-9.121 10.576-12.764 4.346-3.633 9.238-6.514 14.707-8.633 5.45-2.128 10.957-3.183 16.504-3.183z" fill="#333"/></svg>