<svg xmlns="http://www.w3.org/2000/svg" width="86.27" height="76.5" viewBox="0 0 86.27 76.5" enable-background="new 0 0 86.27 76.5"><path d="M45.859 75.406c-.82 .723-1.738 1.094-2.725 1.094-1.045 0-1.924-.371-2.627-1.094l-29.54-29.394c-.127-.059-.762-.723-1.895-1.973-1.133-1.23-2.373-2.871-3.701-4.902-1.348-2.031-2.578-4.361-3.691-7.018-1.114-2.637-1.68-5.469-1.68-8.467 0-4.375 .684-8.066 2.061-11.084s3.174-5.459 5.381-7.324c2.227-1.865 4.727-3.203 7.5-4.023 2.773-.811 5.605-1.221 8.476-1.221 2.012 0 4.004 .342 5.977 1.025 1.982 .693 3.809 1.543 5.508 2.568 1.689 1.025 3.242 2.139 4.648 3.35 1.396 1.211 2.598 2.305 3.584 3.262 .986-.996 2.197-2.09 3.643-3.281 1.436-1.201 2.998-2.305 4.688-3.33 1.699-1.025 3.496-1.875 5.43-2.568 1.932-.684 3.954-1.026 6.053-1.026 2.812 0 5.605 .41 8.379 1.221 2.783 .82 5.273 2.158 7.5 4.023 2.217 1.865 4.004 4.307 5.381 7.324s2.061 6.709 2.061 11.084c0 2.998-.547 5.83-1.65 8.467-1.104 2.656-2.324 4.986-3.662 7.018-1.348 2.031-2.598 3.672-3.789 4.902-1.172 1.25-1.797 1.934-1.855 2.07l-29.455 29.297zm-22.441-67.74c-1.826 0-3.672 .215-5.537 .645s-3.564 1.23-5.098 2.393-2.764 2.773-3.711 4.834c-.938 2.061-1.416 4.766-1.416 8.115 0 2.168 .449 4.258 1.328 6.27s1.855 3.809 2.939 5.381c1.084 1.588 2.09 2.857 3.018 3.814l1.338 1.387 26.855 26.758 26.856-26.759 1.396-1.387c.918-.957 1.914-2.227 2.988-3.814 1.064-1.572 2.041-3.379 2.92-5.41 .869-2.021 1.318-4.102 1.318-6.24 0-3.32-.469-6.016-1.416-8.096-.947-2.07-2.178-3.691-3.711-4.854s-3.232-1.963-5.098-2.393-3.682-.645-5.439-.645c-1.68 0-3.398 .4-5.137 1.211-1.738 .82-3.379 1.797-4.912 2.949s-2.9 2.334-4.111 3.545-2.109 2.168-2.686 2.871c-.791 .986-1.787 1.484-2.969 1.484s-2.158-.498-2.92-1.484c-.566-.732-1.475-1.699-2.705-2.9-1.221-1.191-2.607-2.363-4.141-3.516s-3.174-2.129-4.912-2.949c-1.736-.81-3.416-1.21-5.037-1.21z" fill="#3b73b9"/></svg>