<svg xmlns="http://www.w3.org/2000/svg" width="86.27" height="76.488" viewBox="0 0 86.27 76.488" enable-background="new 0 0 86.27 76.488"><path d="M62.861 0c3.604 0 6.865 .547 9.766 1.67s5.361 2.686 7.393 4.717 3.574 4.512 4.648 7.441c1.064 2.939 1.602 6.211 1.602 9.814 0 2.109-.293 4.18-.889 6.221-.596 2.051-1.396 4.033-2.441 5.957-1.035 1.934-2.217 3.77-3.564 5.508-1.338 1.738-2.734 3.324-4.16 4.77l-29.454 29.297c-.723 .723-1.602 1.094-2.627 1.094-.986 0-1.904-.371-2.725-1.094l-29.443-29.395c-1.436-1.445-2.822-3.021-4.17-4.77-1.338-1.738-2.51-3.555-3.516-5.449s-1.797-3.887-2.393-5.938c-.595-2.06-.888-4.12-.888-6.2 0-3.604 .547-6.875 1.631-9.814 1.084-2.93 2.646-5.41 4.668-7.441s4.482-3.594 7.354-4.717 6.093-1.671 9.667-1.671c1.875 0 3.75 .293 5.596 .879s3.604 1.367 5.264 2.324 3.242 2.051 4.746 3.281 2.9 2.461 4.209 3.711c1.24-1.25 2.627-2.48 4.17-3.711 1.523-1.23 3.125-2.324 4.805-3.281s3.418-1.738 5.215-2.324c1.806-.586 3.652-.879 5.536-.879z" fill="#313337"/></svg>