<svg xmlns="http://www.w3.org/2000/svg" width="90.031" height="75.016" viewBox="0 0 90.031 75.016" enable-background="new 0 0 90.031 75.016"><path d="M89.35 34.99c.381 .322 .605 .732 .664 1.23 .068 .488-.059 .947-.381 1.357l-2.158 2.535c-.312 .449-.781 .684-1.387 .684h-3.105c-.508 0-.918-.137-1.201-.391l-35.567-29.106c-.801-.635-1.592-.635-2.393 0l-35.566 29.107c-.254 .254-.664 .391-1.201 .391h-3.116c-.566 0-1.035-.234-1.387-.684l-2.148-2.535c-.322-.381-.449-.82-.391-1.318 .068-.488 .293-.918 .674-1.27l41.504-33.984c.87-.635 1.807-.977 2.823-1.006 1.055 0 1.992 .342 2.832 1.006l11.484 9.385v-4.883c0-.518 .186-.947 .547-1.318 .371-.371 .811-.547 1.318-.547h10.674c.508 0 .938 .176 1.27 .547s.508 .801 .508 1.318v16.66l15.703 12.822zm-12.071 6.608v29.785c0 1.055-.342 1.914-1.025 2.598-.693 .703-1.553 1.035-2.607 1.035h-20.206v-23.828h-16.845v23.828h-20.205c-1.055 0-1.924-.332-2.607-1.035-.684-.684-1.035-1.543-1.035-2.598v-29.785l32.266-26.471 32.264 26.471z" fill="#f7f8fa"/></svg>