<svg xmlns="http://www.w3.org/2000/svg" width="88.232" height="73.531" viewBox="0 0 88.232 73.531" enable-background="new 0 0 88.232 73.531"><path d="M86.748 35.088c.381 .928 .723 2.07 1.025 3.447 .312 1.377 .459 2.594 .459 3.648v27.617c0 1.055-.361 1.934-1.084 2.656-.713 .723-1.562 1.074-2.559 1.074h-80.859c-1.045 0-1.934-.352-2.656-1.074-.713-.722-1.074-1.601-1.074-2.655v-27.617c0-1.055 .146-2.271 .43-3.648 .293-1.377 .645-2.52 1.055-3.447l13.593-31.739c.391-.918 1.094-1.719 2.109-2.363 1.016-.665 2.032-.987 3.018-.987h47.822c.996 0 1.992 .322 3.018 .986 1.025 .645 1.729 1.445 2.109 2.363l13.594 31.739zm-75.166 4.404c-.059 .068-.088 .186-.088 .361s-.029 .332-.098 .455h18.525l5.459 11.055h18.33l5.605-11.055h17.568c-.068-.123-.088-.279-.088-.455s-.039-.332-.098-.449l-12.263-28.437h-40.586l-12.266 28.525z" fill="#ffffff"/></svg>