<svg xmlns="http://www.w3.org/2000/svg" width="88.232" height="73.531" viewBox="0 0 88.232 73.531" enable-background="new 0 0 88.232 73.531"><path d="M3.643 12.822c-.986 0-1.846-.352-2.568-1.074-.714-.713-1.075-1.553-1.075-2.51v-5.605c0-.986 .361-1.846 1.074-2.559 .723-.713 1.582-1.074 2.569-1.074h25.752c.996 0 1.846 .361 2.559 1.074 .723 .713 1.084 1.572 1.084 2.559v5.605c0 .986-.361 1.836-1.084 2.539-.713 .703-1.562 1.045-2.559 1.045h-25.752zm0 20.205c-.986 0-1.846-.342-2.568-1.025-.714-.684-1.075-1.563-1.075-2.607v-5.459c0-1.055 .361-1.943 1.074-2.656 .723-.723 1.582-1.074 2.568-1.074h33.125c.986 0 1.846 .352 2.568 1.074 .713 .713 1.074 1.602 1.074 2.656v5.459c0 1.045-.361 1.924-1.074 2.607-.723 .684-1.582 1.025-2.568 1.025h-33.124zm0 20.309c-.986 0-1.846-.371-2.568-1.074-.714-.723-1.075-1.621-1.075-2.657v-5.469c0-1.055 .361-1.934 1.074-2.656 .723-.723 1.582-1.08 2.568-1.08h29.395c1.045 0 1.943 .357 2.656 1.08s1.074 1.602 1.074 2.656v5.469c0 1.035-.361 1.934-1.074 2.656-.713 .703-1.611 1.074-2.656 1.074h-29.394v.001zm36.767 7.363c1.055 0 1.934 .371 2.656 1.074 .723 .723 1.074 1.562 1.074 2.52v5.508c0 1.055-.352 1.934-1.074 2.656s-1.602 1.074-2.656 1.074h-36.767c-.986 0-1.846-.352-2.568-1.074-.714-.723-1.075-1.602-1.075-2.656v-5.508c0-.996 .361-1.836 1.074-2.539 .723-.703 1.582-1.055 2.568-1.055h36.768zm16.563-60.699c.508 0 .947 .186 1.309 .547 .371 .371 .557 .811 .557 1.318v69.791c0 .527-.186 .957-.557 1.328-.361 .371-.801 .547-1.309 .547h-3.633c-1.25 0-1.875-.625-1.875-1.875v-69.791c0-1.25 .625-1.865 1.875-1.865h3.633zm29.394 34.326c.508 0 .947 .176 1.309 .527 .371 .352 .557 .791 .557 1.338v3.584c0 .518-.176 .963-.527 1.314-.352 .371-.791 .566-1.338 .566h-10.294v7.363c0 .996-.234 1.602-.723 1.816-.479 .234-1.084-.02-1.816-.723l-10.39-10.423c-.449-.576-.664-1.152-.664-1.729 0-.508 .215-1.064 .664-1.68l10.391-10.283c.732-.732 1.338-1.006 1.816-.82 .488 .195 .723 .82 .723 1.865v7.285h10.292z" fill="#f7f8fa"/></svg>