<svg xmlns="http://www.w3.org/2000/svg" width="88.232" height="73.531" viewBox="0 0 88.232 73.531" enable-background="new 0 0 88.232 73.531"><path d="M24.99 33.848c.518 .508 .781 1.084 .811 1.719 0 .576-.264 1.133-.811 1.68l-10.293 10.288c-.732 .742-1.357 1.016-1.865 .82s-.762-.82-.762-1.875v-7.266h-10.195c-1.25 .001-1.875-.624-1.875-1.88v-3.584c0-1.24 .625-1.865 1.875-1.865h10.195v-7.373c0-.986 .254-1.582 .781-1.768 .527-.195 1.152 .078 1.846 .811l10.293 10.293zm9.912-33.848c1.25 0 1.865 .625 1.865 1.865v69.811c0 1.23-.615 1.855-1.865 1.855h-3.632c-1.25 0-1.875-.625-1.875-1.855v-69.811c0-1.24 .625-1.865 1.875-1.865h3.632zm12.93 12.832c-1.055 0-1.934-.361-2.637-1.084-.703-.713-1.055-1.553-1.055-2.51v-5.595c0-.996 .361-1.846 1.074-2.568 .724-.714 1.593-1.075 2.618-1.075h25.703c1.055 0 1.934 .361 2.656 1.074 .723 .723 1.074 1.572 1.074 2.568v5.596c0 .986-.352 1.836-1.074 2.539s-1.602 1.055-2.656 1.055h-25.703zm0 20.205c-1.055 0-1.934-.352-2.637-1.035s-1.055-1.553-1.055-2.607v-5.459c0-1.055 .361-1.934 1.074-2.656 .723-.723 1.592-1.074 2.617-1.074h33.076c1.055 0 1.924 .352 2.627 1.074s1.055 1.602 1.055 2.656v5.459c0 1.055-.352 1.924-1.074 2.607s-1.582 1.035-2.607 1.035h-33.076zm0 20.299c-1.055 0-1.934-.371-2.637-1.074-.703-.723-1.055-1.602-1.055-2.656v-5.469c0-1.055 .361-1.934 1.074-2.656 .723-.723 1.592-1.074 2.617-1.074h29.434c.996 0 1.846 .352 2.559 1.074 .723 .723 1.084 1.602 1.084 2.656v5.469c0 1.055-.361 1.934-1.084 2.656-.713 .703-1.562 1.074-2.559 1.074h-29.433zm36.758 7.363c.996 0 1.846 .371 2.559 1.074 .723 .723 1.084 1.562 1.084 2.52v5.508c0 1.055-.361 1.934-1.084 2.656-.713 .723-1.562 1.074-2.559 1.074h-36.758c-1.055 0-1.934-.352-2.637-1.074s-1.055-1.602-1.055-2.656v-5.508c0-.996 .361-1.836 1.074-2.539 .723-.703 1.592-1.055 2.617-1.055h36.759z" fill="#f7f8fa"/></svg>