<svg xmlns="http://www.w3.org/2000/svg" width="76.445" height="76.5" viewBox="0 0 76.445 76.5" enable-background="new 0 0 76.445 76.5"><path d="M38.242 0c5.303 0 10.264 .996 14.893 2.988 4.629 2.002 8.682 4.727 12.158 8.193 3.477 3.457 6.211 7.51 8.184 12.148 1.982 4.648 2.969 9.619 2.969 14.922 0 5.293-.986 10.26-2.969 14.908-1.973 4.648-4.707 8.691-8.184 12.168-3.477 3.457-7.529 6.191-12.158 8.184s-9.59 2.989-14.893 2.989c-5.293 0-10.264-.996-14.902-2.988-4.648-1.992-8.701-4.727-12.168-8.184-3.457-3.477-6.191-7.52-8.184-12.168s-2.988-9.615-2.988-14.908c0-5.303 .996-10.273 2.988-14.922 1.992-4.639 4.727-8.691 8.184-12.148 3.467-3.467 7.52-6.191 12.168-8.193 4.639-1.993 9.609-2.989 14.902-2.989zm11.543 56.305c0-.938-.449-1.387-1.348-1.387h-3.73v-27.633c0-.381-.117-.732-.381-1.025-.254-.312-.596-.459-1.006-.459h-14.502c-.381 0-.713 .146-.986 .43s-.41 .635-.41 1.055v6.65c0 .928 .469 1.387 1.396 1.387h4.111v19.596h-3.73c-.381 0-.723 .137-1.006 .391-.283 .273-.43 .605-.43 .996v6.641c0 .391 .146 .742 .43 1.035 .283 .312 .625 .449 1.006 .449h19.238c.391 0 .703-.137 .967-.449 .254-.293 .381-.645 .381-1.035v-6.642zm-16.953-36.393c0 .381 .156 .723 .459 1.035 .303 .293 .654 .449 1.025 .449h9.004c.391 0 .713-.156 .977-.449 .273-.312 .41-.654 .41-1.035v-7.949c0-.918-.459-1.387-1.387-1.387h-9.004c-.371 0-.723 .137-1.025 .41s-.459 .596-.459 .977v7.949z" fill="#ffffff"/></svg>