<svg xmlns="http://www.w3.org/2000/svg" width="50.508" height="73.531" viewBox="0 0 50.508 73.531" enable-background="new 0 0 50.508 73.531"><path d="M0 73.434l.859-4.004c.391-.137 .898-.273 1.533-.449 .645-.156 1.377-.332 2.207-.508 1.309-.332 2.441-.645 3.398-.938 .957-.312 1.748-.625 2.393-.938 .928-1.25 1.582-2.891 1.963-4.941l1.387-6.543 2.725-12.832 .576-3.066c.732-3.795 1.396-6.646 1.992-8.521 .586-1.885 .879-2.891 .879-3.018l1.436-7.471 .82-3.066 1.055-6.465 .43-2.344v-1.865c-1.436-.732-3.799-1.182-7.09-1.338-.449 0-.82-.02-1.123-.078-.303-.039-.586-.069-.84-.069l1.005-4.98 15.557 .674c.996 .068 1.787 .098 2.373 .098h1.27c1.113 0 2.539-.029 4.258-.098 1.729-.059 3.828-.156 6.318-.283 1.309-.127 2.402-.225 3.281-.293 .879-.059 1.494-.098 1.846-.098-.068 .322-.117 .635-.146 .938s-.078 .615-.146 .938c-.127 .312-.244 .674-.352 1.074-.117 .4-.234 .849-.361 1.367-1.562 .508-3.32 1.006-5.264 1.475-2.109 .518-3.789 1.016-5.029 1.484-.381 1.055-.771 2.461-1.152 4.219-.186 .801-.342 1.514-.449 2.148-.117 .645-.205 1.23-.264 1.777-.732 3.193-1.377 5.996-1.914 8.398-.547 2.412-.977 4.473-1.299 6.201l-3.057 14.898-1.875 7.559-2.051 11.25-.674 2.148v.508s.029 .469 .098 .781c1.113 .254 2.148 .469 3.086 .625s1.875 .312 2.803 .43c.127 0 .469 .039 1.025 .117 .557 .098 1.289 .195 2.178 .312-.059 .586-.107 1.094-.146 1.562-.029 .469-.078 .879-.137 1.27-.068 .195-.127 .449-.195 .781-.059 .352-.156 .703-.283 1.094-.254 0-.479 0-.674 .039-.186 .039-.352 .039-.479 .039-.576 .078-1.025 .098-1.367 .098h-1.24c-.244 0-.518-.059-.84-.176-.254 0-.977-.078-2.148-.195-1.182-.137-2.861-.332-5.029-.586l-9.668-.098c-1.953 0-4.844 .195-8.672 .586-1.24 .117-2.256 .215-3.037 .293-.783 .06-1.369 .08-1.75 .08z" fill="#313337"/></svg>