<svg xmlns="http://www.w3.org/2000/svg" width="91.816" height="76.401" viewBox="0 0 91.816 76.401" enable-background="new 0 0 91.816 76.401"><path d="M81.33 50.143l-4.834 6.66 11.865 8.516c1.377 .996 2.217 2.324 2.52 3.984s-.039 3.164-1.035 4.551c-1.045 1.367-2.383 2.188-4.014 2.461s-3.135-.098-4.502-1.074l-38.437-27.442c-2.49 2.559-5.205 4.629-8.145 6.23-2.93 1.602-5.908 2.695-8.926 3.281-3.008 .586-5.977 .625-8.877 .098s-5.576-1.68-7.998-3.438c-2.744-1.934-4.862-4.453-6.366-7.539-1.504-3.066-2.344-6.387-2.539-9.945-.195-3.564 .293-7.246 1.445-11.035 1.143-3.809 2.949-7.441 5.409-10.918 2.48-3.477 5.352-6.348 8.584-8.613 3.242-2.267 6.572-3.897 10.01-4.884 3.428-.996 6.826-1.27 10.195-.84 3.359 .43 6.426 1.621 9.16 3.565 2.432 1.69 4.365 3.829 5.801 6.417 1.436 2.578 2.383 5.4 2.822 8.447 .449 3.047 .381 6.221-.186 9.521-.586 3.301-1.66 6.553-3.262 9.75l19.824 14.219 4.824-6.66-5.02-3.535c-.449-.332-.723-.762-.82-1.328-.088-.547 .02-1.074 .342-1.543l2.441-3.305c.322-.449 .742-.732 1.27-.84 .527-.117 1.045 0 1.553 .352l16.466 11.82c.518 .332 .811 .762 .889 1.328 .088 .547-.039 1.074-.361 1.543l-2.344 3.32c-.312 .449-.762 .723-1.309 .84-.566 .098-1.084 0-1.562-.312l-4.883-3.652zm-40.596-22.641c.869-1.172 1.436-2.441 1.729-3.779 .283-1.338 .312-2.686 .098-4.023-.234-1.338-.703-2.598-1.416-3.779-.723-1.182-1.67-2.188-2.852-3.018-1.182-.859-2.441-1.436-3.779-1.729-1.348-.283-2.676-.312-4.023-.088-1.338 .225-2.598 .693-3.779 1.416-1.182 .713-2.188 1.66-3.018 2.842-1.182 1.689-1.797 3.525-1.865 5.479-.068 1.973 .342 3.789 1.24 5.488-1.875-.322-3.74-.117-5.576 .596s-3.369 1.924-4.619 3.613c-.859 1.182-1.436 2.441-1.719 3.779-.293 1.348-.312 2.666-.078 3.969 .244 1.309 .723 2.559 1.445 3.75 .713 1.172 1.641 2.188 2.793 3.008 1.182 .859 2.441 1.445 3.789 1.719 1.328 .293 2.656 .332 3.965 .098 1.309-.215 2.559-.684 3.73-1.406 1.191-.723 2.207-1.66 3.066-2.852 1.25-1.699 1.895-3.516 1.973-5.488 .059-1.957-.371-3.783-1.299-5.473 1.885 .312 3.74 .137 5.576-.547 1.836-.694 3.379-1.876 4.619-3.575z" fill="#f7f8fa"/></svg>