<svg xmlns="http://www.w3.org/2000/svg" width="91.824" height="76.508" viewBox="0 0 91.824 76.508" enable-background="new 0 0 91.824 76.508"><path d="M87.584 2.061c2.109 4.248 3.438 8.74 3.975 13.477s.264 9.893-.859 15.439c-2.872 15.55-12.12 27.347-27.725 35.433-7.363 3.926-14.824 5.879-22.344 5.879-4.922 0-9.824-.859-14.707-2.578-.732-.254-1.455-.586-2.168-.957-.723-.391-1.436-.781-2.139-1.191-.928-.527-1.846-1.016-2.744-1.465-.918-.469-1.699-.703-2.383-.703-.312 .078-.684 .352-1.113 .84s-.879 1.055-1.328 1.68c-.439 .625-.859 1.27-1.27 1.953-.391 .703-.723 1.23-.977 1.602-.449 .742-.869 1.406-1.27 1.992-.391 .586-.762 1.113-1.074 1.562-.801 .996-1.816 1.484-3.066 1.484h-.195c-.918-.059-1.708-.273-2.363-.605s-1.191-.723-1.601-1.173-.742-.898-.977-1.367c-.244-.449-.4-.82-.469-1.074-.859-1.172-1.016-2.422-.469-3.73 .635-1.699 1.523-3.105 2.676-4.258s2.285-2.188 3.398-3.105c.928-.742 1.738-1.426 2.422-2.07s1.123-1.328 1.309-2.051c.068-.195 .068-.391 0-.586-.059-.176-.215-.586-.469-1.191-.195-.391-.381-.82-.557-1.309-.176-.508-.322-1.074-.459-1.699-.791-5.117-.586-9.824 .625-14.125 1.211-4.316 3.125-8.184 5.742-11.621 2.617-3.418 5.732-6.387 9.336-8.877 3.613-2.49 7.363-4.414 11.25-5.791 2.617-.918 5.488-1.465 8.594-1.621 3.115-.166 6.367-.273 9.746-.342 1.953 0 3.975-.029 6.074-.088 2.109-.068 4.141-.244 6.113-.527 1.953-.293 3.77-.742 5.43-1.367s3.018-1.494 4.072-2.617c.635-.635 1.25-1.289 1.846-1.953 .586-.674 1.191-1.25 1.816-1.729s1.309-.869 2.051-1.172c.763-.304 1.69-.46 2.813-.46 .723 0 1.406 .186 2.031 .557 .626 .361 1.094 .869 1.407 1.504zm-21.973 33.271c1.055 .137 1.973-.176 2.754-.938 .781-.742 1.211-1.641 1.27-2.695 .059-1.113-.264-2.051-.977-2.803-.723-.752-1.641-1.162-2.754-1.221-4.697-.195-9.121 .068-13.262 .791-4.15 .713-8.086 1.885-11.826 3.516s-7.295 3.75-10.693 6.367c-3.408 2.611-6.699 5.795-9.893 9.525-.732 .859-1.064 1.816-1.006 2.852s.527 1.914 1.387 2.617c.645 .566 1.455 .879 2.441 .898 1.182 0 2.168-.43 2.969-1.289 2.871-3.262 5.762-6.055 8.672-8.379 2.9-2.324 5.957-4.199 9.16-5.6 3.203-1.406 6.592-2.393 10.156-2.969 3.555-.574 7.423-.799 11.602-.672z" fill="#333"/></svg>