<svg xmlns="http://www.w3.org/2000/svg" width="91.777" height="76.508" viewBox="0 0 91.777 76.508" enable-background="new 0 0 91.777 76.508"><path d="M60.703 44.34c1.699 0 3.193 .449 4.502 1.387l22.744 15.078c1.172 .859 2.109 1.895 2.793 3.125s1.035 2.578 1.035 4.043c0 2.363-.84 4.375-2.52 6.035-1.67 1.66-3.672 2.5-6.006 2.5-1.748 0-3.33-.508-4.736-1.484l-22.734-15.079c-2.246-1.504-3.438-3.594-3.594-6.27l-10.917-7.284-5.078 7.559c-.449 .645-1.035 .957-1.768 .957-.449 0-.85-.117-1.201-.371 1.758 1.23 2.656 2.832 2.686 4.785 0 .801-.166 1.562-.498 2.266-.342 .723-.781 1.387-1.348 1.973-.557 .586-1.191 1.055-1.914 1.406s-1.465 .527-2.227 .527c-1.113 0-2.109-.293-2.969-.859l-24.609-16.368c-1.563-1.055-2.344-2.52-2.344-4.414 0-1.566 .586-3.012 1.777-4.359 1.172-1.338 2.578-2.012 4.209-2.012 1.123 0 2.197 .352 3.252 1.055-.635-.439-.977-1.035-.996-1.768 0-.254 .117-.635 .371-1.143l15.996-24.043c.449-.625 1.035-.967 1.777-.996 .508 0 .889 .137 1.143 .43-.791-.576-1.436-1.26-1.914-2.061s-.713-1.689-.713-2.686c0-1.562 .605-2.998 1.816-4.307 1.212-1.298 2.598-1.962 4.161-1.962 1.055 0 2.051 .312 2.969 .918l24.609 16.367c.732 .508 1.309 1.152 1.719 1.934s.625 1.641 .625 2.568c0 .791-.166 1.572-.508 2.314-.332 .762-.752 1.416-1.27 1.992-.508 .576-1.143 1.045-1.914 1.406-.762 .371-1.523 .557-2.295 .557-1.045 0-2.139-.361-3.252-1.104 .635 .449 .977 1.035 1.006 1.777 0 .449-.127 .84-.381 1.191l-5.029 7.559 10.869 7.23c.449-.117 .889-.215 1.338-.273 .44-.077 .889-.096 1.338-.096z" fill="#f7f8fa"/></svg>