<svg xmlns="http://www.w3.org/2000/svg" width="76.961" height="73.637" viewBox="0 0 76.961 73.637" enable-background="new 0 0 76.961 73.637"><path d="M44.184 0c1.875 0 3.672 .146 5.381 .43 1.709 .293 3.408 .605 5.098 .957 1.309 .254 2.665 .498 4.071 .723s2.891 .332 4.453 .332h.098c.918 0 1.914-.078 2.988-.234 1.064-.156 2.129-.244 3.184-.244 .801 0 1.523 .098 2.168 .283 .664 .195 1.182 .596 1.562 1.201 .732 .986 1.152 2.129 1.25 3.428 .098 1.289 .059 2.5-.098 3.613-.137 1.113-.254 2.246-.391 3.398-.117 1.152-.098 2.295 .098 3.438 .137 .742 .312 1.367 .547 1.895 .244 .527 .488 1.113 .742 1.748 .264 .576 .439 1.221 .527 1.914 .098 .703 .215 1.377 .342 2.012 .576 3.32 .82 6.436 .742 9.365-.088 2.91-.449 5.635-1.104 8.164-.654 2.523-1.553 4.887-2.705 7.113-1.143 2.207-2.441 4.316-3.877 6.328-1.182 1.562-2.441 3.125-3.779 4.668-1.338 1.562-2.812 3.008-4.404 4.395-1.602 1.367-3.359 2.598-5.292 3.691-1.934 1.113-4.082 2.051-6.436 2.852-2.432 .859-4.951 1.406-7.588 1.641-2.637 .215-5.166 .391-7.588 .527h-1.483c-3.32 0-6.426-.273-9.307-.801-2.891-.527-5.967-.781-9.219-.781h-.194c-1.113 0-2.343 .156-3.69 .488-1.328 .352-2.656 .547-3.965 .605h-.098c-1.182 0-2.227-.273-3.135-.84-.908-.547-1.592-1.23-2.041-2.031-.635-1.113-.918-2.266-.84-3.477 .088-1.191 .293-2.285 .605-3.281 .312-.977 .488-2.031 .508-3.184 .01-1.133-.068-2.324-.244-3.613-.176-1.27-.381-2.559-.596-3.867-.225-1.309-.371-2.617-.43-3.926-.068-1.113-.059-2.207 .039-3.281s.215-2.26 .342-3.568c.127-1.113 .244-2.266 .332-3.447 .098-1.182 .254-2.227 .479-3.164 .449-2.1 .938-4.141 1.465-6.123s1.23-3.838 2.129-5.596c.635-1.309 1.348-2.607 2.148-3.887 .801-1.27 1.66-2.539 2.588-3.779 .322-.439 .654-.83 1.006-1.172 .352-.332 .732-.654 1.151-.986 .732-.723 1.445-1.455 2.148-2.168 .703-.723 1.484-1.406 2.344-2.041s1.777-1.221 2.754-1.748 2.021-1.055 3.145-1.602c1.055-.508 2.129-.977 3.223-1.406 1.104-.43 2.246-.879 3.428-1.328 2.236-.918 4.717-1.738 7.47-2.441l.098-.088c1.426-.381 2.793-.664 4.062-.84 1.279-.177 2.539-.265 3.789-.265z" fill="#3b73b9"/></svg>