<svg xmlns="http://www.w3.org/2000/svg" width="73.535" height="73.539" viewBox="0 0 73.535 73.539" enable-background="new 0 0 73.535 73.539"><path d="M64.297 0c2.549 0 4.727 .908 6.533 2.705 1.797 1.807 2.705 3.984 2.705 6.533v55.043c0 1.328-.254 2.539-.742 3.652-.498 1.113-1.152 2.07-1.963 2.891-.82 .82-1.797 1.465-2.949 1.973-1.143 .488-2.344 .742-3.584 .742h-55.059c-2.549 0-4.727-.918-6.533-2.715s-2.705-3.984-2.705-6.543v-55.043c0-1.24 .244-2.441 .742-3.584 .498-1.152 1.153-2.138 1.963-2.949s1.777-1.465 2.9-1.963c1.114-.498 2.325-.742 3.633-.742h55.059zm-47.92 23.027c1.816 0 3.359-.635 4.639-1.914s1.914-2.822 1.914-4.648c0-1.748-.635-3.271-1.914-4.541-1.279-1.279-2.822-1.914-4.639-1.914-1.758 0-3.271 .635-4.551 1.914-1.279 1.27-1.914 2.793-1.914 4.541 0 1.826 .635 3.369 1.914 4.648s2.793 1.914 4.551 1.914zm6.172 5.215c0-.928-.459-1.387-1.387-1.387h-9.58c-.312 0-.625 .137-.928 .41s-.459 .596-.459 .977v33.793c0 .332 .146 .645 .43 .938 .293 .312 .605 .449 .957 .449h9.58c.381 0 .713-.137 .977-.43 .273-.273 .41-.605 .41-.957v-33.793zm41.074 10.967c0-4.502-1.289-7.832-3.877-9.98-2.588-2.158-6.035-3.232-10.342-3.232-1.758 0-3.467 .244-5.146 .713-1.67 .488-3.164 1.377-4.473 2.686 0-.508-.049-1.064-.146-1.65s-.498-.889-1.191-.889h-9.336c-.322 0-.625 .137-.918 .41-.283 .273-.43 .596-.43 .977v33.793c0 .332 .146 .645 .43 .938 .293 .312 .596 .449 .918 .449h9.619c.381 0 .713-.137 .977-.43 .273-.273 .41-.605 .41-.957v-18.32c0-2.188 .42-3.988 1.27-5.443 .85-1.445 2.48-2.178 4.912-2.178 1.875 0 3.145 .459 3.799 1.367s.986 2.207 .986 3.891v20.684c0 .332 .127 .645 .381 .938 .254 .312 .586 .449 1.006 .449h9.766c.322 0 .625-.137 .938-.43 .303-.273 .449-.605 .449-.957v-22.829z" fill="#3b73b9"/></svg>