<svg xmlns="http://www.w3.org/2000/svg" width="76.455" height="76.5" viewBox="0 0 76.455 76.5" enable-background="new 0 0 76.455 76.5"><path d="M0 20.586c0-2.803 .547-5.459 1.631-7.969s2.549-4.697 4.404-6.562c1.846-1.865 4.023-3.34 6.514-4.424 2.48-1.084 5.166-1.631 8.037-1.631 2.744 0 5.391 .527 7.949 1.582 2.549 1.055 4.766 2.52 6.65 4.404 .254 .254 .605 .586 1.035 .977 .43 .4 .84 .801 1.24 1.201s.742 .811 1.025 1.221c.293 .41 .439 .811 .439 1.191 0 .576-.195 1.074-.576 1.484-.195 .264-.596 .449-1.201 .576-1.494 .322-2.9 .684-4.209 1.084-1.309 .391-2.686 .898-4.121 1.504-.127 .127-.381 .195-.762 .195s-.791-.176-1.221-.508-.928-.674-1.484-1.025-1.23-.693-2.012-1.035c-.781-.332-1.699-.498-2.754-.498-1.113 0-2.178 .215-3.184 .645s-1.865 1.025-2.588 1.777c-.713 .742-1.289 1.602-1.719 2.578s-.645 2.051-.645 3.232c0 1.309 .273 2.51 .84 3.594 .557 1.084 1.24 2.1 2.051 3.037 .82 .938 1.719 1.846 2.705 2.705s1.904 1.709 2.734 2.539l8.613 8.512c.732 .801 1.602 1.406 2.607 1.777 1.006 .391 2.07 .586 3.184 .586 1.377 0 2.539-.254 3.496-.781 .957-.508 1.689-.762 2.207-.762 .381 0 .996 .352 1.865 1.035 .859 .684 1.748 1.465 2.656 2.344s1.709 1.758 2.393 2.637 1.025 1.543 1.025 2.031c0 .918-.576 1.738-1.719 2.441-1.152 .703-2.471 1.309-3.975 1.836s-2.998 .957-4.502 1.25c-1.494 .312-2.646 .449-3.447 .449-2.744 0-5.371-.527-7.871-1.582-2.51-1.035-4.746-2.52-6.729-4.395l-14.497-14.604c-1.953-1.885-3.447-4.111-4.502-6.68s-1.582-5.224-1.582-7.968zm41.27 .098c2.744 0 5.391 .527 7.949 1.582 2.549 1.045 4.766 2.52 6.65 4.404l14.502 14.596c1.953 1.895 3.447 4.121 4.502 6.68 1.055 2.578 1.582 5.234 1.582 7.969 0 2.871-.537 5.547-1.602 8.027-1.074 2.461-2.539 4.648-4.404 6.504-1.875 1.875-4.062 3.34-6.582 4.434-2.529 1.074-5.195 1.621-7.998 1.621-2.744 0-5.391-.547-7.92-1.621-2.539-1.094-4.766-2.578-6.68-4.453-.254-.254-.596-.566-1.035-.938-.43-.371-.83-.762-1.221-1.191-.381-.43-.723-.859-1.025-1.27s-.459-.84-.459-1.25c0-.566 .215-1.016 .625-1.328 .195-.273 .576-.449 1.152-.586 1.494-.312 2.9-.684 4.209-1.074s2.686-.938 4.121-1.602c.381-.137 .654-.195 .811-.195 .381 0 .791 .176 1.221 .508s.918 .684 1.465 1.016c.537 .352 1.191 .703 1.963 1.035 .762 .332 1.689 .508 2.773 .508 2.295 0 4.229-.801 5.791-2.363 1.562-1.582 2.344-3.516 2.344-5.781 0-1.309-.264-2.52-.811-3.633s-1.25-2.129-2.109-3.047c-.859-.898-1.758-1.797-2.705-2.656-.938-.859-1.836-1.699-2.705-2.539l-8.516-8.609c-1.699-1.562-3.652-2.363-5.889-2.393-1.377 0-2.529 .273-3.477 .84-.938 .557-1.68 .83-2.227 .83-.381 0-.996-.342-1.836-1.025-.85-.684-1.729-1.465-2.637-2.344s-1.709-1.777-2.393-2.686-1.025-1.572-1.025-1.982c0-.928 .566-1.738 1.699-2.441s2.441-1.318 3.945-1.846 2.998-.947 4.502-1.24c1.496-.315 2.649-.461 3.45-.461z" fill="#ffffff"/></svg>