<svg xmlns="http://www.w3.org/2000/svg" width="75.498" height="75.023" viewBox="0 0 75.498 75.023" enable-background="new 0 0 75.498 75.023"><path d="M9.102 0c1.24 0 2.422 .254 3.535 .742 1.123 .498 2.1 1.152 2.949 1.963 .84 .82 1.494 1.777 1.963 2.9 .459 1.113 .693 2.295 .693 3.545 0 1.24-.234 2.412-.693 3.516-.469 1.094-1.123 2.061-1.963 2.871-.85 .811-1.826 1.465-2.949 1.963-1.113 .498-2.295 .742-3.535 .742-1.25 0-2.422-.244-3.525-.742-1.094-.498-2.061-1.152-2.871-1.963s-1.466-1.777-1.964-2.871c-.498-1.104-.742-2.275-.742-3.516 0-1.25 .244-2.431 .742-3.545 .498-1.123 1.152-2.08 1.963-2.9 .811-.81 1.777-1.465 2.871-1.963 1.104-.488 2.276-.742 3.526-.742zm6.796 23.652c.508 0 .957 .186 1.357 .576 .4 .381 .605 .84 .605 1.387v47.436c0 .508-.205 .977-.605 1.367-.4 .41-.85 .605-1.357 .605h-13.457c-.508 0-.967-.195-1.367-.605-.391-.391-.596-.859-.596-1.367v-47.436c0-.508 .205-.967 .596-1.367 .4-.391 .859-.596 1.367-.596h13.457zm39.59-1.201c6.064 0 10.908 1.523 14.551 4.57 3.643 3.057 5.459 7.734 5.459 14.057v31.973c0 .508-.205 .977-.596 1.367-.4 .41-.859 .605-1.367 .605h-13.838c-.508 0-.947-.195-1.318-.605-.361-.391-.547-.859-.547-1.367v-28.906c0-2.422-.439-4.277-1.318-5.561-.879-1.27-2.656-1.914-5.332-1.914-1.699 0-3.115 .283-4.268 .84-1.143 .557-2.051 1.309-2.705 2.24-.654 .957-1.104 2.07-1.357 3.379-.264 1.309-.391 2.715-.391 4.219v25.703c0 .508-.195 .977-.596 1.367-.4 .41-.85 .605-1.367 .605h-13.447c-.508 0-.967-.195-1.367-.605-.4-.391-.596-.859-.596-1.367v-47.436c0-.508 .195-.967 .596-1.367 .4-.391 .859-.596 1.367-.596h13.066c1.055 0 1.641 .4 1.768 1.221 .137 .811 .195 1.582 .195 2.324 1.816-1.699 3.887-2.91 6.201-3.643s4.717-1.103 7.207-1.103z" fill="#ffffff"/></svg>