<svg xmlns="http://www.w3.org/2000/svg" width="88.232" height="71.812" viewBox="0 0 88.232 71.812" enable-background="new 0 0 88.232 71.812"><path d="M9.238 0c1.25 0 2.422 .254 3.516 .742 1.104 .498 2.08 1.152 2.92 1.963 .85 .82 1.523 1.797 2.012 2.949 .498 1.152 .742 2.344 .742 3.594 0 1.309-.244 2.52-.742 3.633-.488 1.113-1.162 2.08-2.012 2.891-.84 .82-1.826 1.465-2.939 1.943s-2.285 .723-3.496 .723c-1.309 0-2.52-.244-3.633-.723-1.123-.479-2.09-1.123-2.9-1.943-.811-.811-1.465-1.777-1.963-2.891s-.743-2.324-.743-3.633c0-1.25 .244-2.441 .742-3.594s1.152-2.129 1.963-2.949c.811-.811 1.777-1.465 2.9-1.963 1.114-.488 2.325-.742 3.633-.742zm0 26.67c1.25 0 2.422 .244 3.516 .742 1.104 .488 2.08 1.152 2.92 1.963 .85 .811 1.523 1.797 2.012 2.939 .498 1.152 .742 2.35 .742 3.6 0 1.309-.244 2.52-.742 3.633-.488 1.113-1.162 2.09-2.012 2.891-.84 .82-1.826 1.484-2.939 1.973s-2.285 .742-3.496 .742c-1.309 0-2.52-.254-3.633-.742-1.123-.488-2.09-1.152-2.9-1.973-.811-.801-1.465-1.777-1.963-2.891s-.743-2.324-.743-3.633c0-1.25 .244-2.447 .742-3.6 .498-1.143 1.152-2.129 1.963-2.939s1.777-1.475 2.9-1.963c1.114-.498 2.325-.742 3.633-.742zm0 26.705c1.25 0 2.422 .254 3.516 .723 1.104 .488 2.08 1.133 2.92 1.934 .85 .82 1.523 1.797 2.012 2.949 .498 1.152 .742 2.344 .742 3.594 0 1.309-.244 2.52-.742 3.633-.488 1.133-1.162 2.09-2.012 2.91-.84 .801-1.826 1.465-2.939 1.953s-2.285 .742-3.496 .742c-2.549 0-4.727-.898-6.533-2.695-1.808-1.817-2.706-3.985-2.706-6.544 0-1.25 .244-2.441 .742-3.594s1.152-2.129 1.963-2.949c.811-.801 1.777-1.445 2.9-1.934 1.114-.468 2.325-.722 3.633-.722zm75.352-50.592c.986 0 1.846 .352 2.559 1.074 .723 .723 1.084 1.602 1.084 2.656v5.459c0 1.055-.361 1.943-1.084 2.656-.713 .713-1.572 1.074-2.559 1.074h-55.869c-1.055 0-1.934-.361-2.656-1.074-.713-.713-1.074-1.602-1.074-2.656v-5.458c0-1.055 .361-1.934 1.074-2.656 .723-.723 1.602-1.074 2.656-1.074h55.869v-.001zm0 26.66c.986 0 1.846 .361 2.559 1.074 .723 .723 1.084 1.611 1.084 2.656v5.455c0 1.055-.361 1.953-1.084 2.676-.713 .703-1.572 1.074-2.559 1.074h-55.869c-1.055 0-1.934-.371-2.656-1.074-.713-.723-1.074-1.621-1.074-2.676v-5.455c0-1.045 .361-1.934 1.074-2.656 .723-.713 1.602-1.074 2.656-1.074h55.869zm0 26.666c.986 0 1.846 .371 2.559 1.074 .723 .723 1.084 1.602 1.084 2.656v5.469c0 1.055-.361 1.914-1.084 2.598-.713 .684-1.572 1.035-2.559 1.035h-55.869c-1.055 0-1.934-.352-2.656-1.035-.713-.684-1.074-1.543-1.074-2.598v-5.468c0-1.055 .361-1.934 1.074-2.656 .723-.703 1.602-1.074 2.656-1.074h55.869v-.001z" fill="#333"/></svg>