<svg xmlns="http://www.w3.org/2000/svg" width="88.232" height="73.52" viewBox="0 0 88.232 73.52" enable-background="new 0 0 88.232 73.52"><path d="M14.697 9.238c0 .986-.361 1.836-1.074 2.529-.723 .703-1.572 1.055-2.568 1.055h-7.325c-1.045 0-1.934-.361-2.656-1.074-.713-.723-1.074-1.553-1.074-2.51v-5.605c0-.986 .361-1.846 1.074-2.559 .723-.722 1.612-1.074 2.656-1.074h7.324c.996 0 1.846 .352 2.568 1.074 .713 .713 1.074 1.572 1.074 2.559v5.605zm0 20.147c0 1.055-.361 1.924-1.074 2.607-.723 .693-1.572 1.035-2.568 1.035h-7.325c-1.045 0-1.934-.342-2.656-1.035-.713-.683-1.074-1.553-1.074-2.607v-5.459c0-1.045 .361-1.934 1.074-2.656 .723-.713 1.611-1.074 2.656-1.074h7.324c.996 0 1.846 .361 2.568 1.074 .713 .723 1.074 1.611 1.074 2.656v5.459zm0 20.209c0 1.055-.361 1.934-1.074 2.656-.723 .723-1.572 1.074-2.568 1.074h-7.325c-1.045 0-1.934-.352-2.656-1.074-.713-.723-1.074-1.602-1.074-2.656v-5.469c0-1.055 .361-1.934 1.074-2.656 .723-.703 1.611-1.074 2.656-1.074h7.324c.996 0 1.846 .371 2.568 1.074 .713 .723 1.074 1.602 1.074 2.656v5.469zm-3.642 11.094c.996 0 1.846 .371 2.568 1.094 .713 .703 1.074 1.543 1.074 2.5v5.508c0 1.055-.361 1.934-1.074 2.656-.723 .723-1.572 1.074-2.568 1.074h-7.325c-1.045 0-1.934-.352-2.656-1.074-.713-.723-1.074-1.602-1.074-2.657v-5.508c0-.977 .361-1.836 1.074-2.539 .723-.703 1.611-1.055 2.656-1.055h7.325zm73.535-60.688c.986 0 1.846 .352 2.559 1.074 .723 .713 1.084 1.572 1.084 2.559v5.605c0 .986-.361 1.836-1.084 2.529-.713 .703-1.572 1.055-2.559 1.055h-58.789c-1.055 0-1.934-.361-2.656-1.074-.713-.723-1.074-1.553-1.074-2.51v-5.605c0-.986 .361-1.846 1.074-2.559 .722-.722 1.601-1.074 2.656-1.074h58.789zm-62.52 23.926c0-1.045 .361-1.934 1.074-2.656 .723-.713 1.602-1.074 2.656-1.074h58.79c.986 0 1.846 .361 2.559 1.074 .723 .723 1.084 1.611 1.084 2.656v5.459c0 1.055-.361 1.924-1.084 2.607-.713 .693-1.572 1.035-2.559 1.035h-58.789c-1.055 0-1.934-.342-2.656-1.035-.713-.684-1.074-1.553-1.074-2.607v-5.459zm0 20.199c0-1.055 .361-1.934 1.074-2.656 .723-.703 1.602-1.074 2.656-1.074h58.79c.986 0 1.846 .371 2.559 1.074 .723 .723 1.084 1.602 1.084 2.656v5.469c0 1.055-.361 1.934-1.084 2.656-.713 .723-1.572 1.074-2.559 1.074h-58.789c-1.055 0-1.934-.352-2.656-1.074-.713-.723-1.074-1.602-1.074-2.656v-5.469zm0 20.156c0-.977 .361-1.836 1.074-2.539 .723-.703 1.602-1.055 2.656-1.055h58.79c.986 0 1.846 .371 2.559 1.094 .723 .703 1.084 1.543 1.084 2.5v5.508c0 1.055-.361 1.934-1.084 2.656-.713 .723-1.572 1.074-2.559 1.074h-58.789c-1.055 0-1.934-.352-2.656-1.074-.713-.723-1.074-1.602-1.074-2.656v-5.508z" fill="#313337"/></svg>