<svg xmlns="http://www.w3.org/2000/svg" width="88.232" height="73.531" viewBox="0 0 88.232 73.531" enable-background="new 0 0 88.232 73.531"><path d="M10.869 41.367h3.154v5.504h-13.828c-.068-.312-.117-.605-.146-.879s-.049-.566-.049-.898c0-1.758 .488-3.189 1.465-4.303 .967-1.113 2.061-2.1 3.271-2.949 1.221-.84 2.314-1.641 3.311-2.393 .986-.752 1.484-1.65 1.484-2.705 0-.918-.283-1.621-.84-2.109-.557-.469-1.299-.713-2.227-.713-.801 0-1.504 .244-2.109 .713-.605 .488-1.143 1.055-1.631 1.729l-2.529-1.768c.732-1.25 1.66-2.207 2.793-2.9 1.133-.684 2.393-1.025 3.76-1.025 1.758 0 3.301 .508 4.619 1.523 1.328 1.025 1.992 2.48 1.992 4.365 0 1.562-.479 2.842-1.436 3.828s-2.031 1.875-3.213 2.656-2.256 1.533-3.232 2.246c-.967 .723-1.455 1.617-1.455 2.672h6.846v-2.594zm-2.158 20.016c1.309 .195 2.49 .742 3.545 1.66 1.055 .938 1.582 2.246 1.582 3.926 0 1.699-.605 3.223-1.816 4.551-1.221 1.348-2.969 2.012-5.273 2.012-1.113 0-2.08-.137-2.891-.43-.82-.273-1.484-.605-1.992-.957-.801-.449-1.357-.859-1.67-1.25l1.768-2.578c.195 .137 .381 .293 .576 .508 .186 .195 .43 .371 .713 .508 .391 .254 .859 .469 1.416 .664s1.152 .293 1.797 .293c1.113 0 2.002-.293 2.656-.879 .654-.566 .977-1.309 .977-2.246 0-.977-.371-1.758-1.123-2.324-.752-.547-1.68-.82-2.803-.82h-1.095l-.771-1.777 4.307-5.176 .293-.293 .332-.273 .195-.293h-.43c-.127 .059-.352 .098-.674 .098h-4.404v2.344h-3.155v-5.312h12.588v2.539l-4.648 5.505zm-3.399-56.881c-.322 .508-.673 .967-1.074 1.367s-.869 .84-1.416 1.309l-2.148-2.295 5.019-4.883h3.213v17.236h4.453v2.969h-12.402v-2.969h4.453v-12.734h-.098zm79.278-.859c.986 0 1.846 .352 2.559 1.074 .723 .723 1.084 1.602 1.084 2.656v5.459c0 1.055-.361 1.943-1.084 2.656-.713 .723-1.572 1.084-2.559 1.084h-55.869c-1.055 0-1.934-.361-2.656-1.084-.713-.713-1.074-1.602-1.074-2.656v-5.459c0-1.055 .361-1.934 1.074-2.656 .723-.723 1.602-1.074 2.656-1.074h55.869zm0 26.66c.986 0 1.846 .361 2.559 1.074 .723 .723 1.084 1.611 1.084 2.666v5.459c0 1.045-.361 1.934-1.084 2.656-.713 .709-1.572 1.08-2.559 1.08h-55.869c-1.055 0-1.934-.371-2.656-1.08-.713-.723-1.074-1.611-1.074-2.656v-5.459c0-1.055 .361-1.943 1.074-2.666 .723-.713 1.602-1.074 2.656-1.074h55.869zm0 26.666c.986 0 1.846 .371 2.559 1.074 .723 .723 1.084 1.602 1.084 2.656v5.469c0 1.055-.361 1.914-1.084 2.598-.713 .703-1.572 1.035-2.559 1.035h-55.869c-1.055 0-1.934-.332-2.656-1.035-.713-.684-1.074-1.543-1.074-2.598v-5.469c0-1.055 .361-1.934 1.074-2.656 .723-.703 1.602-1.074 2.656-1.074h55.869z" fill="#f7f8fa"/></svg>