<svg xmlns="http://www.w3.org/2000/svg" width="88.232" height="73.531" viewBox="0 0 88.232 73.531" enable-background="new 0 0 88.232 73.531"><path d="M82.773 0c1.494 0 2.783 .537 3.848 1.631 1.074 1.084 1.611 2.373 1.611 3.877v62.516c0 1.504-.537 2.793-1.611 3.887-1.064 1.074-2.354 1.621-3.848 1.621h-77.265c-1.504 0-2.793-.547-3.877-1.621-1.084-1.095-1.631-2.384-1.631-3.888v-62.515c0-1.504 .547-2.793 1.631-3.877 1.084-1.094 2.373-1.631 3.877-1.631h77.265zm-1.865 14.697h-73.535v51.471h73.535v-51.471zm-64.346 14.698c-1.24 0-1.865-.625-1.865-1.865v-3.594c0-1.25 .625-1.865 1.865-1.865h7.373c.508 0 .947 .176 1.318 .527 .361 .352 .547 .791 .547 1.338v3.594c0 .508-.186 .947-.547 1.309-.371 .371-.811 .557-1.318 .557h-7.373v-.001zm0 14.742c-1.24 0-1.865-.625-1.865-1.855v-3.652c0-1.236 .625-1.861 1.865-1.861h7.373c.508 0 .947 .176 1.318 .547 .361 .371 .547 .807 .547 1.314v3.652c0 .508-.186 .938-.547 1.309-.371 .371-.811 .547-1.318 .547h-7.373v-.001zm0 14.707c-1.24 0-1.865-.625-1.865-1.875v-3.633c0-1.25 .625-1.875 1.865-1.875h7.373c.508 0 .947 .195 1.318 .547 .361 .371 .547 .82 .547 1.328v3.633c0 .508-.186 .957-.547 1.309-.371 .371-.811 .566-1.318 .566h-7.373zm18.34-29.449c-.518 0-.938-.176-1.27-.527-.342-.352-.508-.801-.508-1.338v-3.594c0-.508 .166-.947 .508-1.318 .332-.361 .752-.547 1.27-.547h36.768c1.24 0 1.865 .615 1.865 1.865v3.594c0 1.24-.625 1.865-1.865 1.865h-36.768zm0 14.742c-.518 0-.938-.176-1.27-.547-.342-.371-.508-.801-.508-1.309v-3.652c0-.508 .166-.943 .508-1.314 .332-.371 .752-.547 1.27-.547h36.768c1.24 0 1.865 .625 1.865 1.861v3.652c0 1.23-.625 1.855-1.865 1.855h-36.768v.001zm0 14.707c-.518 0-.938-.195-1.27-.566-.342-.352-.508-.801-.508-1.309v-3.633c0-.508 .166-.957 .508-1.328 .332-.352 .752-.547 1.27-.547h36.768c1.24 0 1.865 .625 1.865 1.875v3.633c0 1.25-.625 1.875-1.865 1.875h-36.768z" fill="#3b73b9"/></svg>