<svg xmlns="http://www.w3.org/2000/svg" width="59.99" height="75.023" viewBox="0 0 59.99 75.023" enable-background="new 0 0 59.99 75.023"><path d="M56.299 34.131c1.113 .381 2.012 1.055 2.676 2.012 .684 .957 1.016 2.064 1.016 3.295v29.98c0 1.504-.557 2.812-1.66 3.926-1.094 1.113-2.402 1.68-3.896 1.68h-48.83c-1.504 0-2.812-.566-3.926-1.68-1.122-1.114-1.679-2.422-1.679-3.926v-29.98c0-1.23 .342-2.338 1.025-3.295 .693-.957 1.592-1.631 2.715-2.012v-7.852c0-3.604 .684-7.002 2.051-10.195 1.377-3.193 3.252-5.986 5.625-8.379 2.383-2.393 5.176-4.268 8.379-5.645s6.621-2.06 10.225-2.06 7.002 .684 10.195 2.061 5.986 3.252 8.379 5.645 4.277 5.195 5.654 8.408c1.367 3.203 2.051 6.592 2.051 10.166v7.851zm-11.299-7.852c0-2.1-.391-4.072-1.172-5.889s-1.865-3.398-3.232-4.736-2.969-2.402-4.805-3.184-3.76-1.172-5.771-1.172c-2.109 0-4.053 .391-5.84 1.172s-3.379 1.846-4.766 3.184-2.471 2.93-3.252 4.766c-.781 1.826-1.172 3.789-1.172 5.859v7.471h30.01v-7.471zm-11.768 27.241c.918-.566 1.68-1.348 2.266-2.324s.889-2.012 .889-3.125c0-1.758-.625-3.281-1.865-4.551-1.25-1.289-2.754-1.914-4.502-1.914-1.758 0-3.252 .625-4.502 1.914-1.25 1.27-1.865 2.793-1.865 4.551 0 1.113 .283 2.148 .859 3.125s1.318 1.719 2.256 2.227l-3.115 13.75h12.734l-3.155-13.653z" fill="#333"/></svg>