<svg xmlns="http://www.w3.org/2000/svg" width="88.232" height="73.52" viewBox="0 0 88.232 73.52" enable-background="new 0 0 88.232 73.52"><path d="M76.982 1.484c.635-.547 1.387-.82 2.256-.82 1.113 0 2.051 .469 2.812 1.387 .322 .391 .801 .918 1.416 1.602 .625 .693 1.23 1.396 1.826 2.109 .586 .723 1.094 1.484 1.523 2.275 .43 .801 .645 1.484 .645 2.061 0 1.25-.459 2.217-1.387 2.92l-75.586 59.74c-.645 .508-1.387 .762-2.246 .762-1.191 0-2.129-.449-2.832-1.387-.312-.371-.801-.918-1.436-1.602s-1.24-1.387-1.816-2.109c-.576-.703-1.084-1.465-1.514-2.246s-.643-1.465-.643-2.071c0-1.25 .469-2.227 1.387-2.93l75.595-59.691zm-59.121 29.678l-5.605-1.768 5.605-1.729 1.768-5.596 1.631 5.596 5.693 1.729-5.693 1.768-1.631 5.596-1.768-5.596zm11.25-13.017l-11.25-3.457 11.25-3.398 3.448-11.29 3.438 11.289 11.25 3.398-11.25 3.457-3.438 11.25-3.448-11.249zm21.592-9.053l-5.605-1.729 5.605-1.768 1.768-5.595 1.768 5.596 5.557 1.768-5.557 1.729-1.768 5.596-1.768-5.597zm33.027 1.103l-4.492-5.801-17.676 13.936 4.502 5.791 17.666-13.926zm4.502 20.967l-5.596 1.768-1.729 5.605-1.768-5.605-5.605-1.768 5.605-1.68 1.768-5.645 1.729 5.645 5.596 1.68z" fill="#333"/></svg>