<svg xmlns="http://www.w3.org/2000/svg" width="75.02" height="75.004" viewBox="0 0 75.02 75.004" enable-background="new 0 0 75.02 75.004"><path d="M1.865 22.441c-.518 0-.947-.176-1.318-.547-.371-.361-.547-.8-.547-1.318v-18.711c0-.518 .176-.947 .547-1.318s.801-.547 1.318-.547h18.721c.508 0 .957 .176 1.367 .547 .391 .371 .586 .801 .586 1.318v18.711c0 .518-.195 .957-.586 1.318-.41 .371-.859 .547-1.367 .547h-18.721zm71.28 5.704c.508 0 .957 .176 1.318 .527s.557 .801 .557 1.338v13.789c0 4.311-.986 8.354-2.949 12.162-1.963 3.789-4.648 7.09-8.047 9.902s-7.363 5.039-11.914 6.68-9.414 2.461-14.58 2.461c-5.234 0-10.117-.82-14.648-2.461s-8.496-3.867-11.895-6.68-6.085-6.093-8.048-9.883-2.939-7.832-2.939-12.181v-13.789c0-.508 .176-.947 .547-1.318 .371-.361 .801-.547 1.318-.547h18.721c.508 0 .957 .176 1.367 .527 .391 .352 .586 .801 .586 1.338v13.789c0 .932 .371 1.889 1.084 2.865 .713 .996 1.729 1.934 3.037 2.812s2.881 1.582 4.717 2.148 3.887 .84 6.152 .84c2.236 0 4.287-.273 6.152-.84s3.447-1.27 4.756-2.148 2.324-1.816 3.047-2.812c.723-.977 1.074-1.934 1.074-2.865v-13.789c0-1.24 .625-1.865 1.875-1.865h18.712zm0-28.145c.508 0 .957 .176 1.318 .547s.557 .801 .557 1.318v18.711c0 .518-.195 .957-.557 1.318-.361 .371-.811 .547-1.318 .547h-18.711c-1.25 0-1.875-.615-1.875-1.865v-18.711c0-.518 .176-.947 .527-1.318s.801-.547 1.348-.547h18.711z" fill="#3b73b9"/></svg>