<svg xmlns="http://www.w3.org/2000/svg" width="54.004" height="76.5" viewBox="0 0 54.004 76.5" enable-background="new 0 0 54.004 76.5"><path d="M54.004 27.1c0 2.676-.391 5.225-1.172 7.637s-1.826 4.693-3.135 6.861l-18.145 31.66c-1.309 2.168-2.822 3.242-4.541 3.242-1.729 0-3.213-1.074-4.453-3.242l-18.242-31.738c-1.309-2.188-2.354-4.459-3.135-6.861-.79-2.393-1.181-4.913-1.181-7.559 0-3.73 .703-7.256 2.109-10.557s3.34-6.182 5.801-8.643c2.451-2.451 5.332-4.385 8.633-5.791s6.816-2.109 10.508-2.109c3.74 0 7.246 .703 10.508 2.109 3.281 1.406 6.133 3.34 8.574 5.791 2.441 2.461 4.365 5.342 5.762 8.643 1.406 3.301 2.109 6.826 2.109 10.557zm-26.953 13.306c1.816 0 3.555-.332 5.195-1.035 1.641-.684 3.076-1.627 4.287-2.838s2.158-2.637 2.842-4.268c.693-1.621 1.035-3.35 1.035-5.166s-.342-3.555-1.035-5.195c-.684-1.641-1.631-3.086-2.842-4.336-1.211-1.24-2.627-2.207-4.258-2.891s-3.369-1.035-5.225-1.035c-1.875 0-3.613 .352-5.215 1.035s-3.018 1.65-4.258 2.891c-1.25 1.25-2.207 2.686-2.9 4.316-.684 1.621-1.025 3.359-1.025 5.215 0 1.816 .342 3.545 1.025 5.166 .693 1.631 1.65 3.057 2.9 4.268 1.24 1.211 2.656 2.154 4.258 2.838 1.603 .703 3.341 1.035 5.216 1.035z" fill="#333"/></svg>