<svg xmlns="http://www.w3.org/2000/svg" width="76.445" height="76.5" viewBox="0 0 76.445 76.5" enable-background="new 0 0 76.445 76.5"><path d="M38.242 0c5.303 0 10.264 .996 14.893 2.988 4.629 2.002 8.682 4.727 12.158 8.193 3.477 3.457 6.211 7.51 8.184 12.158 1.982 4.639 2.969 9.609 2.969 14.912 0 5.299-.986 10.26-2.969 14.908-1.973 4.648-4.707 8.711-8.184 12.168s-7.529 6.191-12.158 8.184-9.59 2.989-14.893 2.989c-5.293 0-10.264-.996-14.902-2.988-4.648-1.992-8.701-4.727-12.168-8.184-3.457-3.457-6.191-7.52-8.184-12.168s-2.988-9.609-2.988-14.908c0-5.303 .996-10.273 2.988-14.912 1.992-4.648 4.727-8.701 8.184-12.158 3.467-3.467 7.52-6.191 12.168-8.193 4.639-1.993 9.609-2.989 14.902-2.989zm22.07 34.512c0-.439-.156-.82-.498-1.123s-.693-.449-1.084-.449h-40.976c-1.055 0-1.582 .527-1.582 1.572v7.568c0 1.055 .527 1.588 1.582 1.588h40.976c.391 0 .742-.156 1.084-.465 .342-.303 .498-.674 .498-1.123v-7.568z" fill="#ffffff"/></svg>