<svg xmlns="http://www.w3.org/2000/svg" width="88.223" height="73.535" viewBox="0 0 88.223 73.535" enable-background="new 0 0 88.223 73.535"><path d="M84.59 0c.986 0 1.836 .361 2.559 1.079s1.074 1.572 1.074 2.559v66.157c0 1.055-.352 1.943-1.074 2.656-.723 .723-1.572 1.084-2.559 1.084h-80.86c-1.055 0-1.934-.361-2.656-1.084-.722-.713-1.074-1.601-1.074-2.656v-66.157c0-.986 .352-1.841 1.074-2.559s1.602-1.079 2.656-1.079h80.86zm-3.692 22.07c-2.012 0-3.926-.391-5.742-1.172s-3.379-1.826-4.668-3.135-2.334-2.866-3.135-4.668c-.801-1.807-1.201-3.711-1.201-5.723h-44.082c0 2.012-.391 3.916-1.182 5.723-.781 1.802-1.826 3.359-3.135 4.668s-2.861 2.354-4.668 3.135c-1.797 .781-3.711 1.172-5.713 1.172v29.395c2.002 0 3.916 .391 5.713 1.172 1.807 .781 3.359 1.826 4.668 3.135s2.354 2.861 3.135 4.668c.791 1.807 1.182 3.711 1.182 5.723h44.082c0-2.012 .4-3.916 1.201-5.723s1.846-3.359 3.135-4.668 2.842-2.354 4.648-3.135c1.797-.781 3.721-1.172 5.762-1.172v-29.395zm-36.767-9.238c2.559 0 4.941 .62 7.158 1.865s4.16 2.944 5.82 5.098 2.979 4.692 3.975 7.612c.986 2.92 1.484 6.04 1.484 9.36s-.498 6.436-1.484 9.355c-.996 2.92-2.314 5.459-3.975 7.617-1.66 2.148-3.604 3.848-5.84 5.098-2.236 1.24-4.609 1.865-7.139 1.865-2.549 0-4.941-.625-7.178-1.865-2.236-1.25-4.18-2.949-5.84-5.098-1.66-2.158-2.959-4.697-3.896-7.617-.947-2.92-1.416-6.035-1.416-9.355s.469-6.44 1.416-9.36c.938-2.92 2.236-5.459 3.896-7.612s3.604-3.853 5.84-5.098 4.63-1.865 7.179-1.865zm10.967 31.689h-6.748v-25.322h-6.7l-8.525 7.944 4.502 4.741 1.865-1.68c.254-.19 .439-.405 .547-.645 .117-.239 .234-.42 .361-.547 .127-.068 .254-.225 .381-.479h.098v.762c0 .259-.02 .518-.049 .791s-.049 .566-.049 .889v13.545h-6.65v6.172h20.967v-6.171z" fill="#313337"/></svg>