<svg xmlns="http://www.w3.org/2000/svg" width="76.455" height="76.504" viewBox="0 0 76.455 76.504" enable-background="new 0 0 76.455 76.504"><path d="M75.596 36.191c.566 .576 .859 1.26 .859 2.061 0 .791-.293 1.484-.859 2.061l-12.256 12.246c-.869 .869-1.582 1.182-2.158 .938-.576-.234-.859-.977-.859-2.227v-8.428h-17.286v17.48h8.232c1.25 0 2.002 .293 2.256 .879 .254 .596-.068 1.299-.957 2.139l-12.256 12.246c-.576 .576-1.26 .879-2.061 .918-.801 0-1.484-.312-2.061-.918l-12.254-12.246c-.859-.869-1.182-1.582-.957-2.158s.957-.859 2.207-.859h8.232v-17.48h-17.236v8.428c0 1.25-.293 1.992-.889 2.227-.586 .244-1.309-.068-2.178-.938l-12.256-12.248c-.566-.576-.859-1.269-.859-2.06 0-.801 .293-1.484 .859-2.061l12.256-12.256c.869-.859 1.592-1.172 2.178-.938 .596 .244 .889 .986 .889 2.227v8.145h17.236v-17.187h-8.232c-1.182 0-1.904-.293-2.158-.889-.254-.586 .049-1.299 .908-2.129l12.255-12.256c.576-.576 1.26-.879 2.061-.908 .801 0 1.484 .303 2.061 .908l12.256 12.256c.859 .859 1.172 1.582 .928 2.158-.234 .566-.977 .859-2.227 .859h-8.232v17.188h17.285v-8.145c0-1.24 .283-1.982 .859-2.227 .576-.234 1.289 .078 2.158 .938l12.256 12.256z" fill="#3b73b9"/></svg>