<svg xmlns="http://www.w3.org/2000/svg" width="71.279" height="76.494" viewBox="0 0 71.279 76.494" enable-background="new 0 0 71.279 76.494"><path d="M67.354 0c1.123 0 2.051 .371 2.803 1.123s1.123 1.68 1.123 2.803v49.209c0 1.885-.439 3.555-1.309 5-.879 1.455-2.051 2.666-3.496 3.643-1.455 .977-3.047 1.719-4.766 2.246s-3.398 .791-5.029 .791c-1.621 0-3.311-.264-5.049-.791s-3.311-1.27-4.717-2.246-2.539-2.178-3.418-3.613-1.318-3.115-1.318-5.029c0-1.816 .439-3.457 1.318-4.932 .879-1.465 2.012-2.695 3.418-3.682s2.979-1.738 4.717-2.256c1.738-.508 3.428-.762 5.049-.762 .869 0 1.699 .059 2.52 .195 .811 .127 1.602 .283 2.363 .469v-25.703l-32.451 9.336v39.014c0 1.885-.439 3.555-1.318 5.01-.879 1.445-2.021 2.656-3.428 3.633s-2.969 1.719-4.717 2.246c-1.738 .527-3.418 .791-5.049 .791-1.689 0-3.389-.264-5.098-.791s-3.281-1.27-4.717-2.246-2.588-2.188-3.467-3.633c-.879-1.456-1.318-3.126-1.318-5.011 0-1.816 .439-3.457 1.318-4.932 .879-1.465 2.031-2.695 3.467-3.682s3.008-1.748 4.717-2.275 3.408-.791 5.098-.791c.801 0 1.611 .068 2.422 .195s1.621 .303 2.412 .527v-37.294c0-.859 .264-1.631 .771-2.295 .508-.674 1.191-1.133 2.061-1.396 .732-.186 2.314-.645 4.756-1.387 2.441-.732 5.283-1.572 8.525-2.51 3.242-.947 6.67-1.943 10.293-2.998 3.623-1.045 6.992-2.012 10.098-2.891 3.115-.879 5.732-1.611 7.852-2.207 2.128-.585 3.31-.878 3.564-.878z" fill="#f7f8fa"/></svg>