<svg xmlns="http://www.w3.org/2000/svg" width="71.279" height="75.01" viewBox="0 0 71.279 75.01" enable-background="new 0 0 71.279 75.01"><path d="M55.674 9.902c4.922 3.32 8.75 7.578 11.494 12.783s4.111 10.771 4.111 16.709c0 4.912-.928 9.531-2.793 13.838-1.875 4.307-4.424 8.076-7.666 11.318-3.232 3.242-7.031 5.791-11.367 7.656-4.336 1.875-8.965 2.803-13.887 2.803-4.912 0-9.521-.928-13.828-2.803-4.307-1.865-8.076-4.414-11.299-7.656s-5.771-7.012-7.637-11.318-2.802-8.925-2.802-13.837c0-5.938 1.377-11.504 4.121-16.709s6.572-9.463 11.484-12.783c.381-.312 .83-.41 1.338-.283 .577 .126 .977 .38 1.202 .761l4.307 6.279c.322 .381 .42 .82 .293 1.309-.127 .498-.391 .908-.771 1.221-3.379 2.305-6.006 5.215-7.871 8.74s-2.803 7.344-2.803 11.465c0 3.32 .635 6.475 1.895 9.453 1.26 2.988 2.988 5.566 5.195 7.754 2.197 2.188 4.785 3.926 7.754 5.195 2.969 1.279 6.113 1.914 9.424 1.914 3.32 0 6.475-.635 9.463-1.914 2.979-1.27 5.586-3.008 7.822-5.195s3.984-4.756 5.244-7.725 1.895-6.133 1.895-9.482c0-4.121-.947-7.939-2.832-11.465s-4.492-6.436-7.852-8.74c-.439-.312-.703-.693-.762-1.143-.127-.508-.029-.977 .283-1.387l4.219-6.279c.311-.381 .722-.615 1.22-.713 .488-.098 .966-.02 1.406 .234zm-23.789 27.53c-.508 0-.947-.176-1.318-.527-.361-.352-.547-.791-.547-1.338v-33.702c0-.518 .176-.947 .527-1.318s.791-.547 1.338-.547h7.52c.508 0 .947 .176 1.309 .547 .371 .371 .557 .801 .557 1.318v33.701c0 .508-.176 .947-.527 1.318-.352 .361-.801 .547-1.338 .547h-7.521v.001z" fill="#313337"/></svg>