<svg xmlns="http://www.w3.org/2000/svg" width="76.455" height="76.504" viewBox="0 0 76.455 76.504" enable-background="new 0 0 76.455 76.504"><path d="M38.252 0c5.293 0 10.264 1.006 14.883 2.998 4.629 1.992 8.682 4.717 12.168 8.184 3.477 3.467 6.201 7.52 8.184 12.158 1.973 4.648 2.969 9.619 2.969 14.912 0 5.303-.996 10.273-2.969 14.912-1.982 4.648-4.707 8.701-8.184 12.158-3.486 3.467-7.539 6.191-12.168 8.184-4.619 2.002-9.59 2.998-14.883 2.998-5.303 0-10.273-.996-14.912-2.998-4.648-1.992-8.701-4.717-12.158-8.184-3.467-3.457-6.191-7.51-8.184-12.158-2.002-4.639-2.998-9.609-2.998-14.912 0-5.293 .996-10.264 2.998-14.912 1.992-4.639 4.717-8.691 8.184-12.158 3.457-3.467 7.51-6.191 12.158-8.184 4.639-1.992 9.609-2.998 14.912-2.998zm0 65.01c3.73 0 7.207-.703 10.439-2.1 3.223-1.406 6.045-3.32 8.467-5.752 2.432-2.422 4.346-5.244 5.752-8.467 1.396-3.223 2.1-6.709 2.1-10.439s-.703-7.207-2.1-10.439c-1.406-3.223-3.32-6.045-5.752-8.467-2.422-2.432-5.254-4.346-8.496-5.742-3.242-1.406-6.709-2.109-10.41-2.109-3.73 0-7.227 .703-10.459 2.109-3.242 1.396-6.064 3.311-8.477 5.742-2.412 2.422-4.316 5.244-5.723 8.467-1.396 3.232-2.1 6.709-2.1 10.439s.703 7.217 2.1 10.439c1.406 3.223 3.311 6.045 5.723 8.467 2.412 2.432 5.234 4.346 8.477 5.752 3.232 1.397 6.728 2.1 10.459 2.1zm13.691-38.819c.322-.322 .762-.479 1.318-.479s1.006 .156 1.357 .479l5.459 5.498c.322 .322 .488 .762 .508 1.318 .01 .557-.156 1.006-.508 1.318l-19.58 19.629c-.381 .381-.898 .703-1.553 .957s-1.25 .381-1.797 .381h-5.459c-.508 0-1.094-.127-1.768-.381s-1.201-.576-1.582-.957l-11.961-11.972c-.322-.312-.479-.752-.479-1.309 0-.566 .156-.996 .479-1.318l5.498-5.508c.322-.322 .762-.479 1.318-.479s.996 .156 1.318 .479l8.525 8.623c.918 .791 1.846 .791 2.773 0l16.134-16.279z" fill="#f7f8fa"/></svg>