<svg xmlns="http://www.w3.org/2000/svg" width="88.155" height="60.986" viewBox="0 0 88.155 60.986" enable-background="new 0 0 88.155 60.986"><path d="M32.842 60.986c-1.123 0-2.314-.264-3.594-.791s-2.266-1.143-2.969-1.846l-25.185-25.322c-.733-.732-1.094-1.631-1.094-2.705 0-1.064 .361-1.953 1.094-2.656l8.33-8.379c.742-.732 1.641-1.094 2.705-1.074 1.074 .02 1.953 .371 2.656 1.074l17.48 17.48c.732 .732 1.631 1.094 2.705 1.094 1.064 0 1.953-.361 2.656-1.094l35.714-35.663c.732-.743 1.631-1.104 2.705-1.104 1.064 0 1.963 .361 2.705 1.104l8.33 8.32c.732 .742 1.094 1.641 1.074 2.715-.02 1.064-.381 1.953-1.074 2.656l-43.564 43.555c-.742 .742-1.738 1.357-2.998 1.875-1.26 .508-2.412 .762-3.467 .762h-4.209z" fill="#313337"/></svg>