<svg xmlns="http://www.w3.org/2000/svg" width="70.371" height="76.5" viewBox="0 0 70.371 76.5" enable-background="new 0 0 70.371 76.5"><path d="M29.824 17.373c1.626 0 3.208 .332 4.736 .986 1.533 .654 2.891 1.533 4.072 2.656l26.855 26.949c3.262 3.262 4.883 7.188 4.883 11.777 0 2.363-.439 4.551-1.318 6.562-.869 2.012-2.061 3.77-3.564 5.273-1.504 1.484-3.262 2.695-5.293 3.574-2.031 .898-4.219 1.348-6.582 1.348-4.561 0-8.486-1.641-11.777-4.922l-35.664-35.668c-1.943-1.953-3.462-4.219-4.546-6.807s-1.626-5.283-1.626-8.085c0-2.871 .557-5.586 1.675-8.135 1.118-2.559 2.617-4.785 4.497-6.68 1.885-1.904 4.102-3.408 6.655-4.531 2.554-1.113 5.269-1.67 8.14-1.67 2.808 0 5.503 .537 8.091 1.631 2.583 1.084 4.868 2.598 6.846 4.541l31.362 31.406c.371 .381 .566 .83 .566 1.338 0 .322-.176 .742-.527 1.27s-.771 1.035-1.27 1.533c-.488 .504-.996 .934-1.523 1.305-.527 .352-.957 .547-1.27 .547-.508 0-.977-.215-1.387-.625l-31.362-31.364c-1.309-1.309-2.778-2.285-4.404-2.939s-3.335-.986-5.122-.986c-1.821 0-3.545 .342-5.171 1.025-1.626 .693-3.047 1.641-4.258 2.852-1.216 1.211-2.163 2.637-2.852 4.258-.684 1.631-1.03 3.369-1.03 5.225 0 1.758 .327 3.447 .981 5.068 .654 1.631 1.636 3.105 2.944 4.414l35.664 35.709c1.758 1.758 3.887 2.637 6.367 2.637 1.25 0 2.422-.254 3.545-.742s2.08-1.152 2.9-1.973c.811-.801 1.465-1.777 1.953-2.891 .498-1.113 .742-2.285 .742-3.496 0-2.48-.889-4.629-2.676-6.406l-26.951-26.96c-.923-.928-2.026-1.367-3.301-1.338-1.309 0-2.441 .469-3.398 1.406-.957 .947-1.436 2.07-1.436 3.379s.459 2.422 1.387 3.35l22.744 22.74c.371 .391 .566 .84 .566 1.348 0 .312-.176 .742-.527 1.27s-.771 1.035-1.27 1.523c-.488 .488-.996 .918-1.523 1.289s-.957 .547-1.27 .547c-.508 0-.977-.195-1.387-.605l-22.743-22.653c-1.118-1.182-2.002-2.539-2.656-4.072s-.981-3.105-.981-4.736c0-1.689 .327-3.291 .981-4.814 .654-1.514 1.538-2.832 2.656-3.975 1.118-1.133 2.451-2.021 3.999-2.676s3.164-.987 4.858-.987z" fill="#313337"/></svg>