<svg xmlns="http://www.w3.org/2000/svg" width="76.451" height="73.52" viewBox="0 0 76.451 73.52" enable-background="new 0 0 76.451 73.52"><path d="M74.391 30.205c.576 .576 1.064 1.357 1.465 2.344 .391 .986 .596 1.865 .596 2.627v35.434000000000005c0 .859-.264 1.562-.811 2.109-.547 .527-1.25 .801-2.109 .801h-41.173c-.859 0-1.572-.273-2.129-.84-.557-.547-.836-1.25-.836-2.07v-11.778h-25.659c-1.055 0-1.943-.371-2.661-1.074-.718-.723-1.074-1.602-1.074-2.656v-51.469c0-.986 .356-1.846 1.074-2.559 .718-.722 1.607-1.074 2.661-1.074h44.093c.986 0 1.836 .352 2.559 1.074 .723 .713 1.074 1.572 1.074 2.559v11.055h4.502c.791 0 1.689 .215 2.656 .645 .967 .439 1.768 .908 2.373 1.416l13.399 13.456zm-61.178-19.912c0 .371 .152 .723 .455 1.025s.645 .449 1.029 .449h22.066c.385 0 .727-.146 1.029-.449s.455-.654 .455-1.025v-2.93c0-.381-.152-.723-.455-1.025s-.645-.459-1.029-.459h-22.066c-.385 0-.727 .146-1.029 .43-.303 .293-.455 .645-.455 1.055v2.929zm57.398 30.785h-17.568c-.859 0-1.562-.293-2.109-.84-.547-.57-.811-1.254-.811-2.094v-17.568h-14.84v47.064h35.328v-26.562zm0-5.902c0-.059-.049-.186-.166-.381-.117-.186-.195-.342-.264-.479l-13.408-13.359c0-.117-.098-.186-.283-.186l-.098-.049-.088-.049c-.078 0-.127-.01-.176-.049l-.166-.049v14.6h14.649z" fill="#3b73b9"/></svg>