<svg xmlns="http://www.w3.org/2000/svg" width="73.535" height="73.531" viewBox="0 0 73.535 73.531" enable-background="new 0 0 73.535 73.531"><path d="M26.758 0c.938 0 1.719 .332 2.383 .986 .645 .654 .977 1.445 .977 2.373v66.832c0 .918-.332 1.719-.977 2.363-.664 .664-1.445 .977-2.383 .977h-23.399c-.938 0-1.719-.312-2.373-.977-.654-.644-.986-1.445-.986-2.363v-66.832c0-.928 .332-1.719 .986-2.373s1.436-.986 2.373-.986h23.399zm43.428 0c.928 0 1.709 .332 2.373 .986 .645 .654 .977 1.445 .977 2.373v66.832c0 .918-.332 1.719-.977 2.363-.664 .664-1.445 .977-2.373 .977h-23.409c-.928 0-1.719-.312-2.373-.977-.654-.645-.986-1.445-.986-2.363v-66.832c0-.928 .332-1.719 .986-2.373s1.446-.986 2.373-.986h23.409z" fill="#333"/></svg>