<svg xmlns="http://www.w3.org/2000/svg" width="73.535" height="73.535" viewBox="0 0 73.535 73.535" enable-background="new 0 0 73.535 73.535"><path d="M61.465 25.469l-41.455 41.504-20.01 6.562 6.562-20.01 41.504-41.465 13.399 13.409zm-12.158-3.399c.645-.635 .645-1.328 0-2.061-.312-.322-.674-.479-1.074-.479s-.723 .156-.977 .479l-33.037 32.94c-.322 .322-.479 .674-.479 1.074s.156 .762 .479 1.074c.254 .264 .605 .381 1.055 .381 .381 0 .713-.117 1.006-.381l33.027-33.027zm22.548-15.029c1.123 1.113 1.68 2.461 1.68 4.043s-.557 2.91-1.68 3.994l-5.693 5.693-13.408-13.398 5.703-5.703c1.113-1.113 2.451-1.67 4.014-1.67s2.91 .557 4.023 1.67l2.734 2.637 2.627 2.734z" fill="#ffffff"/></svg>