<svg xmlns="http://www.w3.org/2000/svg" width="73.535" height="73.539" viewBox="0 0 73.535 73.539" enable-background="new 0 0 73.535 73.539"><path d="M64.297 0c2.559 0 4.727 .908 6.533 2.705 1.807 1.807 2.705 3.984 2.705 6.533v55.043c0 1.328-.254 2.539-.742 3.652s-1.152 2.07-1.963 2.891-1.787 1.465-2.939 1.973c-1.152 .488-2.344 .742-3.594 .742h-55.059c-2.549 0-4.727-.918-6.523-2.715-1.817-1.797-2.715-3.984-2.715-6.543v-55.043c0-1.24 .254-2.441 .742-3.584 .498-1.152 1.153-2.138 1.973-2.949 .801-.81 1.777-1.465 2.89-1.963s2.325-.742 3.633-.742h55.059zm-1.152 58.266c.137-.254 .273-.684 .43-1.309 .156-.586 .312-1.211 .43-1.816 .137-.605 .234-1.191 .312-1.797 .078-.586 .039-1.055-.117-1.406-.127-.371-.518-.723-1.172-1.055-.654-.312-1.23-.645-1.748-.996-1.377-.801-2.51-1.465-3.428-1.973l-3.223-1.816c-.508-.312-1.094-.684-1.729-1.133-.635-.43-1.24-.645-1.816-.645-.732 0-1.475 .449-2.227 1.328s-1.348 1.562-1.797 2.07c-.381 .449-.967 1.133-1.748 2.07-.781 .918-1.543 1.426-2.266 1.484-.449 .059-.977-.098-1.562-.488-.586-.371-1.191-.742-1.797-1.094-3.379-1.875-6.289-4.062-8.711-6.504-2.422-2.461-4.58-5.287-6.465-8.48-.312-.508-.664-1.104-1.025-1.797-.361-.684-.488-1.299-.361-1.846 .059-.566 .449-1.104 1.172-1.602 .723-.488 1.289-.957 1.699-1.406 .449-.508 .957-1.104 1.504-1.777 .566-.664 .879-1.348 .938-2.051 .137-.508 .049-1.123-.234-1.826-.293-.693-.547-1.367-.762-2.012-.518-1.367-.977-2.578-1.367-3.633-.41-1.055-.82-2.266-1.27-3.643-.195-.508-.391-1.152-.576-1.934s-.527-1.27-1.006-1.465c-.254-.127-.684-.234-1.27-.332s-1.211-.166-1.865-.215-1.26-.049-1.797 0-.928 .068-1.143 .068h-.391c-1.055 .518-2.051 1.24-2.988 2.178-.938 .947-1.758 2.051-2.441 3.33s-1.23 2.686-1.631 4.209c-.4 1.533-.557 3.135-.459 4.785 .068 1.123 .312 2.344 .723 3.672 .41 1.318 .898 2.578 1.436 3.75 .518 1.182 1.045 2.334 1.611 3.447 .547 1.123 1.084 2.129 1.602 3.018 2.363 4.115 5.176 7.963 8.447 11.537s6.865 6.602 10.791 9.102c.996 .566 2.07 1.152 3.232 1.738s2.373 1.113 3.613 1.562c1.309 .508 2.637 1.016 3.975 1.504 1.348 .488 2.637 .84 3.877 1.035 2.012 .312 3.809 .273 5.381-.098 1.582-.391 3.027-.938 4.336-1.641 .859-.371 1.777-.898 2.754-1.602 .976-.679 1.679-1.519 2.129-2.495z" fill="#313337"/></svg>