<svg xmlns="http://www.w3.org/2000/svg" width="88.223" height="73.525" viewBox="0 0 88.223 73.525" enable-background="new 0 0 88.223 73.525"><path d="M82.764 0c1.504 0 2.793 .537 3.857 1.631 1.074 1.084 1.602 2.373 1.602 3.867v62.529c0 1.494-.527 2.793-1.602 3.877-1.064 1.084-2.354 1.621-3.857 1.621h-77.266c-1.494 0-2.793-.537-3.877-1.621s-1.621-2.383-1.621-3.877v-62.529c0-1.494 .537-2.783 1.621-3.867 1.084-1.094 2.383-1.631 3.877-1.631h77.266zm-1.866 7.373h-73.525v58.789h73.525v-58.789zm-58.74 22.109c-2.1 0-3.877-.713-5.312-2.148s-2.148-3.164-2.148-5.176c0-2.1 .713-3.877 2.148-5.312s3.213-2.148 5.312-2.148c2.012 0 3.74 .713 5.176 2.148s2.148 3.213 2.148 5.312c0 2.012-.713 3.74-2.148 5.176s-3.164 2.148-5.176 2.148zm51.367 29.356h-58.828v-5.029l13.262-17.236 8.994 7.471 16.943-25.714 19.629 20.303v20.205z" fill="#313337"/></svg>