<svg xmlns="http://www.w3.org/2000/svg" width="76.455" height="76.488" viewBox="0 0 76.455 76.488" enable-background="new 0 0 76.455 76.488"><path d="M38.252 0c5.293 0 10.264 .996 14.883 2.988 4.629 2.002 8.682 4.727 12.168 8.193 3.477 3.457 6.201 7.51 8.184 12.158 1.973 4.639 2.969 9.619 2.969 14.912s-.996 10.268-2.969 14.916c-1.982 4.629-4.707 8.691-8.184 12.148-3.486 3.477-7.539 6.191-12.168 8.184-4.619 1.992-9.59 2.988-14.883 2.988-1.885 0-3.73-.137-5.527-.391-1.807-.273-3.604-.664-5.391-1.172 .732-1.133 1.475-2.402 2.227-3.848 .752-1.426 1.318-2.891 1.699-4.395l.527-1.973c.195-.723 .449-1.777 .771-3.145 .312-1.367 .781-3.164 1.387-5.371 .732 1.309 1.943 2.441 3.633 3.379s3.574 1.406 5.654 1.406c3.066 0 5.869-.645 8.428-1.953 2.549-1.309 4.727-3.145 6.533-5.488 1.797-2.344 3.203-5.117 4.209-8.32 1.006-3.217 1.514-6.684 1.514-10.414 0-2.812-.576-5.537-1.709-8.193-1.133-2.646-2.764-5-4.902-7.051-2.139-2.061-4.688-3.691-7.656-4.883-2.969-1.201-6.289-1.797-9.961-1.797-4.502 0-8.467 .732-11.895 2.197-3.428 1.475-6.289 3.359-8.574 5.674-2.275 2.314-3.994 4.883-5.146 7.686-1.143 2.803-1.719 5.586-1.719 8.33 0 3.32 .635 6.309 1.914 8.979 1.279 2.656 3.252 4.531 5.938 5.625 .986 .312 1.641 0 1.963-.957 .059-.332 .176-.82 .332-1.523 .156-.684 .303-1.191 .43-1.543 .127-.508 .146-.879 .049-1.113-.098-.215-.303-.566-.625-1.055-1.689-1.869-2.529-4.35-2.529-7.406 0-2.432 .439-4.746 1.309-6.963 .879-2.227 2.139-4.17 3.76-5.85 1.631-1.67 3.613-3.018 5.938-4.014 2.334-1.006 4.932-1.514 7.803-1.514 2.559 0 4.824 .381 6.826 1.123 1.992 .752 3.672 1.787 5.049 3.086 1.367 1.318 2.402 2.852 3.086 4.6 .684 1.758 1.025 3.691 1.025 5.791 0 2.754-.293 5.361-.879 7.852-.596 2.49-1.426 4.662-2.52 6.518-1.084 1.836-2.354 3.32-3.828 4.395-1.465 1.094-3.105 1.641-4.932 1.641-.986 0-1.904-.215-2.754-.605-.84-.41-1.562-.938-2.148-1.621-.596-.703-.996-1.484-1.221-2.363-.225-.859-.205-1.836 .049-2.891 .576-2.422 1.279-4.838 2.129-7.25 .84-2.412 1.27-4.492 1.27-6.24 0-1.562-.43-2.91-1.27-4.023-.85-1.113-2.148-1.68-3.906-1.68-2.1 0-3.857 .938-5.264 2.803s-2.109 4.209-2.109 7.012c-.059 .732-.029 1.455 .098 2.158 .068 .566 .186 1.221 .361 1.934 .176 .723 .42 1.387 .742 1.992-1.055 4.486-1.904 8.08-2.559 10.775-.654 2.676-1.143 4.766-1.465 6.27-.381 1.758-.664 3.027-.859 3.828-.322 1.426-.537 2.91-.645 4.453-.117 1.523-.137 2.949-.078 4.258-3.311-1.445-6.377-3.34-9.189-5.723-2.803-2.383-5.225-5.078-7.246-8.086-2.031-3.027-3.604-6.328-4.717-9.922-1.125-3.594-1.682-7.338-1.682-11.264 0-5.293 .996-10.273 2.998-14.912 1.992-4.648 4.717-8.701 8.184-12.158 3.457-3.467 7.51-6.191 12.158-8.193 4.639-1.993 9.609-2.989 14.912-2.989z" fill="#313337"/></svg>