<svg xmlns="http://www.w3.org/2000/svg" width="73.535" height="73.52" viewBox="0 0 73.535 73.52" enable-background="new 0 0 73.535 73.52"><path d="M64.297 0c2.549 0 4.727 .898 6.533 2.705 1.797 1.797 2.705 3.984 2.705 6.533v55.043c0 1.309-.254 2.52-.742 3.652-.498 1.113-1.152 2.07-1.963 2.891-.82 .82-1.797 1.465-2.949 1.953-1.143 .508-2.344 .742-3.584 .742h-39.688c.859-1.23 1.807-2.754 2.852-4.57 1.035-1.797 1.826-3.672 2.363-5.625l.479-1.953c.195-.801 .469-1.895 .84-3.262s.84-3.164 1.416-5.352c.635 1.309 1.836 2.422 3.613 3.359 1.768 .957 3.711 1.426 5.811 1.426 3.066 0 5.879-.684 8.428-2.012 2.549-1.348 4.736-3.184 6.562-5.527 1.816-2.344 3.232-5.137 4.258-8.379s1.533-6.762 1.533-10.561c0-2.871-.596-5.625-1.777-8.281-1.172-2.646-2.832-5-4.951-7.061s-4.688-3.691-7.705-4.912c-3.018-1.211-6.348-1.816-9.98-1.816-4.57 0-8.574 .742-12.021 2.227s-6.33 3.399-8.644 5.743c-2.305 2.354-4.043 4.941-5.186 7.783-1.152 2.842-1.729 5.635-1.729 8.379 0 3.324 .635 6.332 1.914 9.027s3.262 4.59 5.938 5.664c.449 .195 .85 .215 1.221 .059 .371-.176 .615-.508 .742-1.016 .127-.312 .254-.82 .381-1.504s.254-1.23 .391-1.66c.254-.723 .059-1.406-.576-2.051-.742-.918-1.328-2.012-1.777-3.223-.439-1.23-.664-2.695-.664-4.389 0-2.422 .439-4.746 1.309-6.963 .879-2.217 2.139-4.18 3.789-5.889 1.641-1.709 3.623-3.066 5.938-4.072s4.932-1.504 7.871-1.504c2.617 0 4.922 .381 6.914 1.123 2.002 .752 3.682 1.777 5.059 3.086 1.367 1.309 2.393 2.861 3.086 4.648 .684 1.787 1.025 3.77 1.025 5.938 0 2.744-.293 5.346-.889 7.846-.586 2.48-1.416 4.668-2.48 6.504-1.074 1.855-2.363 3.34-3.887 4.453-1.514 1.133-3.184 1.68-5 1.68-.986 0-1.904-.195-2.754-.605-.84-.391-1.562-.938-2.148-1.621-.596-.684-.996-1.465-1.221-2.344s-.217-1.835 .047-2.89c.566-2.5 1.289-4.961 2.148-7.402 .859-2.436 1.299-4.535 1.299-6.293 0-1.562-.43-2.92-1.27-4.072-.85-1.152-2.168-1.719-3.955-1.719-2.1 0-3.867 .938-5.283 2.822-1.426 1.885-2.139 4.277-2.139 7.178-.059 .742-.029 1.455 .098 2.162 .127 1.367 .479 2.715 1.055 4.023-1.113 4.492-1.982 8.105-2.607 10.801-.625 2.715-1.094 4.824-1.416 6.328-.381 1.758-.664 3.027-.859 3.828-.508 2.246-.732 4.512-.674 6.816 .068 2.324 .166 4.199 .293 5.625h-12.452c-2.549 0-4.727-.898-6.533-2.695s-2.705-3.984-2.705-6.543v-55.043c0-1.24 .244-2.441 .742-3.594 .498-1.142 1.153-2.128 1.963-2.939 .811-.82 1.777-1.465 2.9-1.963 1.114-.498 2.325-.742 3.633-.742h55.059z" fill="#f7f8fa"/></svg>