<svg xmlns="http://www.w3.org/2000/svg" width="76.455" height="76.488" viewBox="0 0 76.455 76.488" enable-background="new 0 0 76.455 76.488"><path d="M38.252 0c5.303 0 10.264 .996 14.893 2.988 4.629 2.002 8.672 4.727 12.158 8.193 3.477 3.457 6.201 7.51 8.184 12.148 1.982 4.648 2.969 9.619 2.969 14.922 0 5.287-.986 10.268-2.969 14.896-1.982 4.648-4.707 8.711-8.184 12.168-3.486 3.457-7.529 6.191-12.158 8.184s-9.59 2.988-14.893 2.988-10.264-.995-14.912-2.987-8.691-4.727-12.158-8.184-6.191-7.52-8.184-12.168c-2.002-4.628-2.998-9.609-2.998-14.896 0-5.303 .996-10.273 2.998-14.922 1.992-4.639 4.717-8.691 8.184-12.148 3.467-3.467 7.51-6.191 12.158-8.193 4.648-1.993 9.609-2.989 14.912-2.989zm0 65.004c3.74 0 7.217-.703 10.439-2.109s6.045-3.32 8.477-5.742c2.422-2.422 4.336-5.254 5.742-8.477s2.109-6.699 2.109-10.424c0-3.74-.703-7.217-2.109-10.439s-3.32-6.045-5.742-8.477c-2.432-2.422-5.264-4.336-8.496-5.742-3.242-1.406-6.719-2.109-10.42-2.109-3.73 0-7.217 .703-10.459 2.109s-6.064 3.32-8.477 5.742c-2.402 2.432-4.316 5.254-5.723 8.477-1.396 3.223-2.1 6.699-2.1 10.439 0 3.725 .703 7.201 2.1 10.424 1.406 3.223 3.32 6.055 5.723 8.477 2.412 2.422 5.234 4.336 8.477 5.742s6.728 2.109 10.459 2.109zm17.959-28.051c.508 .195 .762 .625 .762 1.299 0 .635-.254 1.064-.762 1.289l-26.094 15.072c-.254 .137-.498 .195-.723 .195-.254 0-.508-.059-.762-.195-.508-.312-.762-.742-.762-1.289v-30.062c0-.576 .254-1.035 .762-1.387 .635-.254 1.133-.254 1.484 0l26.095 15.078z" fill="#333"/></svg>