<svg xmlns="http://www.w3.org/2000/svg" width="76.455" height="76.504" viewBox="0 0 76.455 76.504" enable-background="new 0 0 76.455 76.504"><path d="M38.252 0c5.293 0 10.264 .996 14.883 2.998 4.629 1.992 8.682 4.717 12.168 8.184 3.477 3.467 6.201 7.52 8.184 12.158 1.973 4.648 2.969 9.619 2.969 14.912 0 5.303-.996 10.273-2.969 14.912-1.982 4.648-4.707 8.701-8.184 12.158-3.486 3.467-7.539 6.191-12.168 8.193-4.619 1.992-9.59 2.988-14.883 2.988-5.303 0-10.273-.996-14.912-2.988-4.648-2.002-8.701-4.727-12.158-8.193-3.467-3.457-6.191-7.51-8.184-12.158-2.002-4.639-2.998-9.609-2.998-14.912 0-5.293 .996-10.264 2.998-14.912 1.992-4.639 4.717-8.691 8.184-12.158 3.457-3.467 7.51-6.191 12.158-8.184 4.639-2.002 9.609-2.998 14.912-2.998zm22.07 34.521c0-.449-.166-.82-.508-1.123-.332-.303-.693-.459-1.074-.459h-15.029v-16.562c0-1.055-.518-1.562-1.533-1.533h-7.852c-1.055 0-1.582 .508-1.582 1.533v16.562h-14.98c-1.055 0-1.582 .527-1.582 1.582v7.559c0 1.055 .527 1.582 1.582 1.582h14.98v16.465c0 1.055 .527 1.572 1.582 1.533h7.852c1.055 0 1.562-.508 1.533-1.533v-16.465h15.029c.381 0 .742-.146 1.074-.459 .342-.293 .508-.674 .508-1.123v-7.559z" fill="#313337"/></svg>