<svg xmlns="http://www.w3.org/2000/svg" width="73.535" height="73.535" viewBox="0 0 73.535 73.535" enable-background="new 0 0 73.535 73.535"><path d="M69.033 28.828c1.24 0 2.305 .439 3.184 1.309 .879 .879 1.318 1.943 1.318 3.184v6.895c0 1.25-.439 2.305-1.318 3.184s-1.943 1.318-3.184 1.318h-24.316v24.229c0 1.309-.439 2.402-1.318 3.271-.879 .879-1.943 1.318-3.184 1.318h-6.895c-1.24 0-2.305-.439-3.184-1.318-.879-.869-1.318-1.934-1.318-3.184v-24.317h-24.218c-1.309 0-2.402-.42-3.281-1.27-.88-.84-1.319-1.924-1.319-3.232v-6.895c0-1.24 .439-2.305 1.318-3.184 .879-.869 1.934-1.309 3.184-1.309h24.316v-24.227c0-1.309 .43-2.402 1.27-3.281 .85-.87 1.924-1.319 3.232-1.319h6.895c1.24 0 2.305 .449 3.184 1.318 .879 .879 1.318 1.943 1.318 3.184v24.326h24.316z" fill="#f7f8fa"/></svg>