<svg xmlns="http://www.w3.org/2000/svg" width="88.223" height="73.535" viewBox="0 0 88.223 73.535" enable-background="new 0 0 88.223 73.535"><path d="M77.266 44.141c1.494 0 2.92 .283 4.258 .859s2.5 1.357 3.467 2.344c.977 .996 1.758 2.158 2.354 3.496 .586 1.348 .879 2.764 .879 4.258v16.572c0 1.24-.615 1.865-1.865 1.865h-84.494c-1.25 0-1.865-.625-1.865-1.865v-16.572c0-1.494 .293-2.91 .879-4.258 .596-1.338 1.396-2.5 2.393-3.496 1.005-.987 2.187-1.768 3.525-2.344s2.754-.859 4.258-.859h66.211zm-1.866 18.33c0-.508-.186-.947-.557-1.309-.361-.371-.801-.557-1.318-.557h-58.828c-.518 0-.957 .176-1.318 .527-.371 .352-.557 .801-.557 1.338v1.826c0 .508 .186 .928 .557 1.27 .361 .332 .801 .498 1.318 .498h58.828c.518 0 .957-.156 1.318-.479 .371-.322 .557-.752 .557-1.289v-1.825zm-1.875-23.838h-58.828v-34.99c0-.986 .352-1.846 1.074-2.568 .713-.714 1.602-1.075 2.657-1.075h31.162v18.34c0 1.562 .547 2.891 1.631 3.965 1.084 1.094 2.373 1.631 3.877 1.631h18.428v14.697zm0-20.293h-18.427v-18.34l18.427 18.34z" fill="#ffffff"/></svg>