<svg xmlns="http://www.w3.org/2000/svg" width="91.859" height="76.54" viewBox="0 0 91.859 76.54" enable-background="new 0 0 91.859 76.54"><path d="M91.208 73.181c.801 .801 .859 1.66 .195 2.539-.381 .508-.908 .781-1.582 .82-.322 0-.605-.098-.859-.293l-24.757-14.023c-2.354 2.559-4.844 4.707-7.441 6.465s-5.176 3.047-7.734 3.848c-2.549 .82-4.971 1.133-7.246 .938-2.285-.195-4.316-.938-6.104-2.246-2.432-1.758-3.945-4.277-4.551-7.598-.605-3.301-.459-6.934 .43-10.938l-14.503-10.665c-2.432 1.055-4.746 1.562-6.963 1.523-2.227-.02-4.18-.664-5.869-1.914-1.631-1.25-2.783-2.91-3.467-5-.693-2.085-.908-4.429-.654-7.046 .264-2.617 .977-5.371 2.158-8.242s2.773-5.684 4.785-8.418c2.012-2.754 4.229-5.098 6.66-7.07 2.422-1.953 4.844-3.438 7.275-4.434 2.422-.977 4.746-1.465 6.963-1.426 2.218 .02 4.161 .664 5.821 1.914 1.689 1.309 2.861 3.027 3.516 5.137 .654 2.129 .85 4.492 .596 7.109l14.414 10.781c3.545-2.012 6.973-3.184 10.293-3.496s6.191 .43 8.613 2.246c1.758 1.309 3.037 3.047 3.857 5.195 .811 2.148 1.182 4.551 1.123 7.202-.068 2.656-.547 5.469-1.465 8.477-.908 2.988-2.236 5.996-3.994 9.004l20.49 19.611zm-82.297-37.906c.674 .449 1.475 .684 2.402 .684 .986 0 2.031-.293 3.135-.84 1.094-.566 2.236-1.309 3.418-2.207 1.182-.918 2.344-1.973 3.477-3.184s2.188-2.48 3.184-3.789c.312-.449 .43-.938 .332-1.465-.098-.508-.332-.938-.723-1.25-.439-.332-.928-.469-1.455-.41-.527 .039-.967 .312-1.318 .781-2.49 3.32-4.688 5.605-6.602 6.855-1.924 1.23-3.066 1.797-3.447 1.66-.449-.312-.947-.43-1.484-.332-.547 .098-.977 .332-1.299 .723-.312 .449-.43 .938-.332 1.465s.331 .958 .712 1.309zm30.792 16.656c.254 .254 .615 .391 1.094 .391 .645 0 1.172-.273 1.582-.82 .322-.449 .449-.918 .381-1.406-.059-.488-.312-.898-.762-1.23l-16.612-12.345c-.508 .449-1.035 .879-1.562 1.309-.518 .43-1.045 .82-1.553 1.133l17.432 12.968zm21.582 1.347c.322-.391 .449-.84 .391-1.367-.068-.527-.322-.957-.771-1.27-.381-.312-.84-.449-1.367-.391-.518 .078-.947 .332-1.26 .781-1.631 2.168-3.271 4.023-4.912 5.547s-3.164 2.734-4.57 3.613-2.646 1.445-3.73 1.719c-1.094 .273-1.855 .195-2.305-.215-.449-.312-.918-.43-1.406-.332-.498 .098-.908 .391-1.221 .859-.322 .391-.459 .84-.41 1.367s.312 .957 .791 1.27c.928 .742 2.021 1.094 3.301 1.094 1.309 0 2.725-.332 4.238-1.016s3.037-1.602 4.57-2.754 3.037-2.5 4.502-4.043c1.464-1.561 2.851-3.182 4.159-4.862z" fill="#333"/></svg>