<svg xmlns="http://www.w3.org/2000/svg" width="73.535" height="73.52" viewBox="0 0 73.535 73.52" enable-background="new 0 0 73.535 73.52"><path d="M0 0h33.418v33.408h-33.418v-33.408zm0 40.121h33.418v33.399h-33.418v-33.399zm6.66-13.363h20.098v-20.108h-20.098v20.108zm0 40.121h20.098v-20.117h-20.098v20.117zm6.699-53.432h6.748v6.66h-6.748v-6.66zm0 39.975h6.748v6.758h-6.748v-6.758zm60.176-53.422v33.408h-33.418v-33.408h33.418zm-6.66 40.121h6.66v20.059h-20.107v-6.66h-6.65v20h-6.66v-33.399h19.961v6.641h6.797v-6.641zm0-33.471h-20.098v20.107h20.098v-20.107zm-6.797 13.457h-6.65v-6.66h6.65v6.66zm-6.65 46.772h6.65v6.641h-6.65v-6.641zm13.447 0h6.66v6.641h-6.66v-6.641z" fill="#333"/></svg>