<svg xmlns="http://www.w3.org/2000/svg" width="76.455" height="76.488" viewBox="0 0 76.455 76.488" enable-background="new 0 0 76.455 76.488"><path d="M38.252 0c5.293 0 10.264 .996 14.883 2.988 4.629 2.002 8.682 4.727 12.168 8.193 3.477 3.457 6.201 7.51 8.184 12.148 1.973 4.648 2.969 9.619 2.969 14.922 0 5.287-.996 10.268-2.969 14.896-1.982 4.648-4.707 8.711-8.184 12.168-3.486 3.457-7.539 6.191-12.168 8.184-4.619 1.992-9.59 2.988-14.883 2.988-5.303 0-10.273-.996-14.912-2.988-4.648-1.992-8.701-4.727-12.158-8.184-3.467-3.457-6.191-7.52-8.184-12.168-2.002-4.627-2.998-9.608-2.998-14.895 0-5.303 .996-10.273 2.998-14.922 1.992-4.639 4.717-8.691 8.184-12.148 3.457-3.467 7.51-6.191 12.158-8.193 4.639-1.993 9.609-2.989 14.912-2.989zm8.809 41.41c.801-.645 1.582-1.387 2.373-2.207 .781-.834 1.514-1.732 2.197-2.729 .684-.986 1.24-2.09 1.65-3.32 .42-1.23 .625-2.676 .625-4.336 0-2.168-.439-4.102-1.318-5.801-.879-1.68-2.051-3.086-3.516-4.18-1.475-1.104-3.125-1.953-4.961-2.539s-3.662-.889-5.479-.889c-2.012 0-3.818 .264-5.43 .791s-2.979 1.094-4.092 1.699c-1.123 .605-1.963 1.172-2.539 1.699s-.898 .82-.957 .889c-.518 .508-.557 1.133-.146 1.865l4.551 5.508c.127 .254 .439 .449 .957 .566 .381 0 .752-.088 1.104-.283l.479-.381c.312-.254 .752-.537 1.309-.84 .566-.303 1.182-.566 1.875-.791 .684-.225 1.426-.332 2.227-.332 1.299 0 2.412 .361 3.32 1.074 .908 .723 1.367 1.641 1.367 2.754 0 1.182-.391 2.217-1.172 3.086-.781 .879-1.768 1.846-2.949 2.9-.732 .576-1.475 1.221-2.227 1.934-.742 .723-1.436 1.537-2.051 2.475-.625 .918-1.133 1.934-1.514 3.027-.381 1.113-.576 2.383-.576 3.809v3.066c0 .391 .146 .723 .439 .996 .283 .293 .615 .43 .996 .43h7.852c.391 0 .713-.137 .986-.43 .273-.273 .41-.605 .41-.996v-2.441c0-1.25 .4-2.305 1.221-3.184 .811-.877 1.807-1.834 2.989-2.889zm-4.209 14.063c0-.371-.137-.703-.391-.996s-.586-.43-1.006-.43h-7.852c-.381 0-.713 .137-.996 .43-.293 .293-.439 .625-.439 .996v7.48c0 .371 .146 .723 .439 1.016 .283 .312 .615 .469 .996 .469h7.852c.391 0 .713-.156 .986-.469 .273-.293 .41-.645 .41-1.016v-7.48z" fill="#333"/></svg>