<svg xmlns="http://www.w3.org/2000/svg" width="88.226" height="73.646" viewBox="0 0 88.226 73.646" enable-background="new 0 0 88.226 73.646"><path d="M57.441 22.348c-1.689 0-3.281 .498-4.785 1.504s-2.988 2.354-4.453 4.023-2.93 3.584-4.375 5.742c-1.455 2.158-2.9 4.385-4.336 6.674-1.758 2.812-3.564 5.586-5.43 8.34-1.875 2.734-3.887 5.215-6.035 7.402-2.158 2.188-4.521 3.945-7.109 5.273-2.588 1.348-5.439 2.012-8.574 2.012h-10.479c-.508 0-.947-.176-1.318-.547s-.547-.8-.547-1.308v-7.383c0-.508 .176-.938 .547-1.289s.811-.527 1.318-.527h10.479c1.631 0 3.223-.488 4.766-1.484 1.553-.977 3.037-2.305 4.482-3.965 1.436-1.66 2.871-3.574 4.307-5.723 1.436-2.152 2.871-4.379 4.307-6.684 1.758-2.812 3.584-5.605 5.479-8.379 1.904-2.773 3.926-5.264 6.084-7.461 2.148-2.207 4.502-3.965 7.061-5.293 2.549-1.328 5.42-1.992 8.613-1.992h9.717v-8.848c0-1.309 .391-2.09 1.172-2.354 .791-.254 1.738 .088 2.852 1.006l15.986 13.311c.742 .576 1.094 1.299 1.055 2.158 0 .918-.352 1.67-1.055 2.246l-15.988 13.262c-1.113 .928-2.061 1.25-2.852 .977-.781-.264-1.172-1.055-1.172-2.363v-8.33h-9.717zm-55.576-.098c-.508 0-.947-.166-1.318-.498-.371-.342-.547-.762-.547-1.27v-7.382c0-1.24 .615-1.846 1.865-1.816h10.479c2.178 0 4.199 .322 6.084 .957 1.885 .645 3.662 1.543 5.342 2.686 1.67 1.143 3.223 2.49 4.668 4.023 1.436 1.533 2.832 3.193 4.209 4.971-1.943 2.881-3.818 5.723-5.605 8.525-.127 .264-.264 .479-.43 .674-.156 .195-.303 .43-.43 .713-2.236-3.252-4.463-5.996-6.68-8.232-2.217-2.227-4.6-3.35-7.158-3.35h-10.479v-.001zm85.303 32.553c.742 .566 1.094 1.328 1.055 2.246 0 .859-.352 1.582-1.055 2.168l-15.986 13.34c-1.113 .938-2.061 1.27-2.852 .996-.781-.273-1.172-1.074-1.172-2.383v-8.027h-9.717c-2.168 0-4.199-.332-6.074-.996-1.885-.645-3.652-1.543-5.293-2.695s-3.203-2.5-4.668-4.023c-1.465-1.543-2.852-3.184-4.16-4.941 .918-1.289 1.826-2.656 2.695-4.062 .879-1.406 1.787-2.793 2.705-4.16 .127-.312 .293-.605 .479-.84 .195-.234 .352-.527 .488-.84 2.227 3.262 4.453 5.977 6.67 8.164s4.609 3.281 7.158 3.281h9.717v-9.102c0-1.309 .391-2.09 1.172-2.344 .791-.254 1.738 .059 2.852 .957l15.986 13.261z" fill="#333"/></svg>