<svg xmlns="http://www.w3.org/2000/svg" width="91.871" height="76.533" viewBox="0 0 91.871 76.533" enable-background="new 0 0 91.871 76.533"><path d="M80.95 48.123c.508 .195 .879 .527 1.104 .996 .225 .449 .244 .938 .049 1.445-1.689 5.059-4.238 9.434-7.637 13.145-3.398 3.73-7.285 6.66-11.66 8.809-4.365 2.148-9.092 3.457-14.17 3.887-5.068 .43-10.098-.215-15.078-1.895-4.307-1.504-8.164-3.633-11.562-6.426-3.398-2.773-6.26-6.094-8.594-9.941l-9.814 4.785c-1.367 .723-2.383 .82-3.037 .254-.654-.547-.723-1.582-.215-3.086l7.178-20.922c.322-1.055 .947-1.768 1.875-2.148 .918-.391 1.865-.449 2.822-.195l20.967 7.191c1.436 .508 2.168 1.152 2.197 1.934 .039 .781-.635 1.543-2.002 2.266l-9.678 4.785c1.689 2.5 3.662 4.648 5.918 6.445 2.246 1.797 4.805 3.184 7.686 4.141 3.535 1.191 7.07 1.621 10.596 1.348 3.525-.293 6.836-1.191 9.912-2.695 3.076-1.484 5.791-3.555 8.135-6.172 2.354-2.617 4.111-5.684 5.293-9.238 .195-.508 .518-.859 .986-1.055 .459-.195 .947-.215 1.455-.098l7.274 2.44zm7.324-34.516c1.377-.723 2.393-.82 3.047-.254 .654 .557 .723 1.553 .215 2.988l-7.188 21.016c-.312 1.055-.938 1.777-1.865 2.148-.928 .391-1.865 .449-2.822 .195l-20.967-7.178c-1.436-.518-2.178-1.162-2.207-1.943s.605-1.543 1.914-2.266l9.678-4.795c-1.631-2.49-3.584-4.639-5.869-6.436-2.285-1.807-4.824-3.184-7.637-4.141-3.545-1.182-7.08-1.631-10.605-1.348-3.525 .293-6.826 1.191-9.902 2.686-3.086 1.504-5.801 3.564-8.145 6.182s-4.111 5.693-5.283 9.238c-.195 .508-.527 .859-.986 1.055-.459 .186-.947 .215-1.455 .088l-7.285-2.441c-.508-.186-.869-.518-1.094-.977s-.244-.947-.049-1.465c1.689-4.971 4.238-9.346 7.637-13.096s7.285-6.699 11.65-8.848c4.375-2.159 9.082-3.458 14.121-3.887 5.049-.43 10.088 .205 15.137 1.895 4.238 1.504 8.076 3.643 11.514 6.417 3.428 2.783 6.309 6.094 8.633 9.961l9.813-4.794z" fill="#333"/></svg>