<svg xmlns="http://www.w3.org/2000/svg" width="76.455" height="76.5" viewBox="0 0 76.455 76.5" enable-background="new 0 0 76.455 76.5"><path d="M65.303 11.201c3.73 3.73 6.523 7.949 8.379 12.637 1.846 4.697 2.773 9.492 2.773 14.414 0 4.908-.928 9.713-2.773 14.42-1.855 4.688-4.648 8.887-8.379 12.637-3.74 3.73-7.959 6.523-12.666 8.398-4.707 1.855-9.512 2.793-14.405 2.793-4.902 0-9.707-.938-14.414-2.793-4.707-1.875-8.926-4.668-12.666-8.398-3.73-3.75-6.523-7.949-8.379-12.637-1.845-4.707-2.773-9.512-2.773-14.42 0-4.922 .938-9.727 2.803-14.434s4.648-8.906 8.35-12.617c3.74-3.73 7.959-6.533 12.666-8.398 4.706-1.875 9.511-2.803 14.413-2.803 4.893 0 9.697 .928 14.404 2.803 4.708 1.865 8.926 4.668 12.667 8.398zm-7.666 15.469c.732-.742 .732-1.484 0-2.256l-5.596-5.498c-.801-.801-1.553-.801-2.256 0l-11.631 11.68-10.625-10.586c-.322-.312-.684-.479-1.104-.479-.41 0-.801 .166-1.152 .479l-5.264 5.41c-.801 .742-.801 1.484 0 2.246l10.488 10.488-11.581 11.686c-.322 .312-.488 .684-.488 1.094 0 .43 .166 .801 .488 1.152l5.498 5.547c.322 .332 .693 .488 1.123 .508 .439 .02 .811-.156 1.133-.508l11.68-11.621 10.479 10.586c.322 .312 .693 .469 1.133 .469 .43 0 .801-.156 1.123-.469l5.41-5.41c.732-.742 .732-1.484 0-2.266l-10.636-10.475 11.778-11.777z" fill="#f7f8fa"/></svg>