<svg xmlns="http://www.w3.org/2000/svg" width="76.455" height="76.5" viewBox="0 0 76.455 76.5" enable-background="new 0 0 76.455 76.5"><path d="M38.252 0c5.293 0 10.264 .996 14.883 2.998 4.629 1.992 8.682 4.717 12.168 8.184 3.477 3.457 6.201 7.52 8.184 12.158 1.973 4.639 2.969 9.619 2.969 14.912 0 5.299-.996 10.279-2.969 14.908-1.982 4.648-4.707 8.711-8.184 12.168-3.486 3.457-7.539 6.191-12.168 8.184-4.619 1.992-9.59 2.988-14.883 2.988-5.303 0-10.273-.996-14.912-2.988-4.648-1.992-8.701-4.727-12.158-8.184-3.467-3.457-6.191-7.52-8.184-12.168-2.002-4.629-2.998-9.609-2.998-14.908 0-5.293 .996-10.273 2.998-14.912 1.992-4.639 4.717-8.701 8.184-12.158 3.457-3.467 7.51-6.191 12.158-8.184 4.639-2.002 9.609-2.998 14.912-2.998zm0 65.016c3.73 0 7.207-.703 10.439-2.109 3.223-1.406 6.045-3.32 8.467-5.742 2.432-2.422 4.346-5.254 5.752-8.477 1.396-3.223 2.1-6.699 2.1-10.436 0-3.73-.703-7.207-2.1-10.439-1.406-3.223-3.32-6.045-5.752-8.467-2.422-2.432-5.254-4.346-8.496-5.752-3.242-1.396-6.709-2.1-10.41-2.1-3.73 0-7.227 .703-10.459 2.1-3.242 1.406-6.064 3.32-8.477 5.752-2.412 2.422-4.316 5.244-5.723 8.467-1.396 3.232-2.1 6.709-2.1 10.439 0 3.736 .703 7.213 2.1 10.436 1.406 3.223 3.311 6.055 5.723 8.477s5.234 4.336 8.477 5.742c3.232 1.405 6.728 2.109 10.459 2.109zm16.084-37.448c.928 .938 .928 1.836 0 2.734l-7.949 7.949 7.949 7.955c.928 .918 .928 1.836 0 2.715l-5.41 5.41c-.381 .391-.84 .586-1.367 .586-.518 0-.977-.195-1.357-.586l-7.949-7.949-7.949 7.949c-.381 .391-.84 .586-1.367 .586-.518 0-.996-.195-1.406-.586l-5.361-5.41c-.381-.371-.576-.84-.576-1.348 0-.527 .195-.996 .576-1.367l7.949-7.955-7.949-7.949c-.381-.381-.576-.84-.576-1.367s.195-.977 .576-1.367l5.361-5.4c.928-.928 1.846-.928 2.773 0l7.949 7.939 7.949-7.939c.918-.928 1.836-.928 2.725 0l5.409 5.4z" fill="#333"/></svg>