<svg xmlns="http://www.w3.org/2000/svg" width="73.535" height="73.629" viewBox="0 0 73.535 73.629" enable-background="new 0 0 73.535 73.629"><path d="M72.148 60.992c.918 .918 1.387 1.992 1.387 3.184s-.469 2.266-1.387 3.184l-4.795 4.883c-.918 .918-2.002 1.387-3.252 1.387-1.24 0-2.314-.469-3.203-1.387l-24.131-24.18-24.219 24.18c-.928 .918-1.992 1.387-3.184 1.387-1.201 0-2.266-.469-3.184-1.387l-4.795-4.785c-.926-.919-1.385-2.013-1.385-3.243 0-1.211 .459-2.305 1.387-3.223l24.326-24.414-24.326-23.941c-.928-.928-1.387-2.002-1.387-3.233s.459-2.304 1.387-3.222l4.795-4.795c.918-.928 2.002-1.387 3.252-1.387 1.24 0 2.314 .459 3.203 1.387l24.131 24.131 24.13-24.131c.918-.928 2.002-1.387 3.233-1.387 1.221 0 2.305 .459 3.223 1.387l4.795 4.795c.918 .918 1.387 2.002 1.387 3.252 0 1.24-.469 2.314-1.387 3.203l-24.326 24.41 24.325 23.945z" fill="#ffffff"/></svg>