<svg xmlns="http://www.w3.org/2000/svg" width="88.223" height="73.531" viewBox="0 0 88.223 73.531" enable-background="new 0 0 88.223 73.531"><path d="M84.59 0c.986 0 1.836 .361 2.559 1.074s1.074 1.572 1.074 2.559v10.391c0 .986-.352 1.846-1.074 2.559-.723 .723-1.572 1.084-2.559 1.084h-80.86c-1.055 0-1.934-.361-2.656-1.084-.722-.714-1.074-1.573-1.074-2.56v-10.39c0-.986 .352-1.846 1.074-2.559s1.602-1.074 2.656-1.074h80.86zm0 27.959c.986 0 1.836 .352 2.559 1.074s1.074 1.553 1.074 2.51v10.439c0 .982-.352 1.842-1.074 2.545s-1.572 1.055-2.559 1.055h-80.86c-1.055 0-1.934-.371-2.656-1.094-.722-.703-1.074-1.543-1.074-2.506v-10.439c0-.986 .352-1.826 1.074-2.529s1.602-1.055 2.656-1.055h80.86zm0 27.916c.986 0 1.836 .352 2.559 1.074s1.074 1.562 1.074 2.559v10.293c0 1.055-.352 1.934-1.074 2.656s-1.572 1.074-2.559 1.074h-80.86c-1.055 0-1.934-.352-2.656-1.074s-1.074-1.602-1.074-2.656v-10.293c0-.996 .352-1.836 1.074-2.559s1.602-1.074 2.656-1.074h80.86z" fill="#f7f8fa"/></svg>