<svg xmlns="http://www.w3.org/2000/svg" width="76.182" height="76.5" viewBox="0 0 76.182 76.5" enable-background="new 0 0 76.182 76.5"><path d="M74.488 41.168c.508 .137 .938 .391 1.27 .801 .332 .391 .469 .84 .41 1.367-.645 4.688-2.07 9.062-4.287 13.125-2.217 4.082-5.029 7.598-8.428 10.566s-7.266 5.293-11.582 6.953c-4.326 1.68-8.867 2.52-13.623 2.52-5.299 0-10.27-.996-14.912-2.988-4.645-1.992-8.697-4.727-12.158-8.184-3.463-3.457-6.192-7.52-8.185-12.168-1.997-4.648-2.993-9.609-2.993-14.908 0-5.303 .996-10.273 2.993-14.912 1.993-4.648 4.722-8.701 8.185-12.158 3.461-3.467 7.514-6.191 12.158-8.193 4.643-1.993 9.613-2.989 14.912-2.989 4.502 0 8.828 .771 12.979 2.324 4.141 1.543 7.959 3.789 11.445 6.729l7.695-7.764c1.123-1.113 2.051-1.504 2.812-1.172 .742 .342 1.113 1.26 1.113 2.754v22.168c0 1.055-.352 1.924-1.055 2.627-.312 .322-.684 .576-1.113 .771-.43 .186-.908 .283-1.416 .283h-22.167c-1.494 0-2.432-.371-2.803-1.123-.361-.752 .01-1.68 1.133-2.803l7.656-7.607c-2.305-1.826-4.834-3.223-7.617-4.209-2.773-.996-5.66-1.484-8.662-1.484-3.73 0-7.223 .703-10.459 2.1-3.238 1.406-6.064 3.32-8.473 5.752-2.412 2.422-4.316 5.244-5.723 8.467-1.4 3.223-2.104 6.709-2.104 10.439 0 3.736 .703 7.213 2.104 10.436 1.406 3.223 3.311 6.055 5.723 8.477 2.408 2.422 5.234 4.336 8.473 5.742 3.236 1.406 6.729 2.109 10.459 2.109 3.32 0 6.488-.586 9.502-1.777 3.018-1.172 5.713-2.793 8.086-4.863 2.383-2.051 4.355-4.492 5.918-7.344 1.562-2.832 2.588-5.879 3.066-9.141 0-.508 .215-.938 .664-1.289 .449-.332 .947-.449 1.484-.391l7.52 .957z" fill="#ffffff"/></svg>