<svg xmlns="http://www.w3.org/2000/svg" width="38.268" height="76.508" viewBox="0 0 38.268 76.508" enable-background="new 0 0 38.268 76.508"><path d="M35.389 56.312c1.508 0 2.426 .352 2.758 1.074 .332 .703-.059 1.621-1.172 2.754l-15.274 15.255c-.732 .742-1.592 1.113-2.578 1.113-.996 0-1.836-.371-2.539-1.113l-15.372-15.254c-1.055-1.133-1.416-2.051-1.104-2.754 .322-.723 1.23-1.074 2.734-1.074h9.717v-36.108h-9.716c-1.504 0-2.412-.361-2.734-1.074-.312-.723 .088-1.631 1.201-2.754l15.274-15.273c.732-.733 1.572-1.104 2.539-1.104 .986 0 1.846 .371 2.578 1.104l15.371 15.273c1.055 1.123 1.406 2.031 1.074 2.754-.332 .713-1.25 1.074-2.758 1.074h-9.664v36.107h9.665z" fill="#ffffff"/></svg>