<svg xmlns="http://www.w3.org/2000/svg" width="73.525" height="73.531" viewBox="0 0 73.525 73.531" enable-background="new 0 0 73.525 73.531"><path d="M36.191 44.996c.381 .449 .566 .977 .566 1.562s-.186 1.094-.566 1.504l-13.173 13.126 7.949 7.949c1.25 1.25 1.68 2.285 1.299 3.125-.391 .859-1.436 1.27-3.164 1.27h-24.893c-1.182 0-2.158-.391-2.92-1.191-.859-.861-1.289-1.837-1.289-2.911v-25c0-1.68 .42-2.721 1.26-3.082 .85-.371 1.895 .039 3.145 1.207l7.939 7.949 13.115-13.16c.391-.381 .879-.566 1.484-.566s1.133 .186 1.582 .566l7.666 7.652zm37.334-15.885c0 1.689-.42 2.725-1.27 3.086-.84 .371-1.885-.039-3.135-1.221l-7.949-7.949-13.114 13.077c-.381 .439-.879 .674-1.484 .674s-1.134-.235-1.573-.674l-7.666-7.568c-.381-.449-.576-.957-.576-1.553s.195-1.094 .576-1.514l13.164-13.115-7.939-7.939c-1.25-1.25-1.68-2.295-1.299-3.145 .381-.84 1.435-1.27 3.164-1.27h24.893c1.182 0 2.148 .41 2.92 1.201 .859 .859 1.289 1.836 1.289 2.92v24.99z" fill="#f7f8fa"/></svg>