<svg xmlns="http://www.w3.org/2000/svg" width="73.525" height="73.629" viewBox="0 0 73.525 73.629" enable-background="new 0 0 73.525 73.629"><path d="M32.549 36.871c1.211 0 2.188 .391 2.92 1.191 .859 .859 1.289 1.836 1.289 2.93v24.98c0 1.699-.42 2.715-1.27 3.086-.84 .371-1.885-.078-3.135-1.309l-7.939-7.949-13.125 13.165c-.381 .449-.869 .664-1.484 .664-.605 0-1.133-.215-1.572-.664l-7.666-7.656c-.381-.391-.567-.879-.567-1.465s.186-1.133 .566-1.602l13.164-13.027-7.939-7.949c-1.25-1.25-1.68-2.285-1.299-3.125 .391-.859 1.436-1.27 3.164-1.27h24.893zm40.4-28.531c.391 .371 .576 .859 .576 1.455s-.186 1.123-.576 1.602l-13.164 13.017 7.949 7.949c1.24 1.25 1.68 2.295 1.289 3.141-.381 .84-1.436 1.27-3.154 1.27h-24.892c-1.309 0-2.285-.41-2.92-1.191-.869-.875-1.299-1.842-1.299-2.926v-24.991c0-1.689 .43-2.725 1.27-3.096 .85-.361 1.895 .078 3.135 1.328l7.949 7.939 13.115-13.163c.38-.44 .878-.674 1.484-.674s1.133 .234 1.582 .674l7.656 7.666z" fill="#313337"/></svg>