<svg xmlns="http://www.w3.org/2000/svg" width="76.457" height="38.333" viewBox="0 0 76.457 38.333" enable-background="new 0 0 76.457 38.333"><path d="M20.205 35.45c0 1.504-.361 2.422-1.074 2.734-.723 .332-1.641-.059-2.754-1.152l-15.273-15.318c-.733-.722-1.104-1.582-1.104-2.539 0-.986 .371-1.827 1.104-2.53l15.273-15.42c1.113-1.055 2.031-1.426 2.754-1.123 .713 .303 1.074 1.201 1.074 2.705v9.814h36.094v-9.716c0-1.504 .361-2.422 1.074-2.754 .723-.332 1.621 .02 2.705 1.074l15.322 15.42c.732 .732 1.084 1.573 1.055 2.53 0 .996-.352 1.836-1.055 2.539l-15.322 15.415c-1.113 1.055-2.021 1.426-2.725 1.074-.703-.332-1.055-1.25-1.055-2.754v-9.712h-36.093v9.713z" fill="#3b73b9"/></svg>