<svg xmlns="http://www.w3.org/2000/svg" width="91.813" height="76.508" viewBox="0 0 91.813 76.508" enable-background="new 0 0 91.813 76.508"><path d="M38.939 59.32l.576 .938c.195 .293 .459 .605 .811 .918l12.07 13.457h-33.271c-1.055 0-1.963-.371-2.705-1.113-.752-.762-1.133-1.66-1.133-2.715v-44.047h-11.914c-1.758 0-2.832-.479-3.232-1.455-.4-.967 .059-2.178 1.367-3.613l18.428-20.303c.8-.918 1.806-1.387 3.017-1.387 1.24 0 2.266 .469 3.066 1.387l18.428 20.303c1.309 1.436 1.758 2.646 1.367 3.613-.4 .977-1.484 1.455-3.232 1.455h-11.973v32.562h8.33zm49.502-9.57c1.758 0 2.832 .488 3.232 1.445 .4 .977-.059 2.188-1.367 3.613l-18.427 20.313c-.801 .918-1.807 1.387-3.018 1.387-1.25 0-2.266-.469-3.066-1.387l-18.428-20.312c-1.308-1.426-1.767-2.637-1.367-3.614 .4-.957 1.475-1.445 3.232-1.445h11.973v-32.465h-8.33c-.195-.322-.391-.645-.605-.977-.205-.342-.439-.664-.693-.986l-12.159-13.359h33.271c1.055 0 1.943 .361 2.686 1.084 .732 .713 1.094 1.631 1.094 2.754v43.949h11.972z" fill="#3b73b9"/></svg>