<svg xmlns="http://www.w3.org/2000/svg" width="88.297" height="73.539" viewBox="0 0 88.297 73.539" enable-background="new 0 0 88.297 73.539"><path d="M88.162 71.859c.195 .449 .176 .84-.039 1.172-.225 .332-.596 .508-1.104 .508h-35.429l-1.24-24.512h-12.354l-1.289 24.512h-35.381c-.508 0-.889-.156-1.123-.488-.244-.312-.264-.723-.078-1.191l28.437-70.18c.195-.449 .537-.84 1.035-1.172 .489-.342 .997-.508 1.505-.508h9.336l-.381 8.145h8.232l-.43-8.145h9.336c.508 0 1.016 .156 1.504 .479 .498 .322 .84 .713 1.035 1.201l28.428 70.179zm-38.535-36.478l-.957-19.776h-9.043l-.957 19.776h10.957z" fill="#f7f8fa"/></svg>