<svg xmlns="http://www.w3.org/2000/svg" width="75.044" height="75.023" viewBox="0 0 75.044 75.023" enable-background="new 0 0 75.044 75.023"><path d="M3.926 0c9.609 .508 18.623 2.695 27.051 6.562 8.428 3.857 15.811 8.965 22.158 15.312 6.357 6.348 11.455 13.74 15.303 22.172 3.848 8.418 6.035 17.441 6.582 27.051 .127 .977-.244 1.895-1.104 2.715-.732 .801-1.611 1.211-2.637 1.211h-7.559c-.986 0-1.846-.352-2.559-1.035-.723-.684-1.113-1.523-1.172-2.52-.449-7.598-2.207-14.707-5.273-21.367-3.056-6.66-7.128-12.523-12.206-17.601-5.068-5.068-10.947-9.141-17.617-12.207-6.67-3.057-13.789-4.814-21.348-5.264-.986-.059-1.826-.459-2.51-1.172-.693-.712-1.035-1.572-1.035-2.558v-7.569c0-1.055 .4-1.924 1.201-2.627 .733-.732 1.572-1.103 2.539-1.103h.186zm.097 24.512c6.162 .449 11.943 1.963 17.354 4.551 5.41 2.578 10.215 5.977 14.414 10.16 4.189 4.199 7.578 9.023 10.146 14.434 2.568 5.43 4.092 11.211 4.57 17.344 .127 1.113-.205 2.051-1.006 2.812-.732 .801-1.641 1.211-2.725 1.211h-7.568c-.928 0-1.748-.332-2.461-.996-.723-.645-1.143-1.465-1.27-2.461-.391-4.238-1.484-8.223-3.281-11.934-1.807-3.73-4.131-7.012-6.963-9.844-2.842-2.832-6.123-5.156-9.844-6.973-3.721-1.797-7.695-2.891-11.943-3.281-.986-.117-1.807-.547-2.461-1.289-.653-.726-.985-1.547-.985-2.435v-7.568c0-1.113 .4-2.021 1.201-2.725 .732-.732 1.572-1.104 2.539-1.104l.137 .049 .146 .049zm7.276 27.953c1.562 0 3.018 .293 4.355 .898 1.338 .586 2.529 1.387 3.564 2.441 1.045 1.035 1.855 2.227 2.441 3.555 .596 1.348 .889 2.793 .889 4.355s-.293 3.047-.889 4.434c-.586 1.387-1.396 2.578-2.441 3.594-1.035 .996-2.227 1.797-3.564 2.383-1.338 .605-2.793 .898-4.355 .898s-3.037-.293-4.424-.898c-1.396-.586-2.588-1.387-3.594-2.383-1.006-1.016-1.807-2.207-2.393-3.574-.595-1.367-.888-2.852-.888-4.453 0-1.562 .293-3.008 .889-4.355 .586-1.328 1.387-2.52 2.393-3.555 1.006-1.055 2.197-1.855 3.594-2.441 1.386-.606 2.86-.899 4.423-.899z" fill="#f7f8fa"/></svg>