<svg xmlns="http://www.w3.org/2000/svg" width="73.531" height="73.531" viewBox="0 0 73.531 73.531" enable-background="new 0 0 73.531 73.531"><path d="M71.383 9.531c1.426 1.436 2.148 3.154 2.148 5.166v51.471c0 2.012-.723 3.73-2.148 5.195-1.445 1.445-3.184 2.168-5.225 2.168h-58.785c-2.012 0-3.745-.703-5.195-2.148-1.455-1.445-2.178-3.184-2.178-5.215v-58.795c0-2.012 .718-3.74 2.153-5.195 1.436-1.446 3.175-2.178 5.22-2.178h51.461c2.012 0 3.74 .723 5.166 2.158l7.383 7.373zm-12.549-2.158h-51.461v25.664h51.461v-25.664zm-9.238 22.022h-9.098v-18.428h9.098v18.428z" fill="#ffffff"/></svg>