<svg xmlns="http://www.w3.org/2000/svg" width="73.535" height="73.539" viewBox="0 0 73.535 73.539" enable-background="new 0 0 73.535 73.539"><path d="M71.67 31.26c.508 0 .947 .166 1.309 .498 .371 .332 .557 .762 .557 1.27v7.367c0 1.25-.625 1.875-1.865 1.875h-7.852c-.576 2.676-1.523 5.215-2.832 7.598-1.309 2.363-2.891 4.492-4.756 6.348-1.865 1.875-3.994 3.457-6.367 4.766-2.383 1.309-4.912 2.266-7.588 2.832v7.852c0 .508-.166 .957-.508 1.309-.332 .371-.752 .566-1.27 .566h-7.373c-1.24 0-1.865-.625-1.865-1.875v-7.852c-2.676-.566-5.205-1.523-7.588-2.832-2.373-1.309-4.502-2.891-6.367-4.766-1.865-1.855-3.457-3.984-4.756-6.348-1.318-2.383-2.256-4.922-2.832-7.598h-7.852c-1.24 0-1.865-.625-1.865-1.875v-7.367c0-.508 .186-.938 .557-1.27 .361-.332 .801-.498 1.309-.498h7.852c.576-2.686 1.514-5.205 2.832-7.588 1.299-2.383 2.891-4.502 4.756-6.367s3.994-3.457 6.367-4.766c2.383-1.309 4.912-2.246 7.588-2.822v-7.852c-.001-1.24 .624-1.865 1.864-1.865h7.373c.518 0 .938 .176 1.27 .547 .342 .371 .508 .811 .508 1.318v7.852c2.676 .576 5.205 1.514 7.588 2.822 2.373 1.309 4.502 2.9 6.367 4.766s3.447 3.984 4.756 6.367 2.256 4.902 2.832 7.588h7.851zm-29.395 24.799c3.379-.918 6.299-2.617 8.76-5.059 2.451-2.441 4.131-5.352 5.029-8.73h-8.242c-1.24 0-1.846-.625-1.816-1.875v-7.367c0-.508 .176-.938 .527-1.27s.781-.498 1.289-.498h8.242c-.928-3.389-2.617-6.299-5.059-8.76s-5.352-4.141-8.73-5.029v8.232c0 .508-.166 .947-.508 1.289-.332 .352-.752 .527-1.27 .527h-7.373c-1.24 0-1.865-.605-1.865-1.816v-8.232c-3.379 .928-6.299 2.607-8.76 5.049s-4.131 5.352-5.029 8.74h8.33c.518 0 .928 .166 1.25 .498 .312 .332 .479 .762 .479 1.27v7.367c0 .527-.166 .957-.479 1.328-.322 .371-.732 .547-1.25 .547h-8.33c.928 3.379 2.617 6.309 5.059 8.77 2.441 2.441 5.352 4.121 8.73 5.02v-8.34c0-.508 .186-.918 .557-1.23 .362-.334 .801-.49 1.309-.49h7.373c.518 0 .938 .156 1.27 .488 .342 .312 .508 .723 .508 1.23v8.341h-.001z" fill="#313337"/></svg>