<svg xmlns="http://www.w3.org/2000/svg" width="76.455" height="76.488" viewBox="0 0 76.455 76.488" enable-background="new 0 0 76.455 76.488"><path d="M75.596 66.586c.566 .586 .859 1.328 .859 2.246 0 .508-.293 1.211-.859 2.07-.576 .859-1.299 1.719-2.158 2.559s-1.719 1.562-2.559 2.148c-.85 .586-1.523 .879-2.041 .879-.918 0-1.67-.293-2.246-.898l-17.188-17.149c-2.617 1.699-5.41 3.008-8.379 3.906-2.969 .918-6.016 1.367-9.141 1.367-4.375 0-8.486-.82-12.354-2.48-3.857-1.66-7.246-3.945-10.166-6.855-2.93-2.91-5.215-6.289-6.875-10.156-1.659-3.852-2.489-7.973-2.489-12.348 0-4.365 .83-8.486 2.49-12.344 1.66-3.867 3.945-7.246 6.875-10.156 2.92-2.9 6.299-5.195 10.146-6.865s7.969-2.51 12.374-2.51c4.375 0 8.477 .84 12.324 2.51s7.227 3.965 10.156 6.865c2.92 2.91 5.205 6.289 6.865 10.156 1.66 3.857 2.49 7.979 2.49 12.344 0 3.135-.459 6.191-1.367 9.17-.908 2.982-2.207 5.775-3.896 8.354l17.139 17.187zm-62.862-34.711c0 2.686 .508 5.186 1.533 7.5 1.025 2.305 2.393 4.32 4.121 6.02 1.719 1.719 3.75 3.066 6.074 4.082 2.334 .996 4.805 1.504 7.422 1.504s5.078-.508 7.393-1.504c2.314-1.016 4.336-2.363 6.055-4.082 1.729-1.699 3.096-3.715 4.121-6.02 1.025-2.314 1.533-4.814 1.533-7.5 0-2.617-.508-5.078-1.533-7.393s-2.393-4.346-4.121-6.084c-1.719-1.738-3.74-3.105-6.055-4.111s-4.775-1.514-7.393-1.514-5.088 .508-7.422 1.514c-2.324 1.006-4.355 2.373-6.074 4.111-1.729 1.738-3.096 3.77-4.121 6.084s-1.533 4.776-1.533 7.393zm19.151-12.061c.635 0 1.191 .234 1.65 .693 .459 .469 .693 1.045 .693 1.748 0 .635-.234 1.191-.693 1.65-.459 .469-1.016 .703-1.65 .703-2.012 0-3.73 .703-5.146 2.1-1.416 1.406-2.129 3.135-2.129 5.166 0 .645-.234 1.191-.693 1.66-.469 .459-1.016 .684-1.65 .684-.742 0-1.328-.225-1.777-.684-.449-.469-.664-1.016-.664-1.66 0-1.621 .303-3.164 .928-4.639s1.484-2.764 2.588-3.877 2.373-1.992 3.828-2.607c1.453-.624 3.025-.937 4.715-.937z" fill="#f7f8fa"/></svg>