<svg xmlns="http://www.w3.org/2000/svg" width="88.226" height="73.543" viewBox="0 0 88.226 73.543" enable-background="new 0 0 88.226 73.543"><path d="M71.66 53.543c.508-.332 1.016-.664 1.514-1.035 .488-.371 1.006-.801 1.553-1.309l6.172-6.094v13.75c0 2.012-.4 3.906-1.191 5.664-.801 1.777-1.865 3.34-3.213 4.668-1.338 1.348-2.891 2.402-4.639 3.184-1.758 .781-3.652 1.172-5.703 1.172h-51.456c-2.012 0-3.926-.391-5.723-1.172-1.807-.781-3.359-1.836-4.668-3.184-1.309-1.328-2.354-2.891-3.135-4.668-.78-1.757-1.171-3.652-1.171-5.664v-44.144c0-2.012 .391-3.916 1.172-5.713 .781-1.807 1.826-3.359 3.135-4.668s2.861-2.354 4.668-3.135c1.797-.781 3.711-1.172 5.723-1.172h40.02c-.195 .986-.293 1.992-.293 3.008v2.49c-5.234 .645-10.176 1.885-14.834 3.74h-24.894c-1.504 0-2.793 .527-3.857 1.602-1.074 1.064-1.602 2.354-1.602 3.848v44.145c0 1.504 .527 2.773 1.602 3.848 1.064 1.074 2.354 1.602 3.857 1.602h51.455c1.504 0 2.793-.527 3.887-1.602 1.084-1.074 1.621-2.344 1.621-3.848v-5.313zm15.322-33.324c.859 .801 1.279 1.836 1.24 3.115 0 1.24-.41 2.266-1.24 3.057l-18.77 18.715c-1.309 1.309-2.412 1.777-3.33 1.367-.908-.391-1.357-1.504-1.357-3.32v-12.446c-6.611 0-12.422 .684-17.451 2.051-5.029 1.371-9.268 3.227-12.734 5.59-3.467 2.344-6.172 5.117-8.135 8.32s-3.203 6.641-3.711 10.312c-.127 .859-.625 1.289-1.484 1.289-.801 0-1.26-.43-1.387-1.289-.127-.723-.195-1.406-.195-2.031v-1.797c0-5.293 .898-10.273 2.705-14.961 1.807-4.672 4.561-8.754 8.281-12.25s8.398-6.25 14.053-8.281c5.645-2.031 12.334-3.076 20.059-3.135v-11.064c0-1.817 .449-2.92 1.357-3.321 .918-.4 2.021 .059 3.33 1.357l18.769 18.722z" fill="#3b73b9"/></svg>