<svg xmlns="http://www.w3.org/2000/svg" width="88.223" height="73.547" viewBox="0 0 88.223 73.547" enable-background="new 0 0 88.223 73.547"><path d="M86.553 25.485c1.113 1.055 1.67 2.363 1.67 3.926 0 1.504-.557 2.812-1.67 3.926l-23.506 23.647c-1.631 1.641-3.037 2.207-4.219 1.699-1.182-.488-1.768-1.875-1.768-4.141v-15.8c-8.359 .078-15.723 .977-22.07 2.715s-11.709 4.082-16.084 7.051-7.803 6.465-10.293 10.488-4.053 8.34-4.688 12.969c-.127 1.055-.723 1.582-1.777 1.582h-.097c-1.045 0-1.641-.527-1.768-1.582-.195-1.621-.283-3.242-.283-4.883 0-6.66 1.133-12.949 3.418-18.828 2.285-5.899 5.762-11.035 10.439-15.444 4.678-4.404 10.596-7.9 17.764-10.479 7.158-2.588 15.645-3.916 25.439-3.975v-14.033c0-2.295 .576-3.682 1.729-4.16 1.143-.479 2.568 .098 4.258 1.719l23.506 23.603z" fill="#3b73b9"/></svg>