<svg xmlns="http://www.w3.org/2000/svg" width="88.203" height="73.531" viewBox="0 0 88.203 73.531" enable-background="new 0 0 88.203 73.531"><path d="M84.589 10.674c1.113 0 2.041 .43 2.773 1.299 .732 .859 .986 1.797 .762 2.822l-5.166 27.662c-.195 .801-.615 1.484-1.27 2.012-.654 .547-1.445 .82-2.373 .82h-51.883l1.67 8.047c.127 .508 .41 .938 .84 1.27s.898 .508 1.416 .508h40.976c.508 0 .947 .176 1.318 .547 .361 .371 .547 .801 .547 1.309v3.73c0 .508-.176 .938-.527 1.27s-.801 .508-1.338 .508h-43.994c-.518 0-1.094-.059-1.748-.176-.654-.098-1.221-.254-1.699-.449-.195-.059-.42-.273-.674-.625s-.498-.742-.742-1.172c-.234-.43-.439-.859-.596-1.289-.166-.43-.273-.781-.332-1.035l-10.293-48.64c-.127-.508-.41-.918-.84-1.24s-.908-.479-1.416-.479h-8.135c-1.25 0-1.865-.625-1.865-1.865v-3.643c0-1.24 .615-1.865 1.865-1.865h11.055c.518 0 1.123 .068 1.826 .195 .693 .127 1.27 .254 1.719 .381 .195 .127 .42 .361 .693 .693s.518 .713 .742 1.123c.225 .42 .42 .84 .576 1.27s.273 .781 .332 1.035l1.299 5.977h64.482zm-56.728 57.349c0-1.484 .527-2.793 1.602-3.887 1.064-1.113 2.354-1.66 3.857-1.66 1.562 0 2.88 .547 3.964 1.66 1.094 1.094 1.631 2.402 1.631 3.887 0 1.504-.537 2.793-1.631 3.887-1.084 1.074-2.402 1.621-3.964 1.621-1.504 0-2.793-.547-3.857-1.621-1.074-1.094-1.602-2.383-1.602-3.887zm31.161 0c0-1.484 .537-2.793 1.602-3.887 1.074-1.113 2.373-1.66 3.906-1.66 1.494 0 2.783 .547 3.848 1.66 1.074 1.094 1.611 2.402 1.611 3.887 0 1.504-.537 2.793-1.611 3.887-1.064 1.074-2.354 1.621-3.848 1.621-1.504 0-2.793-.547-3.877-1.621-1.084-1.094-1.631-2.383-1.631-3.887z" fill="#333"/></svg>