<svg xmlns="http://www.w3.org/2000/svg" width="73.525" height="73.52" viewBox="0 0 73.525 73.52" enable-background="new 0 0 73.525 73.52"><path d="M73.525 64.281c0 1.328-.244 2.539-.742 3.652-.488 1.113-1.143 2.07-1.963 2.891-.811 .82-1.797 1.465-2.939 1.953-1.152 .508-2.344 .742-3.594 .742h-55.049c-2.559 0-4.736-.898-6.533-2.695-1.807-1.797-2.705-3.984-2.705-6.543v-55.043c0-1.24 .244-2.441 .732-3.594 .498-1.142 1.153-2.128 1.973-2.939 .811-.82 1.777-1.465 2.891-1.963s2.334-.742 3.642-.742h55.049c2.559 0 4.736 .908 6.533 2.705 1.807 1.797 2.705 3.984 2.705 6.533v55.043z" fill="#313337"/></svg>