<svg xmlns="http://www.w3.org/2000/svg" width="88.232" height="73.535" viewBox="0 0 88.232 73.535" enable-background="new 0 0 88.232 73.535"><path d="M12.832 71.66c0 .518-.166 .957-.479 1.318-.322 .371-.752 .557-1.299 .557h-9.189c-1.24 0-1.865-.625-1.865-1.875v-12.441c0-.508 .186-.947 .547-1.318 .371-.361 .811-.547 1.318-.547h9.189c.518 0 .938 .186 1.27 .547 .342 .371 .508 .811 .508 1.318v12.441zm18.857 0c0 .518-.166 .957-.498 1.318-.342 .371-.762 .557-1.27 .557h-9.238c-.518 0-.947-.186-1.318-.557-.371-.361-.547-.801-.547-1.318v-20.771c0-.508 .176-.947 .547-1.318 .371-.361 .801-.547 1.318-.547h9.238c.508 0 .928 .186 1.27 .547 .332 .371 .498 .811 .498 1.318v20.771zm18.916 0c0 .518-.186 .957-.557 1.318-.361 .371-.801 .557-1.318 .557h-9.238c-.508 0-.947-.186-1.318-.557-.361-.361-.547-.801-.547-1.318v-32.353c0-.513 .186-.952 .547-1.318 .371-.366 .811-.552 1.318-.552h9.238c.518 0 .957 .186 1.318 .552 .371 .366 .557 .806 .557 1.318v32.353zm18.809 0c0 .518-.186 .957-.547 1.318-.371 .371-.811 .557-1.318 .557h-9.189c-.518 0-.938-.186-1.27-.557-.332-.361-.508-.801-.508-1.318v-47.627c0-.513 .166-.947 .479-1.318 .322-.366 .752-.547 1.299-.547h9.189c.508 0 .947 .176 1.318 .522 .361 .352 .547 .801 .547 1.343v47.627zm18.818 0c0 1.25-.625 1.875-1.875 1.875h-9.092c-1.24 0-1.865-.625-1.865-1.875v-69.795c0-1.24 .625-1.865 1.866-1.865h9.092c1.25 0 1.875 .625 1.875 1.865v69.795z" fill="#313337"/></svg>