<svg xmlns="http://www.w3.org/2000/svg" width="80.879" height="73.525" viewBox="0 0 80.879 73.525" enable-background="new 0 0 80.879 73.525"><path d="M14.688 73.525c-2.002 0-3.896-.391-5.664-1.172-1.777-.781-3.33-1.836-4.668-3.184-1.348-1.338-2.402-2.891-3.184-4.668-.791-1.767-1.172-3.661-1.172-5.673v-44.131c0-2.012 .381-3.906 1.172-5.674 .781-1.777 1.836-3.33 3.184-4.668 1.338-1.338 2.891-2.402 4.668-3.184 1.767-.78 3.662-1.171 5.664-1.171h22.07v9.238h-22.07c-1.494 0-2.783 .537-3.848 1.602-1.074 1.074-1.602 2.354-1.602 3.857v44.131c0 1.504 .527 2.793 1.602 3.857 1.064 1.074 2.354 1.602 3.848 1.602h22.07v9.238h-22.07zm65.302-38.818c.576 .576 .869 1.27 .889 2.109 .01 .82-.283 1.494-.889 2.002l-26.474 26.475c-.576 .576-1.26 .859-2.061 .859-.312 0-.664-.059-1.055-.186-1.24-.508-1.865-1.416-1.865-2.725v-13.934h-20.488c-1.055 0-1.934-.361-2.656-1.074-.713-.723-1.074-1.611-1.074-2.666v-17.608c0-1.055 .361-1.924 1.074-2.617 .723-.684 1.602-1.025 2.656-1.025h20.488v-14.024c0-1.309 .625-2.217 1.865-2.734 1.25-.449 2.285-.215 3.115 .674l26.475 26.474z" fill="#f7f8fa"/></svg>