<svg xmlns="http://www.w3.org/2000/svg" width="80.898" height="73.535" viewBox="0 0 80.898 73.535" enable-background="new 0 0 80.898 73.535"><path d="M55.674 34.707c.508 .576 .771 1.279 .791 2.109 .01 .83-.254 1.494-.791 2.012l-26.475 26.465c-.576 .576-1.26 .869-2.061 .869-.254 0-.635-.068-1.152-.195-1.182-.508-1.768-1.416-1.768-2.725v-13.935h-20.488c-1.055 0-1.943-.361-2.656-1.074-.722-.723-1.074-1.602-1.074-2.657v-17.617c0-1.055 .352-1.924 1.074-2.607 .713-.693 1.602-1.035 2.656-1.035h20.488v-14.024c0-1.309 .586-2.217 1.768-2.734 1.25-.439 2.314-.215 3.213 .674l26.475 26.474zm10.478-34.707c2.012 0 3.906 .391 5.674 1.172 1.777 .781 3.33 1.826 4.668 3.135s2.412 2.861 3.213 4.668c.791 1.807 1.191 3.711 1.191 5.723v44.141c0 2.002-.4 3.896-1.191 5.674-.801 1.768-1.875 3.32-3.213 4.668-1.338 1.338-2.891 2.393-4.639 3.184-1.758 .781-3.662 1.172-5.703 1.172h-22.021v-9.238h22.021c1.504 0 2.793-.537 3.877-1.611 1.084-1.064 1.631-2.354 1.631-3.848v-44.143c0-1.504-.537-2.783-1.602-3.857-1.074-1.064-2.373-1.602-3.906-1.602h-22.021v-9.238h22.021z" fill="#313337"/></svg>