<svg xmlns="http://www.w3.org/2000/svg" width="58.838" height="76.494" viewBox="0 0 58.838 76.494" enable-background="new 0 0 58.838 76.494"><path d="M3.643 33.174c-.996 0-1.846-.371-2.568-1.104-.714-.732-1.075-1.611-1.075-2.636 0-1.055 .371-1.943 1.104-2.676l25.654-25.664c.732-.733 1.611-1.094 2.637-1.094 1.055 0 1.943 .361 2.676 1.094l25.664 25.664c.732 .732 1.104 1.621 1.104 2.676 0 .996-.361 1.865-1.084 2.607-.713 .752-1.602 1.133-2.656 1.133h-51.456zm51.455 10.146c1.055 0 1.943 .371 2.656 1.104 .723 .732 1.084 1.611 1.084 2.627 0 1.055-.371 1.953-1.104 2.686l-25.664 25.654c-.732 .742-1.621 1.104-2.676 1.104s-1.934-.361-2.637-1.104l-25.653-25.655c-.733-.732-1.104-1.631-1.104-2.685 0-.986 .361-1.855 1.074-2.607 .723-.752 1.572-1.123 2.568-1.123h51.456v-.001z" fill="#3b73b9"/></svg>