<svg xmlns="http://www.w3.org/2000/svg" width="80.186" height="76.494" viewBox="0 0 80.186 76.494" enable-background="new 0 0 80.186 76.494"><path d="M40.107 0c.576 0 1.064 .215 1.465 .645s.693 .869 .889 1.318l10.869 21.973 24.219 3.545c.576 .127 1.152 .332 1.748 .615 .586 .293 .889 .801 .889 1.533 0 .449-.117 .869-.342 1.27s-.488 .762-.811 1.074l-17.568 17.05 4.111 24.121c0 .127 .02 .273 .049 .43 .039 .166 .049 .352 .049 .576 0 .645-.137 1.191-.43 1.65-.283 .469-.801 .693-1.533 .693s-1.387-.205-1.963-.615l-21.641-11.347-21.68 11.348c-.576 .381-1.201 .586-1.865 .615-.742 0-1.26-.225-1.582-.693-.322-.459-.479-1.006-.479-1.65 0-.186 .01-.371 .049-.547 .029-.176 .049-.332 .049-.459l4.111-24.121-17.421-17.051c-.322-.313-.615-.674-.889-1.075s-.4-.82-.4-1.269c0-.732 .293-1.24 .879-1.533 .596-.283 1.172-.488 1.748-.615l24.229-3.545 10.859-21.973c.195-.449 .518-.889 .957-1.318 .449-.43 .928-.645 1.435-.645zm-8.134 30.879l-18.145 2.676 13.115 12.832-3.105 18.047 16.27-8.525 16.279 8.525-3.154-18.047 13.115-12.832-18.096-2.676-8.145-16.475-8.134 16.475z" fill="#313337"/></svg>