<svg xmlns="http://www.w3.org/2000/svg" width="51.465" height="73.558" viewBox="0 0 51.465 73.558" enable-background="new 0 0 51.465 73.558"><path d="M0 3.73c0-1.055 .371-1.943 1.084-2.656s1.572-1.074 2.568-1.074h7.324c1.045 0 1.934 .361 2.656 1.074 .713 .713 1.074 1.602 1.074 2.656v66.156c0 .996-.361 1.836-1.074 2.559-.723 .723-1.611 1.074-2.656 1.074h-7.324c-.996 0-1.855-.352-2.568-1.074s-1.084-1.562-1.084-2.558v-66.157zm15.518 35.186l31.26 33.744c.762 .898 1.777 1.113 3.018 .684 1.123-.527 1.67-1.426 1.67-2.734v-67.592c0-1.309-.547-2.256-1.67-2.832-.519-.127-.87-.186-1.056-.186-.859 0-1.514 .283-1.963 .859l-31.26 33.848c-.537 .508-.811 1.191-.791 2.061 .02 .859 .274 1.572 .792 2.148z" fill="#f7f8fa"/></svg>