<svg xmlns="http://www.w3.org/2000/svg" width="51.465" height="73.56" viewBox="0 0 51.465 73.56" enable-background="new 0 0 51.465 73.56"><path d="M35.996 34.648c.518 .576 .771 1.289 .771 2.158 0 .859-.254 1.572-.771 2.148l-31.308 33.746c-.508 .586-1.163 .86-1.954 .86-.195 0-.547-.059-1.055-.176-1.122-.528-1.679-1.426-1.679-2.735v-67.69c0-1.25 .557-2.158 1.68-2.734 1.24-.45 2.246-.225 3.008 .673l31.308 33.75zm15.469-30.878c0-1.055-.361-1.943-1.074-2.656-.723-.723-1.611-1.084-2.656-1.084h-7.325c-.996 0-1.846 .361-2.568 1.084-.713 .713-1.074 1.602-1.074 2.656v66.157c0 .996 .361 1.836 1.074 2.559 .723 .723 1.572 1.074 2.568 1.074h7.324c1.045 0 1.934-.352 2.656-1.074 .713-.723 1.074-1.562 1.074-2.559v-66.157z" fill="#3b73b9"/></svg>