<svg xmlns="http://www.w3.org/2000/svg" width="73.535" height="76.488" viewBox="0 0 73.535 76.488" enable-background="new 0 0 73.535 76.488"><path d="M73.535 34.609v7.27h-73.535v-7.27h73.535zm-57.353-1.875c-1.055-1.68-1.875-3.447-2.461-5.283-.596-1.836-.889-3.76-.889-5.771 0-3.73 .703-6.953 2.109-9.668 1.396-2.715 3.281-4.961 5.645-6.748s5.078-3.115 8.135-3.975c3.066-.859 6.308-1.289 9.726-1.289 2.803 0 5.615 .322 8.418 .977 2.812 .654 5.557 1.445 8.242 2.363 .635 2.305 1.074 4.795 1.309 7.471 .244 2.686 .361 5.186 .361 7.52 0 .322-.02 .674-.049 1.074s-.078 .791-.146 1.172l-.615 .098c-.732-.059-1.533-.098-2.393-.098-.869 0-1.66-.088-2.393-.283-.576-1.885-1.279-3.711-2.109-5.479-.83-1.777-1.826-3.35-2.998-4.717-1.162-1.377-2.568-2.471-4.209-3.281s-3.594-1.221-5.859-1.221c-1.572 0-3.076 .215-4.531 .645-1.445 .43-2.725 1.074-3.828 1.914-1.104 .85-1.992 1.904-2.676 3.184-.693 1.279-1.035 2.764-1.035 4.453 0 1.885 .459 3.516 1.367 4.883 .908 1.377 2.109 2.568 3.613 3.594s3.184 1.885 5.049 2.607 3.75 1.387 5.654 2.012c1.895 .625 3.711 1.24 5.43 1.865 1.729 .625 3.203 1.289 4.453 1.982h-33.32v-.001zm44.804 11.02c.264 .508 .498 1.113 .723 1.836s.391 1.484 .498 2.305c.117 .801 .205 1.602 .264 2.383 .068 .781 .098 1.484 .098 2.09 0 4.18-.752 7.793-2.275 10.82-1.514 3.027-3.535 5.527-6.074 7.5-2.539 1.953-5.508 3.418-8.906 4.375s-7.002 1.426-10.791 1.426c-1.699 0-3.184-.059-4.453-.176-1.279-.137-2.529-.332-3.74-.605s-2.451-.605-3.73-.977c-1.279-.391-2.764-.859-4.453-1.387-.381-.137-.986-.332-1.816-.586s-1.406-.508-1.729-.762c-.254-.195-.449-.996-.576-2.422s-.215-2.949-.283-4.609-.098-3.262-.098-4.785v-5.175000000000001l5.273-.098c.986 2.305 2.002 4.434 3.057 6.445 1.055 1.992 2.266 3.711 3.643 5.195 1.367 1.465 3.027 2.598 4.98 3.418 1.943 .801 4.365 1.211 7.275 1.211 1.748 0 3.506-.254 5.264-.781s3.359-1.289 4.814-2.305c1.445-.996 2.627-2.246 3.535-3.75 .918-1.504 1.367-3.242 1.367-5.215 0-2.441-.781-4.473-2.344-6.133s-3.467-3.066-5.693-4.219c-2.236-1.152-4.58-2.09-7.021-2.852-2.441-.742-4.551-1.465-6.338-2.168h29.529v.001z" fill="#f7f8fa"/></svg>