<svg xmlns="http://www.w3.org/2000/svg" width="88.223" height="73.531" viewBox="0 0 88.223 73.531" enable-background="new 0 0 88.223 73.531"><path d="M82.764 0c1.504 0 2.793 .537 3.857 1.631 1.074 1.084 1.602 2.373 1.602 3.867v62.525c0 1.504-.527 2.793-1.602 3.887-1.064 1.074-2.354 1.621-3.857 1.621h-77.266c-1.494 0-2.793-.547-3.877-1.621-1.084-1.094-1.621-2.383-1.621-3.887v-62.525c0-1.494 .537-2.783 1.621-3.867 1.084-1.094 2.383-1.631 3.877-1.631h77.266zm-75.391 10.957v15.898h22.021v-15.898h-22.021zm0 35.523h22.021v-15.894h-22.021v15.894zm0 19.688h22.021v-16.055h-22.021v16.055zm25.752-55.211v15.898h22.07v-15.898h-22.07zm22.07 35.523v-15.894h-22.07v15.894h22.07zm-22.07 3.633v16.055h22.07v-16.055h-22.07zm47.773-23.258v-15.898h-22.07v15.898h22.07zm-22.07 19.625h22.07v-15.894h-22.07v15.894zm22.07 19.688v-16.055h-22.07v16.055h22.07z" fill="#313337"/></svg>