<svg xmlns="http://www.w3.org/2000/svg" width="71.231" height="75.069" viewBox="0 0 71.231 75.069" enable-background="new 0 0 71.231 75.069"><path d="M69.6 39.932c1.055 1.24 1.602 2.646 1.631 4.209s-.508 2.91-1.631 4.023l-25.176 25.176c-1.123 1.123-2.49 1.699-4.121 1.729s-2.998-.547-4.111-1.729l-32.081-35.899c-1.113-1.182-2.08-2.715-2.891-4.6-.82-1.874-1.22-3.652-1.22-5.312v-21.728c0-1.562 .557-2.92 1.67-4.072s2.49-1.729 4.121-1.729h21.729c1.631 0 3.438 .4 5.41 1.182 1.982 .781 3.477 1.758 4.502 2.939l32.168 35.811zm-54.62-19.346c1.562 0 2.891-.537 3.975-1.621s1.621-2.412 1.621-3.975-.537-2.881-1.621-3.955c-1.084-1.064-2.412-1.602-3.975-1.602s-2.881 .537-3.955 1.602c-1.064 1.074-1.602 2.393-1.602 3.955s.537 2.891 1.602 3.975c1.075 1.084 2.393 1.621 3.955 1.621z" fill="#333"/></svg>