<svg xmlns="http://www.w3.org/2000/svg" width="89.805" height="75.069" viewBox="0 0 89.805 75.069" enable-background="new 0 0 89.805 75.069"><path d="M69.512 39.932c1.055 1.182 1.592 2.549 1.631 4.111 .029 1.562-.518 2.91-1.631 4.023l-25.186 25.088c-1.113 1.113-2.49 1.709-4.141 1.768-1.641 .068-2.969-.527-3.994-1.768l-32.07-35.713c-1.123-1.25-2.09-2.812-2.9-4.697-.811-1.875-1.221-3.623-1.221-5.215v-21.728c0-1.572 .557-2.93 1.68-4.072 1.113-1.153 2.49-1.729 4.111-1.729h21.738c.791 0 1.65 .098 2.559 .293 .908 .186 1.826 .488 2.754 .879 .928 .4 1.797 .85 2.607 1.348 .811 .488 1.475 1.025 1.992 1.602l32.071 35.81zm-54.532-19.346c1.504 0 2.812-.557 3.926-1.67 1.123-1.123 1.68-2.432 1.68-3.926 0-1.562-.557-2.9-1.68-4.004-1.113-1.094-2.422-1.65-3.926-1.65-1.562 0-2.891 .557-3.994 1.65-1.104 1.104-1.65 2.441-1.65 4.004 0 1.494 .547 2.803 1.65 3.926 1.104 1.113 2.432 1.67 3.994 1.67zm73.155 19.434c1.113 1.191 1.67 2.578 1.67 4.17s-.557 2.949-1.67 4.072l-25.088 25.078c-1.113 1.123-2.49 1.699-4.111 1.729-1.631 .029-3.008-.547-4.121-1.729l-.576-.664 24.609-24.609c1.113-1.113 1.67-2.461 1.65-4.043s-.566-2.949-1.65-4.092l-32.08-35.811c-.986-1.113-2.324-2.021-4.014-2.705-1.699-.684-3.32-1.123-4.883-1.318h8.33c1.621 0 3.418 .391 5.381 1.172s3.457 1.768 4.473 2.949l32.08 35.801z" fill="#3b73b9"/></svg>