<svg xmlns="http://www.w3.org/2000/svg" width="88.232" height="73.535" viewBox="0 0 88.232 73.535" enable-background="new 0 0 88.232 73.535"><path d="M84.492 0c1.055 0 1.943 .361 2.656 1.074 .723 .723 1.084 1.582 1.084 2.568v10.381c0 .996-.361 1.846-1.084 2.568-.713 .713-1.602 1.074-2.656 1.074h-80.849c-.996 0-1.846-.361-2.568-1.074-.714-.722-1.075-1.571-1.075-2.568v-10.38c0-.986 .361-1.846 1.074-2.568 .723-.714 1.572-1.075 2.569-1.075h80.849zm0 27.959c1.055 0 1.943 .361 2.656 1.074 .723 .723 1.084 1.562 1.084 2.52v10.293c0 1.045-.361 1.934-1.084 2.656-.713 .713-1.602 1.074-2.656 1.074h-80.849c-.996 0-1.846-.361-2.568-1.074-.714-.723-1.075-1.611-1.075-2.656v-10.293c0-.996 .361-1.836 1.074-2.539 .723-.703 1.572-1.055 2.568-1.055h80.85zm0 27.91c1.055 0 1.943 .361 2.656 1.074 .723 .723 1.084 1.572 1.084 2.568v10.381c0 .996-.361 1.846-1.084 2.568-.713 .713-1.602 1.074-2.656 1.074h-80.849c-.996 0-1.846-.361-2.568-1.074-.714-.722-1.075-1.571-1.075-2.567v-10.381c0-.996 .361-1.846 1.074-2.568 .723-.713 1.572-1.074 2.568-1.074h80.85v-.001zm-.664-22.832h-47.832v7.373h47.832v-7.373zm0 27.959h-33.135v7.324h33.135v-7.324zm0-55.781h-18.437v7.324h18.438v-7.324z" fill="#f7f8fa"/></svg>