<svg xmlns="http://www.w3.org/2000/svg" width="73.535" height="73.532" viewBox="0 0 73.535 73.532" enable-background="new 0 0 73.535 73.532"><path d="M9.717 9.004c-1.309 .791-3.174 2.754-5.596 5.879-.645 .928-1.172 1.396-1.582 1.396-.742-.322-1.299-.635-1.68-.938s-.664-.546-.859-.741c.449-.928 .977-2.314 1.602-4.16 .625-1.856 1.328-4.18 2.128-6.993 .195-.859 .371-1.553 .527-2.08s.303-.957 .43-1.27h2.676c.264 .381 .42 .605 .488 .664 .859 1.504 1.445 2.432 1.768 2.783 .068 0 .635 .01 1.699 .049 1.064 .029 2.305 .039 3.711 .039h13.789l.908-.088h34.805l2.539-.293c.381-.312 .762-1.055 1.152-2.197l.215-.43 .303-.624h3.213v14.979999999999999c0 .391-.02 .732-.049 1.035s-.088 .615-.146 .928c-1.055 .322-2.051 .566-3.018 .723-.791-1.182-1.631-2.822-2.49-4.932l-1.621-3.545c-.391-.322-.82-.537-1.289-.674-.195-.059-.869-.107-2.012-.137-1.152-.029-2.51-.049-4.082-.049h-10.975999999999999s-1.074 .029-1.66 .098c-.059 .576-.107 1.094-.137 1.553-.039 .469-.049 .859-.049 1.172l.186 21.309-.088 5.688c0 1.953 .186 3.418 .576 4.414 .381 .195 1.23 .371 2.539 .566 .117 0 .449 .059 .977 .195s1.25 .293 2.178 .469c.439 .137 .869 .254 1.27 .371s.752 .234 1.074 .352c.068 .508 .107 .918 .146 1.23 .029 .293 .049 .508 .049 .645 0 .117-.02 .293-.049 .469-.039 .195-.049 .43-.049 .684h-1.583c-2.998 0-5.498-.098-7.51-.293-2.109-.195-5.879-.293-11.309-.293-.439 0-1.289 .059-2.529 .156l-5.029 .332-2.051 .137c-.518 .039-.898 .059-1.152 .059 0-.527-.039-.84-.098-.957v-1.407c.635-.859 1.797-1.484 3.496-1.855 2.871-.645 4.98-1.289 6.318-1.973 .127-.254 .225-.547 .283-.898s.127-.762 .195-1.25c0-.566 .02-1.699 .039-3.379 .039-1.674 .059-3.588 .059-5.736 0-2.158-.02-4.424-.059-6.797-.02-2.383-.059-4.6-.088-6.66s-.068-3.77-.098-5.146l-.049-2.246c0-.254-.098-.469-.283-.625-.068-.059-.273-.156-.625-.283-.447-.071-1.385-.1-2.82-.1h-5.889c-.635 0-1.631 .02-2.969 .049s-2.705 .059-4.072 .098c-1.367 .029-2.617 .088-3.73 .186s-1.778 .204-1.963 .341zm63.232 51.976c.391 .391 .586 .879 .586 1.484 0 .586-.195 1.055-.586 1.445l-8.848 8.945c-.645 .586-1.172 .781-1.602 .625s-.645-.703-.645-1.621v-5.703h-50.174v5.703c0 .918-.215 1.465-.645 1.621s-.938-.039-1.504-.625l-8.965-8.944c-.371-.39-.566-.859-.566-1.445 0-.566 .195-1.055 .566-1.484l8.965-8.848c.566-.645 1.074-.859 1.504-.664 .43 .176 .645 .703 .645 1.582v5.781h50.176v-5.781c0-.879 .215-1.406 .645-1.582 .43-.195 .957 .02 1.602 .664l8.846 8.847z" fill="#f7f8fa"/></svg>