<svg xmlns="http://www.w3.org/2000/svg" width="88.234" height="73.539" viewBox="0 0 88.234 73.539" enable-background="new 0 0 88.234 73.539"><path d="M60.508 .098c.068 1.24 .078 2.793 .059 4.668-.039 1.865-.02 4.072 .039 6.631v7.51c0 .449-.02 .889-.039 1.318-.039 .43-.078 .811-.146 1.123-.635 .254-1.23 .439-1.768 .557-.547 .107-1.045 .225-1.484 .352-.869-1.621-1.719-3.682-2.539-6.172-.928-2.617-1.523-4.082-1.777-4.404-.381-.449-.811-.781-1.289-1.006-.322-.127-1.279-.186-2.871-.186h-8.086c-.547 0-1.113 .059-1.68 .186-.195 1.377-.293 2.52-.293 3.447l.098 7.227v15.996l.098 17.172v7.051c0 2.285 .156 4.16 .479 5.605 .254 .117 .596 .254 1.025 .371 .43 .137 .986 .254 1.66 .391 .117 0 .459 .059 .996 .195 .547 .117 1.348 .332 2.402 .605 .859 .332 1.641 .625 2.344 .879 .127 .625 .195 1.172 .195 1.602v1.387s-.039 .508-.098 .84h-1.631c-1.504 0-2.9-.039-4.209-.098s-2.52-.156-3.643-.293c-1.123-.117-2.646-.215-4.57-.293-1.934-.059-4.307-.098-7.109-.098-.518 0-1.416 .078-2.725 .195-1.309 .137-3.057 .293-5.225 .488-.928 .059-1.65 .117-2.158 .137-.508 .039-.889 .059-1.143 .059 0-.332-.029-.586-.068-.801-.059-.195-.078-.371-.078-.508l-.098-1.133v-.488c.576-.996 1.855-1.777 3.828-2.402 3.008-.859 5.156-1.641 6.465-2.344 .127-.312 .234-.723 .312-1.211s.156-.996 .215-1.504c.127-2.168 .225-5 .293-8.457 .059-3.457 .059-7.539 0-12.227l-.195-20.492c-.059-2.871-.098-5.146-.098-6.826 0-1.67-.059-2.832-.195-3.467 0-.254-.107-.488-.332-.723-.127-.186-.312-.283-.566-.283-.518-.127-1.523-.186-3.027-.186h-6.074c-2.871 0-4.766 .332-5.703 .996-1.309 .928-3.232 3.369-5.781 7.324-.742 1.123-1.299 1.68-1.68 1.68-.742-.381-1.309-.762-1.719-1.123-.421-.371-.724-.683-.919-.937 .449-1.182 .996-2.939 1.66-5.283 .645-2.354 1.367-5.293 2.168-8.838 .254-1.055 .469-1.924 .625-2.607s.303-1.191 .43-1.504h2.773c.137 .186 .234 .352 .293 .469l.195 .439c.918 1.816 1.582 2.949 1.953 3.398 .518 .127 2.578 .186 6.182 .186 1.123 0 2.178-.01 3.184-.049 1.006-.029 1.973-.049 2.9-.049l.957-.088 5.41-.098 10.195 .098h13.828l2.637-.479c.312-.254 .752-1.104 1.289-2.539 .068-.195 .137-.391 .195-.596s.156-.479 .293-.791l2.052-.097h.508c.205 0 .468 .029 .781 .098zm26.054 61.761c.918 0 1.465 .215 1.621 .645s-.049 .918-.625 1.504l-8.809 8.945c-.508 .391-1.035 .586-1.582 .586-.508 0-.996-.195-1.484-.586l-8.809-8.945c-.566-.586-.781-1.074-.615-1.504 .156-.43 .654-.645 1.484-.645h5.791v-50.179h-5.791c-.869 0-1.377-.215-1.533-.645s.059-.967 .664-1.602l8.809-8.857c.45-.381 .977-.576 1.583-.576 .449 0 .938 .195 1.484 .576l8.809 8.857c.576 .635 .781 1.172 .625 1.602s-.703 .645-1.621 .645h-5.654v50.18h5.653z" fill="#313337"/></svg>