<svg xmlns="http://www.w3.org/2000/svg" width="88.232" height="73.539" viewBox="0 0 88.232 73.539" enable-background="new 0 0 88.232 73.539"><path d="M36.768 0c1.055 0 1.934 .361 2.656 1.074 .723 .723 1.074 1.572 1.074 2.559v25.762c0 1.055-.352 1.924-1.074 2.607s-1.602 1.025-2.656 1.025h-33.038c-1.045 0-1.934-.342-2.656-1.025-.713-.684-1.074-1.553-1.074-2.607v-25.762c0-.986 .361-1.836 1.074-2.559 .723-.713 1.612-1.074 2.656-1.074h33.038zm0 40.4c1.055 0 1.934 .361 2.656 1.084 .723 .707 1.074 1.605 1.074 2.66v25.645c0 1.055-.352 1.953-1.074 2.656-.723 .723-1.602 1.094-2.656 1.094h-33.038c-1.045 0-1.934-.371-2.656-1.094-.713-.703-1.074-1.601-1.074-2.656v-25.644c0-1.055 .361-1.953 1.074-2.66 .723-.723 1.612-1.085 2.656-1.085h33.038zm47.822-40.4c.986 0 1.846 .361 2.559 1.074 .723 .723 1.084 1.572 1.084 2.559v25.762c0 1.055-.361 1.924-1.084 2.607-.713 .684-1.572 1.025-2.559 1.025h-33.125c-1.055 0-1.924-.342-2.607-1.025-.693-.684-1.035-1.553-1.035-2.607v-25.762c0-.986 .342-1.836 1.035-2.559 .683-.713 1.552-1.074 2.607-1.074h33.125zm0 40.4c.986 0 1.846 .361 2.559 1.084 .723 .707 1.084 1.605 1.084 2.66v25.645c0 1.055-.361 1.953-1.084 2.656-.713 .723-1.572 1.094-2.559 1.094h-33.125c-1.055 0-1.924-.371-2.607-1.094-.693-.703-1.035-1.602-1.035-2.656v-25.644c0-1.055 .342-1.953 1.035-2.66 .684-.723 1.553-1.084 2.607-1.084h33.125v-.001z" fill="#3b73b9"/></svg>