<svg xmlns="http://www.w3.org/2000/svg" width="88.232" height="73.52" viewBox="0 0 88.232 73.52" enable-background="new 0 0 88.232 73.52"><path d="M21.592 16.66c0 1.045-.361 1.934-1.074 2.656-.723 .713-1.572 1.074-2.568 1.074h-14.22c-1.045 0-1.934-.361-2.656-1.074-.713-.722-1.074-1.611-1.074-2.656v-13.027c0-.986 .361-1.846 1.074-2.559 .723-.722 1.612-1.074 2.656-1.074h14.219c.996 0 1.846 .352 2.568 1.074 .713 .713 1.074 1.572 1.074 2.559v13.027zm0 25.512c0 1.055-.361 1.934-1.074 2.637-.723 .703-1.572 1.055-2.568 1.055h-14.22c-1.045 0-1.934-.371-2.656-1.074-.713-.724-1.074-1.602-1.074-2.618v-10.824c0-1.045 .361-1.914 1.074-2.578 .723-.674 1.611-1.006 2.656-1.006h14.219c.996 0 1.846 .342 2.568 1.025 .713 .684 1.074 1.543 1.074 2.559v10.824zm-3.643 11.055c.996 0 1.846 .352 2.568 1.035 .713 .684 1.074 1.562 1.074 2.598v12.93c0 1.055-.361 1.953-1.074 2.656-.723 .723-1.572 1.074-2.568 1.074h-14.219c-1.045 0-1.934-.352-2.656-1.074-.713-.704-1.074-1.602-1.074-2.657v-12.93c0-1.035 .361-1.914 1.074-2.598 .723-.684 1.611-1.035 2.656-1.035h14.219zm66.641-53.227c.986 0 1.846 .352 2.559 1.074 .723 .713 1.084 1.572 1.084 2.559v13.027c0 1.045-.361 1.934-1.084 2.656-.713 .713-1.572 1.074-2.559 1.074h-51.944c-1.055 0-1.934-.361-2.656-1.074-.713-.723-1.074-1.611-1.074-2.656v-13.027c0-.986 .361-1.846 1.074-2.559 .723-.722 1.602-1.074 2.656-1.074h51.944zm-55.674 31.348c0-1.045 .361-1.914 1.074-2.578 .723-.674 1.602-1.006 2.656-1.006h51.944c.986 0 1.846 .342 2.559 1.025 .723 .684 1.084 1.543 1.084 2.559v10.824c0 1.055-.361 1.934-1.084 2.637-.713 .703-1.572 1.055-2.559 1.055h-51.944c-1.055 0-1.934-.371-2.656-1.074-.713-.723-1.074-1.602-1.074-2.617v-10.825zm0 25.511c0-1.035 .361-1.914 1.074-2.598 .723-.684 1.602-1.035 2.656-1.035h51.944c.986 0 1.846 .352 2.559 1.035 .723 .684 1.084 1.562 1.084 2.598v12.93c0 1.055-.361 1.953-1.084 2.656-.713 .723-1.572 1.074-2.559 1.074h-51.944c-1.055 0-1.934-.352-2.656-1.074-.713-.703-1.074-1.602-1.074-2.656v-12.93z" fill="#ffffff"/></svg>