<svg xmlns="http://www.w3.org/2000/svg" width="88.232" height="73.52" viewBox="0 0 88.232 73.52" enable-background="new 0 0 88.232 73.52"><path d="M24.512 16.66c0 1.055-.361 1.934-1.074 2.656-.723 .713-1.572 1.074-2.568 1.074h-17.14c-1.045 0-1.934-.361-2.656-1.074-.713-.722-1.074-1.601-1.074-2.656v-13.027c0-.986 .361-1.836 1.074-2.559 .723-.722 1.612-1.074 2.656-1.074h17.139c.996 0 1.846 .352 2.568 1.074 .713 .723 1.074 1.572 1.074 2.559v13.027zm0 25.512c0 1.055-.361 1.934-1.074 2.637-.723 .703-1.572 1.055-2.568 1.055h-17.14c-1.045 0-1.934-.371-2.656-1.074-.713-.724-1.074-1.602-1.074-2.618v-10.815c0-1.055 .361-1.924 1.074-2.588 .723-.674 1.611-1.006 2.656-1.006h17.139c.996 0 1.846 .342 2.568 1.025 .713 .693 1.074 1.543 1.074 2.568v10.816zm-3.643 11.055c.996 0 1.846 .352 2.568 1.035 .713 .684 1.074 1.562 1.074 2.617v12.91c0 1.055-.361 1.953-1.074 2.656-.723 .723-1.572 1.074-2.568 1.074h-17.139c-1.045 0-1.934-.352-2.656-1.074-.713-.703-1.074-1.601-1.074-2.656v-12.91c0-1.055 .361-1.934 1.074-2.617 .723-.684 1.611-1.035 2.656-1.035h17.139zm14.697-32.836c-1.045 0-1.924-.361-2.627-1.074-.703-.723-1.055-1.602-1.055-2.656v-13.028c0-.986 .361-1.836 1.074-2.559 .724-.722 1.593-1.074 2.608-1.074h17.188c.986 0 1.846 .352 2.559 1.074 .723 .723 1.084 1.572 1.084 2.559v13.027c0 1.055-.361 1.934-1.084 2.656-.713 .713-1.572 1.074-2.559 1.074h-17.188zm20.83 21.781c0 1.055-.361 1.934-1.084 2.637-.713 .703-1.572 1.055-2.559 1.055h-17.187c-1.045 0-1.924-.371-2.627-1.074-.703-.723-1.055-1.602-1.055-2.617v-10.816c0-1.055 .361-1.924 1.074-2.588 .723-.674 1.592-1.006 2.607-1.006h17.188c.986 0 1.846 .342 2.559 1.025 .723 .693 1.084 1.543 1.084 2.568v10.816zm-3.642 11.055c.986 0 1.846 .352 2.559 1.035 .723 .684 1.084 1.562 1.084 2.617v12.91c0 1.055-.361 1.953-1.084 2.656-.713 .723-1.572 1.074-2.559 1.074h-17.188c-1.045 0-1.924-.352-2.627-1.074-.703-.703-1.055-1.602-1.055-2.656v-12.91c0-1.055 .361-1.934 1.074-2.617 .723-.684 1.592-1.035 2.607-1.035h17.189zm31.836-53.227c.986 0 1.846 .352 2.559 1.074 .723 .723 1.084 1.572 1.084 2.559v13.027c0 1.055-.361 1.934-1.084 2.656-.713 .713-1.572 1.074-2.559 1.074h-17.139c-1.055 0-1.934-.361-2.656-1.074-.713-.723-1.074-1.602-1.074-2.656v-13.027c0-.986 .361-1.836 1.074-2.559 .723-.722 1.601-1.074 2.656-1.074h17.139zm-20.869 31.357c0-1.055 .361-1.924 1.074-2.588 .723-.674 1.602-1.006 2.656-1.006h17.139c.986 0 1.846 .342 2.559 1.025 .723 .693 1.084 1.543 1.084 2.568v10.814c0 1.055-.361 1.934-1.084 2.637-.713 .703-1.572 1.055-2.559 1.055h-17.139c-1.055 0-1.934-.371-2.656-1.074-.713-.723-1.074-1.602-1.074-2.617v-10.814zm0 25.522c0-1.055 .361-1.934 1.074-2.617 .723-.684 1.602-1.035 2.656-1.035h17.139c.986 0 1.846 .352 2.559 1.035 .723 .684 1.084 1.562 1.084 2.617v12.91c0 1.055-.361 1.953-1.084 2.656-.713 .723-1.572 1.074-2.559 1.074h-17.139c-1.055 0-1.934-.352-2.656-1.074-.713-.703-1.074-1.602-1.074-2.656v-12.91z" fill="#ffffff"/></svg>