<svg xmlns="http://www.w3.org/2000/svg" width="76.445" height="76.441" viewBox="0 0 76.445 76.441" enable-background="new 0 0 76.445 76.441"><path d="M.957 35.566c-.576-1.367-.869-2.812-.869-4.316 0-2.48 .654-4.727 1.963-6.738-.312-1.895-.195-3.789 .361-5.703s1.494-3.594 2.803-5.02c.127-2.695 .84-4.902 2.148-6.66s2.939-3.184 4.883-4.258c1.953-1.094 4.102-1.836 6.465-2.246 2.363-.43 4.658-.625 6.894-.625 2.295 0 4.609 .156 6.924 .469 2.305 .332 4.57 .781 6.768 1.387 2.236 .645 4.463 1.328 6.68 2.031 2.217 .723 4.512 1.094 6.865 1.094h17.959c1.562 0 2.891 .547 3.994 1.66 1.104 1.133 1.65 2.461 1.65 4.023v30.777c0 1.562-.547 2.91-1.65 4.023s-2.432 1.68-3.994 1.68h-16.709c-.859 .449-1.553 .938-2.061 1.465s-1.055 1.133-1.631 1.836c-.508 .645-1.025 1.27-1.553 1.875s-1.094 1.191-1.699 1.758c-1.055 1.133-2.266 2.227-3.633 3.301-1.377 1.094-2.412 2.266-3.115 3.555-.801 1.367-1.289 2.949-1.484 4.766-.195 1.797-.488 3.496-.889 5.098-.4 1.582-1.094 2.93-2.1 4.023-1.006 1.074-2.725 1.621-5.146 1.621-1.953 0-3.73-.41-5.342-1.211-1.611-.82-2.969-1.914-4.072-3.281-1.094-1.387-1.963-2.949-2.578-4.727-.625-1.777-.938-3.555-.938-5.391 0-1.875 .283-3.672 .84-5.371 .557-1.719 1.221-3.418 1.982-5.098l-3.32 .176c-1.104 .078-2.217 .098-3.33 .098-1.758 0-3.477-.156-5.146-.488-1.68-.352-3.164-.898-4.473-1.68-1.318-.781-2.373-1.855-3.184-3.242-.82-1.368-1.22-3.086-1.22-5.157 0-.938 .078-1.855 .234-2.754 .157-.918 .401-1.832 .723-2.75zm7.656-9.921c-1.885 1.582-2.822 3.535-2.822 5.898 0 .742 .186 1.426 .566 2.09 .391 .645 .82 1.191 1.299 1.641-.508 .938-.967 1.832-1.367 2.75s-.596 1.934-.596 3.047 .273 1.992 .84 2.656c.557 .645 1.24 1.133 2.051 1.445 .82 .332 1.709 .527 2.686 .586s1.895 .098 2.754 .098c1.494 0 2.949-.059 4.355-.156 1.406-.078 2.822-.137 4.258-.137 .986 0 1.973 .059 2.949 .137 .967 .098 1.924 .352 2.842 .723 0 1.309-.264 2.559-.781 3.73-.527 1.191-1.104 2.383-1.729 3.594s-1.172 2.48-1.65 3.789-.723 2.734-.723 4.297c0 1.055 .166 2.109 .479 3.145 .322 1.035 .791 1.973 1.416 2.832 .625 .84 1.367 1.523 2.246 2.051s1.914 .781 3.096 .781c.127 0 .303 .02 .547 .059 .234 .02 .42 .02 .547-.059 .254-.117 .4-.254 .43-.371l.146-.586c.381-1.875 .742-3.848 1.074-5.938 .342-2.07 .957-3.945 1.846-5.645 .928-1.621 2.109-3.027 3.545-4.199 1.436-1.191 2.812-2.441 4.121-3.75 .918-.977 1.709-1.875 2.363-2.695s1.328-1.582 2.012-2.305 1.436-1.387 2.246-2.012c.82-.625 1.875-1.191 3.184-1.699h.098v-30.778c-2.295 0-4.492-.254-6.582-.781s-4.211-1.113-6.369-1.719c-2.148-.625-4.404-1.211-6.748-1.738s-4.893-.781-7.637-.781c-1.436 0-3.008 .117-4.717 .352-1.708 .253-3.29 .683-4.755 1.288-1.475 .625-2.715 1.523-3.74 2.695-1.016 1.152-1.533 2.695-1.533 4.609 0 .332 .02 .605 .049 .859s.078 .566 .146 .918c-1.123 .508-1.963 1.348-2.539 2.539-.576 1.172-.859 2.363-.859 3.535-.001 1.251 .322 2.326 .956 3.205zm52.754-14.786c-1.055 0-1.953 .352-2.705 1.074s-1.123 1.641-1.123 2.754c0 1.055 .371 1.953 1.123 2.715 .752 .742 1.65 1.113 2.705 1.113 1.113 0 2.031-.371 2.754-1.113 .713-.762 1.074-1.66 1.074-2.715 0-1.113-.361-2.031-1.074-2.754-.723-.722-1.641-1.074-2.754-1.074z" fill="#f7f8fa"/></svg>