<svg xmlns="http://www.w3.org/2000/svg" width="76.445" height="76.488" viewBox="0 0 76.445 76.488" enable-background="new 0 0 76.445 76.488"><path d="M75.488 40.883c.576 1.367 .859 2.812 .859 4.297 0 2.5-.654 4.766-1.963 6.797 .322 1.895 .215 3.789-.332 5.684s-1.465 3.555-2.773 5c-.127 2.676-.85 4.902-2.158 6.68s-2.939 3.184-4.902 4.258-4.121 1.816-6.465 2.246-4.639 .645-6.865 .645c-2.305 0-4.609-.156-6.924-.488-2.314-.352-4.59-.801-6.816-1.367-2.236-.645-4.463-1.328-6.68-2.07-2.217-.723-4.492-1.094-6.826-1.094h-17.95c-1.562 0-2.91-.547-4.023-1.66-1.113-1.096-1.67-2.444-1.67-4.045v-30.776c0-1.562 .557-2.891 1.67-3.994s2.461-1.65 4.023-1.65h16.66c.859-.449 1.543-.938 2.061-1.465 .508-.527 1.064-1.152 1.67-1.885 .508-.635 1.035-1.26 1.562-1.846 .518-.586 1.074-1.191 1.65-1.797 1.045-1.113 2.266-2.207 3.633-3.281 1.377-1.064 2.432-2.256 3.164-3.564 .508-.928 .879-1.953 1.094-3.086 .225-1.133 .43-2.275 .605-3.428 .176-1.143 .371-2.266 .596-3.35s.596-2.041 1.123-2.891c.527-.85 1.279-1.514 2.256-2.012 .967-.497 2.266-.741 3.897-.741 1.943 0 3.73 .4 5.342 1.221 1.611 .811 2.969 1.904 4.092 3.281 1.113 1.367 1.982 2.939 2.607 4.707 .625 1.777 .938 3.574 .938 5.391 0 1.885-.283 3.682-.84 5.391-.557 1.699-1.24 3.418-2.031 5.137 1.113-.059 2.227-.137 3.35-.215 1.113-.078 2.227-.117 3.35-.117 1.758 0 3.457 .166 5.117 .508 1.66 .332 3.145 .889 4.453 1.67 1.309 .791 2.373 1.865 3.184 3.232 .82 1.377 1.221 3.115 1.221 5.215 0 .932-.078 1.83-.234 2.729-.168 .897-.402 1.795-.725 2.733zm-60.41 24.707c1.055 0 1.953-.371 2.705-1.094 .742-.703 1.123-1.602 1.123-2.695 0-1.055-.381-1.953-1.123-2.715-.752-.742-1.65-1.113-2.705-1.113-1.123 0-2.031 .371-2.734 1.113-.703 .762-1.055 1.66-1.055 2.715 0 1.113 .352 2.031 1.055 2.734s1.611 1.055 2.734 1.055zm52.754-14.805c1.914-1.562 2.871-3.516 2.871-5.879 0-.742-.195-1.426-.596-2.07-.4-.625-.82-1.191-1.27-1.68 .508-.918 .967-1.836 1.367-2.734 .391-.918 .596-1.914 .596-3.002 0-1.113-.283-1.992-.84-2.656-.557-.645-1.24-1.143-2.061-1.484-.811-.332-1.719-.527-2.705-.596s-1.895-.098-2.725-.098c-1.436 0-2.881 .049-4.336 .146s-2.891 .146-4.326 .146c-.996 0-1.973-.049-2.949-.146s-1.904-.332-2.803-.723c0-1.309 .254-2.549 .771-3.73 .508-1.182 1.074-2.363 1.699-3.564 .615-1.201 1.182-2.451 1.67-3.76 .498-1.309 .742-2.754 .742-4.355 0-1.055-.166-2.1-.498-3.135-.342-1.035-.811-1.982-1.416-2.822-.605-.85-1.357-1.553-2.246-2.109-.898-.557-1.934-.84-3.115-.84h-.527s-.4 .039-.527 .098c-.254 .127-.4 .254-.43 .381l-.146 .625c-.381 1.885-.742 3.857-1.074 5.908-.332 2.061-.967 3.936-1.885 5.625-.928 1.631-2.109 3.037-3.545 4.219s-2.812 2.422-4.121 3.73c-.928 .996-1.709 1.895-2.344 2.705s-1.299 1.582-1.982 2.295c-.693 .723-1.465 1.387-2.324 2.012s-1.904 1.191-3.115 1.699h-.098v30.775c2.236 0 4.404 .273 6.514 .801s4.238 1.074 6.396 1.68c2.148 .586 4.404 1.133 6.768 1.66s4.912 .801 7.666 .801c1.436 0 2.998-.098 4.688-.293s3.281-.605 4.766-1.27c1.484-.645 2.725-1.562 3.73-2.695 1.006-1.152 1.504-2.676 1.504-4.551 0-.332-.01-.625-.039-.898l-.146-.879c1.113-.508 1.973-1.348 2.559-2.539 .596-1.172 .889-2.363 .889-3.535-.001-1.251-.343-2.325-1.007-3.263z" fill="#333"/></svg>