<svg xmlns="http://www.w3.org/2000/svg" width="76.445" height="76.488" viewBox="0 0 76.445 76.488" enable-background="new 0 0 76.445 76.488"><path d="M38.242 0c5.303 0 10.264 .996 14.893 2.988 4.629 2.002 8.682 4.727 12.158 8.193 3.477 3.457 6.211 7.51 8.184 12.148 1.982 4.648 2.969 9.619 2.969 14.922 0 5.287-.986 10.268-2.969 14.896-1.973 4.648-4.707 8.711-8.184 12.168s-7.529 6.191-12.158 8.184-9.59 2.988-14.893 2.988c-5.293 0-10.264-.996-14.912-2.988-4.639-1.992-8.691-4.727-12.158-8.184-3.457-3.457-6.191-7.52-8.184-12.168-1.992-4.627-2.988-9.608-2.988-14.895 0-5.303 .996-10.273 2.988-14.922 1.992-4.639 4.727-8.691 8.184-12.148 3.467-3.467 7.52-6.191 12.158-8.193 4.649-1.993 9.619-2.989 14.912-2.989zm0 65.004c3.74 0 7.217-.703 10.439-2.109s6.045-3.32 8.477-5.742c2.422-2.422 4.336-5.254 5.742-8.477s2.109-6.699 2.109-10.424c0-3.74-.703-7.217-2.109-10.439s-3.32-6.045-5.742-8.477c-2.432-2.422-5.264-4.336-8.496-5.742-3.242-1.406-6.719-2.109-10.42-2.109-3.73 0-7.217 .703-10.459 2.109s-6.064 3.32-8.467 5.742c-2.412 2.432-4.326 5.254-5.723 8.477-1.406 3.223-2.109 6.699-2.109 10.439 0 3.725 .703 7.201 2.109 10.424 1.396 3.223 3.311 6.055 5.723 8.477 2.402 2.422 5.225 4.336 8.467 5.742s6.729 2.109 10.459 2.109zm13.213-26.752c1.055 0 1.953 .365 2.705 1.127 .752 .742 1.123 1.641 1.123 2.695v3.828c0 1.055-.371 1.953-1.123 2.715-.752 .742-1.65 1.113-2.705 1.113h-17.226c-1.055 0-1.963-.371-2.705-1.113-.752-.762-1.133-1.66-1.133-2.715v-22.26c0-1.055 .381-1.953 1.133-2.695 .742-.762 1.65-1.133 2.705-1.133h3.828c1.113 0 2.021 .371 2.725 1.133 .703 .742 1.055 1.641 1.055 2.695v14.609h9.618v.001z" fill="#f7f8fa"/></svg>