<svg xmlns="http://www.w3.org/2000/svg" width="54.102" height="76.53" viewBox="0 0 54.102 76.53" enable-background="new 0 0 54.102 76.53"><path d="M49.795 34.934c1.367 2.109 2.432 4.365 3.184 6.772 .742 2.422 1.123 5 1.123 7.734 0 3.73-.703 7.246-2.109 10.566-1.406 3.301-3.33 6.172-5.771 8.633s-5.312 4.395-8.613 5.801c-3.301 1.387-6.816 2.09-10.557 2.09-3.73 0-7.246-.703-10.527-2.09-3.291-1.406-6.162-3.34-8.623-5.801-2.451-2.461-4.385-5.332-5.791-8.633-1.408-3.319-2.111-6.835-2.111-10.566 0-2.734 .381-5.312 1.133-7.734 .742-2.407 1.807-4.663 3.184-6.772 .635-1.045 1.748-2.637 3.32-4.756 1.582-2.129 3.311-4.59 5.176-7.402s3.672-5.898 5.43-9.258c1.758-3.369 3.193-6.836 4.307-10.42 .322-1.113 .918-1.934 1.777-2.461s1.768-.732 2.725-.596c.986-.137 1.904 .068 2.754 .596s1.426 1.348 1.748 2.461c1.055 3.604 2.48 7.09 4.287 10.439 1.797 3.35 3.633 6.426 5.498 9.238 1.875 2.812 3.584 5.273 5.146 7.402 1.572 2.12 2.665 3.712 3.31 4.757zm-31.172 27.299c1.885 0 3.486-.664 4.795-1.973s1.963-2.91 1.963-4.844c0-1.367-.352-2.559-1.055-3.574l-.889-1.172s-.82-1.152-1.27-1.875-.898-1.484-1.367-2.324c-.459-.82-.82-1.68-1.074-2.578-.127-.645-.498-.918-1.104-.82-.566-.117-.957 .137-1.143 .82-.254 .918-.605 1.797-1.035 2.598-.43 .82-.879 1.582-1.338 2.305s-.889 1.328-1.289 1.836c-.4 .527-.693 .918-.889 1.211-.732 1.055-1.084 2.246-1.055 3.574 0 1.895 .654 3.496 1.963 4.824s2.912 1.992 4.787 1.992z" fill="#333"/></svg>