<svg xmlns="http://www.w3.org/2000/svg" width="62.471" height="75.004" viewBox="0 0 62.471 75.004" enable-background="new 0 0 62.471 75.004"><path d="M62.471 17.09v3.301c-1.182 .635-3.145 1.152-5.889 1.553s-5.703 .703-8.877 .908c-3.174 .215-6.26 .332-9.268 .361-2.998 .029-5.391 .049-7.178 .049-1.758 0-4.15-.02-7.178-.049-3.037-.029-6.143-.146-9.316-.361-3.174-.205-6.113-.508-8.828-.879-2.715-.391-4.658-.918-5.84-1.582-.068-.508-.097-1.065-.097-1.661v-3.37s.029-1.152 .098-1.729c.791-.439 1.934-.82 3.398-1.123s3.027-.547 4.688-.742c1.66-.186 3.301-.332 4.912-.43 1.611-.088 2.861-.176 3.76-.244-.264-2.607-.078-4.648 .547-6.123 .625-1.465 1.572-2.559 2.852-3.271 1.27-.723 2.842-1.191 4.707-1.396 1.874-.204 3.964-.302 6.298-.302 1.758 0 3.506 .039 5.244 .137s3.291 .43 4.668 .977c1.367 .566 2.461 1.436 3.281 2.617 .811 1.182 1.221 2.852 1.221 5.02v1.152c0 .391-.039 .781-.098 1.191 .928 .068 2.188 .156 3.779 .244 1.592 .098 3.232 .244 4.912 .43 1.67 .195 3.262 .439 4.756 .742 1.504 .303 2.656 .684 3.447 1.123v3.457zm-31.211 11.719c4.121-.059 8.232-.156 12.354-.283 4.111-.127 8.232-.439 12.354-.957v40.072c0 2.012-.703 3.75-2.109 5.195s-3.115 2.168-5.127 2.168h-34.992c-2.012 0-3.74-.703-5.195-2.148-1.455-1.426-2.178-3.164-2.178-5.215v-40.073c3.926 .518 7.822 .85 11.68 1.006 3.867 .156 7.754 .234 11.68 .234h1.533v.001zm-11.25 7.285c0-.508-.186-.957-.547-1.318-.371-.371-.811-.557-1.318-.557h-1.865c-.518 0-.938 .186-1.27 .557-.342 .361-.508 .811-.508 1.318v29.398c0 .508 .166 .918 .508 1.27 .332 .332 .752 .488 1.27 .488h1.865c.508 0 .947-.156 1.318-.469 .361-.332 .547-.762 .547-1.289v-29.398zm4.306-25.186c4.6-.068 9.238-.068 13.936 0 0-.381 .029-.752 .098-1.123 .059-.371 .059-.713 0-1.035v-.713c-1.123-.322-2.305-.498-3.545-.527-1.25-.029-2.432-.049-3.545-.049-1.182 0-2.383 .02-3.613 .049s-2.402 .205-3.516 .527v.713c0 .322 .01 .674 .049 1.055 .029 .39 .078 .752 .136 1.103zm9.717 25.186c0-.508-.176-.957-.547-1.318-.371-.371-.811-.557-1.318-.557h-1.865c-.508 0-.938 .186-1.27 .557-.332 .361-.498 .811-.498 1.318v29.398c0 .508 .156 .918 .479 1.27 .312 .332 .742 .488 1.289 .488h1.865c.508 0 .947-.156 1.318-.469 .371-.332 .547-.762 .547-1.289v-29.398zm8.428 29.398c0 .508 .176 .918 .527 1.27 .352 .332 .801 .488 1.338 .488h1.875c.508 0 .947-.156 1.309-.469 .371-.332 .557-.762 .557-1.289v-29.398c0-.508-.186-.957-.557-1.318-.361-.371-.801-.557-1.309-.557h-1.875c-.508 0-.947 .186-1.309 .557-.371 .361-.557 .811-.557 1.318v29.398z" fill="#f7f8fa"/></svg>