<svg xmlns="http://www.w3.org/2000/svg" width="88.232" height="75.016" viewBox="0 0 88.232 75.016" enable-background="new 0 0 88.232 75.016"><path d="M84.492 0c1.055 0 1.943 .361 2.656 1.084 .723 .713 1.084 1.562 1.084 2.559v52.76c0 .977-.361 1.836-1.084 2.539-.713 .703-1.602 1.055-2.656 1.055h-3.584v.332c0 2.012-.4 3.906-1.201 5.723-.801 1.797-1.846 3.359-3.135 4.668s-2.842 2.344-4.648 3.125c-1.797 .781-3.721 1.172-5.762 1.172-2.012 0-3.916-.391-5.723-1.172s-3.359-1.816-4.668-3.125-2.354-2.871-3.135-4.668c-.781-1.816-1.172-3.711-1.172-5.723v-.332h-14.696v.332c0 2.012-.391 3.906-1.172 5.723-.781 1.797-1.826 3.359-3.135 4.668s-2.871 2.344-4.668 3.125c-1.807 .781-3.711 1.172-5.723 1.172s-3.916-.391-5.723-1.172-3.359-1.816-4.668-3.125-2.354-2.871-3.135-4.668c-.781-1.816-1.172-3.711-1.172-5.723v-.332h-3.73c-.996 0-1.846-.371-2.568-1.094-.713-.704-1.074-1.544-1.074-2.501v-19.351c0-.791 .098-1.611 .283-2.461 .195-.85 .479-1.689 .84-2.539 .371-.85 .801-1.66 1.299-2.441 .488-.781 .996-1.426 1.504-1.943l10.674-10.626c.508-.508 1.162-1.016 1.963-1.504 .801-.498 1.621-.918 2.471-1.27 .84-.352 1.689-.625 2.529-.84 .85-.205 1.67-.312 2.471-.312h3.828v-9.472c0-.996 .361-1.846 1.074-2.559 .722-.723 1.562-1.084 2.519-1.084h53.037zm-56.728 22.354h-3.73c-.322 0-.82 .137-1.504 .391-.693 .254-1.182 .527-1.465 .811l-10.674 10.575c-.254 .254-.518 .732-.771 1.416s-.381 1.182-.381 1.504v2.965h18.525v-17.662zm-5.694 43.423c1.494 0 2.783-.527 3.857-1.602 1.064-1.074 1.602-2.344 1.602-3.848s-.537-2.793-1.602-3.887c-1.074-1.074-2.363-1.621-3.857-1.621-1.504 0-2.793 .527-3.877 1.602s-1.631 2.363-1.631 3.906c0 1.504 .547 2.773 1.631 3.848s2.373 1.602 3.877 1.602zm44.092 0c1.494 0 2.793-.527 3.877-1.602s1.631-2.344 1.631-3.848-.537-2.793-1.611-3.887c-1.064-1.074-2.363-1.621-3.896-1.621-1.504 0-2.783 .527-3.857 1.602-1.064 1.074-1.602 2.363-1.602 3.906 0 1.504 .537 2.773 1.602 3.848 1.073 1.075 2.352 1.602 3.856 1.602z" fill="#333"/></svg>