<svg xmlns="http://www.w3.org/2000/svg" width="73.535" height="73.539" viewBox="0 0 73.535 73.539" enable-background="new 0 0 73.535 73.539"><path d="M64.297 0c2.549 0 4.727 .908 6.523 2.705 1.807 1.807 2.715 3.984 2.715 6.533v55.043c0 1.328-.254 2.539-.742 3.652-.498 1.113-1.152 2.07-1.973 2.891-.811 .82-1.797 1.465-2.939 1.973-1.143 .488-2.344 .742-3.584 .742h-55.205c-1.24 0-2.412-.254-3.516-.742-1.104-.508-2.061-1.152-2.871-1.973s-1.475-1.777-1.963-2.891c-.498-1.113-.742-2.324-.742-3.652v-55.043c0-1.24 .244-2.441 .742-3.584 .488-1.152 1.153-2.138 1.963-2.949s1.777-1.465 2.9-1.963c1.114-.498 2.276-.742 3.487-.742h55.205zm-6.66 40.59c2.617-.195 4.668-1.098 6.172-2.729 .449-.439 .508-.967 .195-1.572-.254-.576-.742-.811-1.436-.723h-.195c.732-.732 1.221-1.445 1.436-2.148 .254-.635 .137-1.152-.381-1.533-.439-.449-.967-.479-1.572-.098-.264 .127-.732 .293-1.426 .479-.684 .195-1.406 .283-2.168 .283-.137 0-.254-.01-.361-.039-.107-.039-.234-.049-.361-.049l-.049-.195-.049-.186c-.508-1.953-1.416-3.711-2.725-5.293s-2.803-2.734-4.502-3.477c.127-.117 .225-.254 .293-.381 .059-.127 .156-.254 .283-.381 .186-.508 .186-1.035 0-1.582-.068-.195-.264-.449-.596-.762-.332-.322-.889-.449-1.66-.391-.059-.117-.156-.254-.283-.381-.381-.381-.781-.518-1.201-.43-.791 .127-1.572 .342-2.344 .625l-.098-.098c-.439-.254-.938-.225-1.484 .098-1.875 1.182-3.438 2.773-4.688 4.785s-2.324 4.17-3.252 6.465c-1.123-.986-2.021-1.641-2.725-1.963-1.953-1.113-4.014-2.129-6.182-3.037s-4.629-1.895-7.373-2.949c-.449-.127-.83-.059-1.152 .195-.312 .186-.557 .527-.713 1.006-.068 .859 .068 1.797 .4 2.793 .342 1.016 .957 2.012 1.855 2.998-.801 .186-1.123 .703-.957 1.533 .371 2.168 1.465 3.779 3.242 4.834l-.615 .576c-.449 .449-.518 .977-.186 1.582 .117 .381 .547 .977 1.26 1.787 .713 .805 1.768 1.43 3.135 1.84-.195 .391-.283 .742-.283 1.055 0 .332 .029 .547 .088 .664 .195 1.055 .82 1.855 1.875 2.402-1.182 .801-2.441 1.348-3.789 1.621-1.328 .293-2.695 .391-4.062 .273s-2.695-.449-3.975-.977c-1.279-.547-2.393-1.289-3.35-2.207-.254-.254-.566-.391-.938-.391s-.674 .137-.938 .391c-.723 .566-.791 1.191-.186 1.855 2.549 3.555 5.723 6.25 9.502 8.105 3.789 1.836 7.93 2.773 12.422 2.773 3.066 0 6.016-.43 8.828-1.27 2.832-.84 5.391-2.012 7.666-3.516s4.268-3.301 5.938-5.391 2.903-4.369 3.665-6.869z" fill="#313337"/></svg>