<svg xmlns="http://www.w3.org/2000/svg" width="88.232" height="62.184" viewBox="0 0 88.232 62.184" enable-background="new 0 0 88.232 62.184"><path d="M85.312 26.66c.732-.127 1.406 0 2.012 .361s.908 .977 .908 1.846c0 .918-.42 1.719-1.27 2.393-.85 .664-1.826 1.26-2.939 1.787-1.123 .527-2.285 .938-3.477 1.23-1.191 .283-2.129 .459-2.793 .527-1.377 4.43-3.496 8.355-6.367 11.773-2.881 3.418-6.23 6.27-10.059 8.535-3.828 2.285-7.949 4.043-12.354 5.254s-8.789 1.816-13.164 1.816c-6.982 0-13.613-1.484-19.873-4.473-6.25-2.988-11.436-7.344-15.547-13.105-.252-.506-.389-.916-.389-1.229 0-.645 .215-1.172 .645-1.602 .43-.449 .977-.664 1.602-.664 .449 0 .947 .195 1.484 .586 3.926 3.477 8.516 5.195 13.75 5.176 1.875 0 3.75-.254 5.625-.723 1.865-.488 3.574-1.25 5.137-2.305-.918-.508-1.68-1.172-2.266-2.012-.596-.82-.889-1.758-.889-2.773 0-.723 .127-1.348 .381-1.875-.566-.176-1.289-.508-2.129-.973-.84-.459-1.66-1.006-2.441-1.621-.781-.625-1.436-1.309-1.963-2.07-.527-.742-.791-1.484-.791-2.217 0-.518 .156-.967 .479-1.367s.723-.752 1.201-1.074c-1.309-.801-2.52-1.982-3.643-3.545-1.113-1.562-1.67-3.125-1.67-4.688 0-1.055 .527-1.738 1.582-2.061-1.123-1.123-2.012-2.412-2.656-3.877-.664-1.465-.986-2.988-.986-4.551 0-.732 .146-1.396 .459-1.992 .293-.586 .898-.879 1.787-.879 .576 0 1.924 .43 4.023 1.289s4.385 1.826 6.826 2.9c2.441 1.064 4.775 2.148 7.012 3.232 2.227 1.084 3.789 1.846 4.688 2.295 .801 .449 1.562 .947 2.275 1.504s1.426 1.143 2.129 1.748c.635-1.621 1.396-3.32 2.256-5.098 .859-1.768 1.816-3.467 2.871-5.098 1.055-1.621 2.217-3.164 3.496-4.59 1.27-1.445 2.695-2.617 4.258-3.545 .254-.195 .635-.293 1.152-.293 .566 0 .996 .127 1.289 .381 .508-.186 1.172-.4 1.992-.645 .801-.231 1.484-.348 2.031-.348 .918 0 1.602 .43 2.051 1.289 .996 0 1.895 .254 2.715 .742 .801 .498 1.211 1.299 1.211 2.422 0 .986-.43 1.836-1.289 2.529 3.066 1.377 5.605 3.369 7.637 5.986s3.477 5.527 4.336 8.711c.186 .068 .547 .098 1.094 .098 1.504 0 2.91-.264 4.219-.791s2.217-.791 2.725-.791c.576 0 1.084 .234 1.514 .693 .43 .469 .645 .986 .645 1.562 0 .732-.312 1.504-.938 2.314-.627 .822-1.154 1.447-1.604 1.896z" fill="#3b73b9"/></svg>