<svg xmlns="http://www.w3.org/2000/svg" width="90.284" height="76.5" viewBox="0 0 90.284 76.5" enable-background="new 0 0 90.284 76.5"><path d="M48.964 6.367c5.107 .381 9.941 1.426 14.502 3.135 4.57 1.709 8.682 3.965 12.354 6.777s6.737 6.055 9.218 9.766c2.471 3.701 4.199 7.734 5.195 12.109 .186 .928-.127 1.611-.957 2.061-.322 .186-.625 .283-.918 .283-.635 0-1.084-.195-1.338-.576-3.125-3.252-6.601-4.893-10.429-4.932-2.754 0-5.361 .879-7.832 2.617s-4.551 4.166-6.25 7.291c-.312 .742-.879 1.113-1.67 1.113-.801 0-1.357-.371-1.68-1.113-2.617-4.781-6.016-7.877-10.195-9.283v25.182c0 2.168-.371 4.199-1.123 6.074-.752 1.895-1.768 3.555-3.037 5.02-1.279 1.445-2.773 2.578-4.482 3.398-1.709 .801-3.535 1.211-5.479 1.211s-3.789-.41-5.527-1.211c-1.737-.82-3.251-1.953-4.53-3.398-1.27-1.465-2.285-3.125-3.037-5.02-.752-1.875-1.123-3.906-1.123-6.074 0-1.113 .371-2.031 1.123-2.754s1.65-1.074 2.705-1.074c1.123 0 2.031 .352 2.754 1.074s1.073 1.641 1.073 2.754c0 2.246 .645 4.141 1.914 5.703 1.279 1.562 2.832 2.344 4.648 2.344 1.758 0 3.271-.781 4.551-2.344 1.27-1.562 1.914-3.457 1.914-5.703v-25.182c-4.18 1.436-7.588 4.531-10.195 9.283-.322 .742-.879 1.113-1.68 1.113s-1.338-.371-1.63-1.113c-1.689-3.125-3.76-5.553-6.221-7.291s-5.059-2.617-7.803-2.617c-3.867 0-7.324 1.65-10.391 4.932-.381 .381-.879 .576-1.484 .576-.312 0-.625-.098-.908-.283-.801-.449-1.113-1.133-.957-2.061 .986-4.375 2.734-8.408 5.244-12.109 2.5-3.711 5.596-6.953 9.258-9.766 3.672-2.812 7.773-5.059 12.305-6.758 4.53-1.68 9.354-2.734 14.462-3.154v-2.539c0-1.113 .371-2.031 1.123-2.754 .752-.713 1.65-1.074 2.705-1.074 1.113 0 2.031 .361 2.754 1.074 .713 .723 1.074 1.641 1.074 2.754v2.539z" fill="#ffffff"/></svg>