<svg xmlns="http://www.w3.org/2000/svg" width="73.535" height="73.6" viewBox="0 0 73.535 73.6" enable-background="new 0 0 73.535 73.6"><path d="M37.051 58.912c-2.295 0-4.6-.156-6.914-.449-2.314-.312-4.561-.879-6.729-1.699-3.057-1.133-5.469-2.539-7.227-4.238-1.758-1.719-3.096-3.652-4.023-5.801s-1.494-4.527-1.719-7.115c-.225-2.578-.332-5.342-.332-8.281v-17.374s-.02-1.953-.049-2.998c-.038-1.035-.117-1.992-.244-2.891s-.283-1.504-.478-1.816c-.381-.508-.977-.889-1.768-1.133-.8-.234-1.65-.4-2.568-.498-.908-.098-1.807-.146-2.705-.146-.889 0-1.592-.059-2.1-.186l-.195-4.023c.322-.068 .635-.098 .938-.098h.928c2.305 0 4.541 .078 6.729 .244 2.188 .156 4.385 .234 6.582 .234 3.193 0 6.396-.029 9.6-.098 3.203-.059 6.387-.156 9.551-.283-.127 .508-.146 1.094-.049 1.748s.146 1.25 .146 1.797v.38c-2.109 .322-3.828 .43-5.176 .332-1.338-.098-2.383-.01-3.135 .244s-1.27 .879-1.553 1.865-.43 2.725-.43 5.215c0 4.375 .059 8.711 .186 13.018 .127 4.316 .293 8.672 .479 13.076 .264 4.688 1.66 8.473 4.219 11.344 2.549 2.871 6.348 4.316 11.396 4.316 3.984 0 7.285-.469 9.902-1.426 2.617-.938 4.707-2.344 6.27-4.199 1.572-1.875 2.676-4.219 3.33-7.018 .654-2.812 .986-6.055 .986-9.727 0-.635-.039-1.67-.098-3.105-.068-1.436-.146-3.066-.244-4.902-.088-1.836-.225-3.74-.4-5.703s-.361-3.77-.557-5.43c-.186-1.66-.4-3.086-.615-4.258-.225-1.191-.469-1.904-.723-2.158-1.055-1.055-2.295-1.582-3.73-1.582-.195 0-.566 .02-1.133 .049-.557 .029-1.133 .049-1.719 .049-.596 0-1.133-.02-1.631-.049-.488-.029-.83-.078-1.025-.146l.098-3.926c2.617-.127 5.215-.078 7.803 .146 2.578 .225 5.215 .332 7.9 .332 1.24 0 2.48-.078 3.711-.234 1.221-.156 2.49-.244 3.799-.244 .127 0 .283 .02 .459 .049 .176 .039 .322 .049 .449 .049l.195 1.172s.098 .791 .098 1.172-.068 .85-.195 1.396c-.732 .185-1.572 .312-2.51 .38-.947 .059-1.865 .176-2.773 .332-.918 .156-1.68 .42-2.305 .791s-.928 .977-.928 1.836c0 .449 .01 .879 .049 1.299 .029 .42 .078 .859 .137 1.338 .068 .195 .146 .811 .244 1.846s.176 2.295 .234 3.779c.068 1.484 .127 3.105 .195 4.863 .059 1.758 .127 3.398 .186 4.932 .068 1.533 .117 2.881 .146 4.062s.049 1.982 .049 2.393c0 1.191-.029 2.471-.098 3.857-.059 1.387-.186 2.812-.381 4.268-.195 1.445-.469 2.838-.84 4.186-.361 1.348-.83 2.52-1.406 3.535-1.309 2.168-2.979 4.004-5.01 5.469-2.021 1.465-4.209 2.617-6.553 3.457-2.344 .859-4.795 1.465-7.354 1.836-2.548 .353-5.009 .548-7.372 .548zm-37.051 7.324h73.535v7.364h-73.535v-7.364z" fill="#f7f8fa"/></svg>