<svg xmlns="http://www.w3.org/2000/svg" width="76.185" height="76.5" viewBox="0 0 76.185 76.5" enable-background="new 0 0 76.185 76.5"><path d="M.018 43.336c-.127-1.25 .43-1.973 1.675-2.168l7.563-.957c.381-.059 .859 .078 1.436 .391 .386 .254 .625 .684 .718 1.289 .449 3.262 1.455 6.309 3.018 9.141 1.562 2.852 3.525 5.293 5.889 7.344 2.358 2.07 5.059 3.691 8.091 4.863 3.032 1.191 6.221 1.777 9.575 1.777 3.667 0 7.129-.703 10.391-2.109 3.252-1.406 6.094-3.32 8.516-5.742s4.336-5.254 5.742-8.477 2.109-6.699 2.109-10.43c0-3.736-.703-7.213-2.109-10.445-1.406-3.223-3.32-6.045-5.742-8.467-2.422-2.432-5.273-4.346-8.545-5.752-3.271-1.396-6.724-2.1-10.361-2.1-3.003 0-5.898 .488-8.691 1.455-2.793 .977-5.322 2.393-7.588 4.238l7.612 7.607c1.118 1.123 1.499 2.051 1.147 2.803s-1.274 1.123-2.773 1.123h-22.17c-.508 0-.981-.098-1.411-.283s-.82-.449-1.172-.771c-.801-.791-1.182-1.67-1.147-2.627v-22.168c0-1.494 .391-2.412 1.172-2.744 .78-.342 1.727 .049 2.846 1.172l7.754 7.754c3.481-2.939 7.285-5.176 11.421-6.729 4.13-1.553 8.461-2.324 12.997-2.324 5.293 0 10.254 .996 14.883 2.998 4.629 1.992 8.672 4.717 12.139 8.184 3.467 3.457 6.191 7.52 8.193 12.158 1.992 4.639 2.988 9.619 2.988 14.918 0 5.293-.996 10.273-2.988 14.902-2.002 4.648-4.727 8.711-8.193 12.168s-7.51 6.191-12.158 8.184-9.6 2.988-14.863 2.988c-4.79 0-9.336-.84-13.647-2.5-4.307-1.68-8.159-4.004-11.558-6.973s-6.216-6.484-8.453-10.527c-2.231-4.062-3.672-8.457-4.306-13.164z" fill="#ffffff"/></svg>