<svg xmlns="http://www.w3.org/2000/svg" width="90" height="75.023" viewBox="0 0 90 75.023" enable-background="new 0 0 90 75.023"><path d="M63.721 0c3.604 0 7.012 .684 10.225 2.051 3.203 1.377 5.996 3.262 8.379 5.654 2.373 2.393 4.248 5.195 5.625 8.408 1.366 3.203 2.05 6.592 2.05 10.166v7.275c0 1.055-.352 1.943-1.074 2.656-.723 .723-1.602 1.074-2.656 1.074h-3.828c-1.055 0-1.934-.361-2.637-1.094s-1.055-1.611-1.055-2.637v-7.275c0-2.1-.391-4.072-1.191-5.889s-1.875-3.398-3.203-4.736c-1.348-1.338-2.93-2.402-4.746-3.184s-3.789-1.172-5.889-1.172-4.053 .391-5.84 1.172-3.369 1.846-4.736 3.184c-1.377 1.338-2.451 2.93-3.232 4.756-.791 1.836-1.182 3.799-1.182 5.869v7.471h5.703c1.504 0 2.803 .547 3.906 1.65 1.094 1.104 1.641 2.451 1.641 4.043v29.975c0 1.504-.547 2.812-1.641 3.926-1.104 1.113-2.402 1.68-3.906 1.68h-48.829c-1.504 0-2.812-.566-3.926-1.68s-1.679-2.421-1.679-3.925v-29.975c0-1.562 .566-2.9 1.68-4.014 1.113-1.123 2.422-1.68 3.926-1.68h31.836v-7.471c0-3.604 .684-7.002 2.051-10.195 1.377-3.193 3.262-5.986 5.654-8.379s5.186-4.277 8.379-5.654c3.193-1.366 6.591-2.05 10.195-2.05zm-30.498 53.52c.928-.566 1.68-1.348 2.275-2.324s.889-2.012 .889-3.125c0-1.758-.625-3.281-1.875-4.551-1.23-1.289-2.734-1.914-4.492-1.914s-3.262 .625-4.502 1.914c-1.24 1.27-1.865 2.793-1.865 4.551 0 1.113 .293 2.148 .859 3.125 .576 .977 1.328 1.719 2.246 2.227l-3.105 13.75h12.734l-3.164-13.653z" fill="#313337"/></svg>