<svg xmlns="http://www.w3.org/2000/svg" width="76.445" height="76.5" viewBox="0 0 76.445 76.5" enable-background="new 0 0 76.445 76.5"><path d="M38.242 76.5c-5.293 0-10.264-.996-14.912-2.988-4.639-1.992-8.691-4.727-12.158-8.184-3.457-3.477-6.191-7.52-8.184-12.168s-2.988-9.615-2.988-14.908c0-5.303 .996-10.273 2.988-14.922 1.992-4.639 4.727-8.691 8.184-12.148 3.467-3.467 7.52-6.191 12.158-8.193 4.649-1.993 9.619-2.989 14.912-2.989 5.303 0 10.264 .996 14.893 2.988 4.629 2.002 8.682 4.727 12.158 8.193 3.477 3.457 6.211 7.51 8.184 12.148 1.982 4.648 2.969 9.619 2.969 14.922 0 5.293-.986 10.26-2.969 14.908-1.973 4.648-4.707 8.691-8.184 12.168-3.477 3.457-7.529 6.191-12.158 8.184s-9.59 2.989-14.893 2.989zm0-65.016c-3.73 0-7.217 .703-10.459 2.109s-6.064 3.32-8.467 5.742c-2.412 2.432-4.326 5.254-5.723 8.477-1.406 3.223-2.109 6.699-2.109 10.439 0 3.73 .703 7.213 2.109 10.436 1.396 3.223 3.311 6.055 5.723 8.477 2.402 2.422 5.225 4.336 8.467 5.742s6.729 2.109 10.459 2.109c3.74 0 7.217-.703 10.439-2.109s6.045-3.32 8.477-5.742c2.422-2.422 4.336-5.254 5.742-8.477s2.109-6.705 2.109-10.436c0-3.74-.703-7.217-2.109-10.439s-3.32-6.045-5.742-8.477c-2.432-2.422-5.254-4.336-8.477-5.742s-6.699-2.109-10.439-2.109zm-16.66 26.768c-.859 0-1.445-.4-1.768-1.201-.322-.791-.156-1.484 .479-2.061l16.562-16.562c.449-.312 .908-.479 1.387-.479 .449 0 .898 .166 1.348 .479l16.611 16.562c.635 .576 .791 1.27 .479 2.061-.322 .801-.908 1.201-1.777 1.201h-10v17.232c0 .508-.186 .957-.557 1.309-.361 .371-.801 .566-1.309 .566h-9.629c-.508 0-.947-.176-1.318-.527-.361-.352-.547-.801-.547-1.348v-17.232h-9.961z" fill="#ffffff"/></svg>