<svg xmlns="http://www.w3.org/2000/svg" width="88.232" height="73.539" viewBox="0 0 88.232 73.539" enable-background="new 0 0 88.232 73.539"><path d="M86.357 40.414c.518 0 .957 .176 1.318 .527 .371 .352 .557 .801 .557 1.328v29.395c0 1.25-.625 1.875-1.875 1.875h-84.492c-1.24 0-1.865-.625-1.865-1.875v-29.394c0-.508 .186-.938 .547-1.309 .371-.371 .811-.547 1.318-.547h10.967c.508 0 .947 .176 1.318 .527 .361 .352 .547 .801 .547 1.328v16.562h58.838v-16.561c0-.508 .186-.938 .547-1.309 .371-.371 .811-.547 1.318-.547h10.957zm-15.361-15.131c.732 .732 .977 1.348 .742 1.846-.244 .488-.859 .742-1.846 .742h-14.697v23.891c0 1.055-.361 1.934-1.074 2.656-.723 .723-1.602 1.074-2.656 1.074h-14.697c-1.055 0-1.924-.352-2.607-1.074-.693-.723-1.035-1.602-1.035-2.656v-23.891h-14.698c-1.045 0-1.67-.254-1.865-.742-.186-.498 .068-1.113 .771-1.846l24.121-24.18c.733-.732 1.621-1.103 2.656-1.103 1.045 0 1.924 .371 2.656 1.104l24.229 24.179z" fill="#3b73b9"/></svg>