<svg xmlns="http://www.w3.org/2000/svg" width="75.01" height="75.023" viewBox="0 0 75.01 75.023" enable-background="new 0 0 75.01 75.023"><path d="M48.535 37.676c.869 .137 2.09 .293 3.691 .488 1.592 .186 3.252 .391 4.98 .615 1.719 .225 3.33 .459 4.834 .693 1.494 .238 2.578 .453 3.252 .648 1.113 .312 2.246 .996 3.379 2.012s2.178 2.207 3.135 3.535c.957 1.348 1.729 2.734 2.314 4.18 .596 1.426 .889 2.734 .889 3.926v18.516c-.322 .137-.674 .352-1.074 .664-.4 .332-.83 .645-1.289 .938-.469 .312-.908 .566-1.318 .801-.42 .215-.771 .332-1.055 .332h-65.585c-1.123 0-1.963-.352-2.539-1.035s-1.29-1.251-2.149-1.7v-18.516c0-1.191 .293-2.5 .879-3.926 .596-1.445 1.357-2.812 2.305-4.121 .938-1.309 1.982-2.5 3.135-3.555 1.143-1.035 2.275-1.738 3.398-2.051 .566-.195 1.621-.41 3.154-.648 1.533-.234 3.174-.469 4.912-.693s3.398-.43 5-.615c1.592-.195 2.822-.352 3.682-.488-2.93-1.875-5.234-4.326-6.914-7.344s-2.51-6.299-2.51-9.844c0-2.803 .537-5.449 1.621-7.92s2.549-4.639 4.385-6.514c1.836-1.855 3.984-3.34 6.465-4.424 2.47-1.083 5.107-1.63 7.92-1.63s5.459 .547 7.949 1.631 4.668 2.568 6.533 4.424c1.865 1.875 3.33 4.043 4.404 6.514 1.064 2.471 1.602 5.117 1.602 7.92 0 3.486-.83 6.748-2.49 9.795s-3.955 5.517-6.895 7.392z" fill="#313337"/></svg>