<svg xmlns="http://www.w3.org/2000/svg" width="73.525" height="73.539" viewBox="0 0 73.525 73.539" enable-background="new 0 0 73.525 73.539"><path d="M63.047 41.996c0-.996-.195-1.986-.576-2.973 1.309 .117 2.627 .664 3.975 1.621 1.338 .961 2.529 2.113 3.564 3.441 1.035 1.348 1.885 2.793 2.539 4.316s.977 2.949 .977 4.258v18.145c-.312 .195-.674 .43-1.074 .723l-1.221 .879c-.42 .312-.84 .566-1.27 .801-.43 .215-.771 .332-1.025 .332h-64.346c-1.113 0-1.943-.332-2.49-.977-.537-.664-1.24-1.25-2.1-1.758v-18.144c0-1.25 .322-2.637 .977-4.16 .654-1.543 1.523-2.969 2.607-4.316 1.084-1.328 2.275-2.5 3.564-3.49 1.299-.986 2.598-1.553 3.906-1.67-1.123 1.879-1.66 3.93-1.631 6.176 0 1.875 .254 3.867 .771 5.938 .508 2.07 1.445 3.77 2.822 5.078-.576 1.172-.859 2.363-.859 3.574 0 2.305 .791 4.258 2.393 5.84 1.592 1.602 3.545 2.402 5.84 2.402 1.182 0 2.275-.215 3.281-.625s1.875-.996 2.627-1.738c.752-.762 1.348-1.641 1.777-2.656 .43-1.035 .645-2.09 .645-3.223 0-1.113-.215-2.168-.645-3.184-.43-.996-1.025-1.875-1.777-2.617-.752-.762-1.621-1.367-2.627-1.836-1.006-.449-2.1-.684-3.281-.684-.576 0-1.162 .078-1.748 .234-.596 .156-1.162 .391-1.699 .664-.381-.371-.703-.859-.957-1.484-.254-.605-.469-1.25-.645-1.934s-.303-1.348-.361-1.992c-.068-.625-.098-1.211-.098-1.758 0-1.504 .449-2.871 1.338-4.121 .898-1.244 1.885-2.309 2.969-3.207l6.797-1.006c-2.93-1.826-5.205-4.219-6.816-7.207-1.611-2.979-2.422-6.201-2.422-9.639 0-2.754 .527-5.332 1.582-7.764 1.055-2.422 2.49-4.541 4.307-6.367 1.826-1.816 3.945-3.252 6.367-4.307 2.432-1.054 5.01-1.581 7.754-1.581s5.332 .527 7.764 1.582c2.422 1.055 4.541 2.49 6.367 4.307 1.816 1.826 3.252 3.945 4.307 6.367 1.055 2.432 1.572 5.01 1.572 7.764 0 3.477-.801 6.699-2.412 9.668s-3.887 5.352-6.826 7.178l7.568 1.104c.576 .508 1.123 1.094 1.65 1.738 .527 .664 .791 1.41 .791 2.289 0 1.426-.293 2.656-.859 3.672-1.885-1.055-3.818-1.562-5.791-1.523-1.445 0-2.832 .273-4.17 .82-1.338 .527-2.568 1.27-3.682 2.188l-.527-.137c-.166-.039-.342-.059-.527-.059-1.504 0-2.812 .547-3.926 1.641-1.123 1.074-1.68 2.383-1.68 3.867 0 1.504 .557 2.793 1.65 3.867 1.104 1.055 2.422 1.602 3.955 1.602 1.494 0 2.783-.547 3.848-1.602 1.074-1.074 1.611-2.363 1.611-3.867 0-.254-.039-.488-.098-.742l-.195-.645c.508-.371 1.074-.703 1.699-.977s1.299-.41 2.041-.41c1.748 0 3.262 .625 4.541 1.875 1.279 1.23 1.914 2.734 1.914 4.492 0 .742-.127 1.406-.381 1.992s-.557 1.133-.908 1.641c-.801-.312-1.514-.469-2.158-.469-1.494 0-2.793 .547-3.896 1.621-1.104 1.094-1.65 2.383-1.65 3.887s.547 2.773 1.65 3.848 2.402 1.602 3.896 1.602c1.504 0 2.793-.527 3.877-1.602s1.631-2.344 1.631-3.848l-.098-.195c2.363-2.363 3.545-5.176 3.545-8.477 0-2.363-.654-4.551-1.963-6.562 1.436-2.227 2.159-4.727 2.159-7.501zm-39.932 17.793c0 .742-.254 1.387-.762 1.953-.508 .547-1.172 .84-1.963 .84-.732 0-1.377-.293-1.914-.84-.547-.566-.82-1.211-.82-1.953 0-.781 .273-1.445 .82-1.953 .537-.508 1.182-.762 1.914-.762 .791 0 1.455 .254 1.963 .762s.762 1.172 .762 1.953z" fill="#ffffff"/></svg>