<svg xmlns="http://www.w3.org/2000/svg" width="91.768" height="76.459" viewBox="0 0 91.768 76.459" enable-background="new 0 0 91.768 76.459"><path d="M37.529 11.631c1.562-1.631 2.91-2.217 4.023-1.777 1.113 .449 1.68 1.826 1.68 4.121v48.441c0 2.305-.557 3.672-1.65 4.121-1.104 .449-2.451-.137-4.053-1.777l-15.556-15.606h-20.108c-.508 0-.947-.176-1.318-.527-.361-.332-.547-.781-.547-1.328v-18.197c0-.508 .186-.947 .547-1.318 .371-.361 .811-.547 1.318-.547h20.107l15.557-15.606zm13.457 6.943c.928-.518 1.885-.635 2.891-.381s1.787 .84 2.324 1.768c3.32 5.811 4.98 11.885 4.98 18.232 0 6.43-1.66 12.504-4.98 18.246-.732 1.309-1.846 1.953-3.35 1.953-.635 0-1.26-.176-1.865-.566-.928-.508-1.533-1.27-1.816-2.305-.293-1.016-.176-1.992 .332-2.91 2.676-4.629 4.023-9.434 4.023-14.418 0-4.971-1.348-9.775-4.023-14.404-.508-.928-.625-1.904-.332-2.92 .283-1.015 .889-1.787 1.816-2.295zm17.569-7.803c2.617 4.18 4.59 8.564 5.908 13.164 1.328 4.59 1.992 9.355 1.992 14.258 0 9.867-2.666 19.008-7.998 27.445-.322 .566-.781 1.016-1.387 1.309-.605 .312-1.201 .449-1.768 .449-.801 0-1.484-.195-2.061-.566-.928-.508-1.504-1.289-1.729-2.344s-.049-2.051 .527-2.969c4.502-7.188 6.768-14.961 6.797-23.324 0-8.359-2.266-16.133-6.797-23.311-.576-.928-.752-1.914-.527-2.959 .225-1.055 .801-1.836 1.729-2.354 .928-.576 1.895-.752 2.92-.527 1.017 .226 1.818 .802 2.394 1.729zm12.158-9.141c3.672 5.547 6.436 11.397 8.281 17.54 1.855 6.143 2.773 12.48 2.773 19.023 0 6.547-.928 12.895-2.793 19.027-1.875 6.152-4.619 11.973-8.262 17.461-.322 .566-.781 1.016-1.387 1.309-.605 .312-1.201 .469-1.777 .469-.791 0-1.514-.215-2.148-.625-.928-.586-1.484-1.387-1.68-2.441-.186-1.055 0-1.992 .576-2.832 3.193-4.922 5.625-10.098 7.305-15.566 1.67-5.449 2.51-11.055 2.51-16.801 0-5.742-.83-11.338-2.49-16.797s-4.101-10.606-7.324-15.469c-.576-.918-.762-1.895-.576-2.94 .195-1.035 .752-1.846 1.68-2.412 .928-.518 1.895-.684 2.92-.508s1.816 .693 2.392 1.562z" fill="#333"/></svg>