<svg xmlns="http://www.w3.org/2000/svg" width="61.182" height="56.965" viewBox="0 0 61.182 56.965" enable-background="new 0 0 61.182 56.965"><path d="M37.529 1.913c1.562-1.621 2.91-2.217 4.023-1.768 1.113 .439 1.68 1.816 1.68 4.111v48.441c0 2.305-.557 3.672-1.65 4.121-1.104 .449-2.451-.137-4.053-1.758l-15.556-15.603h-20.108c-.508 0-.947-.176-1.318-.527-.361-.352-.547-.801-.547-1.348v-18.189c0-.518 .186-.957 .547-1.328 .371-.361 .811-.547 1.318-.547h20.107l15.557-15.605zm13.457 6.942c.928-.518 1.885-.635 2.891-.381s1.787 .84 2.324 1.768c3.32 5.811 4.98 11.885 4.98 18.238 0 6.426-1.66 12.5-4.98 18.24-.732 1.309-1.846 1.973-3.35 1.973-.635 0-1.26-.195-1.865-.586-.928-.508-1.533-1.27-1.826-2.283-.283-1.035-.176-2.012 .342-2.93 2.676-4.629 4.023-9.434 4.023-14.414 0-4.977-1.348-9.781-4.023-14.41-.518-.928-.625-1.895-.342-2.92 .293-1.015 .899-1.787 1.826-2.295z" fill="#ffffff"/></svg>