<svg xmlns="http://www.w3.org/2000/svg" width="85.02" height="75.004" viewBox="0 0 85.02 75.004" enable-background="new 0 0 85.02 75.004"><path d="M42.461 0c1.055 0 1.953 .342 2.705 1.025 .752 .693 1.387 1.455 1.895 2.324l36.855 63.725c.322 .508 .586 1.055 .791 1.641 .215 .586 .312 1.23 .312 1.895 0 1.562-.605 2.695-1.816 3.379s-2.51 1.016-3.877 1.016h-73.633c-1.367 0-2.656-.332-3.877-1.016-1.211-.684-1.816-1.817-1.816-3.38 0-.645 .098-1.27 .283-1.875 .195-.605 .469-1.152 .82-1.66l36.768-63.724c.508-.869 1.133-1.631 1.885-2.324 .752-.684 1.65-1.026 2.705-1.026zm3.31 53.656c.439 0 .83-.156 1.172-.488 .332-.352 .498-.742 .498-1.172l.723-30.316c0-.449-.176-.84-.508-1.172s-.723-.498-1.172-.498h-7.949c-.508 0-.918 .166-1.221 .498s-.449 .723-.449 1.172l.576 30.316c0 .43 .166 .82 .498 1.172 .332 .332 .723 .488 1.172 .488h6.66zm2.051 6.27c0-.508-.137-.918-.43-1.27-.283-.332-.684-.488-1.191-.488h-7.373c-.449 0-.84 .156-1.172 .469-.342 .332-.508 .762-.508 1.289v7.051c0 .508 .166 .918 .508 1.211 .332 .312 .723 .449 1.172 .449h7.373c1.113 0 1.66-.547 1.621-1.66v-7.051z" fill="#ffffff"/></svg>