<svg xmlns="http://www.w3.org/2000/svg" width="76.309" height="76.488" viewBox="0 0 76.309 76.488" enable-background="new 0 0 76.309 76.488"><path d="M76.309 25.322c-.322 2.93-1.123 5.664-2.422 8.184-1.289 2.52-2.949 4.707-4.98 6.553-2.021 1.855-4.336 3.311-6.934 4.365-2.608 1.045-5.391 1.576-8.36 1.576-1.943 0-3.975-.273-6.074-.814l-29.014 29.056c-1.504 1.504-3.291 2.246-5.361 2.246-2.168 0-4.004-.742-5.508-2.246-.732-.723-1.543-1.484-2.412-2.266-.879-.781-1.709-1.621-2.49-2.5s-1.436-1.797-1.963-2.793-.791-2.07-.791-3.261c0-1.055 .195-2.051 .596-2.988s.947-1.758 1.65-2.461l29.16-29.164c-.518-2.1-.791-4.043-.82-5.84 0-3.125 .605-6.094 1.816-8.926 1.221-2.822 2.852-5.264 4.912-7.324 2.061-2.06 4.473-3.691 7.256-4.902 2.774-1.212 5.723-1.817 8.858-1.817 2.998 0 5.889 .566 8.682 1.719s5.264 2.764 7.402 4.834l-21.162 7.754-2.061 11.299 8.809 7.324 21.211-7.608zm-63.145 41.928c1.055 0 1.943-.371 2.676-1.113 .742-.762 1.104-1.66 1.104-2.715 0-1.113-.371-2.031-1.123-2.754s-1.641-1.074-2.656-1.074c-1.123 0-2.031 .371-2.754 1.094-.723 .742-1.074 1.66-1.074 2.734 0 1.055 .352 1.953 1.074 2.715 .722 .742 1.63 1.113 2.753 1.113z" fill="#f7f8fa"/></svg>