<svg xmlns="http://www.w3.org/2000/svg" width="76.445" height="76.481" viewBox="0 0 76.445 76.481" enable-background="new 0 0 76.445 76.481"><path d="M75.586 66.598c.576 .566 .859 1.309 .859 2.207 0 .879-.283 1.66-.859 2.285l-4.502 4.512c-.635 .566-1.406 .859-2.295 .879-.898 .02-1.631-.273-2.207-.879l-17.178-17.149c-2.49 1.699-5.225 2.988-8.193 3.906-2.969 .898-6.074 1.367-9.336 1.367-4.365 0-8.486-.84-12.344-2.5-3.867-1.66-7.256-3.926-10.176-6.797s-5.215-6.23-6.875-10.098c-1.66-3.862-2.48-8.013-2.48-12.446 0-4.375 .82-8.486 2.48-12.354 1.66-3.857 3.955-7.236 6.875-10.146 2.92-2.9 6.299-5.195 10.146-6.875 3.849-1.67 7.97-2.51 12.374-2.51 4.375 0 8.506 .84 12.402 2.51 3.896 1.68 7.275 3.975 10.146 6.875 2.871 2.91 5.137 6.289 6.797 10.146 1.66 3.867 2.49 7.979 2.49 12.354 0 3.252-.449 6.377-1.357 9.361-.918 2.988-2.217 5.703-3.906 8.164l17.139 17.188zm-62.861-34.713c0 2.676 .518 5.176 1.533 7.49 1.025 2.32 2.393 4.332 4.121 6.031 1.719 1.719 3.75 3.066 6.084 4.082 2.324 .996 4.795 1.504 7.412 1.504s5.098-.508 7.451-1.504c2.344-1.016 4.355-2.363 6.055-4.082 1.689-1.699 3.047-3.711 4.062-6.031 1.025-2.314 1.533-4.814 1.533-7.49 0-2.617-.508-5.078-1.533-7.393-1.016-2.314-2.373-4.346-4.062-6.084-1.699-1.738-3.711-3.115-6.055-4.121-2.354-.996-4.834-1.504-7.451-1.504s-5.088 .508-7.412 1.504c-2.334 1.006-4.365 2.383-6.084 4.121-1.729 1.738-3.096 3.77-4.121 6.084-1.016 2.315-1.533 4.776-1.533 7.393zm30.312-3.164c1.045 0 1.572 .527 1.572 1.582v3.164c0 .449-.146 .83-.449 1.143-.303 .322-.684 .479-1.123 .479h-22.363c-.449 0-.82-.156-1.123-.479-.303-.312-.459-.693-.459-1.143v-3.164c0-1.055 .527-1.582 1.582-1.582h22.363z" fill="#ffffff"/></svg>